<svg version="1.1" id="Capa_1" xmlns="http://www.w3.org/2000/svg" xmlns:xlink="http://www.w3.org/1999/xlink" x="0px" y="0px"
	 width="185px" height="185px" viewBox="0 0 300 300" enable-background="new 0 0 300 300" xml:space="preserve">
<g>
	<path fill="#C69C6D" d="M288.138,150.002c0,76.489-62.008,138.497-138.501,138.497c-76.488,0-138.496-62.008-138.496-138.497
		c0-76.493,62.008-138.501,138.496-138.501C226.13,11.501,288.138,73.509,288.138,150.002z"/>
	<g>
		<path fill="#FFFFFF" d="M211.073,88.572c-33.876-33.879-88.993-33.879-122.862-0.007c-33.876,33.873-33.873,88.989,0.004,122.869
			c33.865,33.87,88.982,33.87,122.855-0.01C244.943,177.555,244.939,122.441,211.073,88.572z M201.594,201.952
			c-28.645,28.644-75.262,28.647-103.906,0.002c-28.654-28.65-28.651-75.267,0-103.915c28.645-28.645,75.258-28.645,103.909,0.004
			C230.245,126.69,230.242,173.307,201.594,201.952z"/>
		<path fill="none" stroke="#FFFFFF" stroke-width="5" stroke-linecap="round" stroke-miterlimit="10" d="M195.74,139.514
			c0,0-12.041,10.177-29.265,0.386"/>
		<path fill="none" stroke="#FFFFFF" stroke-width="5" stroke-linecap="round" stroke-miterlimit="10" d="M136.589,139.514
			c0,0-12.041,10.177-29.265,0.386"/>
		<path fill="#FFFFFF" d="M127.388,175c0,14,11.954,22.182,26.7,22.182S180.789,189,180.789,175H127.388z"/>
	</g>
</g>
</svg>
