<svg version="1.1" id="Capa_1" xmlns="http://www.w3.org/2000/svg" xmlns:xlink="http://www.w3.org/1999/xlink" x="0px" y="0px"
	 width="185px" height="185px" viewBox="0 0 300 300" enable-background="new 0 0 300 300" xml:space="preserve">
<g>
	<path fill="#08C2F4" d="M288.499,150.002c0,76.492-62.007,138.497-138.5,138.497c-76.489,0-138.498-62.005-138.498-138.497
		c0-76.493,62.009-138.501,138.498-138.501C226.492,11.501,288.499,73.509,288.499,150.002z"/>
	<g id="Forma_1_13_">
		<g>
			<path fill="#FFFFFF" d="M163.638,135.492c2.263,0,4.095-1.833,4.095-4.094c0-3.34,2.72-6.059,6.063-6.059
				c3.343,0,6.061,2.719,6.061,6.059c0,2.261,1.833,4.094,4.093,4.094c2.262,0,4.094-1.833,4.094-4.094
				c0-7.857-6.393-14.248-14.247-14.248c-7.857,0-14.252,6.393-14.252,14.248C159.544,133.657,161.378,135.492,163.638,135.492z
				 M118.242,135.448c2.262,0,4.094-1.833,4.094-4.093c0-3.341,2.72-6.061,6.063-6.061c3.343,0,6.061,2.72,6.061,6.061
				c0,2.26,1.832,4.093,4.093,4.093s4.094-1.833,4.094-4.093c0-7.858-6.393-14.249-14.247-14.249
				c-7.857,0-14.251,6.393-14.251,14.249C114.148,133.615,115.981,135.448,118.242,135.448z M185.084,161.615
				c-2.49-1.077-5.382,0.068-6.46,2.558c-4.736,10.953-15.934,18.034-28.524,18.034c-12.883,0-24.147-7.073-28.694-18.021
				c-0.783-1.89-2.612-3.029-4.538-3.029c-0.629,0-1.266,0.121-1.882,0.377c-2.508,1.04-3.695,3.915-2.653,6.42
				c6.075,14.626,20.898,24.077,37.768,24.075c16.513,0,31.251-9.403,37.546-23.954
				C188.719,165.584,187.574,162.693,185.084,161.615z M211.435,88.572c-33.876-33.877-88.993-33.877-122.862-0.007
				c-33.876,33.873-33.873,88.992,0.003,122.869c33.866,33.87,88.983,33.87,122.856-0.008
				C245.304,177.555,245.301,122.441,211.435,88.572z M201.956,201.953c-28.646,28.646-75.261,28.647-103.907,0.001
				c-28.652-28.648-28.65-75.267,0-103.915c28.646-28.643,75.258-28.645,103.909,0.005
				C230.606,126.69,230.603,173.309,201.956,201.953z"/>
		</g>
	</g>
</g>
</svg>
