<svg version="1.1" id="Capa_1" xmlns="http://www.w3.org/2000/svg" xmlns:xlink="http://www.w3.org/1999/xlink" x="0px" y="0px"
	 width="185px" height="185px" viewBox="0 0 300 300" enable-background="new 0 0 300 300" xml:space="preserve">
<g>
	<path fill="#F2D233" d="M288.499,150.002c0,76.494-62.007,138.497-138.501,138.497c-76.49,0-138.497-62.003-138.497-138.497
		c0-76.493,62.007-138.501,138.497-138.501C226.492,11.501,288.499,73.509,288.499,150.002z"/>
	<g>
		<path fill="#FFFFFF" d="M211.434,88.572c-33.876-33.876-88.994-33.876-122.863-0.007c-33.875,33.873-33.873,88.993,0.004,122.869
			c33.865,33.87,88.983,33.87,122.855-0.007C245.303,177.555,245.3,122.441,211.434,88.572z M201.955,201.954
			c-28.646,28.646-75.262,28.649-103.908,0c-28.652-28.647-28.649-75.267,0-103.915c28.646-28.642,75.258-28.645,103.91,0.007
			C230.604,126.69,230.602,173.311,201.955,201.954z"/>
		<circle fill="#FFFFFF" cx="128.982" cy="133.093" r="8.626"/>
		<circle fill="#FFFFFF" cx="174.988" cy="133.093" r="8.626"/>
		<path fill="none" stroke="#FFFFFF" stroke-width="5" stroke-linecap="round" stroke-miterlimit="10" d="M110.908,122.002
			c0,0,12.733-0.82,20.539-11.501"/>
		<path fill="none" stroke="#FFFFFF" stroke-width="5" stroke-linecap="round" stroke-miterlimit="10" d="M190.598,110.501
			c0,0-12.734-0.822-20.539-11.502"/>
		<path fill="#FFFFFF" d="M108.443,183h86.366c0,0-5.019-24.235-41.593-24.235C115.268,158.765,108.443,183,108.443,183z"/>
	</g>
</g>
</svg>
