<svg version="1.1" id="Capa_1" xmlns="http://www.w3.org/2000/svg" xmlns:xlink="http://www.w3.org/1999/xlink" x="0px" y="0px"
	 width="185px" height="185px" viewBox="0 0 300 300" enable-background="new 0 0 300 300" xml:space="preserve">
<g>
	<path fill="#E256A6" d="M288.499,150.002c0,76.492-62.009,138.497-138.497,138.497c-76.493,0-138.501-62.005-138.501-138.497
		c0-76.493,62.008-138.501,138.501-138.501C226.49,11.501,288.499,73.509,288.499,150.002z"/>
	<g>
		<g>
			<path fill="#FFFFFF" d="M211.435,88.572c-33.876-33.877-88.993-33.877-122.862-0.007c-33.876,33.873-33.873,88.992,0.003,122.869
				c33.866,33.87,88.983,33.87,122.855-0.008C245.304,177.555,245.301,122.441,211.435,88.572z M201.955,201.953
				c-28.646,28.646-75.262,28.647-103.906,0.001c-28.655-28.648-28.651-75.267,0-103.915c28.645-28.643,75.258-28.645,103.909,0.005
				C230.606,126.69,230.603,173.309,201.955,201.953z"/>
		</g>
		<g id="_x35_wXZvK.tif_5_">
			<g>
				<path fill-rule="evenodd" clip-rule="evenodd" fill="#FFFFFF" d="M116.536,157.697c-0.545-0.507-1.08-1.01-1.62-1.506
					c-1.721-1.586-3.484-3.12-5.25-4.65c-1.22-1.053-2.439-2.103-3.602-3.219c-0.858-0.828-1.678-1.694-2.39-2.658
					c-1.023-1.379-1.708-2.909-2.029-4.596c-0.115-0.592-0.198-1.19-0.228-1.793c-0.025-0.551-0.057-1.1-0.048-1.65
					c0.055-2.996,1.724-5.698,4.534-6.957c0.71-0.316,1.451-0.52,2.224-0.617c1.396-0.178,2.752-0.02,4.057,0.516
					c1.066,0.436,2,1.081,2.815,1.893c0.571,0.566,1.059,1.197,1.479,1.88c0.012,0.027,0.031,0.052,0.054,0.091
					c0.022-0.037,0.039-0.062,0.055-0.088c0.668-1.082,1.492-2.02,2.516-2.771c1.079-0.791,2.272-1.307,3.599-1.504
					c0.696-0.104,1.393-0.109,2.092-0.034c1.206,0.134,2.334,0.512,3.357,1.165c1.626,1.043,2.698,2.507,3.238,4.359
					c0.217,0.737,0.313,1.494,0.313,2.264c0,0.649-0.029,1.298-0.09,1.944c-0.221,2.403-1.081,4.547-2.615,6.417
					c-0.812,0.988-1.701,1.902-2.655,2.756c-1.431,1.278-2.877,2.542-4.325,3.805c-1.835,1.601-3.648,3.216-5.413,4.893
					C116.585,157.653,116.562,157.675,116.536,157.697z"/>
			</g>
		</g>
		<g id="_x35_wXZvK.tif_4_">
			<g>
				<path fill-rule="evenodd" clip-rule="evenodd" fill="#FFFFFF" d="M183.903,157.697c-0.545-0.507-1.082-1.01-1.621-1.506
					c-1.719-1.586-3.484-3.12-5.25-4.65c-1.219-1.053-2.439-2.103-3.6-3.219c-0.86-0.828-1.68-1.694-2.392-2.658
					c-1.023-1.379-1.707-2.909-2.028-4.596c-0.116-0.592-0.199-1.19-0.229-1.793c-0.025-0.551-0.057-1.1-0.048-1.65
					c0.056-2.996,1.724-5.698,4.534-6.957c0.71-0.316,1.451-0.52,2.225-0.617c1.396-0.178,2.751-0.02,4.057,0.516
					c1.065,0.436,2,1.081,2.814,1.893c0.571,0.566,1.059,1.197,1.479,1.88c0.013,0.027,0.031,0.052,0.054,0.091
					c0.022-0.037,0.039-0.062,0.055-0.088c0.668-1.082,1.492-2.02,2.516-2.771c1.079-0.791,2.272-1.307,3.599-1.504
					c0.696-0.104,1.393-0.109,2.093-0.034c1.205,0.134,2.332,0.512,3.356,1.165c1.626,1.043,2.698,2.507,3.238,4.359
					c0.218,0.737,0.313,1.494,0.313,2.264c0,0.649-0.029,1.298-0.09,1.944c-0.221,2.403-1.081,4.547-2.615,6.417
					c-0.812,0.988-1.701,1.902-2.653,2.756c-1.433,1.278-2.879,2.542-4.326,3.805c-1.836,1.601-3.649,3.216-5.415,4.893
					C183.951,157.653,183.929,157.675,183.903,157.697z"/>
			</g>
		</g>
		<path fill="none" stroke="#FFFFFF" stroke-width="5" stroke-linecap="round" stroke-miterlimit="10" d="M105.292,171.705
			c0,0,46.417,14.377,91.602-1.643"/>
		<path fill="none" stroke="#FFFFFF" stroke-width="5" stroke-linecap="round" stroke-miterlimit="10" d="M112.394,113.684
			c0,0-8.867,10.311-20.593,9.29"/>
		<path fill="none" stroke="#FFFFFF" stroke-width="5" stroke-linecap="round" stroke-miterlimit="10" d="M188.739,113.684
			c0,0,8.87,10.311,20.597,9.29"/>
	</g>
</g>
</svg>
