<svg version="1.1" id="Capa_1" xmlns="http://www.w3.org/2000/svg" xmlns:xlink="http://www.w3.org/1999/xlink" x="0px" y="0px"
	 width="185px" height="185px" viewBox="0 0 300 300" enable-background="new 0 0 300 300" xml:space="preserve">
<g>
	<path fill="#5FCEC3" d="M288.774,150.125c0,76.492-62.007,138.497-138.499,138.497c-76.49,0-138.499-62.005-138.499-138.497
		c0-76.493,62.009-138.501,138.499-138.501C226.768,11.624,288.774,73.632,288.774,150.125z"/>
	<g>
		<g>
			<path fill="#FFFFFF" d="M211.709,88.695c-33.877-33.877-88.994-33.877-122.863-0.007c-33.876,33.873-33.873,88.992,0.003,122.869
				c33.866,33.87,88.983,33.87,122.858-0.008C245.58,177.678,245.576,122.564,211.709,88.695z M202.231,202.076
				c-28.647,28.646-75.261,28.647-103.909,0.001c-28.651-28.648-28.648-75.267,0-103.915c28.648-28.643,75.258-28.645,103.91,0.005
				C230.881,126.813,230.879,173.432,202.231,202.076z"/>
		</g>
		<ellipse fill="#FFFFFF" cx="126.178" cy="138.351" rx="6.777" ry="12.528"/>
		<ellipse fill="#FFFFFF" cx="175.471" cy="138.351" rx="6.777" ry="12.528"/>
		<path fill="none" stroke="#FFFFFF" stroke-width="5" stroke-linecap="round" stroke-miterlimit="10" d="M98.743,113.922
			c0,0,8.866-10.309,20.593-9.288"/>
		<path fill="none" stroke="#FFFFFF" stroke-width="5" stroke-linecap="round" stroke-miterlimit="10" d="M201.493,113.922
			c0,0-8.868-10.309-20.595-9.288"/>
		<path fill="#FFFFFF" d="M114.881,174c0,13,16.367,25.468,36.559,25.468c20.189,0,36.56-12.468,36.56-25.468H114.881z"/>
	</g>
</g>
</svg>
