<svg version="1.1" id="Capa_1" xmlns="http://www.w3.org/2000/svg" xmlns:xlink="http://www.w3.org/1999/xlink" x="0px" y="0px"
	 width="185px" height="185px" viewBox="0 0 300 300" enable-background="new 0 0 300 300" xml:space="preserve">
<g>
	<path fill="#EF5D30" d="M288.499,150.002c0,76.492-62.008,138.497-138.496,138.497c-76.493,0-138.502-62.005-138.502-138.497
		c0-76.493,62.009-138.501,138.502-138.501C226.491,11.501,288.499,73.509,288.499,150.002z"/>
	<g id="Forma_1_17_">
		<g>
			<path fill="#FFFFFF" d="M118.131,131.61c-1.776,1.827-2.872,4.317-2.872,7.066c0,5.608,4.549,10.157,10.153,10.157
				c5.605,0,10.152-4.549,10.152-10.157c0-2.859-1.185-5.437-3.085-7.282c-0.024-0.023-0.039-0.05-0.063-0.074l-15.481-15.483
				c-2.015-2.012-5.278-2.012-7.29,0c-2.013,2.013-2.013,5.276,0,7.289L118.131,131.61z M174.588,148.837
				c5.604,0,10.152-4.548,10.152-10.157c0-2.748-1.097-5.236-2.871-7.066l8.485-8.485c2.014-2.013,2.014-5.276,0.002-7.291
				c-2.014-2.011-5.277-2.011-7.288,0l-15.486,15.485c-0.022,0.022-0.038,0.051-0.061,0.075c-1.9,1.845-3.088,4.422-3.088,7.279
				C164.434,144.287,168.982,148.837,174.588,148.837z M178.955,157.049h-57.906c-7.675,0-13.896,6.222-13.896,13.896v15.968
				c0,7.675,6.221,13.896,13.896,13.896h57.906c7.674,0,13.894-6.222,13.894-13.896v-15.968
				C192.849,163.271,186.629,157.049,178.955,157.049z M126.953,195.4h-8.715c-2.125-1.535-3.72-3.755-4.462-6.339v-6.839h13.177
				V195.4z M126.953,175.635h-13.177v-6.833c0.742-2.585,2.337-4.808,4.462-6.344h8.715V175.635z M146.696,195.4h-13.153v-13.174
				h13.153V195.4z M146.696,175.635h-13.153v-13.177h13.153V175.635z M166.46,195.4h-13.152v-13.174h13.152V195.4z M166.46,175.635
				h-13.152v-13.177h13.152V175.635z M186.228,189.062c-0.745,2.584-2.339,4.802-4.461,6.339h-8.716v-13.174h13.177V189.062z
				 M186.228,175.635h-13.177v-13.177h8.716c2.122,1.536,3.716,3.759,4.461,6.344V175.635z M211.436,88.577
				c-33.877-33.881-88.993-33.881-122.864-0.012c-33.875,33.874-33.871,88.993,0.003,122.873
				c33.868,33.868,88.984,33.868,122.857-0.009C245.305,177.559,245.301,122.445,211.436,88.577z M201.956,201.957
				c-28.646,28.646-75.262,28.649-103.91,0.004c-28.651-28.652-28.648-75.271,0-103.918c28.646-28.646,75.258-28.648,103.912,0.003
				C230.606,126.692,230.604,173.311,201.956,201.957z"/>
		</g>
	</g>
</g>
</svg>
