<svg version="1.1" id="Capa_1" xmlns="http://www.w3.org/2000/svg" xmlns:xlink="http://www.w3.org/1999/xlink" x="0px" y="0px"
	 width="185px" height="185px" viewBox="0 0 300 300" enable-background="new 0 0 300 300" xml:space="preserve">
<g>
	<circle fill="#A88DC6" cx="149.656" cy="144.163" r="138.499"/>
	<g>
		<g>
			<g>
				<path fill="#FFFFFF" d="M211.438,84.026c-33.954-33.958-89.203-33.958-123.151-0.007c-33.955,33.952-33.951,89.203,0.002,123.16
					c33.946,33.948,89.195,33.948,123.147-0.008C245.389,173.221,245.385,117.976,211.438,84.026z M201.94,197.676
					c-28.716,28.713-75.439,28.717-104.155,0.003c-28.721-28.72-28.717-75.446,0-104.163c28.716-28.711,75.436-28.713,104.155,0.004
					C230.657,122.236,230.654,168.963,201.94,197.676z"/>
			</g>
		</g>
	</g>
	<path fill="none" stroke="#FFFFFF" stroke-width="5" stroke-linecap="round" stroke-miterlimit="10" d="M124.105,106.854
		c0,0,4.381-6.569,10.953-6.023"/>
	<path fill="none" stroke="#FFFFFF" stroke-width="5" stroke-linecap="round" stroke-miterlimit="10" d="M187.41,85.301
		c0,0,7.258-3.122,12.46,0.915"/>
	<g>
		<path fill="#FFFFFF" d="M228.308,138.12c0.017-0.044-0.138,0.46-0.412,1.169c-0.276,0.717-0.71,1.739-1.347,2.985
			c-0.631,1.247-1.495,2.699-2.566,4.313c-1.08,1.605-2.441,3.311-4.003,5.109c-1.608,1.751-3.454,3.557-5.532,5.324
			c-2.111,1.716-4.417,3.451-6.965,4.969c-1.251,0.804-2.594,1.48-3.927,2.223c-1.369,0.66-2.747,1.356-4.173,1.959
			c-1.436,0.578-2.873,1.191-4.356,1.678l-2.215,0.771l-2.247,0.665c-2.991,0.908-6.04,1.565-9.05,2.072
			c-1.499,0.302-3.002,0.447-4.479,0.657c-1.476,0.229-2.941,0.319-4.382,0.422c-0.72,0.052-1.433,0.104-2.14,0.154
			c-0.706,0.02-1.406,0.04-2.099,0.06c-1.383,0.019-2.736,0.12-4.049,0.065c-1.312-0.037-2.589-0.073-3.824-0.109
			c-1.232-0.029-2.417-0.154-3.557-0.223c-1.137-0.092-2.228-0.167-3.259-0.285c-1.028-0.129-2.005-0.251-2.922-0.365
			c-0.915-0.123-1.771-0.239-2.562-0.346c-0.786-0.14-1.508-0.268-2.159-0.383c-2.595-0.498-4.077-0.783-4.077-0.783
			c-1.358-0.261-2.248-1.573-1.987-2.932c0.233-1.213,1.306-2.053,2.5-2.031l0.103,0.002c0,0,1.463,0.024,4.021,0.066
			c0.637,0.02,1.342,0.04,2.109,0.062c0.767-0.005,1.596-0.01,2.481-0.016c0.884,0.003,1.823,0.007,2.814,0.011
			c0.989-0.001,2.028-0.072,3.11-0.095c1.082-0.039,2.21-0.024,3.37-0.108c1.159-0.077,2.358-0.156,3.59-0.238
			c1.233-0.051,2.484-0.223,3.77-0.331c0.642-0.062,1.29-0.124,1.944-0.187c0.648-0.093,1.305-0.187,1.965-0.28
			c2.645-0.361,5.357-0.789,8.073-1.376c1.352-0.315,2.73-0.571,4.07-0.973c1.352-0.36,2.719-0.685,4.044-1.13l2.002-0.621
			l1.96-0.715c1.317-0.447,2.574-1.012,3.836-1.536c2.509-1.076,4.924-2.246,7.171-3.523c2.281-1.229,4.359-2.612,6.31-3.956
			c1.954-1.342,3.686-2.764,5.26-4.11c1.572-1.35,2.911-2.696,4.1-3.898c1.164-1.22,2.115-2.34,2.896-3.266
			c0.753-0.941,1.322-1.692,1.693-2.202c0.363-0.525,0.506-0.699,0.522-0.743c0.56-1.263,2.036-1.833,3.298-1.274
			C228.296,135.382,228.866,136.857,228.308,138.12z"/>
	</g>
	<path fill="#FFFFFF" d="M150.395,169.563"/>
	
		<ellipse transform="matrix(0.9101 -0.4144 0.4144 0.9101 -42.0769 72.5948)" fill="#FFFFFF" cx="146.288" cy="133.282" rx="10.407" ry="13.279"/>
	<path fill="#FFFFFF" d="M211.046,111.232c0.644,6.711-3.097,12.559-8.355,13.06c-5.257,0.503-10.04-4.532-10.683-11.243
		c-0.642-6.711,3.099-12.561,8.354-13.061C205.621,99.485,210.404,104.521,211.046,111.232z"/>
</g>
</svg>
