<svg version="1.1" id="Capa_1" xmlns="http://www.w3.org/2000/svg" xmlns:xlink="http://www.w3.org/1999/xlink" x="0px" y="0px"
	 width="185px" height="185px" viewBox="0 0 300 300" enable-background="new 0 0 300 300" xml:space="preserve">
<g>
	<circle fill="#535DD3" cx="149.73" cy="150.001" r="138.499"/>
	<g id="Forma_1_15_">
		<g>
			<path fill="#FFFFFF" d="M117.154,137.078c1.029,1.03,2.4,1.601,3.857,1.601s2.828-0.57,3.857-1.601l2.881-2.878l2.879,2.878
				c2.062,2.066,5.654,2.063,7.715,0c1.031-1.03,1.598-2.4,1.598-3.86c0-1.457-0.566-2.826-1.602-3.854l-2.877-2.883l2.881-2.881
				c1.033-1.031,1.598-2.401,1.598-3.857c0-1.458-0.566-2.828-1.598-3.854c-0.1-0.101-0.205-0.189-0.273-0.241
				c-2.092-1.829-5.48-1.727-7.441,0.241l-2.881,2.879l-2.881-2.879c-2.062-2.063-5.637-2.074-7.727,0.016
				c-0.096,0.1-0.186,0.198-0.225,0.26c-1.889,2.15-1.783,5.421,0.234,7.439l2.883,2.885l-2.883,2.879
				C115.027,131.498,115.027,134.957,117.154,137.078z M211.432,88.572c-33.875-33.88-88.992-33.88-122.859-0.007
				c-33.877,33.873-33.875,88.99,0.004,122.869c33.863,33.869,88.98,33.869,122.854-0.01
				C245.301,177.556,245.299,122.441,211.432,88.572z M201.957,201.952c-28.648,28.645-75.266,28.647-103.91,0.002
				c-28.65-28.65-28.648-75.267,0-103.915c28.645-28.646,75.258-28.646,103.912,0.003C230.604,126.69,230.6,173.307,201.957,201.952
				z M163.195,137.053c1.029,1.033,2.4,1.602,3.857,1.602s2.826-0.568,3.861-1.602l2.879-2.879l2.879,2.879
				c2.061,2.066,5.654,2.063,7.715,0c1.029-1.03,1.598-2.401,1.598-3.86c0-1.454-0.568-2.824-1.602-3.854l-2.879-2.879l2.883-2.885
				c1.031-1.027,1.6-2.397,1.6-3.858c-0.002-1.453-0.57-2.823-1.6-3.854c-0.104-0.1-0.209-0.189-0.273-0.237
				c-2.092-1.829-5.482-1.726-7.441,0.237l-2.883,2.883l-2.881-2.883c-2.061-2.06-5.637-2.072-7.729,0.02
				c-0.096,0.097-0.184,0.198-0.221,0.257c-1.891,2.153-1.789,5.421,0.234,7.439l2.881,2.884l-2.881,2.883
				C161.064,131.473,161.064,134.931,163.195,137.053z M189.053,175.464c-2.07,0-6.23-1.596-8.023-4.099
				c-0.309-0.427-0.803-0.684-1.332-0.684c-0.525,0-1.023,0.257-1.33,0.684c-1.834,2.567-4.836,4.099-8.025,4.099
				c-3.182,0-6.184-1.531-8.018-4.099c-0.617-0.86-2.053-0.86-2.664,0c-1.836,2.567-4.834,4.099-8.023,4.099
				c-3.188,0-6.188-1.531-8.029-4.099c-0.305-0.427-0.803-0.684-1.33-0.684h-0.002c-0.529,0-1.023,0.257-1.332,0.687
				c-1.83,2.564-4.826,4.096-8.018,4.096c-3.186,0-6.184-1.531-8.016-4.099c-0.307-0.427-0.803-0.688-1.328-0.688h-0.004
				c-0.527,0-1.023,0.257-1.33,0.685c-1.795,2.502-5.953,4.102-8.029,4.102c-0.906,0-1.639,0.73-1.639,1.64v6.716
				c0,0.906,0.732,1.637,1.635,1.641c2.729,0,6.711-1.527,9.318-3.932c2.443,2.49,5.828,3.932,9.391,3.932
				c3.545,0,6.916-1.426,9.354-3.89c2.443,2.464,5.812,3.89,9.355,3.89c3.547,0,6.916-1.426,9.355-3.89
				c2.441,2.464,5.811,3.89,9.354,3.89c3.566,0,6.955-1.441,9.396-3.932c2.607,2.404,6.586,3.932,9.314,3.932
				c0.904,0,1.639-0.734,1.639-1.637v-6.72C190.691,176.198,189.957,175.464,189.053,175.464z"/>
		</g>
	</g>
</g>
</svg>
