<svg version="1.1" id="Capa_1" xmlns="http://www.w3.org/2000/svg" xmlns:xlink="http://www.w3.org/1999/xlink" x="0px" y="0px"
	 width="185px" height="185px" viewBox="0 0 300 300" enable-background="new 0 0 300 300" xml:space="preserve">
<g>
	<path fill="#A7CE49" d="M288.499,150.002c0,76.494-62.007,138.497-138.501,138.497c-76.49,0-138.497-62.003-138.497-138.497
		c0-76.493,62.007-138.501,138.497-138.501C226.492,11.501,288.499,73.509,288.499,150.002z"/>
	<g>
		<path fill="#FFFFFF" d="M210.792,88.572c-33.875-33.876-88.993-33.876-122.862-0.007c-33.876,33.873-33.873,88.993,0.003,122.869
			c33.866,33.87,88.983,33.87,122.855-0.007C244.662,177.555,244.658,122.441,210.792,88.572z M201.316,201.954
			c-28.648,28.646-75.261,28.649-103.91,0c-28.651-28.647-28.648-75.267,0-103.915c28.648-28.642,75.258-28.645,103.91,0.007
			C229.964,126.69,229.96,173.311,201.316,201.954z"/>
		<circle fill="#FFFFFF" cx="128.343" cy="142.951" r="8.626"/>
		<circle fill="#FFFFFF" cx="174.349" cy="142.951" r="8.626"/>
		<path fill="none" stroke="#FFFFFF" stroke-width="5" stroke-linecap="round" stroke-miterlimit="10" d="M193.495,131.379
			c0,0-12.759-0.23-21.049-10.539"/>
		<path fill="none" stroke="#FFFFFF" stroke-width="5" stroke-linecap="round" stroke-miterlimit="10" d="M106.723,131.379
			c0,0,12.756-0.23,21.049-10.539"/>
		<path fill="none" stroke="#FFFFFF" stroke-width="5" stroke-linecap="round" stroke-miterlimit="10" d="M104.816,168.58
			c8.216,12.599,31.771,7.673,43.272,4.936c14.239-3.829,36.697-12.041,48.747,1.104"/>
	</g>
</g>
</svg>
