
<svg version="1.1" id="Capa_1" xmlns="http://www.w3.org/2000/svg" xmlns:xlink="http://www.w3.org/1999/xlink" x="0px" y="0px"
	 width="300px" height="300px" viewBox="0 0 300 300" enable-background="new 0 0 300 300" xml:space="preserve">
<g>
	<g id="Forma_1">
		<g>
			<path fill="#FFFFFF" d="M35.093,15.531c-18.276,0-33.092,14.79-33.092,33.035c0,18.245,14.815,33.035,33.092,33.035
				s33.092-14.79,33.092-33.035C68.185,30.321,53.37,15.531,35.093,15.531z M35.093,116.966c-18.276,0-33.092,14.79-33.092,33.035
				c0,18.246,14.815,33.035,33.092,33.035S68.185,168.246,68.185,150C68.185,131.756,53.37,116.966,35.093,116.966z M35.093,218.4
				c-18.276,0-33.092,14.791-33.092,33.035s14.815,33.033,33.092,33.033s33.092-14.789,33.092-33.033S53.37,218.4,35.093,218.4z
				 M293.766,19.615H98.176c-2.334,0-4.234,1.896-4.234,4.226v49.45c0,2.331,1.899,4.226,4.234,4.226h195.589
				c2.334,0,4.232-1.896,4.232-4.226v-49.45C297.998,21.512,296.1,19.615,293.766,19.615z M293.766,121.05H98.176
				c-2.334,0-4.234,1.896-4.234,4.226v49.451c0,2.33,1.899,4.225,4.234,4.225h195.589c2.334,0,4.232-1.895,4.232-4.225v-49.451
				C297.998,122.945,296.1,121.05,293.766,121.05z M293.766,222.484H98.176c-2.334,0-4.234,1.896-4.234,4.227v49.449
				c0,2.33,1.899,4.227,4.234,4.227h195.589c2.334,0,4.232-1.896,4.232-4.227v-49.449
				C297.998,224.381,296.1,222.484,293.766,222.484z"/>
		</g>
	</g>
</g>
</svg>
