<?xml version="1.0" encoding="utf-8"?>
<!-- Generator: Adobe Illustrator 16.0.0, SVG Export Plug-In . SVG Version: 6.00 Build 0)  -->
<!DOCTYPE svg PUBLIC "-//W3C//DTD SVG 1.1//EN" "http://www.w3.org/Graphics/SVG/1.1/DTD/svg11.dtd">
<svg version="1.1" id="Capa_1" xmlns="http://www.w3.org/2000/svg" xmlns:xlink="http://www.w3.org/1999/xlink" x="0px" y="0px"
	 width="300px" height="300px" viewBox="0 0 300 300" enable-background="new 0 0 300 300" xml:space="preserve">
<g id="Forma_1">
	<g>
		<path fill="#FFFFFF" d="M247.81,121.458h-5.779v-27.07c0-50.068-39.7-91.893-89.32-92.786c-1.354-0.024-4.065-0.024-5.42,0
			C97.669,2.495,57.97,44.319,57.97,94.388v27.07h-5.78c-8.906,0-16.171,9.198-16.171,20.557v135.771
			c0,11.348,7.265,20.631,16.172,20.631H247.81c8.907,0,16.172-9.283,16.172-20.631V142.015
			C263.98,130.655,256.717,121.458,247.81,121.458z M168.327,209.763v41.024c0,4.698-3.93,8.673-8.629,8.673h-19.396
			c-4.698,0-8.629-3.975-8.629-8.673v-41.024c-4.556-4.488-7.208-10.694-7.208-17.56c0-13.011,10.048-24.191,22.826-24.707
			c1.353-0.055,4.065-0.055,5.42,0c12.776,0.516,22.825,11.696,22.825,24.707C175.535,199.068,172.883,205.274,168.327,209.763z
			 M203.939,121.458H96.06v-27.07c0-29.825,24.219-54.484,53.94-54.484c29.72,0,53.939,24.66,53.939,54.484V121.458z"/>
	</g>
</g>
</svg>
