<svg version="1.0" xmlns="http://www.w3.org/2000/svg" xmlns:xlink="http://www.w3.org/1999/xlink" x="0px" y="0px"
	 width="1999.999px" height="1308.909px" viewBox="0 0 1999.999 1308.909" enable-background="new 0 0 1999.999 1308.909"
	 xml:space="preserve">
<g id="Layer_1">
	<g>
		<defs>
			<path id="SVGID_1_" d="M1002.883,132.923v-0.019c-0.951,0-1.922,0-2.873,0C1000.961,132.904,1001.951,132.923,1002.883,132.923
				 M1002.883,132.904c280.883,0.911,530.28,135.388,688.118,343.216l107.412-78.046
				C1616.422,157.057,1327.969,0.942,1002.883,0.011V132.904z"/>
		</defs>
		<clipPath id="SVGID_2_">
			<use xlink:href="#SVGID_1_"  overflow="visible"/>
		</clipPath>
		
			<radialGradient id="SVGID_3_" cx="478.7499" cy="1263.6333" r="19.8139" gradientTransform="matrix(51.1535 0 0 -51.1535 -23499.6016 65644.25)" gradientUnits="userSpaceOnUse">
			<stop  offset="0" style="stop-color:#FBE908"/>
			<stop  offset="0.0118" style="stop-color:#FBE908"/>
			<stop  offset="0.7176" style="stop-color:#FBE908"/>
			<stop  offset="0.856" style="stop-color:#FAE70B"/>
			<stop  offset="0.906" style="stop-color:#F6E111"/>
			<stop  offset="0.9416" style="stop-color:#F0D719"/>
			<stop  offset="0.9704" style="stop-color:#E8C920"/>
			<stop  offset="0.9949" style="stop-color:#DEB826"/>
			<stop  offset="1" style="stop-color:#DBB427"/>
		</radialGradient>
		<rect x="1000.008" y="0.012" clip-path="url(#SVGID_2_)" fill="url(#SVGID_3_)" width="798.405" height="476.109"/>
	</g>
	<g>
		<defs>
			<path id="SVGID_4_" d="M43.393,1292.118c0.099,0.296,0.178,0.515,0.258,0.752c-0.079-0.258-0.158-0.495-0.238-0.752H43.393z
				 M0,999.981c0,101.625,15.217,199.744,43.413,292.137l126.432-41.055c-23.995-79.513-36.953-163.763-36.953-251.082
				c0-189.818,61.027-365.31,164.475-508.108c-0.099,0.118-0.198,0.258-0.297,0.395L189.56,414.161
				C70.339,578.796,0,781.175,0,999.981"/>
		</defs>
		<clipPath id="SVGID_5_">
			<use xlink:href="#SVGID_4_"  overflow="visible"/>
		</clipPath>
		
			<radialGradient id="SVGID_6_" cx="479.2111" cy="1263.662" r="19.8139" gradientTransform="matrix(50.6496 0 0 -50.6496 -23257.0078 65003.9805)" gradientUnits="userSpaceOnUse">
			<stop  offset="0" style="stop-color:#83BC41"/>
			<stop  offset="0.7176" style="stop-color:#83BC41"/>
			<stop  offset="0.8585" style="stop-color:#82B941"/>
			<stop  offset="0.9095" style="stop-color:#7DB240"/>
			<stop  offset="0.9459" style="stop-color:#76A73F"/>
			<stop  offset="0.9752" style="stop-color:#6C9A3E"/>
			<stop  offset="1" style="stop-color:#61893C"/>
		</radialGradient>
		<rect x="-0.001" y="414.161" clip-path="url(#SVGID_5_)" fill="url(#SVGID_6_)" width="297.368" height="878.709"/>
	</g>
	<g>
		<defs>
			<path id="SVGID_7_" d="M1699.838,487.969c-0.039-0.059-0.079-0.139-0.138-0.198
				C1699.739,487.83,1699.778,487.91,1699.838,487.969 M1699.858,487.988c0-0.019,0-0.019-0.021-0.019
				c105.173,143.533,167.349,320.53,167.349,512.012c0,88.291-13.256,173.491-37.805,253.737l126.333,41.055
				c28.73-93.204,44.285-192.156,44.285-294.792c0-220.688-71.568-424.672-192.671-590.079L1699.858,487.988z"/>
		</defs>
		<clipPath id="SVGID_8_">
			<use xlink:href="#SVGID_7_"  overflow="visible"/>
		</clipPath>
		
			<radialGradient id="SVGID_9_" cx="478.9334" cy="1263.8604" r="19.8139" gradientTransform="matrix(51.5059 0 0 -51.5059 -23667.8652 66091.2891)" gradientUnits="userSpaceOnUse">
			<stop  offset="0" style="stop-color:#E01E26"/>
			<stop  offset="0.0118" style="stop-color:#E01E26"/>
			<stop  offset="0.7176" style="stop-color:#E01E26"/>
			<stop  offset="0.8754" style="stop-color:#DE1E26"/>
			<stop  offset="0.9323" style="stop-color:#D61F26"/>
			<stop  offset="0.9727" style="stop-color:#C91F26"/>
			<stop  offset="1" style="stop-color:#BB2025"/>
		</radialGradient>
		<rect x="1699.699" y="409.902" clip-path="url(#SVGID_8_)" fill="url(#SVGID_9_)" width="300.3" height="884.871"/>
	</g>
	<g>
		<path fill="#010101" d="M136.575,557.464l65.089,33.189c1.248-2.417,2.517-4.854,3.785-7.213l-65.129-33.169
			C139.051,552.65,137.783,555.027,136.575,557.464 M297.048,492.257c2.893-4.003,5.805-8.005,8.758-11.928l-107.51-78.088
			C195.363,406.146,297.048,492.257,297.048,492.257 M313.672,314.467l51.675,51.675c1.902-1.902,3.844-3.785,5.786-5.707
			l-51.675-51.655C317.535,310.643,315.594,312.545,313.672,314.467 M694.991,78.878l22.588,69.507
			c2.576-0.851,5.172-1.704,7.767-2.515l-22.588-69.507C700.162,77.195,697.567,78.027,694.991,78.878 M428.057,216.447
			l42.957,59.106c2.16-1.605,4.339-3.19,6.578-4.776l-42.957-59.124C432.417,213.197,430.217,214.822,428.057,216.447
			 M150.385,711.677l-69.547-22.548c-0.852,2.536-1.704,5.132-2.536,7.688l69.527,22.569
			C148.661,716.828,149.513,714.233,150.385,711.677 M1885.154,853.782l72.123-11.413c-0.416-2.715-0.851-5.369-1.307-8.045
			l-72.182,11.413C1884.282,848.453,1884.679,851.088,1885.154,853.782 M1896.984,994.659h73.053c0-2.754-0.039-5.488-0.099-8.182
			h-73.053C1896.924,989.171,1896.984,991.905,1896.984,994.659 M43.41,1292.126c1.446,4.716,2.953,9.452,4.438,14.128
			l126.413-41.054c-1.506-4.717-2.972-9.412-4.399-14.128L43.41,1292.126z M116.028,847.165l-72.182-11.453
			c-0.475,2.654-0.931,5.35-1.347,8.045l72.202,11.413C115.117,852.494,115.533,849.819,116.028,847.165 M111.906,1126.382
			l-72.202,11.433c0.396,2.694,0.713,5.409,1.169,8.064l72.162-11.453C112.64,1131.792,112.283,1129.097,111.906,1126.382
			 M103.149,986.477H30.075c-0.039,2.694-0.099,5.429-0.099,8.182h73.074C103.05,991.905,103.089,989.171,103.149,986.477
			 M556.155,137.231l33.169,65.128c2.417-1.227,4.834-2.477,7.292-3.685l-33.228-65.109
			C560.99,134.754,558.572,136.002,556.155,137.231 M841.297,42.877l11.433,72.221c2.655-0.475,5.349-0.891,8.045-1.327
			l-11.453-72.243C846.666,41.985,843.991,42.441,841.297,42.877 M1851.333,716.769l69.488-22.588
			c-0.833-2.536-1.685-5.152-2.557-7.688l-69.547,22.548C1849.629,711.598,1850.5,714.233,1851.333,716.769 M1798.508,397.983
			l-107.51,78.146c3.011,3.923,5.944,7.846,8.856,11.849l107.471-78.067C1804.433,405.928,1801.481,401.925,1798.508,397.983
			 M1624.344,355.997c1.962,1.843,3.903,3.765,5.845,5.646l51.635-51.615c-1.923-1.942-3.864-3.805-5.806-5.686L1624.344,355.997z
			 M1886.78,1135.833l72.162,11.453c0.416-2.674,0.793-5.349,1.169-8.064l-72.182-11.453
			C1887.552,1130.484,1887.196,1133.179,1886.78,1135.833 M1824.94,1267.873l126.374,41.036c1.506-4.696,3.031-9.392,4.477-14.108
			l-126.413-41.074C1827.952,1258.462,1826.466,1263.158,1824.94,1267.873 M1857.811,546.626l-65.128,33.209
			c1.288,2.378,2.576,4.755,3.805,7.173l65.088-33.169C1860.368,551.421,1859.06,549.044,1857.811,546.626 M1130.482,112.503
			c2.694,0.357,5.349,0.733,8.024,1.169l11.433-72.182c-2.635-0.416-5.37-0.813-8.045-1.209L1130.482,112.503z M988.098,0.158
			v132.872c3.982-0.021,7.926-0.139,11.908-0.139c0.971,0,1.942,0.021,2.873,0.021c0,0-1.902-132.912-2.873-132.912
			C996.024,0,992.081,0.079,988.098,0.158 M1516.476,266.576c2.24,1.585,4.438,3.131,6.618,4.736l42.957-59.125
			c-2.179-1.585-4.359-3.171-6.618-4.736L1516.476,266.576z M1266.504,143.314c2.615,0.773,5.191,1.625,7.787,2.477l22.587-69.547
			c-2.576-0.832-5.151-1.704-7.766-2.477L1266.504,143.314z M1396.266,195.087c2.437,1.209,4.874,2.398,7.291,3.627l33.188-65.128
			c-2.417-1.229-4.874-2.438-7.291-3.606L1396.266,195.087z"/>
	</g>
</g>
<g id="Layer_2">
	<path fill="#1D1D1B" d="M895.247,1000.125c0-57.956,46.938-104.875,104.875-104.875c57.956,0,104.935,46.919,104.935,104.875
		c0,57.957-46.98,104.895-104.935,104.895C942.185,1105.02,895.247,1058.082,895.247,1000.125"/>
</g>
<g id="Layer_4">
	<polygon fill="#1D1D1B" points="1246.773,1243.602 594.834,493.625 620.097,472.087 504.166,417.777 536.205,543.616 
		564.797,519.204 1216.991,1269.479 	"/>
</g>
</svg>
