<svg version="1.1" xmlns="http://www.w3.org/2000/svg" xmlns:xlink="http://www.w3.org/1999/xlink" x="0px" y="0px"
	 width="100.94px" height="66.25px" viewBox="149.53 166.875 100.94 66.25" enable-background="new 149.53 166.875 100.94 66.25"
	 xml:space="preserve">
<g id="Layer_1">
	<g id="Capa_1">
		<g>
			<g>
				<path fill="#E14352" d="M244.109,217.629c0,4.53-0.677,8.9-1.935,13.015l6.042,1.801c1.416-4.687,2.181-9.662,2.181-14.816
					c0-16.918-8.213-31.9-20.836-41.122l-4.069,4.995C236.752,189.491,244.109,202.693,244.109,217.629z"/>
				<path d="M242.174,230.644c-0.069,0.224-0.14,0.448-0.213,0.671l6.045,1.802c0.071-0.224,0.141-0.448,0.21-0.672L242.174,230.644
					z"/>
				<path d="M225.492,181.501l4.069-4.995c-0.189-0.138-0.379-0.276-0.569-0.411l-4.076,5.003
					C225.11,181.231,225.301,181.366,225.492,181.501z"/>
			</g>
			<g>
				<path fill="#90C070" d="M156.521,217.629c0-14.667,7.097-27.662,18.015-35.691l-4.261-5.231
					c-12.47,9.238-20.566,24.126-20.566,40.923c0,5.111,0.752,10.044,2.147,14.697l6.523-1.945
					C157.172,226.343,156.521,222.063,156.521,217.629z"/>
				<path d="M175.104,181.525l-4.265-5.235c-0.19,0.137-0.377,0.276-0.565,0.416l4.261,5.231
					C174.724,181.799,174.913,181.661,175.104,181.525z"/>
				<path d="M158.379,230.381l-6.523,1.945c0.067,0.225,0.136,0.449,0.206,0.673l6.523-1.945
					C158.514,230.83,158.446,230.606,158.379,230.381z"/>
			</g>
			<g>
				<path fill="#E8D23C" d="M200.315,173.478c9.12,0,17.589,2.812,24.601,7.621l4.076-5.003c-8.187-5.808-18.168-9.221-28.939-9.221
					c-10.892,0-20.976,3.488-29.213,9.415l4.265,5.235C182.233,176.457,190.928,173.478,200.315,173.478z"/>
				<path d="M225.492,181.501l4.069-4.995c-0.189-0.138-0.379-0.276-0.569-0.411l-4.076,5.003
					C225.11,181.231,225.301,181.366,225.492,181.501z"/>
				<path d="M175.104,181.525l-4.265-5.235c-0.19,0.137-0.377,0.276-0.565,0.416l4.261,5.231
					C174.724,181.799,174.913,181.661,175.104,181.525z"/>
			</g>
			<g>
				<g>
					<path fill="#F39838" d="M240.267,187.055l-0.004,0.003c0.148,0.2,0.299,0.397,0.446,0.598
						C240.564,187.455,240.416,187.255,240.267,187.055z"/>
					<path fill="#F39838" d="M159.809,187.268c-0.063,0.086-0.124,0.172-0.188,0.259c0.064-0.086,0.13-0.17,0.193-0.256
						L159.809,187.268z"/>
					<path fill="#83BB26" d="M247.954,233.206c0.074-0.231,0.15-0.462,0.22-0.695l-0.003-0.002
						C248.1,232.742,248.029,232.975,247.954,233.206z"/>
					<path d="M156.706,195.139l3.273,1.681c0.063-0.124,0.127-0.245,0.19-0.366l-3.275-1.682
						C156.831,194.894,156.767,195.015,156.706,195.139z M165.61,182.821l2.599,2.62c0.096-0.097,0.193-0.193,0.291-0.291
						l-2.599-2.618C165.805,182.627,165.707,182.723,165.61,182.821z M160.535,188.303l2.925,2.243
						c0.082-0.109,0.166-0.217,0.25-0.328l-2.925-2.241C160.703,188.085,160.618,188.194,160.535,188.303z M184.784,170.879
						l1.135,3.525c0.129-0.044,0.259-0.087,0.389-0.128l-1.136-3.523C185.043,170.794,184.913,170.835,184.784,170.879z
						 M157.401,202.955l-3.497-1.145c-0.043,0.13-0.085,0.262-0.128,0.391l3.496,1.145
						C157.314,203.216,157.357,203.085,157.401,202.955z M244.622,210.158l3.628-0.58c-0.022-0.136-0.044-0.272-0.067-0.408
						l-3.628,0.58C244.579,209.886,244.6,210.022,244.622,210.158z M245.219,217.297h3.673c0-0.137-0.004-0.276-0.005-0.412h-3.674
						C245.214,217.021,245.217,217.16,245.219,217.297z M155.673,209.822l-3.63-0.58c-0.023,0.136-0.046,0.272-0.068,0.409
						l3.631,0.579C155.628,210.093,155.65,209.957,155.673,209.822z M155.466,223.976l-3.631,0.578
						c0.02,0.137,0.037,0.275,0.058,0.409l3.63-0.58C155.503,224.249,155.484,224.112,155.466,223.976z M155.027,216.885h-3.676
						c-0.001,0.137-0.004,0.275-0.005,0.412h3.675C155.022,217.16,155.024,217.021,155.027,216.885z M177.802,173.838l1.669,3.3
						c0.12-0.062,0.242-0.125,0.365-0.187l-1.67-3.3C178.044,173.712,177.923,173.774,177.802,173.838z M192.139,169.056
						l0.575,3.658c0.134-0.022,0.268-0.045,0.405-0.066l-0.576-3.66C192.408,169.008,192.273,169.032,192.139,169.056z
						 M199.669,168.126l0.085,3.703c0.136-0.004,0.271-0.009,0.409-0.012l-0.085-3.705
						C199.941,168.115,199.805,168.121,199.669,168.126z M242.923,203.214l3.494-1.146c-0.042-0.13-0.085-0.261-0.13-0.392
						l-3.495,1.145C242.836,202.951,242.881,203.083,242.923,203.214z M231.509,184.927c0.1,0.093,0.196,0.19,0.294,0.286
						l2.597-2.618c-0.096-0.097-0.194-0.192-0.292-0.288L231.509,184.927z M244.705,224.455l3.628,0.579
						c0.022-0.136,0.041-0.271,0.059-0.407l-3.628-0.58C244.743,224.184,244.725,224.319,244.705,224.455z M243.248,194.589
						l-3.274,1.682c0.064,0.122,0.129,0.243,0.19,0.366l3.274-1.681C243.376,194.832,243.312,194.711,243.248,194.589z
						 M206.679,172.583c0.134,0.019,0.269,0.039,0.404,0.06l0.576-3.659c-0.135-0.021-0.27-0.041-0.405-0.061L206.679,172.583z
						 M213.518,174.146c0.131,0.04,0.261,0.082,0.39,0.124l1.136-3.524c-0.13-0.042-0.259-0.086-0.39-0.125L213.518,174.146z
						 M220.043,176.769c0.122,0.061,0.244,0.122,0.366,0.184l1.668-3.299c-0.122-0.065-0.243-0.123-0.366-0.185L220.043,176.769z
						 M239.347,188.176l-3.039,2.083c0.079,0.112,0.158,0.225,0.234,0.339l3.039-2.082
						C239.504,188.4,239.425,188.288,239.347,188.176z"/>
				</g>
			</g>
		</g>
	</g>
</g>
<g id="Layer_3">
	
		<radialGradient id="SVGID_1_" cx="289.819" cy="-32.6446" r="11.4725" gradientTransform="matrix(1.0091 0 0 -1.0173 -92.0958 185.1079)" gradientUnits="userSpaceOnUse">
		<stop  offset="0.0588" style="stop-color:#B4B4B3"/>
		<stop  offset="0.2715" style="stop-color:#D2D2D1"/>
		<stop  offset="0.4979" style="stop-color:#EBEBEA"/>
		<stop  offset="0.7042" style="stop-color:#FAFAFA"/>
		<stop  offset="0.8706" style="stop-color:#FFFFFF"/>
	</radialGradient>
	<path fill="url(#SVGID_1_)" d="M188.789,218.319c0-6.446,5.184-11.671,11.578-11.671c6.393,0,11.577,5.225,11.577,11.671
		c0,6.446-5.184,11.67-11.577,11.67C193.973,229.989,188.789,224.765,188.789,218.319z"/>
	<path fill="#1D1D1B" d="M194.852,217.575c0-2.937,2.36-5.315,5.273-5.315c2.913,0,5.275,2.378,5.275,5.315
		c0,2.938-2.361,5.318-5.275,5.318C197.212,222.893,194.852,220.513,194.852,217.575z"/>
</g>
<g id="Layer_4" transform="rotate( 150 200 217)">
	<polygon fill="#1D1D1B" points="212.526,229.917 179.746,191.901 181.016,190.809 175.187,188.057 176.799,194.435 
		178.237,193.199 211.028,231.229 	"/>
</g>
</svg>
