<?xml version="1.0" encoding="utf-8"?>
<!-- Generator: Adobe Illustrator 16.0.0, SVG Export Plug-In . SVG Version: 6.00 Build 0)  -->
<!DOCTYPE svg PUBLIC "-//W3C//DTD SVG 1.1//EN" "http://www.w3.org/Graphics/SVG/1.1/DTD/svg11.dtd">
<svg version="1.1" id="Capa_1" xmlns="http://www.w3.org/2000/svg" xmlns:xlink="http://www.w3.org/1999/xlink" x="0px" y="0px"
	 width="300px" height="300px" viewBox="0 0 300 300" enable-background="new 0 0 300 300" xml:space="preserve">
<g>
	<g id="Forma_1">
		<g>
			<path fill="#FFFFFF" d="M254.581,159.908L151.528,68.235L42.119,159.908v114.754c0,0-0.257,6.617,6.213,6.617
				c8.055,0,74.695-0.084,74.695-0.084l0.118-61.211c0,0-1.06-10.09,8.739-10.09h30.993c11.588,0,10.859,10.09,10.859,10.09
				l-0.129,61.018c0,0,63.192,0,73.132,0c8.205,0,7.841-8.248,7.841-8.248V159.908z M152.438,18.72L1.826,151.371
				c0,0,9.297,17.126,29.551,0L152.438,48.957l113.496,101.783c23.456,16.911,32.239,0,32.239,0L152.438,18.72z M263.192,108.786
				V48.71h-29.197l0.129,35.409L263.192,108.786z"/>
		</g>
	</g>
</g>
</svg>
