
<svg version="1.1" id="Capa_1" xmlns="http://www.w3.org/2000/svg" xmlns:xlink="http://www.w3.org/1999/xlink" x="0px" y="0px"
	 width="300px" height="300px" viewBox="0 0 300 300" enable-background="new 0 0 300 300" xml:space="preserve">
<g>
	<g id="Forma_1">
		<g>
			<path fill="#FFFFFF" d="M150.001,2.758C68.811,2.758,2.756,68.811,2.756,150c0,81.191,66.055,147.242,147.245,147.242
				c81.189,0,147.243-66.051,147.243-147.242C297.244,68.811,231.19,2.758,150.001,2.758z M234.896,231.145c0-3.406,0-5.812,0-5.812
				c0-20.078-23.203-27.408-35.618-32.713c-4.493-1.92-12.968-5.994-21.667-10.244c-2.945-1.436-5.592-5.26-5.92-8.516l-0.96-9.521
				c6.649-6.197,12.646-14.827,13.664-24.446h1.501c2.358,0,4.579-1.767,4.937-3.929l2.354-14.55
				c0.315-3.106-2.625-4.994-4.989-4.994c0.053-0.305,0.104-0.622,0.15-0.88c0.299-1.755,0.482-3.441,0.598-5.086
				c0.149-1.323,0.271-2.692,0.322-4.107c0.253-6.869-0.909-12.875-2.831-16.241c-1.956-4.701-4.93-9.269-9.066-13.181
				c-11.495-10.891-24.837-15.131-36.21-6.38c-7.747-1.341-16.953,2.204-23.6,9.988c-3.63,4.257-5.891,9.118-6.858,13.905
				c-0.866,2.98-1.441,6.593-1.582,10.5c-0.155,4.35,0.273,8.331,1.073,11.547c-2.267,0.144-4.531,2.008-4.531,4.942l2.347,14.55
				c0.351,2.163,2.574,3.929,4.937,3.929h1.346c2.134,10.402,7.66,18.946,13.776,24.899l-0.924,9.199
				c-0.333,3.258-2.979,7.078-5.919,8.525c-8.411,4.109-16.696,8.061-21.656,10.105c-11.685,4.809-35.621,12.633-35.621,32.713
				v4.543c-19.5-21.004-31.527-49.029-31.527-79.871c0-64.833,52.748-117.584,117.587-117.584
				c64.838,0,117.584,52.751,117.584,117.584C267.591,181.465,255.095,210.012,234.896,231.145z"/>
		</g>
	</g>
</g>
</svg>
