<svg version="1.1" xmlns="http://www.w3.org/2000/svg" xmlns:xlink="http://www.w3.org/1999/xlink" x="0px" y="0px"
	 width="24.383px" height="24.072px" viewBox="0 0 24.383 24.072" enable-background="new 0 0 24.383 24.072" xml:space="preserve">
<g id="Layer_2" display="none">
	<rect x="-224.37" y="-208.156" display="inline" width="495.506" height="497.753"/>
</g>
<g id="Layer_1">
	<path display="none" fill="#FFFFFF" d="M18.408,1.187h-3.716l-0.151-0.679c-0.052-0.236-0.263-0.405-0.505-0.405H9.85
		c-0.242,0-0.452,0.169-0.504,0.405l-0.15,0.679H5.479c-1.36,0-2.466,1.106-2.466,2.467v17.848c0,1.36,1.106,2.466,2.466,2.466
		h12.929c1.36,0,2.466-1.106,2.466-2.466V3.654C20.874,2.293,19.768,1.187,18.408,1.187 M19.262,21.502
		c0,0.47-0.383,0.854-0.854,0.854H5.479c-0.471,0-0.854-0.384-0.854-0.854V3.654c0-0.471,0.383-0.854,0.854-0.854h3.357L8.752,3.185
		c-0.035,0.152,0.002,0.313,0.1,0.436C8.951,3.743,9.1,3.815,9.256,3.815h5.375c0.157,0,0.305-0.072,0.403-0.194
		c0.097-0.123,0.136-0.284,0.101-0.436L15.049,2.8h3.359c0.471,0,0.854,0.383,0.854,0.854V21.502z M8.672,9.656h2.192L10.344,9.3
		C9.609,8.797,9.42,7.794,9.922,7.059c0.501-0.735,1.504-0.925,2.239-0.423l0.086,0.058V6.081c0-0.399-0.324-0.724-0.722-0.724
		H8.672c-0.397,0-0.72,0.325-0.72,0.724v2.851C7.952,9.33,8.275,9.656,8.672,9.656 M15.382,5.694l-2.526,2.393l-1.149-0.785
		c-0.367-0.25-0.869-0.157-1.121,0.21c-0.252,0.368-0.156,0.872,0.212,1.122l1.687,1.153c0.137,0.092,0.295,0.14,0.453,0.14
		c0.201,0,0.4-0.075,0.555-0.221l2.998-2.839c0.322-0.306,0.337-0.819,0.031-1.142C16.215,5.402,15.706,5.39,15.382,5.694
		 M8.672,15.194h2.194l-0.522-0.357c-0.735-0.502-0.924-1.505-0.422-2.241c0.501-0.734,1.504-0.925,2.239-0.423l0.086,0.061v-0.615
		c0-0.401-0.324-0.723-0.722-0.723H8.672c-0.397,0-0.72,0.322-0.72,0.723v2.851C7.952,14.871,8.275,15.194,8.672,15.194
		 M15.382,11.234l-2.526,2.393l-1.149-0.788c-0.367-0.252-0.869-0.156-1.121,0.213c-0.252,0.367-0.156,0.867,0.212,1.119
		l1.687,1.153c0.137,0.094,0.295,0.139,0.453,0.139c0.201,0,0.4-0.073,0.555-0.22l2.998-2.838c0.322-0.307,0.337-0.818,0.031-1.141
		C16.215,10.94,15.706,10.928,15.382,11.234 M11.525,16.434H8.672c-0.397,0-0.72,0.324-0.72,0.723v2.851
		c0,0.4,0.323,0.723,0.72,0.723h2.853c0.398,0,0.722-0.323,0.722-0.723v-2.851C12.247,16.758,11.923,16.434,11.525,16.434"/>
	<polygon display="none" fill="#FFFFFF" points="19.965,9.314 19.965,2.317 16.856,2.317 16.856,6.205 12.192,1.54 -0.248,13.979 
		-0.248,14.755 2.862,14.755 2.862,22.532 10.637,22.532 10.637,17.867 13.746,17.867 13.746,22.532 21.521,22.532 21.521,14.755 
		24.631,14.755 24.631,13.979 	"/>
	<path display="none" fill="#FFFFFF" d="M12.705,126.766v11.109h11.112C23.446,131.904,18.678,127.135,12.705,126.766
		 M14.192,128.469c3.947,0.865,7.056,3.975,7.92,7.922h-7.92V128.469z M18.537,148.523c3.01-2,5.042-5.336,5.28-9.16H13.25
		L18.537,148.523z M11.219,138.62v-11.854c-6.221,0.386-11.148,5.539-11.148,11.854c0,6.567,5.324,11.891,11.892,11.891
		c1.901,0,3.691-0.456,5.285-1.25l-5.929-10.271C11.252,138.875,11.219,138.747,11.219,138.62"/>
	<path display="none" fill="#FFFFFF" d="M23.891,10.7c-0.037-0.337-0.432-0.593-0.773-0.593c-1.102,0-2.079-0.647-2.491-1.649
		c-0.418-1.025-0.147-2.222,0.674-2.977c0.258-0.236,0.29-0.633,0.073-0.904c-0.563-0.72-1.206-1.367-1.905-1.928
		c-0.273-0.219-0.676-0.189-0.914,0.074c-0.717,0.793-2.004,1.088-2.998,0.674c-1.035-0.435-1.688-1.486-1.624-2.613
		c0.02-0.353-0.238-0.661-0.591-0.703c-0.897-0.105-1.804-0.108-2.704-0.006c-0.349,0.037-0.607,0.338-0.595,0.688
		C10.082,1.878,9.42,2.91,8.396,3.331c-0.983,0.4-2.261,0.108-2.976-0.679C5.184,2.392,4.788,2.36,4.512,2.577
		C3.791,3.141,3.137,3.789,2.568,4.502C2.345,4.777,2.377,5.177,2.639,5.415C3.476,6.174,3.746,7.382,3.311,8.42
		c-0.414,0.988-1.442,1.626-2.615,1.626C0.314,10.032,0.043,10.289,0,10.637c-0.105,0.904-0.106,1.825-0.005,2.736
		c0.039,0.341,0.445,0.593,0.79,0.593c1.045-0.027,2.051,0.62,2.473,1.65c0.42,1.024,0.151,2.221-0.674,2.976
		c-0.256,0.237-0.289,0.631-0.072,0.907c0.56,0.711,1.199,1.361,1.902,1.925c0.276,0.223,0.677,0.192,0.915-0.072
		c0.72-0.797,2.007-1.091,2.998-0.675c1.039,0.435,1.691,1.484,1.626,2.612c-0.02,0.354,0.24,0.664,0.59,0.705
		c0.461,0.052,0.922,0.078,1.385,0.078c0.441,0,0.881-0.024,1.321-0.073c0.349-0.037,0.607-0.338,0.595-0.688
		c-0.04-1.115,0.621-2.149,1.645-2.566c0.99-0.407,2.262-0.108,2.978,0.677c0.238,0.259,0.631,0.29,0.906,0.075
		c0.721-0.565,1.374-1.211,1.947-1.925c0.221-0.274,0.19-0.677-0.073-0.913c-0.836-0.758-1.108-1.966-0.672-3.003
		c0.408-0.977,1.396-1.633,2.459-1.633l0.148,0.005c0.345,0.028,0.662-0.239,0.704-0.591C23.993,12.534,23.993,11.612,23.891,10.7
		 M11.963,16.077c-2.213,0-4.01-1.801-4.01-4.014c0-2.215,1.797-4.015,4.01-4.015c2.211,0,4.01,1.8,4.01,4.015
		C15.973,14.276,14.174,16.077,11.963,16.077"/>
	<path fill="#FFFFFF" d="M19.381,0.277H1.715v21.121h17.666V0.277z M18.32,20.335H2.777V1.342H18.32V20.335z M16.706,3.707H4.631
		v1.119h12.075V3.707z M16.706,7.224H4.631V8.34h12.075V7.224z M20.106,2.671v1.065h1v18.992H5.564V21.99H4.502v1.805h17.67V2.671
		H20.106z M5.081,15.498c0.209,0,0.4-0.059,0.577-0.146l1.515,1.242c-0.008,0.058-0.034,0.11-0.034,0.17
		c0,0.734,0.593,1.329,1.328,1.329c0.732,0,1.326-0.595,1.326-1.329c0-0.211-0.06-0.405-0.148-0.581
		c0.728-1.094,1.658-2.491,2.216-3.33c0.086,0.018,0.166,0.052,0.258,0.052c0.319,0,0.601-0.128,0.829-0.316
		c0.499,0.291,1.146,0.67,1.703,0.996c-0.001,0.018-0.01,0.034-0.01,0.053c0,0.735,0.593,1.33,1.326,1.33
		c0.734,0,1.326-0.595,1.326-1.33c0-0.734-0.592-1.33-1.326-1.33c-0.324,0-0.611,0.13-0.841,0.324l-1.695-0.991
		c0.001-0.023,0.012-0.041,0.012-0.064c0-0.733-0.591-1.326-1.324-1.326c-0.732,0-1.324,0.593-1.324,1.326
		c0,0.245,0.085,0.463,0.2,0.66c-0.696,1.047-1.604,2.414-2.173,3.27c-0.116-0.032-0.229-0.071-0.355-0.071
		c-0.276,0-0.516,0.103-0.728,0.246C7.318,15.337,6.8,14.911,6.335,14.53c0.034-0.117,0.073-0.232,0.073-0.36
		c0-0.735-0.598-1.328-1.327-1.326c-0.735,0-1.329,0.591-1.329,1.326C3.752,14.903,4.346,15.498,5.081,15.498"/>
</g>
</svg>
