<svg version="1.1" id="Capa_1" xmlns="http://www.w3.org/2000/svg" xmlns:xlink="http://www.w3.org/1999/xlink" x="0px" y="0px"
	 width="300px" height="300px" viewBox="0 0 300 300" enable-background="new 0 0 300 300" xml:space="preserve">
<g>
	<g id="Forma_1">
		<g>
			<path fill="#FFFFFF" d="M186.302,193.86c5.51-9.203,13.598-13.915,24.337-14.04c10.727-0.122,16.15-5.595,16.321-16.346
				c0.148-10.714,4.812-18.801,14.016-24.288c9.217-5.498,11.218-12.898,5.965-22.276c-5.228-9.351-5.228-18.702,0-28.08
				c5.253-9.351,3.264-16.739-5.965-22.238c-9.204-5.522-13.879-13.598-14.016-24.359c-0.171-10.703-5.595-16.176-16.321-16.299
				c-10.739-0.147-18.827-4.835-24.337-14.04c-5.498-9.229-12.897-11.217-22.25-5.964c-9.352,5.228-18.727,5.228-28.08,0
				c-9.363-5.24-16.764-3.264-22.262,5.964c-5.498,9.216-13.598,13.905-24.323,14.04c-10.703,0.123-16.151,5.596-16.3,16.299
				c-0.17,10.761-4.835,18.825-14.038,24.359c-9.218,5.499-11.243,12.875-5.965,22.238c5.252,9.377,5.252,18.729,0,28.08
				c-5.277,9.377-3.264,16.79,5.965,22.276c9.203,5.486,13.879,13.574,14.038,24.288c0.149,10.751,5.597,16.224,16.3,16.346
				c10.737,0.125,18.825,4.837,24.335,14.04c5.498,9.23,12.899,11.217,22.25,5.939c9.353-5.179,18.728-5.179,28.08,0
				C173.404,205.077,180.817,203.091,186.302,193.86z M150.038,161.608c-32.449,0-58.736-26.3-58.736-58.749
				c0-32.422,26.288-58.71,58.736-58.71c32.423,0,58.71,26.288,58.71,58.71C208.748,135.308,182.461,161.608,150.038,161.608z
				 M88.441,188.437c-11.277,0-12.788-5.254-12.788-5.254l-44.07,86.621l35.333-3.978l19.55,29.405c0,0,40.707-84.949,40.707-84.385
				C106.077,210.33,114.472,189.001,88.441,188.437z M223.794,186.572c-32.201,3.36-25.648,11.363-33.013,17.573
				c-8.468,9.031-19.058,7.266-19.058,7.266l49.702,85.515l12.236-31.676l34.755,4.54L223.794,186.572z M162.298,89.9
				l-12.286-24.877L137.704,89.9l-27.503,4.026l19.881,19.389l-4.688,27.417l24.618-12.935l24.618,12.935l-4.687-27.417
				l19.882-19.389L162.298,89.9z"/>
		</g>
	</g>
</g>
</svg>
