<svg version="1.1" id="Capa_1" xmlns="http://www.w3.org/2000/svg" xmlns:xlink="http://www.w3.org/1999/xlink" x="0px" y="0px"
	 width="300px" height="300px" viewBox="0 0 300 300" enable-background="new 0 0 300 300" xml:space="preserve">
<g>
	<g>
		<path fill="#FCFCFC" d="M297.633,124.331c-0.403-2.297-1.744-4.326-3.696-5.601c-1.975-1.274-4.366-1.668-6.628-1.1
			c-5.171,1.291-10.529,1.001-15.403-0.875c-13.176-5.058-19.766-19.896-14.717-33.067c1.919-4.977,5.37-9.194,9.987-12.198
			c1.964-1.269,3.303-3.298,3.696-5.6c0.405-2.297-0.164-4.66-1.575-6.52c-9.27-12.229-20.323-22.906-32.821-31.729
			c-1.902-1.339-4.281-1.821-6.563-1.361c-2.274,0.476-4.26,1.877-5.474,3.867c-2.709,4.485-6.669,7.975-11.453,10.097
			c-3.304,1.472-6.795,2.221-10.381,2.221c-10.113,0-19.286-5.968-23.394-15.195c-2.187-4.921-2.75-10.326-1.64-15.625
			c0.479-2.281-0.011-4.654-1.343-6.569c-1.345-1.904-3.41-3.162-5.718-3.479c-15.163-2.117-30.666-1.887-45.599,0.667
			c-2.307,0.394-4.328,1.729-5.611,3.675c-1.284,1.948-1.699,4.343-1.137,6.606c1.26,5.115,0.93,10.386-0.941,15.25
			c-3.763,9.823-13.37,16.425-23.882,16.425c-3.132,0-6.211-0.581-9.178-1.718c-4.991-1.919-9.213-5.377-12.211-10.004
			c-1.26-1.958-3.281-3.304-5.579-3.708c-2.297-0.404-4.66,0.16-6.52,1.554C47.571,39.579,36.84,50.61,27.958,63.119
			c-1.356,1.909-1.848,4.304-1.367,6.591c0.48,2.292,1.902,4.282,3.905,5.485c4.542,2.718,8.07,6.7,10.214,11.519
			c2.777,6.246,2.963,13.197,0.516,19.575c-2.448,6.377-7.242,11.42-13.487,14.198c-5.002,2.215-10.57,2.752-15.93,1.57
			c-2.283-0.509-4.682-0.038-6.607,1.286c-1.929,1.335-3.217,3.407-3.547,5.727c-2.177,15.346-1.983,30.776,0.583,45.859
			c0.394,2.326,1.753,4.377,3.73,5.656c1.978,1.274,4.398,1.652,6.685,1.066c5.231-1.373,10.662-1.093,15.62,0.81
			c6.378,2.451,11.417,7.242,14.196,13.478c2.777,6.241,2.953,13.192,0.506,19.574c-1.973,5.109-5.557,9.402-10.384,12.416
			c-2.002,1.252-3.383,3.271-3.82,5.585c-0.426,2.319,0.128,4.703,1.539,6.596c9.309,12.383,20.415,23.185,33.017,32.084
			c1.928,1.367,4.34,1.865,6.653,1.346c2.298-0.503,4.292-1.957,5.473-3.998c2.732-4.726,6.782-8.379,11.715-10.578
			c3.317-1.471,6.806-2.215,10.383-2.215c10.111,0,19.297,5.961,23.402,15.194c2.272,5.107,2.789,10.714,1.512,16.218
			c-0.55,2.297-0.09,4.725,1.25,6.665c1.337,1.943,3.432,3.245,5.762,3.566c6.84,0.952,13.794,1.444,20.661,1.444
			c8.49,0,17.035-0.742,25.376-2.193c2.319-0.404,4.375-1.761,5.649-3.757c1.268-1.996,1.641-4.419,1.027-6.7
			c-1.433-5.321-1.181-10.779,0.744-15.769c3.776-9.817,13.383-16.424,23.906-16.424c3.13,0,6.208,0.585,9.156,1.713
			c5.108,1.968,9.397,5.556,12.405,10.369c1.263,1.996,3.293,3.385,5.61,3.808c2.308,0.426,4.704-0.136,6.585-1.564
			c12.342-9.342,23.082-20.473,31.931-33.073c1.356-1.927,1.838-4.317,1.337-6.619c-0.505-2.293-1.939-4.283-3.962-5.471
			c-4.66-2.718-8.288-6.749-10.447-11.639c-5.726-12.89,0.096-28.047,12.973-33.774c4.989-2.22,10.546-2.755,15.904-1.568
			c2.298,0.498,4.693,0.027,6.62-1.312c1.93-1.337,3.204-3.427,3.521-5.754C300.549,154.832,300.27,139.437,297.633,124.331z
			 M176.185,208.844c-8.307,3.697-17.107,5.567-26.144,5.567c-25.433,0-48.546-15.008-58.883-38.235
			c-14.429-32.445,0.215-70.595,32.674-85.029c8.311-3.702,17.108-5.572,26.145-5.572c25.43,0,48.546,15.013,58.883,38.241
			C223.294,156.26,208.63,194.403,176.185,208.844z"/>
		<path fill="#FCFCFC" d="M149.981,102.375c-6.659,0-13.173,1.385-19.317,4.118c-23.976,10.671-34.819,38.866-24.145,62.849
			c7.634,17.174,24.722,28.267,43.523,28.267c6.659,0,13.165-1.38,19.317-4.114c23.978-10.672,34.808-38.865,24.147-62.849
			C185.872,113.469,168.785,102.375,149.981,102.375z"/>
	</g>
</g>
</svg>
