<svg version="1.1" id="Capa_1" xmlns="http://www.w3.org/2000/svg" xmlns:xlink="http://www.w3.org/1999/xlink" x="0px" y="0px"
	 width="300px" height="300px" viewBox="0 0 300 300" enable-background="new 0 0 300 300" xml:space="preserve">
<g id="Forma_1_639_">
	<g>
		<path fill="#FFFFFF" d="M224.915,24.275h-43.063l-1.753-7.865c-0.601-2.738-3.046-4.698-5.853-4.698H125.74
			c-2.807,0-5.24,1.96-5.839,4.698l-1.742,7.865H75.085c-15.766,0-28.577,12.822-28.577,28.587v206.846
			c0,15.754,12.812,28.578,28.577,28.578h149.83c15.765,0,28.577-12.824,28.577-28.578V52.863
			C253.492,37.097,240.68,24.275,224.915,24.275z M234.817,259.709c0,5.445-4.437,9.895-9.902,9.895H75.085
			c-5.455,0-9.903-4.449-9.903-9.895V52.863c0-5.466,4.448-9.903,9.903-9.903h38.909l-0.973,4.471
			c-0.408,1.765,0.021,3.633,1.152,5.047c1.144,1.416,2.876,2.241,4.686,2.241h62.291c1.812,0,3.531-0.825,4.664-2.241
			c1.131-1.414,1.583-3.282,1.176-5.047l-0.996-4.471h38.921c5.466,0,9.902,4.437,9.902,9.903V259.709z M112.093,122.42h25.396
			l-6.021-4.132c-8.522-5.817-10.706-17.451-4.89-25.961c5.806-8.532,17.428-10.728,25.94-4.9l0.995,0.667v-7.106
			c0-4.629-3.748-8.385-8.364-8.385h-33.057c-4.607,0-8.353,3.756-8.353,8.385v33.047C103.74,118.65,107.485,122.42,112.093,122.42z
			 M189.854,76.505l-29.278,27.739l-13.32-9.1c-4.245-2.896-10.062-1.821-12.98,2.434c-2.922,4.267-1.812,10.096,2.455,12.992
			l19.546,13.366c1.583,1.075,3.416,1.619,5.25,1.619c2.331,0,4.642-0.861,6.428-2.546l34.745-32.922
			c3.734-3.531,3.903-9.472,0.361-13.218C199.507,73.121,193.601,72.975,189.854,76.505z M112.093,186.588h25.418l-6.043-4.119
			c-8.522-5.816-10.706-17.453-4.89-25.973c5.806-8.511,17.428-10.717,25.94-4.9l0.995,0.69v-7.118c0-4.652-3.748-8.386-8.364-8.386
			h-33.057c-4.607,0-8.353,3.733-8.353,8.386v33.047C103.74,182.854,107.485,186.588,112.093,186.588z M189.854,140.697
			l-29.278,27.748l-13.32-9.131c-4.245-2.92-10.062-1.822-12.98,2.467c-2.922,4.256-1.812,10.051,2.455,12.969l19.546,13.346
			c1.583,1.107,3.416,1.629,5.25,1.629c2.331,0,4.642-0.861,6.428-2.559l34.745-32.889c3.734-3.565,3.903-9.473,0.361-13.218
			C199.507,137.303,193.601,137.166,189.854,140.697z M145.149,200.963h-33.057c-4.607,0-8.353,3.77-8.353,8.385v33.047
			c0,4.617,3.745,8.373,8.353,8.373h33.057c4.616,0,8.364-3.756,8.364-8.373v-33.047
			C153.514,204.732,149.766,200.963,145.149,200.963z"/>
	</g>
</g>
</svg>
