<?xml version="1.0" encoding="utf-8"?>
<!-- Generator: Adobe Illustrator 16.0.0, SVG Export Plug-In . SVG Version: 6.00 Build 0)  -->
<!DOCTYPE svg PUBLIC "-//W3C//DTD SVG 1.1//EN" "http://www.w3.org/Graphics/SVG/1.1/DTD/svg11.dtd">
<svg version="1.1" id="Capa_1" xmlns="http://www.w3.org/2000/svg" xmlns:xlink="http://www.w3.org/1999/xlink" x="0px" y="0px"
	 width="100px" height="100px" viewBox="0 0 100 100" enable-background="new 0 0 100 100" xml:space="preserve">
<symbol  id="Nuevo_símbolo_4_1_" viewBox="-149.72 -125.147 299.439 250.295">
	<g>
		<g>
			<path fill-rule="evenodd" clip-rule="evenodd" fill="#FFFFFF" d="M145.789-22.905c0.538,3.127,1.067,6.185,1.608,9.329
				c-2.885-0.027-5.72-0.054-8.641-0.082c-0.042-0.241-0.081-0.478-0.123-0.71c-0.616-3.464-1.234-6.928-1.85-10.391
				c-0.365-2.059-2.168-3.18-4.201-2.598c-0.96,0.274-1.793,0.723-2.023,1.8c-0.167,0.792,0.155,1.45,0.747,1.952
				c1.122,0.95,2.405,1.094,3.777,0.654c0.112-0.036,0.222-0.081,0.417-0.152c0.796,4.623,1.586,9.199,2.381,13.803
				c3.967-0.039,7.859-0.079,11.838-0.118c-0.045-0.265-0.082-0.479-0.119-0.691c-0.836-4.853-1.689-9.699-2.498-14.555
				c-0.205-1.23-0.795-2.075-1.981-2.449c-1.296-0.41-2.54-0.327-3.612,0.595c-0.922,0.794-0.955,2.013-0.131,2.925
				c0.909,1.005,2.632,1.368,4.008,0.849C145.497-22.788,145.606-22.833,145.789-22.905z"/>
		</g>
		<path fill-rule="evenodd" clip-rule="evenodd" fill="#FFFFFF" d="M130.108-13.947c-0.425-0.021-0.814,0.091-1.162,0.323
			c-0.678,0.451-0.682,1.247,0.012,1.669c0.715,0.435,1.459,0.414,2.188,0.011c0.284-0.157,0.276-0.17,0.325,0.141
			c0.234,1.508,0.469,3.016,0.704,4.524c0.004,0.028,0.011,0.057,0.017,0.085c0.025,0.129,0.057,0.271,0.225,0.25
			c0.172-0.023,0.195-0.152,0.169-0.311c-0.089-0.557-0.166-1.115-0.252-1.672c-0.205-1.306-0.425-2.61-0.612-3.919
			c-0.062-0.437-0.299-0.704-0.658-0.895C130.767-13.898,130.443-13.964,130.108-13.947z"/>
		<g>
			<path fill-rule="evenodd" clip-rule="evenodd" fill="#FFFFFF" d="M91.235-109.768c0.156,0.252,0.252,0.459,0.393,0.623
				c0.845,0.979,1.042,2.119,0.874,3.385c-0.112,0.848-0.155,1.699-0.233,2.551c-0.283,3.131,1.289,5.938,4.074,7.27
				c2.686,1.287,6.112,0.837,8.297-1.088c2.514-2.215,3.427-5.402,2.354-8.37c-0.746-2.056-2.197-3.468-4.247-4.285
				c-1.131-0.453-2.255-0.928-3.391-1.368c-0.616-0.237-1.069-0.613-1.365-1.203c-0.215-0.422-0.495-0.811-0.763-1.242
				C95.2-112.234,93.253-111.021,91.235-109.768z"/>
			<path fill-rule="evenodd" clip-rule="evenodd" fill="#FFFFFF" d="M94.861-116.641c-0.419-0.678-1.145-0.945-1.916-0.795
				c-0.245,0.047-0.55,0.025-0.761-0.082c-0.541-0.275-1.068-0.301-1.582,0.021c-0.512,0.322-0.725,0.808-0.707,1.413
				c0.01,0.221-0.086,0.493-0.229,0.672c-0.519,0.649-0.607,1.432-0.162,2.104C91.275-114.409,93.048-115.513,94.861-116.641z"/>
			<path fill-rule="evenodd" clip-rule="evenodd" fill="#FFFFFF" d="M92.754-113.929c-0.74,0.46-1.481,0.915-2.216,1.381
				c-0.498,0.313-0.679,0.813-0.402,1.177c0.32,0.419,0.748,0.449,1.2,0.168c1.534-0.949,3.067-1.901,4.597-2.859
				c0.446-0.28,0.615-0.674,0.376-1.146c-0.21-0.414-0.724-0.477-1.23-0.166C94.302-114.9,93.528-114.414,92.754-113.929z"/>
		</g>
		<g>
			<path fill-rule="evenodd" clip-rule="evenodd" fill="#FFFFFF" d="M106.278,98.447c0.008-0.521,0.029-1.047,0.018-1.57
				c-0.008-0.219-0.087-0.434-0.133-0.652c-0.214,0.068-0.444,0.105-0.639,0.208c-0.417,0.218-0.826,0.45-1.216,0.713
				c-0.46,0.306-0.745,0.293-0.908-0.31c-0.153-0.562-0.376-1.108-0.572-1.659c-0.279-0.786-0.403-0.813-0.932-0.205
				c-0.569,0.657-1.122,1.327-1.698,1.974c-0.176,0.197-0.415,0.339-0.625,0.508c-0.117-0.238-0.277-0.465-0.341-0.715
				c-0.206-0.816-0.36-1.646-0.571-2.458c-0.071-0.271-0.252-0.51-0.382-0.76c-0.161,0.229-0.392,0.441-0.472,0.697
				c-0.89,2.804-2.076,5.469-3.569,8c-2.425,4.112-5.524,7.631-9.291,10.556c-0.378,0.292-0.562,0.561-0.579,1.083
				c-0.031,0.858-0.271,1.71-0.354,2.573c-0.034,0.338,0.089,0.703,0.19,1.038c0.061,0.194,0.219,0.362,0.334,0.537
				c0.87,1.319,0.869,1.314,2.426,0.881c3.566-0.995,6.644-2.923,9.558-5.122c5.129-3.871,9.317-8.559,12.102-14.402
				c0.442-0.928,0.79-1.901,1.153-2.861c0.07-0.19,0.01-0.425,0.011-0.641c-0.218,0.083-0.484,0.114-0.646,0.26
				c-0.712,0.645-1.391,1.327-2.092,1.988c-0.172,0.164-0.381,0.284-0.572,0.425C106.411,98.504,106.347,98.478,106.278,98.447z"/>
			<path fill-rule="evenodd" clip-rule="evenodd" fill="#FFFFFF" d="M73.995,113.885c0.533,1.967-0.705,3.491-2.354,4.881
				c-0.892,0.748-0.802,1.254,0.311,1.531c2.235,0.552,3.659,1.85,4.418,4.021c0.365,1.045,0.93,1.109,1.511,0.153
				c1.218-2.006,2.941-2.927,5.254-2.991c1.032-0.029,1.179-0.456,0.628-1.32c-0.468-0.729-0.984-1.433-1.393-2.196
				c-0.194-0.367-0.287-0.847-0.251-1.261c0.075-0.883,0.267-1.76,0.414-2.639c0.133-0.805-0.194-1.125-0.971-0.928
				c-0.863,0.217-1.709,0.509-2.583,0.662c-0.453,0.08-0.98,0.012-1.41-0.151c-0.693-0.266-1.338-0.668-2.005-1.01
				C74.372,112.023,74.104,112.174,73.995,113.885z"/>
		</g>
		<path fill="#FFFFFF" d="M31.435,102.626c-0.699,0.442-1.537,0.833-2.439,1.264c-0.443,0.237-0.938,0.395-1.434,0.59
			c-0.497,0.193-1.01,0.396-1.555,0.525c-1.072,0.325-2.223,0.56-3.406,0.673c-0.595,0.037-1.19,0.113-1.799,0.064
			c-0.301-0.006-0.604-0.014-0.908-0.023l-0.91-0.119c-1.214-0.148-2.409-0.512-3.559-0.963c-2.295-0.95-4.363-2.441-6.066-4.143
			c-0.862-0.841-1.635-1.732-2.324-2.619c-0.701-0.873-1.297-1.771-1.84-2.596c-0.672-1.06-1.21-2.025-1.648-2.866V63.691
			c1.994-1.101,4.461-1.98,6.452-1.161c2.103,0.861,2.954,3.281,2.962,3.303l0.041,0.118c0.424,1.184,10.607,28.894,30.402,23.853
			c10.441-2.651,15.732-8.689,18.336-13.286c2.01-3.548,2.988-7.229,3.229-10.264c3.686-0.164,9.545-1.105,13.531-5.098
			c2.818-2.821,4.247-6.599,4.247-11.225c0-6.273-1.835-11.301-3.31-15.342c-0.825-2.261-1.854-5.073-1.476-5.867
			c0.046-0.099,0.553-0.994,3.785-1.816c4.534-1.145,9.093,2.824,14.366,7.431c3.508,3.061,7.454,6.491,11.996,8.709
			c0.138,1.666,0.229,3.341,0.229,5.038c0,30.675-23.304,57.57-55.55,64.326c-1.035,0.071-2.055,0.083-3.021,0.081
			c-1.078,0.008-2.1-0.081-3.047-0.112c-0.945-0.084-1.811-0.161-2.58-0.229c-0.771-0.059-1.435-0.181-1.987-0.244
			c-1.103-0.148-1.733-0.232-1.733-0.232s0.609,0.182,1.678,0.498c0.535,0.15,1.18,0.377,1.938,0.556
			c0.756,0.188,1.611,0.401,2.539,0.636c0.947,0.181,1.965,0.429,3.061,0.598c0.295,0.047,0.605,0.09,0.908,0.136
			c-4.885,6.112-12.668,10.083-21.432,10.083c-11.997,0-22.176-7.427-25.564-17.627v-5.262c0.072,0.07,0.135,0.141,0.207,0.21
			c0.93,0.896,1.956,1.785,3.09,2.604c2.234,1.666,4.912,3.047,7.744,3.732c1.418,0.319,2.857,0.514,4.266,0.466l1.049-0.03
			c0.344-0.043,0.688-0.086,1.027-0.129c0.682-0.06,1.334-0.241,1.979-0.388c1.279-0.328,2.477-0.772,3.559-1.292
			c0.555-0.228,1.062-0.523,1.553-0.805c0.488-0.282,0.973-0.525,1.398-0.838c0.867-0.588,1.661-1.115,2.312-1.673
			c0.665-0.529,1.244-0.985,1.685-1.414c0.895-0.829,1.408-1.303,1.408-1.303s-0.566,0.388-1.557,1.068
			C32.778,101.854,32.149,102.211,31.435,102.626z"/>
		<path fill="#FFFFFF" d="M46.562-109.649c-4.864,0-9.096,1.528-12.886,5.022c-9.754,8.989-19.793,12.345-30.621,10.224v-2.935
			c4.327-15.959,19.893-27.81,38.382-27.81c18.361,0,33.824,11.688,38.276,27.479c-1.792-0.87-3.967-1.94-6.66-3.287
			C62.411-106.274,53.788-109.649,46.562-109.649z"/>
		<path fill="#FFFFFF" d="M94.387-11.252c-5.269-1.181-9.589-4.846-12.845-10.895c-0.754-1.551-10.312-20.432-27.885-20.432
			c-0.84,0-1.671,0.082-2.496,0.214c-0.107-0.046-0.207-0.081-0.316-0.13c-1.697-0.725-3.63-1.672-5.545-2.973
			c-0.963-0.645-1.893-1.412-2.785-2.258c-0.887-0.852-1.734-1.785-2.51-2.794c-0.397-0.497-0.734-1.043-1.107-1.562
			c-0.325-0.553-0.666-1.094-0.977-1.653c-0.613-1.123-1.152-2.279-1.606-3.435c-0.208-0.588-0.437-1.159-0.63-1.729
			c-0.18-0.579-0.354-1.146-0.525-1.697c-0.275-1.124-0.578-2.189-0.752-3.199c-0.098-0.504-0.191-0.986-0.281-1.448
			c-0.066-0.464-0.131-0.903-0.191-1.318c-0.13-0.83-0.229-1.56-0.276-2.164c-0.129-1.211-0.202-1.902-0.202-1.902
			s-0.068,0.693-0.189,1.908c-0.071,0.61-0.1,1.352-0.123,2.206c-0.011,0.43-0.021,0.887-0.034,1.365
			c0.015,0.482,0.03,0.989,0.046,1.519c0.003,1.062,0.156,2.204,0.283,3.423c0.098,0.604,0.197,1.227,0.299,1.863
			c0.115,0.637,0.285,1.274,0.436,1.933c0.338,1.304,0.771,2.636,1.301,3.964c0.267,0.66,0.597,1.303,0.9,1.961
			c0.356,0.629,0.682,1.285,1.076,1.897c0.77,1.237,1.626,2.429,2.59,3.491c0.958,1.067,1.977,2.051,3.041,2.896
			c0.777,0.648,1.581,1.189,2.385,1.686c-4.831,2.312-9.544,6.281-14.43,10.407c-8.744,7.382-17.76,14.987-27.981,13.456v-71.312
			v-1.358c9.913,1.711,19.196-0.554,28.136-6.871c0.186-0.083,0.377-0.166,0.582-0.25c0.47-0.195,0.986-0.394,1.546-0.567
			c0.554-0.205,1.156-0.328,1.778-0.5c0.627-0.121,1.282-0.266,1.953-0.339c0.672-0.062,1.363-0.155,2.053-0.128
			c0.345,0.001,0.693-0.01,1.04,0.002c0.345,0.035,0.687,0.07,1.027,0.104c0.692,0.036,1.345,0.214,1.993,0.349
			c0.66,0.105,1.246,0.365,1.83,0.553c0.592,0.175,1.11,0.434,1.59,0.677c0.477,0.249,0.949,0.431,1.312,0.678
			c0.371,0.241,0.693,0.452,0.959,0.626c0.535,0.351,0.842,0.551,0.842,0.551s-0.268-0.249-0.735-0.686
			c-0.235-0.22-0.522-0.486-0.852-0.793c-0.327-0.313-0.763-0.574-1.207-0.914c-0.448-0.334-0.94-0.693-1.518-0.979
			c-0.569-0.299-1.149-0.681-1.819-0.914c-0.659-0.262-1.337-0.572-2.069-0.742c-0.364-0.101-0.731-0.203-1.1-0.305
			c-0.373-0.078-0.753-0.134-1.132-0.201c-0.76-0.158-1.528-0.19-2.291-0.25c-0.242-0.015-0.48-0.013-0.72-0.015
			c0.27-0.241,0.541-0.466,0.811-0.714c5.527-5.093,12.82-5.995,33.752,4.469c5.667,2.833,9.854,4.854,12.441,6.01
			c0.518,0.23,1.014,0.452,1.487,0.646c6.384,4.39,10.873,10.897,12.453,18.204c0.329,1.522,0.518,3.051,0.593,4.573
			c-0.392,0.127-0.804,0.253-1.244,0.376c-3.206,0.905-7.714,1.643-12.175,0.965c-1.118-0.146-2.214-0.414-3.293-0.715
			c-0.531-0.168-1.059-0.35-1.58-0.535c-0.504-0.221-1.021-0.41-1.507-0.648c-0.978-0.467-1.896-0.994-2.743-1.548
			c-0.416-0.294-0.821-0.577-1.213-0.854c-0.374-0.304-0.735-0.601-1.082-0.884c-0.676-0.593-1.284-1.166-1.796-1.702
			c-0.492-0.555-0.96-1.016-1.287-1.443c-0.673-0.849-1.058-1.334-1.058-1.334s0.293,0.555,0.804,1.526
			c0.25,0.493,0.627,1.04,1.024,1.7c0.416,0.646,0.926,1.352,1.512,2.104c0.305,0.365,0.623,0.746,0.953,1.141
			c0.357,0.371,0.727,0.756,1.105,1.15c0.787,0.764,1.664,1.525,2.631,2.245c0.48,0.364,1,0.684,1.514,1.038
			c0.53,0.319,1.074,0.635,1.633,0.941c1.126,0.574,2.305,1.121,3.523,1.538c2.432,0.878,4.982,1.392,7.39,1.622
			c2.411,0.25,4.677,0.212,6.616,0.072c0.558-0.04,1.08-0.093,1.58-0.15c0.008,0.14,0.012,0.219,0.012,0.219
			s0.014,0.023,0.016,0.029c13.71,4,23.089,16.102,22.443,29.941c-0.13,2.779-0.688,5.487-1.605,8.072
			c0.018,0.064,0.039,0.132,0.037,0.162c-0.038,0.561-0.869,2.262-1.839,4.078C114.739-15.594,104.109-9.073,94.387-11.252z"/>
		<path fill="#FFFFFF" d="M126.448,14.646c-2.277,10.289-10.36,18.27-19.949,20.235c-2.399-1.662-4.734-3.686-7.113-5.761
			c-5.127-4.478-10.404-9.082-16.481-9.082c-0.983,0-1.984,0.118-3.011,0.38c-2.596,0.657-6.223,1.916-7.793,5.226
			c-1.664,3.51-0.261,7.356,1.229,11.431c1.346,3.688,2.871,7.872,2.871,12.857c0,2.703-0.738,4.763-2.257,6.29
			c-3.391,3.407-10.048,3.575-12.325,3.343l-0.991-0.098c-0.353-0.258-0.72-0.523-1.075-0.838c-0.419-0.35-0.855-0.717-1.295-1.085
			c-0.457-0.356-0.855-0.797-1.291-1.198c-0.43-0.415-0.863-0.83-1.287-1.236c-0.406-0.43-0.785-0.871-1.17-1.292
			c-0.381-0.426-0.75-0.836-1.1-1.226c-0.367-0.38-0.64-0.799-0.928-1.16c-1.129-1.48-1.884-2.471-1.884-2.471
			s0.432,1.207,1.081,3.021c0.174,0.45,0.322,0.968,0.561,1.461c0.226,0.51,0.463,1.044,0.709,1.596
			c0.252,0.553,0.5,1.138,0.775,1.718c0.303,0.564,0.605,1.139,0.911,1.713c0.316,0.569,0.595,1.176,0.946,1.71
			c0.338,0.552,0.672,1.092,0.996,1.616c0.313,0.533,0.665,1.015,0.99,1.479c0.319,0.449,0.609,0.885,0.906,1.274
			c0.045,1.75-0.424,5.016-2.365,8.45c-1.997,3.526-6.143,8.18-14.559,10.316c-14.473,3.67-23.031-18.793-23.399-19.779
			c-0.289-0.856-2.012-5.396-6.532-7.248c-2.575-1.053-5.446-0.969-8.563,0.202V21.945v-4.289c1.364,0.17,3.067,0.315,5.061,0.315
			c1.246,0.005,2.595-0.048,4.013-0.187c1.419-0.115,2.904-0.365,4.428-0.66c1.518-0.342,3.078-0.724,4.621-1.281
			c1.549-0.519,3.079-1.19,4.572-1.932c1.479-0.777,2.928-1.607,4.269-2.574l1.003-0.71c0.321-0.258,0.639-0.514,0.957-0.768
			c0.639-0.491,1.238-1.03,1.812-1.569c0.593-0.52,1.136-1.078,1.659-1.629c0.538-0.537,1.032-1.089,1.495-1.653
			c0.965-1.081,1.756-2.218,2.51-3.229c0.686-1.078,1.373-2.007,1.861-2.926c0.508-0.901,0.987-1.656,1.301-2.337
			c0.664-1.326,1.045-2.084,1.045-2.084s-0.458,0.699-1.261,1.93c-0.382,0.624-0.94,1.311-1.532,2.127
			c-0.578,0.833-1.353,1.655-2.129,2.608c-0.842,0.884-1.723,1.876-2.76,2.786c-0.5,0.48-1.029,0.945-1.597,1.386
			c-0.553,0.458-1.12,0.919-1.735,1.328c-0.6,0.437-1.211,0.862-1.861,1.244c-0.318,0.196-0.64,0.395-0.963,0.594l-1.006,0.535
			c-1.336,0.729-2.756,1.313-4.178,1.843c-1.438,0.49-2.889,0.919-4.341,1.198c-1.442,0.319-2.89,0.47-4.28,0.599
			c-1.396,0.08-2.744,0.128-4.023,0.061c-1.275-0.045-2.48-0.155-3.581-0.311c-2.206-0.294-4.009-0.734-5.229-1.092
			c-0.047-0.014-0.085-0.025-0.13-0.039v-21.748c12.261,1.463,22.466-7.152,31.597-14.859c6.779-5.725,13.184-11.131,19.006-11.131
			c14.41,0,22.678,16.983,22.76,17.154l0.064,0.129c4.112,7.676,9.74,12.357,16.729,13.915c9.536,2.124,19.21-2.186,24.781-5.435
			c2.626,2.073,4.707,5.145,4.707,5.145l-0.102,0.009c0.236,0.335,0.482,0.66,0.703,1.013
			C126.829,1.037,127.946,7.863,126.448,14.646z"/>
	</g>
	<g>
		<g>
			<path fill-rule="evenodd" clip-rule="evenodd" fill="#FFFFFF" d="M-139.602-22.413c-0.074-0.084-0.144-0.159-0.211-0.238
				c-0.559-0.654-1.12-1.304-1.669-1.965c-0.146-0.176-0.273-0.23-0.499-0.151c-0.604,0.212-1.212,0.409-1.826,0.586
				c-0.233,0.067-0.296,0.192-0.313,0.413c-0.069,0.869-0.153,1.737-0.235,2.604c-0.037,0.39-0.519,0.794-0.912,0.764
				c-0.87-0.065-1.739-0.127-2.607-0.213c-0.237-0.022-0.354,0.051-0.453,0.257c-0.275,0.562-0.559,1.121-0.861,1.67
				c-0.123,0.222-0.081,0.37,0.073,0.551c0.557,0.655,1.101,1.319,1.646,1.983c0.269,0.326,0.216,0.939-0.103,1.212
				c-0.643,0.549-1.281,1.105-1.937,1.639c-0.22,0.179-0.257,0.34-0.162,0.602c0.206,0.576,0.392,1.162,0.562,1.751
				c0.064,0.227,0.179,0.303,0.407,0.319c0.869,0.065,1.736,0.151,2.604,0.231c0.401,0.037,0.803,0.504,0.771,0.902
				c-0.066,0.855-0.13,1.713-0.212,2.568c-0.022,0.231,0.043,0.351,0.254,0.452c0.586,0.284,1.166,0.583,1.74,0.894
				c0.188,0.103,0.314,0.093,0.48-0.048c0.663-0.567,1.336-1.12,2.009-1.677c0.32-0.266,0.9-0.211,1.173,0.109
				c0.558,0.652,1.118,1.303,1.663,1.967c0.167,0.205,0.318,0.246,0.567,0.157c0.59-0.211,1.188-0.4,1.788-0.575
				c0.214-0.061,0.286-0.168,0.303-0.378c0.071-0.883,0.154-1.764,0.235-2.645c0.043-0.435,0.466-0.792,0.9-0.757
				c0.856,0.067,1.713,0.132,2.567,0.214c0.229,0.022,0.353-0.036,0.456-0.25c0.276-0.575,0.568-1.145,0.876-1.705
				c0.117-0.214,0.11-0.355-0.056-0.546c-0.562-0.648-1.103-1.316-1.651-1.979c-0.282-0.342-0.239-0.884,0.099-1.168
				c0.653-0.558,1.305-1.117,1.968-1.663c0.196-0.163,0.265-0.308,0.169-0.564c-0.209-0.575-0.397-1.16-0.562-1.751
				c-0.073-0.263-0.205-0.338-0.46-0.356c-0.832-0.062-1.66-0.15-2.489-0.229c-0.561-0.054-0.88-0.44-0.835-1.013
				c0.064-0.831,0.119-1.662,0.203-2.49c0.025-0.252-0.05-0.378-0.271-0.484c-0.552-0.267-1.101-0.543-1.635-0.843
				c-0.235-0.132-0.388-0.093-0.584,0.075c-0.632,0.544-1.307,1.039-1.912,1.607C-138.895-22.239-139.246-22.444-139.602-22.413z
				 M-138.144-18.25c1.854,0.955,2.569,3.192,1.612,5.049c-0.953,1.85-3.205,2.562-5.052,1.601c-1.826-0.952-2.549-3.203-1.618-5.03
				C-142.268-18.468-139.982-19.197-138.144-18.25z"/>
		</g>
		<g>
			<g>
				<path fill-rule="evenodd" clip-rule="evenodd" fill="#FFFFFF" d="M-99.124,92.053c-4.148,1.105-8.213,2.188-12.338,3.285
					c-0.057-0.406-0.131-0.873-0.186-1.342c-0.088-0.742-0.562-1.193-1.227-1.15c-0.674,0.045-1.082,0.537-1.018,1.32
					c0.236,2.883,1.383,5.41,3.121,7.678c1.812,2.367,4.127,4.137,6.76,5.506c0.135,0.07,0.271,0.137,0.404,0.211
					c0.035,0.02,0.059,0.059,0.051,0.051c-0.363,0.627-0.705,1.246-1.072,1.85c-1.545,2.533-2.535,5.229-2.381,8.25
					c0.111,2.186,0.828,4.158,2.16,5.902c0.117,0.152,0.242,0.311,0.391,0.432c0.633,0.508,1.223,0.502,1.674,0
					c0.422-0.469,0.371-1.043-0.135-1.629c-0.207-0.242-0.404-0.492-0.559-0.682c3.527-0.945,7.039-1.887,10.588-2.838
					c-0.041,0.283-0.098,0.658-0.152,1.031c-0.086,0.607,0.199,1.137,0.707,1.318c0.547,0.193,1.07,0.016,1.314-0.611
					c0.23-0.592,0.387-1.248,0.41-1.881c0.123-3.246-1.258-5.881-3.463-8.145c-1.584-1.625-3.494-2.773-5.535-3.723
					c-0.096-0.043-0.182-0.102-0.357-0.203c0.617-1.066,1.303-2.074,1.812-3.168c1.953-4.195,2.482-8.51,0.859-12.951
					c-0.119-0.326-0.262-0.648-0.439-0.943c-0.33-0.553-0.91-0.709-1.459-0.432c-0.535,0.27-0.758,0.859-0.529,1.434
					C-99.528,91.107-99.321,91.582-99.124,92.053z M-98.519,94.416c-0.117,1.391-0.225,2.764-0.367,4.133
					c-0.016,0.148-0.232,0.35-0.393,0.395c-2.865,0.795-5.736,1.572-8.609,2.342c-0.145,0.039-0.395,0.041-0.465-0.047
					c-0.914-1.119-1.805-2.256-2.314-3.633C-106.663,96.553-102.702,95.514-98.519,94.416z M-93.22,116.047
					c-3.803,1.105-7.568,2.201-11.346,3.301c-0.346-1.367-0.359-2.641-0.104-3.908c0.039-0.199,0.262-0.465,0.449-0.516
					c2.852-0.773,5.709-1.523,8.572-2.25c0.199-0.051,0.541,0.043,0.672,0.195C-94.124,113.867-93.499,114.996-93.22,116.047z
					 M-102.067,105.736c-1.365-0.789-2.717-1.568-4.041-2.334c2.145-0.574,4.221-1.131,6.377-1.709
					C-100.505,103.031-101.28,104.373-102.067,105.736z M-97.392,110.582c-2.184,0.572-4.203,1.102-6.301,1.65
					c0.732-1.135,1.465-2.281,2.219-3.412c0.062-0.092,0.324-0.154,0.43-0.104C-99.845,109.312-98.657,109.932-97.392,110.582z"/>
			</g>
		</g>
		<g>
			<path fill="#FFFFFF" d="M-93.406-111.741c-3.257,5.354-6.488,10.723-9.743,16.077c-0.248,0.407-0.373,0.722-0.125,1.211
				c0.325,0.643,0.004,1.441-0.609,1.776c-0.579,0.317-1.143,0.241-1.704-0.103c-2.474-1.507-4.954-3.001-7.433-4.502
				c-0.093-0.055-0.186-0.111-0.269-0.176c-0.552-0.429-0.747-1.029-0.541-1.656c0.198-0.609,0.728-0.954,1.404-1.035
				c0.243-0.029,0.55-0.211,0.678-0.416c1.388-2.246,2.745-4.511,4.111-6.77c1.968-3.251,3.911-6.515,5.907-9.746
				c1.135-1.842,2.851-2.613,4.984-2.334c1.959,0.257,3.565,1.762,4.121,3.989C-92.377-114.31-92.644-112.996-93.406-111.741z
				 M-95.252-115.581c-0.882-1.802-3.253-1.954-4.351-0.261c-0.817,1.26-1.568,2.563-2.348,3.85
				c-2.512,4.15-5.021,8.305-7.538,12.453c-0.123,0.199-0.308,0.36-0.464,0.543c1.557,0.943,2.931,1.777,4.362,2.645
				c0.123-0.243,0.265-0.524,0.443-0.877c-0.409-0.236-0.853-0.484-1.286-0.751c-0.574-0.354-0.732-0.771-0.479-1.215
				c0.268-0.468,0.722-0.531,1.335-0.159c0.42,0.253,0.818,0.536,1.197,0.786c0.634-1.07,1.211-2.042,1.86-3.136
				c-0.38-0.201-0.86-0.433-1.316-0.707c-0.519-0.31-0.66-0.769-0.416-1.183c0.248-0.423,0.709-0.51,1.231-0.202
				c0.458,0.271,0.898,0.569,1.365,0.865c0.126-0.184,0.203-0.283,0.269-0.391c1.979-3.27,3.955-6.541,5.936-9.81
				C-94.974-113.916-94.839-114.736-95.252-115.581z"/>
			<path fill="#FFFFFF" d="M-100.686-106.248c-0.045,0.074-0.113,0.136-0.18,0.213c-0.743-0.451-1.46-0.891-2.324-1.416
				c0.232-0.342,0.493-0.677,0.704-1.039c1.238-2.103,2.463-4.211,3.688-6.32c0.28-0.481,0.613-0.989,1.212-0.916
				c0.44,0.057,0.945,0.297,1.238,0.621c0.389,0.435,0.252,1-0.044,1.508C-97.829-111.151-99.255-108.698-100.686-106.248z"/>
		</g>
		<g>
			<path fill="#FFFFFF" d="M-72.582,96.473c-4.023,0-7.297-3.441-7.297-7.671s3.273-7.67,7.297-7.67
				c0.576,0,1.134,0.078,1.672,0.211l7.907-12.353V44.683h20.51v63.345l-14.645-11.645c-0.534,0.271-1.125,0.436-1.758,0.436
				c-2.244,0-4.062-1.914-4.062-4.271c0-2.359,1.818-4.272,4.062-4.272c2.246,0,4.064,1.913,4.064,4.272
				c0,0.189-0.03,0.371-0.053,0.555l8.542,6.792V48.729h-12.812v21.495l-8.365,13.066c1.375,1.395,2.234,3.348,2.234,5.511
				C-65.284,93.031-68.558,96.473-72.582,96.473z M-72.582,85.179c-1.901,0-3.448,1.625-3.448,3.623
				c0,1.999,1.547,3.625,3.448,3.625s3.448-1.626,3.448-3.625C-69.134,86.804-70.681,85.179-72.582,85.179z"/>
			<path fill="#FFFFFF" d="M-110.501,15.892V0.142h3.85v5.853h10.055v-18.748l24.898,26.174v50.084l-5.694,10.161
				c0.371,0.645,0.598,1.394,0.598,2.202c0,2.36-1.819,4.273-4.063,4.273c-2.245,0-4.064-1.913-4.064-4.273s1.819-4.271,4.064-4.271
				c0.052,0,0.1,0.014,0.15,0.016l5.16-9.21V15.096L-92.747-2.986v45.145c2.412,0.85,4.158,3.244,4.158,6.062
				c0,3.525-2.729,6.396-6.084,6.396s-6.084-2.87-6.084-6.396c0-2.819,1.746-5.215,4.16-6.063V10.039h-10.055v5.853H-110.501z
				 M-96.907,48.221c0,1.295,1.003,2.349,2.234,2.349c1.232,0,2.234-1.054,2.234-2.349c0-1.296-1.002-2.35-2.234-2.35
				C-95.904,45.871-96.907,46.925-96.907,48.221z"/>
			<path fill="#FFFFFF" d="M-67.249-92.964c0-1.524,1.053-2.784,2.436-3.036l10.357-16.641h24.584l15.165,26.83v192.25
				l-18.847,8.757V61.191c-1.848-0.893-3.133-2.851-3.133-5.129c0-3.12,2.406-5.647,5.373-5.647s5.373,2.527,5.373,5.647
				c0,2.53-1.583,4.671-3.764,5.391v47.531l11.148-5.18V37.799h-47.002V8.145l-40.388-41.174c-0.422,0.155-0.868,0.257-1.341,0.257
				c-2.244,0-4.064-1.916-4.064-4.274c0-2.359,1.82-4.273,4.064-4.273s4.063,1.914,4.063,4.273c0,0.354-0.053,0.693-0.13,1.022
				l41.645,42.455v27.321h8.553V7.594c-3.092-0.891-5.373-3.863-5.373-7.392c0-4.231,3.273-7.671,7.297-7.671
				s7.297,3.439,7.297,7.671c0,3.527-2.281,6.499-5.372,7.392v26.158h30.751V-84.699l-13.506-23.895h-20.313l-9.148,14.694
				c0.091,0.297,0.152,0.607,0.152,0.936c0,1.707-1.315,3.091-2.939,3.091C-65.934-89.873-67.249-91.257-67.249-92.964z
				 M-47.784,0.202c0-1.999-1.546-3.624-3.447-3.624s-3.448,1.625-3.448,3.624c0,1.998,1.547,3.624,3.448,3.624
				S-47.784,2.2-47.784,0.202z"/>
			<path fill="#FFFFFF" d="M-61.077-71.207c-2.244,0-4.064-1.913-4.064-4.271c0-2.362,1.82-4.273,4.064-4.273
				c0.1,0,0.193,0.023,0.292,0.031l10.78-17.623h12.541l9.21,14.975v50.082c3.091,0.891,5.372,3.861,5.372,7.391
				c0,4.229-3.273,7.67-7.297,7.67s-7.297-3.441-7.297-7.67c0-3.529,2.281-6.5,5.373-7.391v-19.51h-20.738
				c-0.603,1.565-2.058,2.673-3.764,2.673c-2.244,0-4.064-1.912-4.064-4.271c0-2.361,1.82-4.273,4.064-4.273
				c1.377,0,2.59,0.724,3.324,1.825h21.178v-25.333l-7.457-12.123h-8.344l-9.636,15.755c0.325,0.614,0.526,1.312,0.526,2.065
				C-57.013-73.12-58.833-71.207-61.077-71.207z M-33.626-24.896c0,1.999,1.547,3.624,3.447,3.624s3.447-1.625,3.447-3.624
				s-1.547-3.625-3.447-3.625S-33.626-26.896-33.626-24.896z"/>
			<path fill="#FFFFFF" d="M-120.349,20.813c2.244,0,4.063,1.913,4.063,4.272c0,0.484-0.094,0.942-0.234,1.377
				c3.189,3.087,7.158,5.236,11.296,6.07l1.965,0.395l-0.451,2.048c-0.903,4.101-1.361,8.312-1.361,12.52
				c0,29.497,22.693,55.355,53.978,61.521l0.987,0.125l0.488,0.713c4.527,6.59,12.232,10.523,20.611,10.523
				c10.127,0,19.312-5.992,22.855-14.719c0.186-0.636,0.383-1.709,0.383-3.459V36.005c-1.338-0.759-2.259-2.229-2.259-3.936
				c0-2.474,1.915-4.489,4.271-4.489c2.355,0.002,4.271,2.016,4.271,4.489c0,1.781-1,3.31-2.434,4.035v66.095v1.191
				c0,1.541-0.357,2.854-0.568,3.501c-4.072,10.528-14.547,17.532-26.52,17.532c-9.323,0-17.949-4.292-23.249-11.522
				c-32.869-6.683-56.665-34.106-56.665-65.406c0-3.841,0.355-7.683,1.059-11.452c-4.272-1.213-8.197-3.551-11.497-6.828
				c-0.318,0.084-0.646,0.143-0.989,0.143c-2.246,0-4.065-1.912-4.065-4.271S-122.595,20.813-120.349,20.813z M-3.757,34.19
				c1.113,0,2.018-0.951,2.018-2.121c0-1.169-0.904-2.121-2.018-2.121c-1.112,0-2.018,0.952-2.018,2.121
				C-5.774,33.239-4.869,34.19-3.757,34.19z"/>
			<path fill="#FFFFFF" d="M-3.757,18.73c-2.355,0-4.271-2.014-4.271-4.488c0-1.707,0.921-3.176,2.259-3.935V-95.365
				c-4.236-15.109-18.938-25.639-35.856-25.639c-18.978,0-35.179,13.667-36.88,31.113l-0.174,1.766l-1.688,0.051
				c-0.294,0.008-0.573,0.086-0.831,0.236c-3.79,2.18-6.966,5.125-9.333,8.555h22.147v39.388l4.131,5.099h23.182v14.95
				l13.387,28.463c2.787,0.206,4.99,2.642,4.99,5.626c0,3.119-2.406,5.648-5.373,5.648s-5.373-2.529-5.373-5.648
				c0-1.791,0.795-3.383,2.031-4.417l-12.209-25.958h-26.945L-80.755-27.48c-1.076,0.659-2.323,1.043-3.656,1.043
				c-4.023,0-7.297-3.44-7.297-7.67c0-4.23,3.273-7.671,7.297-7.671s7.297,3.44,7.297,7.671c0,1.36-0.342,2.637-0.936,3.745
				l9.146,10.184h23.982V-30.75H-66.03l-21.857-26.98c-0.193,0.03-0.387,0.062-0.588,0.062c-2.244,0-4.064-1.913-4.064-4.271
				c0-2.359,1.82-4.271,4.064-4.271c2.245,0,4.064,1.912,4.064,4.271c0,0.641-0.144,1.242-0.384,1.787l12.562,15.506v-30.59h-20.614
				c-0.787,1.711-1.391,3.501-1.79,5.346c-0.715,3.301-0.771,6.651-0.171,9.961l0.351,1.925l-1.82,0.427
				c-13.746,3.238-22.918,14.694-22.304,27.861c0.274,5.868,2.515,11.4,6.479,15.996l1.722,1.998l-2.304,1.181
				c-3.204,1.642-5.941,4.171-7.917,7.313c-1.086,1.729-1.916,3.593-2.491,5.553c2.11,1.213,3.545,3.568,3.545,6.271
				c0,3.937-3.047,7.14-6.793,7.14c-3.747,0-6.795-3.203-6.795-7.14c0-3.756,2.772-6.836,6.277-7.115
				c0.684-2.453,1.691-4.786,3.045-6.94c1.904-3.028,4.403-5.581,7.311-7.48c-3.605-4.892-5.644-10.575-5.924-16.579
				c-0.67-14.354,9.145-27.352,23.556-31.545c-0.378-3.24-0.217-6.504,0.479-9.723c1.848-8.546,7.441-16.055,15.342-20.6
				c0.285-0.164,0.585-0.303,0.894-0.413c2.646-18.764,20.144-33.249,40.531-33.249c18.729,0,35.026,11.859,39.632,28.842
				l0.074,0.271V10.208c1.434,0.726,2.434,2.253,2.434,4.034C0.515,16.717-1.401,18.73-3.757,18.73z M-84.411-37.732
				c-1.901,0-3.448,1.627-3.448,3.625s1.547,3.623,3.448,3.623s3.448-1.625,3.448-3.623S-82.51-37.732-84.411-37.732z
				 M-126.341,5.499c-1.625,0-2.945,1.389-2.945,3.097c0,1.705,1.32,3.093,2.945,3.093c1.623,0,2.943-1.388,2.943-3.093
				C-123.397,6.888-124.718,5.499-126.341,5.499z"/>
		</g>
	</g>
</symbol>
<g id="Nuevo_símbolo">
</g>
<g id="Nuevo_símbolo_4">
</g>
<g>
	<g>
		<defs>
			<path id="SVGID_1719_" d="M87.067,50c0,20.475-16.597,37.066-37.066,37.066c-20.472,0-37.068-16.592-37.068-37.066
				c0-20.469,16.597-37.066,37.068-37.066C70.471,12.934,87.067,29.531,87.067,50z"/>
		</defs>
		<clipPath id="SVGID_2_">
			<use xlink:href="#SVGID_1719_"  overflow="visible"/>
		</clipPath>
		<g clip-path="url(#SVGID_2_)">
			<path fill="#221E20" d="M26.232,98.541L2.61,25.506L111.936-9.857l23.552,72.809l0.074,0.227L26.232,98.541z M135.264,63.025
				l-0.071-0.225L135.264,63.025z M26.542,97.949l108.422-35.072L111.622-9.26L3.207,25.811L26.542,97.949z"/>
			<polygon fill="#FFFFFF" points="20.974,81.496 129.848,46.283 128.041,40.695 19.169,75.914 			"/>
			
				<rect x="15.488" y="52.572" transform="matrix(-0.9515 0.3078 -0.3078 -0.9515 158.9582 85.9486)" fill="#BE1732" width="114.427" height="5.875"/>
			
				<rect x="20.908" y="69.331" transform="matrix(-0.9515 0.3078 -0.3078 -0.9515 174.6871 116.9761)" fill="#FFFFFF" width="114.424" height="5.864"/>
			
				<rect x="22.71" y="74.912" transform="matrix(-0.9515 0.3078 -0.3078 -0.9515 179.9272 127.3113)" fill="#BE1732" width="114.427" height="5.866"/>
			
				<rect x="19.1" y="63.746" transform="matrix(-0.9515 0.3077 -0.3077 -0.9515 169.4426 106.641)" fill="#BE1732" width="114.426" height="5.867"/>
			
				<rect x="13.68" y="46.988" transform="matrix(-0.9515 0.3077 -0.3077 -0.9515 153.7099 75.6036)" fill="#FFFFFF" width="114.427" height="5.867"/>
			
				<rect x="8.263" y="30.246" transform="matrix(-0.9515 0.3078 -0.3078 -0.9515 137.9856 44.5943)" fill="#BE1732" width="114.427" height="5.865"/>
			
				<rect x="2.844" y="13.489" transform="matrix(0.9515 -0.3077 0.3077 0.9515 -2.1392 19.2786)" fill="#FFFFFF" width="114.424" height="5.865"/>
			
				<rect x="58.923" y="-35.206" transform="matrix(-0.3074 -0.9516 0.9516 -0.3074 59.9425 87.6419)" fill="#BE1732" width="5.883" height="114.428"/>
			
				<rect x="11.873" y="41.409" transform="matrix(-0.9515 0.3078 -0.3078 -0.9515 148.4683 65.2688)" fill="#BE1732" width="114.428" height="5.865"/>
			
				<rect x="1.038" y="7.915" transform="matrix(0.9515 -0.3078 0.3078 0.9515 -0.5099 18.4543)" fill="#BE1732" width="114.429" height="5.857"/>
			
				<rect x="6.457" y="24.665" transform="matrix(-0.9515 0.3078 -0.3078 -0.9515 132.7441 34.2591)" fill="#FFFFFF" width="114.428" height="5.866"/>
			
				<rect x="10.07" y="35.824" transform="matrix(-0.9515 0.3078 -0.3078 -0.9515 143.2281 54.9298)" fill="#FFFFFF" width="114.425" height="5.869"/>
			
				<rect x="8.131" y="17.625" transform="matrix(0.9515 -0.3078 0.3078 0.9515 -10.2467 11.3988)" fill="#22315F" width="45.77" height="41.124"/>
			<polygon fill="#FFFFFF" points="36.298,17.174 36.895,18.002 37.868,17.684 37.267,18.514 37.87,19.34 36.896,19.023 
				36.291,19.852 36.295,18.828 35.322,18.508 36.295,18.195 			"/>
			<polygon fill="#FFFFFF" points="38.93,25.305 39.526,26.133 40.5,25.82 39.897,26.648 40.501,27.475 39.526,27.154 
				38.921,27.984 38.926,26.965 37.952,26.645 38.926,26.326 			"/>
			<polygon fill="#FFFFFF" points="41.562,33.439 42.158,34.268 43.132,33.953 42.528,34.781 43.132,35.605 42.16,35.289 
				41.553,36.117 41.558,35.094 40.583,34.773 41.558,34.461 			"/>
			<polygon fill="#FFFFFF" points="44.25,41.75 44.847,42.584 45.819,42.266 45.219,43.096 45.82,43.922 44.849,43.604 
				44.241,44.432 44.245,43.41 43.274,43.09 44.248,42.775 			"/>
			<polygon fill="#FFFFFF" points="46.819,49.693 47.416,50.521 48.39,50.209 47.789,51.039 48.39,51.865 47.417,51.547 
				46.812,52.373 46.816,51.354 45.843,51.031 46.816,50.719 			"/>
			<polygon fill="#FFFFFF" points="29.009,19.527 29.606,20.355 30.587,20.043 29.979,20.867 30.58,21.695 29.609,21.379 
				29.003,22.211 29.007,21.184 28.033,20.867 29.008,20.551 			"/>
			<polygon fill="#FFFFFF" points="31.641,27.664 32.237,28.488 33.217,28.176 32.61,29.006 33.212,29.832 32.238,29.512 
				31.634,30.338 31.64,29.318 30.664,29 31.64,28.686 			"/>
			<polygon fill="#FFFFFF" points="34.271,35.797 34.868,36.623 35.849,36.307 35.242,37.139 35.844,37.967 34.871,37.646 
				34.265,38.475 34.269,37.451 33.295,37.135 34.27,36.818 			"/>
			<polygon fill="#FFFFFF" points="36.963,44.109 37.558,44.939 38.537,44.623 37.93,45.455 38.531,46.283 37.56,45.959 
				36.954,46.793 36.958,45.768 35.985,45.451 36.96,45.133 			"/>
			<polygon fill="#FFFFFF" points="39.53,52.051 40.127,52.879 41.107,52.564 40.5,53.393 41.102,54.221 40.13,53.902 
				39.521,54.732 39.526,53.709 38.553,53.393 39.526,53.076 			"/>
			<polygon fill="#FFFFFF" points="21.72,21.889 22.32,22.717 23.293,22.402 22.69,23.229 23.293,24.057 22.32,23.736 
				21.713,24.564 21.718,23.541 20.744,23.223 21.72,22.91 			"/>
			<polygon fill="#FFFFFF" points="24.353,30.02 24.949,30.85 25.922,30.537 25.321,31.365 25.926,32.193 24.952,31.867 
				24.345,32.699 24.35,31.678 23.377,31.357 24.35,31.043 			"/>
			<polygon fill="#FFFFFF" points="26.983,38.154 27.581,38.982 28.555,38.668 27.953,39.496 28.557,40.324 27.581,40.002 
				26.976,40.834 26.979,39.809 26.008,39.492 26.979,39.178 			"/>
			<polygon fill="#FFFFFF" points="29.673,46.471 30.27,47.299 31.244,46.979 30.642,47.812 31.244,48.639 30.273,48.318 
				29.666,49.146 29.67,48.125 28.697,47.805 29.67,47.492 			"/>
			<polygon fill="#FFFFFF" points="32.241,54.41 32.84,55.238 33.812,54.926 33.211,55.754 33.813,56.582 32.841,56.262 
				32.234,57.094 32.238,56.066 31.266,55.748 32.238,55.432 			"/>
			<polygon fill="#FFFFFF" points="14.428,24.242 15.032,25.07 16.005,24.754 15.401,25.586 16.005,26.414 15.027,26.098 
				14.425,26.922 14.431,25.898 13.45,25.584 14.425,25.27 			"/>
			<polygon fill="#FFFFFF" points="17.061,32.381 17.662,33.207 18.633,32.893 18.032,33.719 18.636,34.547 17.659,34.229 
				17.058,35.061 17.061,34.031 16.082,33.713 17.056,33.4 			"/>
			<polygon fill="#FFFFFF" points="19.689,40.514 20.293,41.338 21.265,41.029 20.665,41.854 21.267,42.68 20.289,42.363 
				19.689,43.191 19.692,42.17 18.714,41.85 19.687,41.535 			"/>
			<polygon fill="#FFFFFF" points="22.379,48.824 22.984,49.658 23.956,49.34 23.354,50.17 23.956,50.992 22.978,50.68 
				22.378,51.504 22.381,50.48 21.403,50.164 22.377,49.848 			"/>
			<polygon fill="#FFFFFF" points="24.949,56.771 25.552,57.594 26.523,57.281 25.922,58.109 26.526,58.936 25.548,58.621 
				24.947,59.449 24.949,58.428 23.974,58.109 24.947,57.789 			"/>
			<polygon fill="#FFFFFF" points="7.138,26.604 7.741,27.432 8.716,27.115 8.114,27.945 8.711,28.773 7.738,28.451 7.136,29.281 
				7.135,28.26 6.163,27.943 7.142,27.623 			"/>
			<polygon fill="#FFFFFF" points="9.771,34.734 10.374,35.566 11.345,35.248 10.746,36.074 11.34,36.906 10.369,36.584 
				9.77,37.412 9.766,36.393 8.795,36.074 9.772,35.756 			"/>
			<polygon fill="#FFFFFF" points="12.402,42.869 13.004,43.699 13.978,43.383 13.376,44.215 13.975,45.041 13,44.719 12.4,45.545 
				12.396,44.525 11.427,44.209 12.403,43.891 			"/>
			<polygon fill="#FFFFFF" points="15.091,51.186 15.694,52.01 16.666,51.697 16.066,52.525 16.662,53.354 15.688,53.037 
				15.088,53.863 15.087,52.842 14.114,52.525 15.094,52.205 			"/>
			<polygon fill="#FFFFFF" points="17.659,59.129 18.263,59.955 19.236,59.643 18.636,60.467 19.232,61.297 18.258,60.977 
				17.659,61.807 17.656,60.785 16.684,60.467 17.662,60.15 			"/>
			<polygon fill="#FFFFFF" points="41.328,20.029 41.929,20.867 42.907,20.555 42.302,21.371 42.902,22.211 41.929,21.895 
				41.33,22.719 41.323,21.689 40.354,21.379 41.327,21.066 			"/>
			<polygon fill="#FFFFFF" points="44.045,28.432 44.642,29.258 45.62,28.938 45.019,29.773 45.616,30.598 44.645,30.279 
				44.043,31.109 44.042,30.088 43.069,29.766 44.042,29.453 			"/>
			<polygon fill="#FFFFFF" points="46.629,36.674 47.226,37.5 48.206,37.188 47.604,38.014 48.2,38.842 47.226,38.521 
				46.627,39.352 46.626,38.328 45.651,38.01 46.629,37.693 			"/>
			<polygon fill="#FFFFFF" points="49.188,44.83 49.789,45.658 50.761,45.344 50.16,46.174 50.763,46.998 49.785,46.68 
				49.184,47.51 49.188,46.486 48.21,46.164 49.188,45.852 			"/>
			<polygon fill="#FFFFFF" points="34.034,22.393 34.642,23.229 35.614,22.912 35.009,23.729 35.614,24.57 34.638,24.248 
				34.034,25.078 34.034,24.049 33.066,23.736 34.041,23.424 			"/>
			<polygon fill="#FFFFFF" points="36.753,30.787 37.353,31.619 38.326,31.299 37.726,32.133 38.328,32.955 37.35,32.639 
				36.749,33.471 36.753,32.443 35.782,32.125 36.753,31.812 			"/>
			<polygon fill="#FFFFFF" points="39.341,39.029 39.944,39.857 40.916,39.543 40.313,40.373 40.917,41.197 39.94,40.879 
				39.339,41.707 39.341,40.686 38.363,40.369 39.337,40.055 			"/>
			<polygon fill="#FFFFFF" points="41.904,47.186 42.501,48.016 43.473,47.701 42.872,48.525 43.476,49.359 42.501,49.037 
				41.894,49.869 41.898,48.846 40.927,48.525 41.894,48.209 			"/>
			<polygon fill="#FFFFFF" points="26.655,24.463 27.256,25.287 28.229,24.973 27.629,25.803 28.23,26.625 27.253,26.312 
				26.649,27.141 26.655,26.117 25.682,25.799 26.649,25.482 			"/>
			<polygon fill="#FFFFFF" points="29.367,32.85 29.968,33.672 30.941,33.359 30.341,34.188 30.944,35.018 29.968,34.707 
				29.364,35.527 29.369,34.502 28.396,34.188 29.363,33.873 			"/>
			<polygon fill="#FFFFFF" points="31.961,41.102 32.557,41.93 33.534,41.615 32.928,42.441 33.531,43.268 32.561,42.949 
				31.952,43.781 31.957,42.76 30.981,42.438 31.957,42.123 			"/>
			<polygon fill="#FFFFFF" points="34.516,49.258 35.113,50.084 36.092,49.771 35.488,50.588 36.089,51.428 35.115,51.111 
				34.514,51.939 34.508,50.906 33.542,50.596 34.511,50.283 			"/>
			<polygon fill="#FFFFFF" points="19.342,26.744 19.942,27.57 20.917,27.258 20.314,28.086 20.912,28.912 19.94,28.594 
				19.338,29.424 19.344,28.4 18.364,28.084 19.342,27.764 			"/>
			<polygon fill="#FFFFFF" points="22.054,35.133 22.657,35.959 23.63,35.646 23.028,36.475 23.624,37.301 22.654,36.98 
				22.053,37.809 22.058,36.787 21.077,36.471 22.055,36.152 			"/>
			<polygon fill="#FFFFFF" points="24.645,43.377 25.242,44.203 26.213,43.887 25.612,44.719 26.215,45.545 25.244,45.223 
				24.638,46.055 24.642,45.031 23.667,44.711 24.642,44.398 			"/>
			<polygon fill="#FFFFFF" points="27.2,51.531 27.801,52.357 28.776,52.045 28.17,52.873 28.772,53.699 27.799,53.379 
				27.197,54.207 27.202,53.186 26.225,52.867 27.195,52.557 			"/>
			<polygon fill="#FFFFFF" points="12.004,28.951 12.607,29.779 13.58,29.465 12.974,30.299 13.574,31.123 12.604,30.801 
				11.997,31.635 12.001,30.611 11.027,30.293 12.001,29.973 			"/>
			<polygon fill="#FFFFFF" points="14.718,37.34 15.317,38.168 16.293,37.854 15.687,38.682 16.288,39.51 15.317,39.193 
				14.71,40.023 14.715,39 13.741,38.682 14.715,38.363 			"/>
			<polygon fill="#FFFFFF" points="17.306,45.592 17.908,46.42 18.879,46.107 18.273,46.938 18.882,47.764 17.903,47.443 
				17.303,48.273 17.307,47.25 16.331,46.932 17.303,46.619 			"/>
			<polygon fill="#FFFFFF" points="19.863,53.74 20.46,54.568 21.44,54.252 20.833,55.084 21.434,55.912 20.463,55.588 
				19.856,56.422 19.861,55.398 18.888,55.076 19.861,54.768 			"/>
			<polygon fill="#FFFFFF" points="43.585,14.812 44.182,15.645 45.162,15.328 44.562,16.152 45.157,16.982 44.185,16.662 
				43.584,17.494 43.582,16.473 42.61,16.152 43.582,15.834 			"/>
			<polygon fill="#FFFFFF" points="46.22,22.947 46.816,23.775 47.794,23.459 47.192,24.289 47.789,25.113 46.816,24.799 
				46.215,25.625 46.215,24.604 45.242,24.287 46.213,23.969 			"/>
			<polygon fill="#FFFFFF" points="48.849,31.078 49.443,31.91 50.426,31.594 49.823,32.42 50.42,33.246 49.448,32.93 
				48.847,33.758 48.847,32.738 47.873,32.418 48.844,32.1 			"/>
			<polygon fill="#FFFFFF" points="51.538,39.395 52.135,40.223 53.115,39.908 52.512,40.736 53.108,41.566 52.137,41.25 
				51.535,42.076 51.535,41.051 50.561,40.734 51.535,40.416 			"/>
			<polygon fill="#FFFFFF" points="54.108,47.338 54.705,48.164 55.683,47.848 55.083,48.676 55.68,49.508 54.707,49.191 
				54.105,50.02 54.104,48.992 53.131,48.676 54.104,48.363 			"/>
		</g>
	</g>
	<path opacity="0.3" fill="#FFFFFF" d="M74.553,25.717c2.874,5.557,4.539,12.141,4.539,19.201c0,19.865-13.17,35.971-29.417,35.971
		c-16.246,0-29.418-16.105-29.418-35.971c0-7.061,1.666-13.645,4.54-19.201c-5.7,6.088-9.19,14.271-9.19,23.27
		c0,18.814,15.254,34.068,34.068,34.068s34.068-15.254,34.068-34.068C83.743,39.988,80.252,31.805,74.553,25.717z"/>
	<g>
		<path fill="#FFFFFF" d="M15.078,49.525c0-4.66,0.665-9.164,1.902-13.426c-1.64,4.162-2.539,8.688-2.539,13.426
			c0,4.73,0.899,9.26,2.539,13.422C15.743,58.682,15.078,54.18,15.078,49.525z"/>
		<path fill="#FFFFFF" d="M85.126,49.104c0-4.658-0.665-9.162-1.902-13.422c1.64,4.16,2.539,8.686,2.539,13.422
			c0,4.734-0.899,9.258-2.539,13.426C84.461,58.264,85.126,53.764,85.126,49.104z"/>
		<path fill="#FFFFFF" d="M50.001,84.666c-15.366,0-28.466-9.576-33.531-23.014c4.687,13.861,17.927,23.854,33.531,23.854
			c15.602,0,28.843-9.992,33.528-23.854C78.464,75.09,65.364,84.666,50.001,84.666z"/>
		<path fill="#FFFFFF" d="M50.001,14.232c15.363,0,28.463,9.574,33.528,23.016c-4.686-13.863-17.927-23.859-33.528-23.859
			c-15.604,0-28.845,9.998-33.531,23.859C21.535,23.807,34.635,14.232,50.001,14.232z"/>
	</g>
	<linearGradient id="SVGID_4_" gradientUnits="userSpaceOnUse" x1="49.9492" y1="54.2314" x2="50.0271" y2="23.8408">
		<stop  offset="0" style="stop-color:#FFFFFF;stop-opacity:0"/>
		<stop  offset="1" style="stop-color:#FFFFFF"/>
	</linearGradient>
	<path opacity="0.5" fill="url(#SVGID_4_)" d="M78.422,34.584c0,10.986-12.727,19.896-28.421,19.896
		c-15.696,0-28.424-8.91-28.424-19.896c0-10.994,12.728-19.9,28.424-19.9C65.695,14.684,78.422,23.59,78.422,34.584z"/>
</g>
</svg>
