<?xml version="1.0" encoding="utf-8"?>
<!DOCTYPE svg PUBLIC "-//W3C//DTD SVG 1.1//EN" "http://www.w3.org/Graphics/SVG/1.1/DTD/svg11.dtd">
<svg version="1.1" xmlns="http://www.w3.org/2000/svg" xmlns:xlink="http://www.w3.org/1999/xlink" x="0px" y="0px" width="1024px" height="1024px" viewBox="0 0 1024 1024" enable-background="new 0 0 1024 1024" xml:space="preserve">
<metadata> Free Icon Download -- www.onlinewebfonts.com </metadata>

  <path d="M892.246125 266.068064c0.246617-8.393166-4.087089-18.021463-12.261267-25.917302L711.751105 80.740986c-14.860467-14.054101-52.074058-10.867523-54.303844-10.618859l-477.395331 0c-26.686829 0-48.419828 20.49582-48.419828 45.911702l0 792.445019c0 25.261362 21.609179 45.881003 48.419828 45.881003l663.897166 0c26.686829 0 48.419828-20.49582 48.419828-45.881003L892.246125 266.068064 892.246125 266.068064 892.246125 266.068064 892.246125 266.068064zM809.707188 266.068064l-100.865346 0c-13.374625 0-24.148004-10.250468-24.148004-22.975294l0-95.600431L809.707188 266.068064 809.707188 266.068064 809.707188 266.068064zM799.738129 891.203375l-575.475235 0c-13.374625 0-24.210426-10.250468-24.210426-22.975294l0-712.099029c0-12.694126 10.8358-22.940501 24.210426-22.940501l391.575671 0 0 151.389094c0 25.265455 21.611225 45.886119 48.421874 45.886119l159.62774 0 0 537.764318C823.88818 880.95393 813.111731 891.203375 799.738129 891.203375L799.738129 891.203375 799.738129 891.203375zM494.413954 385.475737c0 6.288223-5.447064 11.4856-12.072979 11.4856l-199.998233 0c-6.688336 0-12.137447-5.197377-12.137447-11.4856l0-42.814151c0-6.2872 5.449111-11.454901 12.137447-11.454901l199.998233 0c6.625914 0 12.072979 5.167701 12.072979 11.454901L494.413954 385.475737 494.413954 385.475737 494.413954 385.475737zM754.043369 515.755026c0 6.313806-5.449111 11.4856-12.137447 11.4856l-459.687 0c-6.688336 0-12.137447-5.171795-12.137447-11.4856l0-41.827683c0-6.28413 5.449111-11.454901 12.137447-11.454901l459.687 0c6.688336 0 12.137447 5.171795 12.137447 11.454901L754.043369 515.755026 754.043369 515.755026 754.043369 515.755026zM754.043369 646.434428c0 6.25343-5.449111 11.455924-12.137447 11.455924l-459.687 0c-6.688336 0-12.137447-5.202494-12.137447-11.455924l0-41.857359c0-6.28413 5.449111-11.454901 12.137447-11.454901l459.687 0c6.688336 0 12.137447 5.171795 12.137447 11.454901L754.043369 646.434428 754.043369 646.434428 754.043369 646.434428zM754.043369 778.167836c0 6.317899-5.449111 11.4856-12.137447 11.4856l-459.687 0c-6.688336 0-12.137447-5.167701-12.137447-11.4856l0-41.827683c0-6.28413 5.449111-11.450808 12.137447-11.450808l459.687 0c6.688336 0 12.137447 5.167701 12.137447 11.450808L754.043369 778.167836 754.043369 778.167836 754.043369 778.167836zM754.043369 778.167836" />


</svg>