<?xml version="1.0" encoding="utf-8"?>
<!-- Generator: Adobe Illustrator 16.0.0, SVG Export Plug-In . SVG Version: 6.00 Build 0)  -->
<!DOCTYPE svg PUBLIC "-//W3C//DTD SVG 1.1//EN" "http://www.w3.org/Graphics/SVG/1.1/DTD/svg11.dtd">
<svg version="1.1" id="Capa_1" xmlns="http://www.w3.org/2000/svg" xmlns:xlink="http://www.w3.org/1999/xlink" x="0px" y="0px"
	 width="300px" height="300px" viewBox="0 0 300 300" enable-background="new 0 0 300 300" xml:space="preserve">
<g id="Forma_1_633_">
	<g>
		<path fill="#FFFFFF" d="M288.461,134.515c-0.431-3.916-5.002-6.87-8.964-6.87c-12.766,0-24.083-7.502-28.858-19.114
			c-4.844-11.884-1.709-25.748,7.81-34.496c2.986-2.738,3.359-7.333,0.848-10.479c-6.531-8.341-13.977-15.845-22.08-22.341
			c-3.169-2.557-7.832-2.195-10.594,0.85c-8.306,9.2-23.223,12.619-34.743,7.819c-11.997-5.046-19.556-17.225-18.821-30.284
			c0.237-4.098-2.762-7.663-6.847-8.149c-10.401-1.223-20.902-1.246-31.339-0.068c-4.039,0.43-7.039,3.917-6.892,7.967
			c0.453,12.926-7.221,24.877-19.092,29.765c-11.386,4.64-26.199,1.257-34.482-7.865c-2.742-3.022-7.324-3.384-10.527-0.872
			c-8.352,6.542-15.935,14.044-22.532,22.295c-2.58,3.192-2.207,7.832,0.826,10.594c9.698,8.794,12.833,22.794,7.786,34.811
			c-4.799,11.465-16.705,18.855-30.309,18.855c-4.426-0.157-7.559,2.82-8.058,6.837c-1.222,10.49-1.233,21.164-0.056,31.724
			c0.441,3.949,5.148,6.869,9.144,6.869c12.122-0.306,23.778,7.186,28.666,19.126c4.867,11.872,1.745,25.736-7.81,34.474
			c-2.963,2.76-3.349,7.321-0.836,10.523c6.485,8.24,13.897,15.777,22.047,22.307c3.191,2.591,7.842,2.231,10.604-0.837
			c8.342-9.234,23.258-12.642,34.732-7.82c12.043,5.049,19.602,17.203,18.855,30.274c-0.238,4.107,2.773,7.696,6.836,8.159
			c5.342,0.612,10.684,0.917,16.048,0.917c5.116,0,10.209-0.282,15.312-0.849c4.04-0.43,7.027-3.917,6.893-7.967
			c-0.463-12.926,7.197-24.921,19.059-29.742c11.476-4.721,26.222-1.268,34.517,7.842c2.761,3.012,7.312,3.363,10.504,0.873
			c8.351-6.543,15.923-14.045,22.555-22.308c2.57-3.181,2.207-7.844-0.838-10.582c-9.698-8.794-12.845-22.792-7.798-34.8
			c4.73-11.327,16.184-18.923,28.499-18.923l1.718,0.058c3.995,0.326,7.675-2.774,8.16-6.848
			C289.637,155.76,289.637,145.086,288.461,134.515z M150.229,196.829c-25.643,0-46.48-20.869-46.48-46.526
			c0-25.656,20.838-46.525,46.48-46.525c25.624,0,46.47,20.869,46.47,46.525C196.699,175.96,175.854,196.829,150.229,196.829z"/>
	</g>
</g>
</svg>
