<?xml version="1.0" encoding="utf-8"?>
<!-- Generator: Adobe Illustrator 17.0.0, SVG Export Plug-In . SVG Version: 6.00 Build 0)  -->
<!DOCTYPE svg PUBLIC "-//W3C//DTD SVG 1.1//EN" "http://www.w3.org/Graphics/SVG/1.1/DTD/svg11.dtd">
<svg version="1.1" id="Capa_1" xmlns="http://www.w3.org/2000/svg" xmlns:xlink="http://www.w3.org/1999/xlink" x="0px" y="0px"
	 width="1356px" height="7px" viewBox="0 0 1356 7" enable-background="new 0 0 1356 7" xml:space="preserve">
<g>
	<rect y="1" fill="#157B9B" width="339" height="7"/>
	<rect x="339" y="1" fill="#0991A2" width="339" height="7"/>
	<rect x="678" y="1" fill="#00A090" width="339" height="7"/>
	<rect x="1017" y="1" fill="#00A266" width="339" height="7"/>
</g>
<g>
	<g>
		<path fill="#666666" d="M558.658,165.65c1.512-0.252,3.492-0.467,6.012-0.467c3.096,0,5.363,0.719,6.803,2.016
			c1.332,1.151,2.125,2.915,2.125,5.075c0,2.195-0.648,3.923-1.873,5.183c-1.654,1.764-4.355,2.664-7.414,2.664
			c-0.936,0-1.801-0.035-2.52-0.216v9.719h-3.133V165.65z M561.791,177.35c0.684,0.18,1.547,0.252,2.592,0.252
			c3.779,0,6.082-1.836,6.082-5.184c0-3.203-2.268-4.751-5.723-4.751c-1.367,0-2.412,0.108-2.951,0.252V177.35z"/>
		<path fill="#666666" d="M586.414,189.624l-0.252-2.196h-0.107c-0.973,1.368-2.844,2.592-5.328,2.592
			c-3.527,0-5.326-2.483-5.326-5.003c0-4.212,3.742-6.515,10.475-6.479v-0.359c0-1.439-0.396-4.031-3.959-4.031
			c-1.621,0-3.312,0.504-4.537,1.295l-0.719-2.088c1.439-0.936,3.527-1.547,5.723-1.547c5.328,0,6.623,3.635,6.623,7.127v6.516
			c0,1.512,0.072,2.986,0.289,4.175H586.414z M585.947,180.732c-3.457-0.071-7.379,0.541-7.379,3.924
			c0,2.053,1.367,3.023,2.986,3.023c2.268,0,3.709-1.439,4.213-2.915c0.107-0.324,0.18-0.685,0.18-1.008V180.732z"/>
		<path fill="#666666" d="M594.119,164.067h3.168v25.557h-3.168V164.067z"/>
		<path fill="#666666" d="M604.379,181.489c0.072,4.283,2.809,6.047,5.977,6.047c2.268,0,3.635-0.396,4.822-0.899l0.541,2.268
			c-1.117,0.504-3.025,1.08-5.797,1.08c-5.363,0-8.566-3.527-8.566-8.783s3.096-9.395,8.172-9.395c5.688,0,7.199,5.003,7.199,8.207
			c0,0.647-0.072,1.151-0.109,1.476H604.379z M613.666,179.221c0.035-2.016-0.828-5.146-4.391-5.146
			c-3.205,0-4.607,2.951-4.859,5.146H613.666z"/>
		<path fill="#666666" d="M624.467,167.199v5.003h4.535v2.411h-4.535v9.396c0,2.159,0.611,3.384,2.377,3.384
			c0.826,0,1.439-0.108,1.834-0.217l0.145,2.377c-0.611,0.251-1.584,0.432-2.807,0.432c-1.477,0-2.664-0.469-3.42-1.332
			c-0.9-0.936-1.225-2.484-1.225-4.535v-9.504h-2.699v-2.411h2.699v-4.175L624.467,167.199z"/>
		<path fill="#666666" d="M642.215,189.624l-0.252-2.196h-0.109c-0.971,1.368-2.842,2.592-5.326,2.592
			c-3.527,0-5.328-2.483-5.328-5.003c0-4.212,3.744-6.515,10.475-6.479v-0.359c0-1.439-0.395-4.031-3.959-4.031
			c-1.619,0-3.311,0.504-4.535,1.295l-0.721-2.088c1.441-0.936,3.527-1.547,5.725-1.547c5.326,0,6.623,3.635,6.623,7.127v6.516
			c0,1.512,0.072,2.986,0.287,4.175H642.215z M641.746,180.732c-3.455-0.071-7.379,0.541-7.379,3.924
			c0,2.053,1.367,3.023,2.988,3.023c2.268,0,3.707-1.439,4.211-2.915c0.107-0.324,0.18-0.685,0.18-1.008V180.732z"/>
		<path fill="#666666" d="M672.598,164.067v21.058c0,1.547,0.035,3.311,0.143,4.499h-2.842l-0.145-3.023h-0.072
			c-0.973,1.943-3.096,3.419-5.939,3.419c-4.211,0-7.451-3.562-7.451-8.854c-0.035-5.796,3.564-9.358,7.811-9.358
			c2.664,0,4.465,1.26,5.256,2.663h0.072v-10.402H672.598z M669.43,179.293c0-0.396-0.037-0.936-0.145-1.332
			c-0.467-2.016-2.195-3.671-4.57-3.671c-3.275,0-5.221,2.88-5.221,6.731c0,3.527,1.729,6.443,5.148,6.443
			c2.123,0,4.066-1.404,4.643-3.78c0.107-0.432,0.145-0.864,0.145-1.368V179.293z"/>
		<path fill="#666666" d="M679.619,181.489c0.072,4.283,2.807,6.047,5.975,6.047c2.268,0,3.635-0.396,4.824-0.899l0.539,2.268
			c-1.115,0.504-3.023,1.08-5.795,1.08c-5.363,0-8.566-3.527-8.566-8.783s3.096-9.395,8.17-9.395c5.688,0,7.199,5.003,7.199,8.207
			c0,0.647-0.072,1.151-0.107,1.476H679.619z M688.906,179.221c0.035-2.016-0.828-5.146-4.393-5.146
			c-3.203,0-4.607,2.951-4.859,5.146H688.906z"/>
		<path fill="#666666" d="M720.584,188.832c-1.15,0.576-3.455,1.152-6.406,1.152c-6.84,0-11.986-4.32-11.986-12.275
			c0-7.595,5.146-12.742,12.67-12.742c3.023,0,4.932,0.648,5.76,1.08l-0.756,2.556c-1.188-0.575-2.881-1.008-4.896-1.008
			c-5.688,0-9.467,3.636-9.467,10.007c0,5.939,3.42,9.755,9.324,9.755c1.906,0,3.852-0.396,5.111-1.008L720.584,188.832z"/>
		<path fill="#666666" d="M739.773,180.77c0,6.443-4.463,9.25-8.676,9.25c-4.715,0-8.35-3.455-8.35-8.963
			c0-5.831,3.814-9.25,8.639-9.25C736.389,171.807,739.773,175.441,739.773,180.77z M725.951,180.949
			c0,3.815,2.195,6.695,5.291,6.695c3.023,0,5.291-2.844,5.291-6.768c0-2.951-1.475-6.695-5.219-6.695
			S725.951,177.638,725.951,180.949z"/>
		<path fill="#666666" d="M743.771,164.067h3.166v25.557h-3.166V164.067z"/>
		<path fill="#666666" d="M768.033,180.77c0,6.443-4.463,9.25-8.676,9.25c-4.715,0-8.35-3.455-8.35-8.963
			c0-5.831,3.814-9.25,8.639-9.25C764.648,171.807,768.033,175.441,768.033,180.77z M754.211,180.949
			c0,3.815,2.195,6.695,5.291,6.695c3.023,0,5.291-2.844,5.291-6.768c0-2.951-1.475-6.695-5.219-6.695
			S754.211,177.638,754.211,180.949z"/>
		<path fill="#666666" d="M772.031,177.638c0-2.052-0.037-3.815-0.145-5.436h2.771l0.107,3.419h0.145
			c0.791-2.339,2.699-3.814,4.824-3.814c0.359,0,0.611,0.035,0.898,0.107v2.988c-0.324-0.072-0.646-0.108-1.08-0.108
			c-2.23,0-3.814,1.692-4.246,4.067c-0.072,0.432-0.145,0.936-0.145,1.477v9.286h-3.131V177.638z"/>
		<path fill="#666666" d="M785.207,181.489c0.072,4.283,2.807,6.047,5.975,6.047c2.268,0,3.635-0.396,4.824-0.899l0.539,2.268
			c-1.115,0.504-3.023,1.08-5.795,1.08c-5.363,0-8.566-3.527-8.566-8.783s3.096-9.395,8.17-9.395c5.688,0,7.199,5.003,7.199,8.207
			c0,0.647-0.072,1.151-0.107,1.476H785.207z M794.494,179.221c0.035-2.016-0.828-5.146-4.393-5.146
			c-3.203,0-4.607,2.951-4.859,5.146H794.494z"/>
		<path fill="#666666" d="M801.047,186.385c0.936,0.611,2.592,1.26,4.176,1.26c2.303,0,3.383-1.152,3.383-2.592
			c0-1.512-0.9-2.34-3.238-3.203c-3.133-1.117-4.607-2.844-4.607-4.932c0-2.809,2.268-5.111,6.01-5.111
			c1.764,0,3.312,0.504,4.283,1.08l-0.791,2.303c-0.684-0.432-1.943-1.008-3.564-1.008c-1.871,0-2.914,1.08-2.914,2.376
			c0,1.44,1.043,2.088,3.311,2.952c3.023,1.151,4.572,2.663,4.572,5.255c0,3.06-2.377,5.22-6.516,5.22
			c-1.908,0-3.672-0.469-4.895-1.188L801.047,186.385z"/>
	</g>
</g>
<g>
	<g>
		<path fill="#666666" d="M202.123,277.659c-0.672,0.336-2.016,0.672-3.736,0.672c-3.99,0-6.992-2.52-6.992-7.159
			c0-4.431,3.002-7.434,7.391-7.434c1.764,0,2.877,0.379,3.359,0.631l-0.441,1.49c-0.693-0.336-1.68-0.588-2.855-0.588
			c-3.316,0-5.521,2.121-5.521,5.837c0,3.464,1.994,5.69,5.438,5.69c1.113,0,2.246-0.231,2.982-0.588L202.123,277.659z"/>
		<path fill="#666666" d="M213.316,272.956c0,3.759-2.604,5.396-5.061,5.396c-2.75,0-4.871-2.016-4.871-5.228
			c0-3.401,2.227-5.396,5.039-5.396C211.344,267.729,213.316,269.849,213.316,272.956z M205.254,273.061
			c0,2.227,1.281,3.906,3.086,3.906c1.764,0,3.088-1.659,3.088-3.947c0-1.723-0.861-3.906-3.045-3.906
			S205.254,271.129,205.254,273.061z"/>
		<path fill="#666666" d="M215.65,263.214h1.848v14.907h-1.848V263.214z"/>
		<path fill="#666666" d="M229.803,272.956c0,3.759-2.604,5.396-5.061,5.396c-2.75,0-4.871-2.016-4.871-5.228
			c0-3.401,2.225-5.396,5.039-5.396C227.828,267.729,229.803,269.849,229.803,272.956z M221.74,273.061
			c0,2.227,1.279,3.906,3.086,3.906c1.764,0,3.086-1.659,3.086-3.947c0-1.723-0.861-3.906-3.045-3.906
			S221.74,271.129,221.74,273.061z"/>
		<path fill="#666666" d="M232.135,271.129c0-1.196-0.021-2.225-0.084-3.17h1.617l0.062,1.994h0.084
			c0.463-1.364,1.574-2.225,2.814-2.225c0.209,0,0.355,0.021,0.523,0.062v1.742c-0.188-0.041-0.377-0.062-0.629-0.062
			c-1.303,0-2.227,0.986-2.479,2.373c-0.041,0.252-0.084,0.545-0.084,0.86v5.417h-1.826V271.129z"/>
		<path fill="#666666" d="M239.82,273.376c0.043,2.499,1.639,3.527,3.486,3.527c1.322,0,2.121-0.231,2.812-0.524l0.316,1.322
			c-0.652,0.294-1.764,0.63-3.381,0.63c-3.129,0-4.998-2.058-4.998-5.123s1.807-5.479,4.768-5.479c3.316,0,4.199,2.918,4.199,4.787
			c0,0.377-0.043,0.672-0.064,0.86H239.82z M245.238,272.053c0.021-1.176-0.482-3.002-2.562-3.002c-1.867,0-2.688,1.722-2.834,3.002
			H245.238z"/>
		<path fill="#666666" d="M249.061,276.231c0.547,0.356,1.512,0.735,2.436,0.735c1.344,0,1.975-0.672,1.975-1.512
			c0-0.883-0.525-1.365-1.891-1.869c-1.826-0.65-2.688-1.658-2.688-2.877c0-1.637,1.322-2.98,3.506-2.98
			c1.029,0,1.932,0.293,2.5,0.629l-0.463,1.344c-0.398-0.252-1.133-0.588-2.078-0.588c-1.092,0-1.701,0.631-1.701,1.387
			c0,0.84,0.609,1.217,1.932,1.721c1.764,0.672,2.666,1.555,2.666,3.066c0,1.784-1.385,3.044-3.799,3.044
			c-1.113,0-2.143-0.272-2.855-0.692L249.061,276.231z"/>
	</g>
</g>
<g>
	<g>
		<path fill="#666666" d="M297.145,465.812c-0.449,0.225-1.346,0.448-2.494,0.448c-2.66,0-4.664-1.681-4.664-4.776
			c0-2.955,2.004-4.959,4.93-4.959c1.178,0,1.92,0.252,2.242,0.421l-0.295,0.994c-0.461-0.224-1.119-0.392-1.904-0.392
			c-2.213,0-3.684,1.414-3.684,3.894c0,2.312,1.33,3.796,3.627,3.796c0.742,0,1.5-0.154,1.99-0.393L297.145,465.812z"/>
		<path fill="#666666" d="M304.607,462.676c0,2.507-1.738,3.6-3.377,3.6c-1.834,0-3.25-1.345-3.25-3.488c0-2.27,1.486-3.6,3.363-3.6
			C303.289,459.188,304.607,460.602,304.607,462.676z M299.229,462.745c0,1.485,0.854,2.605,2.059,2.605
			c1.176,0,2.059-1.106,2.059-2.634c0-1.148-0.574-2.605-2.031-2.605S299.229,461.457,299.229,462.745z"/>
		<path fill="#666666" d="M306.156,456.176h1.232v9.945h-1.232V456.176z"/>
		<path fill="#666666" d="M315.596,462.676c0,2.507-1.738,3.6-3.377,3.6c-1.834,0-3.25-1.345-3.25-3.488c0-2.27,1.486-3.6,3.363-3.6
			C314.277,459.188,315.596,460.602,315.596,462.676z M310.217,462.745c0,1.485,0.854,2.605,2.059,2.605
			c1.176,0,2.059-1.106,2.059-2.634c0-1.148-0.574-2.605-2.031-2.605S310.217,461.457,310.217,462.745z"/>
		<path fill="#666666" d="M317.145,461.457c0-0.799-0.014-1.485-0.055-2.115h1.078l0.041,1.33h0.057
			c0.309-0.91,1.051-1.484,1.877-1.484c0.141,0,0.238,0.014,0.35,0.042v1.163c-0.125-0.029-0.252-0.043-0.42-0.043
			c-0.867,0-1.484,0.658-1.652,1.583c-0.027,0.169-0.057,0.364-0.057,0.575v3.613h-1.219V461.457z"/>
		<path fill="#666666" d="M330.547,456.176v8.194c0,0.603,0.014,1.288,0.057,1.751h-1.107l-0.055-1.177h-0.029
			c-0.377,0.757-1.205,1.331-2.311,1.331c-1.639,0-2.9-1.387-2.9-3.446c-0.014-2.255,1.387-3.642,3.041-3.642
			c1.035,0,1.736,0.49,2.045,1.037h0.027v-4.049H330.547z M329.314,462.102c0-0.154-0.014-0.365-0.057-0.52
			c-0.182-0.783-0.854-1.428-1.777-1.428c-1.275,0-2.031,1.12-2.031,2.619c0,1.373,0.672,2.508,2.002,2.508
			c0.826,0,1.584-0.547,1.807-1.471c0.043-0.169,0.057-0.337,0.057-0.533V462.102z"/>
		<path fill="#666666" d="M333.273,462.955c0.027,1.667,1.092,2.354,2.324,2.354c0.883,0,1.416-0.154,1.877-0.35l0.211,0.882
			c-0.434,0.196-1.178,0.42-2.256,0.42c-2.086,0-3.334-1.372-3.334-3.417s1.205-3.656,3.18-3.656c2.213,0,2.803,1.947,2.803,3.193
			c0,0.252-0.029,0.448-0.043,0.574H333.273z M336.887,462.072c0.014-0.783-0.322-2.002-1.709-2.002
			c-1.246,0-1.793,1.148-1.891,2.002H336.887z"/>
		<path fill="#666666" d="M342.568,461.176c0-0.699-0.014-1.273-0.055-1.834h1.078l0.057,1.092h0.041
			c0.379-0.645,1.008-1.246,2.129-1.246c0.926,0,1.625,0.561,1.92,1.358h0.027c0.211-0.378,0.477-0.673,0.756-0.882
			c0.406-0.309,0.855-0.477,1.5-0.477c0.896,0,2.227,0.588,2.227,2.941v3.992h-1.205v-3.838c0-1.303-0.477-2.088-1.471-2.088
			c-0.699,0-1.246,0.52-1.457,1.121c-0.055,0.168-0.098,0.393-0.098,0.616v4.188h-1.205v-4.062c0-1.078-0.475-1.863-1.414-1.863
			c-0.77,0-1.33,0.617-1.527,1.233c-0.07,0.183-0.098,0.392-0.098,0.603v4.09h-1.205V461.176z"/>
		<path fill="#666666" d="M354.932,462.955c0.027,1.667,1.092,2.354,2.324,2.354c0.883,0,1.416-0.154,1.877-0.35l0.211,0.882
			c-0.434,0.196-1.178,0.42-2.256,0.42c-2.086,0-3.334-1.372-3.334-3.417s1.205-3.656,3.18-3.656c2.213,0,2.803,1.947,2.803,3.193
			c0,0.252-0.029,0.448-0.043,0.574H354.932z M358.545,462.072c0.014-0.783-0.322-2.002-1.709-2.002
			c-1.246,0-1.793,1.148-1.891,2.002H358.545z"/>
		<path fill="#666666" d="M361.258,461.176c0-0.699-0.014-1.273-0.055-1.834h1.092l0.07,1.12h0.027
			c0.336-0.644,1.121-1.274,2.242-1.274c0.938,0,2.395,0.561,2.395,2.885v4.049h-1.232v-3.908c0-1.092-0.406-2.003-1.568-2.003
			c-0.812,0-1.443,0.574-1.654,1.261c-0.055,0.154-0.084,0.364-0.084,0.574v4.076h-1.232V461.176z"/>
		<path fill="#666666" d="M374.701,464.271c0,0.701,0.014,1.317,0.057,1.85h-1.094l-0.07-1.106h-0.027
			c-0.322,0.546-1.037,1.261-2.242,1.261c-1.064,0-2.338-0.588-2.338-2.97v-3.964h1.232v3.754c0,1.289,0.393,2.156,1.512,2.156
			c0.828,0,1.402-0.574,1.625-1.12c0.07-0.183,0.113-0.406,0.113-0.63v-4.16h1.232V464.271z"/>
		<path fill="#666666" d="M378.674,466.682l3.908-10.156h0.951l-3.922,10.156H378.674z"/>
		<path fill="#666666" d="M388.74,457.717h-2.871v-1.037h6.988v1.037h-2.885v8.404h-1.232V457.717z"/>
		<path fill="#666666" d="M396.203,456.414l-1.709,2.003h-0.883l1.232-2.003H396.203z M393.695,466.121v-6.779h1.232v6.779H393.695z
			"/>
		<path fill="#666666" d="M398.457,457.395v1.947h1.764v0.938h-1.764v3.656c0,0.841,0.236,1.316,0.924,1.316
			c0.322,0,0.561-0.041,0.715-0.084l0.055,0.926c-0.238,0.098-0.615,0.167-1.092,0.167c-0.574,0-1.037-0.182-1.33-0.519
			c-0.352-0.363-0.477-0.966-0.477-1.764v-3.699h-1.051v-0.938h1.051v-1.625L398.457,457.395z"/>
		<path fill="#666666" d="M407.277,464.271c0,0.701,0.016,1.317,0.057,1.85h-1.092l-0.07-1.106h-0.029
			c-0.32,0.546-1.035,1.261-2.24,1.261c-1.064,0-2.34-0.588-2.34-2.97v-3.964h1.232v3.754c0,1.289,0.393,2.156,1.514,2.156
			c0.826,0,1.4-0.574,1.625-1.12c0.07-0.183,0.111-0.406,0.111-0.63v-4.16h1.232V464.271z"/>
		<path fill="#666666" d="M409.318,456.176h1.232v9.945h-1.232V456.176z"/>
		<path fill="#666666" d="M418.758,462.676c0,2.507-1.736,3.6-3.375,3.6c-1.836,0-3.25-1.345-3.25-3.488c0-2.27,1.484-3.6,3.361-3.6
			C417.441,459.188,418.758,460.602,418.758,462.676z M413.379,462.745c0,1.485,0.855,2.605,2.059,2.605
			c1.178,0,2.061-1.106,2.061-2.634c0-1.148-0.574-2.605-2.031-2.605S413.379,461.457,413.379,462.745z"/>
		<path fill="#666666" d="M420.141,464.86c0.363,0.238,1.008,0.49,1.625,0.49c0.896,0,1.316-0.448,1.316-1.009
			c0-0.588-0.35-0.91-1.262-1.246c-1.219-0.435-1.793-1.107-1.793-1.92c0-1.092,0.883-1.988,2.34-1.988
			c0.686,0,1.289,0.195,1.668,0.42l-0.309,0.896c-0.268-0.168-0.758-0.393-1.387-0.393c-0.729,0-1.135,0.421-1.135,0.925
			c0,0.561,0.406,0.812,1.289,1.149c1.176,0.447,1.777,1.036,1.777,2.045c0,1.19-0.924,2.03-2.535,2.03
			c-0.742,0-1.428-0.182-1.904-0.462L420.141,464.86z"/>
	</g>
</g>
<g>
	<g>
		<path fill="#666666" d="M600.645,465.812c-0.449,0.225-1.346,0.448-2.494,0.448c-2.66,0-4.664-1.681-4.664-4.776
			c0-2.955,2.004-4.959,4.93-4.959c1.178,0,1.92,0.252,2.242,0.421l-0.295,0.994c-0.461-0.224-1.119-0.392-1.904-0.392
			c-2.213,0-3.684,1.414-3.684,3.894c0,2.312,1.33,3.796,3.627,3.796c0.742,0,1.5-0.154,1.99-0.393L600.645,465.812z"/>
		<path fill="#666666" d="M608.107,462.676c0,2.507-1.738,3.6-3.377,3.6c-1.834,0-3.25-1.345-3.25-3.488c0-2.27,1.486-3.6,3.363-3.6
			C606.789,459.188,608.107,460.602,608.107,462.676z M602.729,462.745c0,1.485,0.854,2.605,2.059,2.605
			c1.176,0,2.059-1.106,2.059-2.634c0-1.148-0.574-2.605-2.031-2.605S602.729,461.457,602.729,462.745z"/>
		<path fill="#666666" d="M609.656,456.176h1.232v9.945h-1.232V456.176z"/>
		<path fill="#666666" d="M619.096,462.676c0,2.507-1.738,3.6-3.377,3.6c-1.834,0-3.25-1.345-3.25-3.488c0-2.27,1.486-3.6,3.363-3.6
			C617.777,459.188,619.096,460.602,619.096,462.676z M613.717,462.745c0,1.485,0.854,2.605,2.059,2.605
			c1.176,0,2.059-1.106,2.059-2.634c0-1.148-0.574-2.605-2.031-2.605S613.717,461.457,613.717,462.745z"/>
		<path fill="#666666" d="M620.645,461.457c0-0.799-0.014-1.485-0.055-2.115h1.078l0.041,1.33h0.057
			c0.309-0.91,1.051-1.484,1.877-1.484c0.141,0,0.238,0.014,0.35,0.042v1.163c-0.125-0.029-0.252-0.043-0.42-0.043
			c-0.867,0-1.484,0.658-1.652,1.583c-0.027,0.169-0.057,0.364-0.057,0.575v3.613h-1.219V461.457z"/>
		<path fill="#666666" d="M634.047,456.176v8.194c0,0.603,0.014,1.288,0.057,1.751h-1.107l-0.055-1.177h-0.029
			c-0.377,0.757-1.205,1.331-2.311,1.331c-1.639,0-2.9-1.387-2.9-3.446c-0.014-2.255,1.387-3.642,3.041-3.642
			c1.035,0,1.736,0.49,2.045,1.037h0.027v-4.049H634.047z M632.814,462.102c0-0.154-0.014-0.365-0.057-0.52
			c-0.182-0.783-0.854-1.428-1.777-1.428c-1.275,0-2.031,1.12-2.031,2.619c0,1.373,0.672,2.508,2.002,2.508
			c0.826,0,1.584-0.547,1.807-1.471c0.043-0.169,0.057-0.337,0.057-0.533V462.102z"/>
		<path fill="#666666" d="M636.773,462.955c0.027,1.667,1.092,2.354,2.324,2.354c0.883,0,1.416-0.154,1.877-0.35l0.211,0.882
			c-0.434,0.196-1.178,0.42-2.256,0.42c-2.086,0-3.334-1.372-3.334-3.417s1.205-3.656,3.18-3.656c2.213,0,2.803,1.947,2.803,3.193
			c0,0.252-0.029,0.448-0.043,0.574H636.773z M640.387,462.072c0.014-0.783-0.322-2.002-1.709-2.002
			c-1.246,0-1.793,1.148-1.891,2.002H640.387z"/>
		<path fill="#666666" d="M646.068,461.176c0-0.699-0.014-1.273-0.055-1.834h1.078l0.057,1.092h0.041
			c0.379-0.645,1.008-1.246,2.129-1.246c0.926,0,1.625,0.561,1.92,1.358h0.027c0.211-0.378,0.477-0.673,0.756-0.882
			c0.406-0.309,0.855-0.477,1.5-0.477c0.896,0,2.227,0.588,2.227,2.941v3.992h-1.205v-3.838c0-1.303-0.477-2.088-1.471-2.088
			c-0.699,0-1.246,0.52-1.457,1.121c-0.055,0.168-0.098,0.393-0.098,0.616v4.188h-1.205v-4.062c0-1.078-0.475-1.863-1.414-1.863
			c-0.77,0-1.33,0.617-1.527,1.233c-0.07,0.183-0.098,0.392-0.098,0.603v4.09h-1.205V461.176z"/>
		<path fill="#666666" d="M658.432,462.955c0.027,1.667,1.092,2.354,2.324,2.354c0.883,0,1.416-0.154,1.877-0.35l0.211,0.882
			c-0.434,0.196-1.178,0.42-2.256,0.42c-2.086,0-3.334-1.372-3.334-3.417s1.205-3.656,3.18-3.656c2.213,0,2.803,1.947,2.803,3.193
			c0,0.252-0.029,0.448-0.043,0.574H658.432z M662.045,462.072c0.014-0.783-0.322-2.002-1.709-2.002
			c-1.246,0-1.793,1.148-1.891,2.002H662.045z"/>
		<path fill="#666666" d="M664.758,461.176c0-0.699-0.014-1.273-0.055-1.834h1.092l0.07,1.12h0.027
			c0.336-0.644,1.121-1.274,2.242-1.274c0.938,0,2.395,0.561,2.395,2.885v4.049h-1.232v-3.908c0-1.092-0.406-2.003-1.568-2.003
			c-0.812,0-1.443,0.574-1.654,1.261c-0.055,0.154-0.084,0.364-0.084,0.574v4.076h-1.232V461.176z"/>
		<path fill="#666666" d="M678.201,464.271c0,0.701,0.014,1.317,0.057,1.85h-1.094l-0.07-1.106h-0.027
			c-0.322,0.546-1.037,1.261-2.242,1.261c-1.064,0-2.338-0.588-2.338-2.97v-3.964h1.232v3.754c0,1.289,0.393,2.156,1.512,2.156
			c0.828,0,1.402-0.574,1.625-1.12c0.07-0.183,0.113-0.406,0.113-0.63v-4.16h1.232V464.271z"/>
		<path fill="#666666" d="M682.174,466.682l3.908-10.156h0.951l-3.922,10.156H682.174z"/>
		<path fill="#666666" d="M690.811,464.86c0.365,0.238,1.01,0.49,1.625,0.49c0.896,0,1.316-0.448,1.316-1.009
			c0-0.588-0.35-0.91-1.26-1.246c-1.219-0.435-1.793-1.107-1.793-1.92c0-1.092,0.883-1.988,2.34-1.988
			c0.686,0,1.287,0.195,1.666,0.42l-0.309,0.896c-0.266-0.168-0.756-0.393-1.387-0.393c-0.729,0-1.135,0.421-1.135,0.925
			c0,0.561,0.406,0.812,1.289,1.149c1.178,0.447,1.779,1.036,1.779,2.045c0,1.19-0.924,2.03-2.535,2.03
			c-0.742,0-1.43-0.182-1.906-0.462L690.811,464.86z"/>
		<path fill="#666666" d="M702.195,464.271c0,0.701,0.014,1.317,0.057,1.85h-1.094l-0.07-1.106h-0.027
			c-0.322,0.546-1.037,1.261-2.242,1.261c-1.064,0-2.338-0.588-2.338-2.97v-3.964h1.232v3.754c0,1.289,0.393,2.156,1.512,2.156
			c0.828,0,1.402-0.574,1.625-1.12c0.07-0.183,0.113-0.406,0.113-0.63v-4.16h1.232V464.271z"/>
		<path fill="#666666" d="M704.182,466.121c0.027-0.463,0.055-1.148,0.055-1.751v-8.194h1.219v4.258h0.029
			c0.434-0.756,1.219-1.246,2.311-1.246c1.682,0,2.871,1.4,2.857,3.46c0,2.423-1.527,3.628-3.039,3.628
			c-0.98,0-1.766-0.379-2.27-1.275h-0.043l-0.055,1.121H704.182z M705.455,463.404c0,0.153,0.029,0.308,0.057,0.447
			c0.238,0.855,0.953,1.443,1.85,1.443c1.287,0,2.059-1.051,2.059-2.605c0-1.359-0.701-2.521-2.018-2.521
			c-0.84,0-1.625,0.574-1.877,1.513c-0.027,0.14-0.07,0.308-0.07,0.505V463.404z"/>
		<path fill="#666666" d="M713.688,457.395v1.947h1.764v0.938h-1.764v3.656c0,0.841,0.236,1.316,0.924,1.316
			c0.322,0,0.561-0.041,0.715-0.084l0.055,0.926c-0.238,0.098-0.615,0.167-1.092,0.167c-0.574,0-1.037-0.182-1.33-0.519
			c-0.352-0.363-0.477-0.966-0.477-1.764v-3.699h-1.051v-0.938h1.051v-1.625L713.688,457.395z"/>
		<path fill="#666666" d="M719.344,456.414l-1.709,2.003h-0.883l1.232-2.003H719.344z M716.836,466.121v-6.779h1.232v6.779H716.836z
			"/>
		<path fill="#666666" d="M721.598,457.395v1.947h1.764v0.938h-1.764v3.656c0,0.841,0.236,1.316,0.924,1.316
			c0.322,0,0.561-0.041,0.715-0.084l0.055,0.926c-0.238,0.098-0.615,0.167-1.092,0.167c-0.574,0-1.037-0.182-1.33-0.519
			c-0.352-0.363-0.477-0.966-0.477-1.764v-3.699h-1.051v-0.938h1.051v-1.625L721.598,457.395z"/>
		<path fill="#666666" d="M730.42,464.271c0,0.701,0.014,1.317,0.057,1.85h-1.094l-0.07-1.106h-0.027
			c-0.322,0.546-1.037,1.261-2.242,1.261c-1.064,0-2.338-0.588-2.338-2.97v-3.964h1.232v3.754c0,1.289,0.393,2.156,1.512,2.156
			c0.828,0,1.402-0.574,1.625-1.12c0.07-0.183,0.113-0.406,0.113-0.63v-4.16h1.232V464.271z"/>
		<path fill="#666666" d="M732.459,456.176h1.232v9.945h-1.232V456.176z"/>
		<path fill="#666666" d="M741.9,462.676c0,2.507-1.738,3.6-3.377,3.6c-1.834,0-3.25-1.345-3.25-3.488c0-2.27,1.486-3.6,3.363-3.6
			C740.582,459.188,741.9,460.602,741.9,462.676z M736.521,462.745c0,1.485,0.854,2.605,2.059,2.605
			c1.176,0,2.059-1.106,2.059-2.634c0-1.148-0.574-2.605-2.031-2.605S736.521,461.457,736.521,462.745z"/>
		<path fill="#666666" d="M743.281,464.86c0.365,0.238,1.01,0.49,1.625,0.49c0.896,0,1.316-0.448,1.316-1.009
			c0-0.588-0.35-0.91-1.26-1.246c-1.219-0.435-1.793-1.107-1.793-1.92c0-1.092,0.883-1.988,2.34-1.988
			c0.686,0,1.287,0.195,1.666,0.42l-0.309,0.896c-0.266-0.168-0.756-0.393-1.387-0.393c-0.729,0-1.135,0.421-1.135,0.925
			c0,0.561,0.406,0.812,1.289,1.149c1.178,0.447,1.779,1.036,1.779,2.045c0,1.19-0.924,2.03-2.535,2.03
			c-0.742,0-1.43-0.182-1.906-0.462L743.281,464.86z"/>
	</g>
</g>
<g>
	<g>
		<path fill="#666666" d="M884.645,465.812c-0.449,0.225-1.346,0.448-2.494,0.448c-2.66,0-4.664-1.681-4.664-4.776
			c0-2.955,2.004-4.959,4.93-4.959c1.178,0,1.92,0.252,2.242,0.421l-0.295,0.994c-0.461-0.224-1.119-0.392-1.904-0.392
			c-2.213,0-3.684,1.414-3.684,3.894c0,2.312,1.33,3.796,3.627,3.796c0.742,0,1.5-0.154,1.99-0.393L884.645,465.812z"/>
		<path fill="#666666" d="M892.107,462.676c0,2.507-1.738,3.6-3.377,3.6c-1.834,0-3.25-1.345-3.25-3.488c0-2.27,1.486-3.6,3.363-3.6
			C890.789,459.188,892.107,460.602,892.107,462.676z M886.729,462.745c0,1.485,0.854,2.605,2.059,2.605
			c1.176,0,2.059-1.106,2.059-2.634c0-1.148-0.574-2.605-2.031-2.605S886.729,461.457,886.729,462.745z"/>
		<path fill="#666666" d="M893.656,456.176h1.232v9.945h-1.232V456.176z"/>
		<path fill="#666666" d="M903.096,462.676c0,2.507-1.738,3.6-3.377,3.6c-1.834,0-3.25-1.345-3.25-3.488c0-2.27,1.486-3.6,3.363-3.6
			C901.777,459.188,903.096,460.602,903.096,462.676z M897.717,462.745c0,1.485,0.854,2.605,2.059,2.605
			c1.176,0,2.059-1.106,2.059-2.634c0-1.148-0.574-2.605-2.031-2.605S897.717,461.457,897.717,462.745z"/>
		<path fill="#666666" d="M904.645,461.457c0-0.799-0.014-1.485-0.055-2.115h1.078l0.041,1.33h0.057
			c0.309-0.91,1.051-1.484,1.877-1.484c0.141,0,0.238,0.014,0.35,0.042v1.163c-0.125-0.029-0.252-0.043-0.42-0.043
			c-0.867,0-1.484,0.658-1.652,1.583c-0.027,0.169-0.057,0.364-0.057,0.575v3.613h-1.219V461.457z"/>
		<path fill="#666666" d="M918.047,456.176v8.194c0,0.603,0.014,1.288,0.057,1.751h-1.107l-0.055-1.177h-0.029
			c-0.377,0.757-1.205,1.331-2.311,1.331c-1.639,0-2.9-1.387-2.9-3.446c-0.014-2.255,1.387-3.642,3.041-3.642
			c1.035,0,1.736,0.49,2.045,1.037h0.027v-4.049H918.047z M916.814,462.102c0-0.154-0.014-0.365-0.057-0.52
			c-0.182-0.783-0.854-1.428-1.777-1.428c-1.275,0-2.031,1.12-2.031,2.619c0,1.373,0.672,2.508,2.002,2.508
			c0.826,0,1.584-0.547,1.807-1.471c0.043-0.169,0.057-0.337,0.057-0.533V462.102z"/>
		<path fill="#666666" d="M920.773,462.955c0.027,1.667,1.092,2.354,2.324,2.354c0.883,0,1.416-0.154,1.877-0.35l0.211,0.882
			c-0.434,0.196-1.178,0.42-2.256,0.42c-2.086,0-3.334-1.372-3.334-3.417s1.205-3.656,3.18-3.656c2.213,0,2.803,1.947,2.803,3.193
			c0,0.252-0.029,0.448-0.043,0.574H920.773z M924.387,462.072c0.014-0.783-0.322-2.002-1.709-2.002
			c-1.246,0-1.793,1.148-1.891,2.002H924.387z"/>
		<path fill="#666666" d="M931.555,457.395v1.947h1.764v0.938h-1.764v3.656c0,0.841,0.236,1.316,0.924,1.316
			c0.322,0,0.561-0.041,0.715-0.084l0.055,0.926c-0.238,0.098-0.615,0.167-1.092,0.167c-0.574,0-1.037-0.182-1.33-0.519
			c-0.352-0.363-0.477-0.966-0.477-1.764v-3.699h-1.051v-0.938h1.051v-1.625L931.555,457.395z"/>
		<path fill="#666666" d="M935.305,462.955c0.029,1.667,1.094,2.354,2.326,2.354c0.883,0,1.414-0.154,1.877-0.35l0.209,0.882
			c-0.434,0.196-1.176,0.42-2.254,0.42c-2.088,0-3.334-1.372-3.334-3.417s1.205-3.656,3.18-3.656c2.213,0,2.801,1.947,2.801,3.193
			c0,0.252-0.027,0.448-0.041,0.574H935.305z M938.92,462.072c0.014-0.783-0.322-2.002-1.709-2.002
			c-1.248,0-1.793,1.148-1.893,2.002H938.92z"/>
		<path fill="#666666" d="M942.164,459.342l0.967,1.457c0.252,0.377,0.463,0.728,0.688,1.105h0.041
			c0.225-0.406,0.449-0.756,0.672-1.12l0.953-1.442h1.33l-2.311,3.277l2.381,3.502h-1.4l-0.994-1.527
			c-0.266-0.392-0.49-0.77-0.729-1.176h-0.027c-0.225,0.406-0.463,0.77-0.715,1.176l-0.98,1.527h-1.359l2.41-3.46l-2.297-3.319
			H942.164z"/>
		<path fill="#666666" d="M949.74,457.395v1.947h1.764v0.938h-1.764v3.656c0,0.841,0.236,1.316,0.924,1.316
			c0.322,0,0.561-0.041,0.715-0.084l0.055,0.926c-0.238,0.098-0.615,0.167-1.092,0.167c-0.574,0-1.037-0.182-1.33-0.519
			c-0.352-0.363-0.477-0.966-0.477-1.764v-3.699h-1.051v-0.938h1.051v-1.625L949.74,457.395z"/>
		<path fill="#666666" d="M958.939,462.676c0,2.507-1.736,3.6-3.375,3.6c-1.836,0-3.25-1.345-3.25-3.488c0-2.27,1.484-3.6,3.361-3.6
			C957.623,459.188,958.939,460.602,958.939,462.676z M953.561,462.745c0,1.485,0.855,2.605,2.059,2.605
			c1.178,0,2.061-1.106,2.061-2.634c0-1.148-0.574-2.605-2.031-2.605S953.561,461.457,953.561,462.745z"/>
		<path fill="#666666" d="M964.83,457.437c0.014,0.42-0.293,0.757-0.783,0.757c-0.436,0-0.744-0.337-0.744-0.757
			c0-0.435,0.322-0.771,0.771-0.771C964.537,456.666,964.83,457.002,964.83,457.437z M963.457,466.121v-6.779h1.232v6.779H963.457z"
			/>
		<path fill="#666666" d="M966.734,461.176c0-0.699-0.014-1.273-0.057-1.834h1.094l0.068,1.12h0.029
			c0.336-0.644,1.119-1.274,2.24-1.274c0.939,0,2.396,0.561,2.396,2.885v4.049h-1.234v-3.908c0-1.092-0.404-2.003-1.568-2.003
			c-0.812,0-1.441,0.574-1.652,1.261c-0.057,0.154-0.084,0.364-0.084,0.574v4.076h-1.232V461.176z"/>
		<path fill="#666666" d="M974.629,466.121v-5.842h-0.951v-0.938h0.951v-0.322c0-0.953,0.211-1.821,0.785-2.367
			c0.463-0.449,1.078-0.631,1.652-0.631c0.436,0,0.812,0.098,1.051,0.196l-0.168,0.952c-0.182-0.084-0.434-0.154-0.785-0.154
			c-1.049,0-1.316,0.925-1.316,1.961v0.365h1.639v0.938h-1.639v5.842H974.629z"/>
		<path fill="#666666" d="M984.545,462.676c0,2.507-1.736,3.6-3.375,3.6c-1.836,0-3.25-1.345-3.25-3.488c0-2.27,1.484-3.6,3.361-3.6
			C983.229,459.188,984.545,460.602,984.545,462.676z M979.166,462.745c0,1.485,0.855,2.605,2.059,2.605
			c1.178,0,2.061-1.106,2.061-2.634c0-1.148-0.574-2.605-2.031-2.605S979.166,461.457,979.166,462.745z"/>
		<path fill="#666666" d="M986.096,461.457c0-0.799-0.014-1.485-0.057-2.115h1.078l0.043,1.33h0.057
			c0.307-0.91,1.049-1.484,1.877-1.484c0.139,0,0.238,0.014,0.35,0.042v1.163c-0.127-0.029-0.252-0.043-0.42-0.043
			c-0.869,0-1.484,0.658-1.654,1.583c-0.027,0.169-0.055,0.364-0.055,0.575v3.613h-1.219V461.457z"/>
		<path fill="#666666" d="M990.729,461.176c0-0.699-0.014-1.273-0.055-1.834h1.078l0.057,1.092h0.041
			c0.379-0.645,1.008-1.246,2.129-1.246c0.926,0,1.625,0.561,1.92,1.358h0.027c0.211-0.378,0.477-0.673,0.756-0.882
			c0.406-0.309,0.855-0.477,1.5-0.477c0.896,0,2.227,0.588,2.227,2.941v3.992h-1.205v-3.838c0-1.303-0.477-2.088-1.471-2.088
			c-0.699,0-1.246,0.52-1.457,1.121c-0.055,0.168-0.098,0.393-0.098,0.616v4.188h-1.205v-4.062c0-1.078-0.475-1.863-1.414-1.863
			c-0.77,0-1.33,0.617-1.527,1.233c-0.07,0.183-0.098,0.392-0.098,0.603v4.09h-1.205V461.176z"/>
		<path fill="#666666" d="M1006.158,466.121l-0.098-0.854h-0.041c-0.379,0.532-1.107,1.009-2.074,1.009
			c-1.373,0-2.072-0.967-2.072-1.947c0-1.639,1.457-2.535,4.076-2.521v-0.141c0-0.56-0.154-1.568-1.541-1.568
			c-0.631,0-1.289,0.196-1.766,0.504l-0.279-0.812c0.561-0.363,1.373-0.602,2.227-0.602c2.074,0,2.578,1.414,2.578,2.773v2.535
			c0,0.588,0.027,1.162,0.111,1.625H1006.158z M1005.977,462.661c-1.344-0.028-2.871,0.21-2.871,1.526
			c0,0.799,0.531,1.178,1.162,1.178c0.883,0,1.443-0.561,1.639-1.135c0.043-0.127,0.07-0.267,0.07-0.393V462.661z"/>
		<path fill="#666666" d="M1010.582,457.395v1.947h1.766v0.938h-1.766v3.656c0,0.841,0.238,1.316,0.924,1.316
			c0.322,0,0.561-0.041,0.715-0.084l0.057,0.926c-0.238,0.098-0.617,0.167-1.094,0.167c-0.574,0-1.035-0.182-1.33-0.519
			c-0.35-0.363-0.477-0.966-0.477-1.764v-3.699h-1.051v-0.938h1.051v-1.625L1010.582,457.395z"/>
		<path fill="#666666" d="M1015.104,457.437c0.014,0.42-0.293,0.757-0.783,0.757c-0.436,0-0.744-0.337-0.744-0.757
			c0-0.435,0.322-0.771,0.771-0.771C1014.811,456.666,1015.104,457.002,1015.104,457.437z M1013.73,466.121v-6.779h1.232v6.779
			H1013.73z"/>
		<path fill="#666666" d="M1017.484,459.342l1.33,3.81c0.225,0.616,0.406,1.177,0.547,1.737h0.041
			c0.154-0.561,0.35-1.121,0.574-1.737l1.316-3.81h1.289l-2.66,6.779h-1.178l-2.578-6.779H1017.484z"/>
		<path fill="#666666" d="M1029.736,462.676c0,2.507-1.738,3.6-3.377,3.6c-1.834,0-3.25-1.345-3.25-3.488
			c0-2.27,1.486-3.6,3.363-3.6C1028.418,459.188,1029.736,460.602,1029.736,462.676z M1024.357,462.745
			c0,1.485,0.854,2.605,2.059,2.605c1.176,0,2.059-1.106,2.059-2.634c0-1.148-0.574-2.605-2.031-2.605
			S1024.357,461.457,1024.357,462.745z"/>
	</g>
</g>
<g>
	<g>
		<path fill="#666666" d="M201.547,552.52c-0.639,0.318-1.915,0.638-3.55,0.638c-3.789,0-6.642-2.394-6.642-6.8
			c0-4.209,2.853-7.061,7.021-7.061c1.675,0,2.731,0.359,3.19,0.598l-0.419,1.416c-0.658-0.318-1.595-0.558-2.712-0.558
			c-3.151,0-5.245,2.015-5.245,5.544c0,3.291,1.895,5.404,5.165,5.404c1.058,0,2.134-0.219,2.832-0.559L201.547,552.52z"/>
		<path fill="#666666" d="M212.18,548.052c0,3.569-2.474,5.126-4.807,5.126c-2.612,0-4.627-1.915-4.627-4.967
			c0-3.23,2.114-5.125,4.786-5.125C210.305,543.086,212.18,545.101,212.18,548.052z M204.521,548.152
			c0,2.113,1.216,3.709,2.932,3.709c1.675,0,2.932-1.576,2.932-3.75c0-1.635-0.818-3.709-2.893-3.709
			C205.419,544.402,204.521,546.316,204.521,548.152z"/>
		<path fill="#666666" d="M214.396,538.799h1.755v14.159h-1.755V538.799z"/>
		<path fill="#666666" d="M227.838,548.052c0,3.569-2.474,5.126-4.807,5.126c-2.612,0-4.627-1.915-4.627-4.967
			c0-3.23,2.114-5.125,4.786-5.125C225.963,543.086,227.838,545.101,227.838,548.052z M220.18,548.152
			c0,2.113,1.216,3.709,2.932,3.709c1.675,0,2.932-1.576,2.932-3.75c0-1.635-0.818-3.709-2.893-3.709
			C221.077,544.402,220.18,546.316,220.18,548.152z"/>
		<path fill="#666666" d="M230.054,546.316c0-1.137-0.021-2.113-0.08-3.011h1.536l0.06,1.895h0.08
			c0.438-1.296,1.495-2.114,2.672-2.114c0.199,0,0.339,0.02,0.499,0.061v1.654c-0.18-0.039-0.359-0.06-0.599-0.06
			c-1.236,0-2.114,0.938-2.354,2.254c-0.04,0.239-0.08,0.519-0.08,0.817v5.146h-1.734V546.316z"/>
		<path fill="#666666" d="M237.353,548.451c0.04,2.373,1.556,3.35,3.311,3.35c1.257,0,2.015-0.219,2.673-0.498l0.299,1.256
			c-0.618,0.279-1.675,0.599-3.211,0.599c-2.971,0-4.746-1.954-4.746-4.866s1.715-5.205,4.527-5.205c3.15,0,3.988,2.772,3.988,4.547
			c0,0.359-0.04,0.639-0.06,0.818H237.353z M242.498,547.194c0.021-1.116-0.458-2.852-2.433-2.852c-1.775,0-2.553,1.636-2.692,2.852
			H242.498z"/>
		<path fill="#666666" d="M246.13,551.163c0.519,0.339,1.436,0.698,2.313,0.698c1.276,0,1.874-0.639,1.874-1.436
			c0-0.838-0.498-1.297-1.795-1.775c-1.734-0.618-2.553-1.576-2.553-2.732c0-1.556,1.257-2.832,3.331-2.832
			c0.977,0,1.835,0.279,2.373,0.599l-0.438,1.276c-0.379-0.239-1.077-0.559-1.975-0.559c-1.037,0-1.615,0.598-1.615,1.316
			c0,0.797,0.578,1.156,1.835,1.635c1.675,0.639,2.532,1.477,2.532,2.912c0,1.695-1.316,2.892-3.609,2.892
			c-1.058,0-2.034-0.259-2.713-0.657L246.13,551.163z"/>
		<path fill="#666666" d="M262.306,539.117c-1.455,1.955-2.513,4.547-2.513,8.157c0,3.55,1.097,6.103,2.513,8.097h-1.376
			c-1.256-1.655-2.612-4.208-2.612-8.097c0.02-3.929,1.356-6.481,2.612-8.157H262.306z"/>
		<path fill="#666666" d="M264.222,539.695c0.758-0.159,1.954-0.279,3.171-0.279c1.735,0,2.852,0.3,3.689,0.978
			c0.698,0.519,1.117,1.316,1.117,2.374c0,1.296-0.857,2.433-2.273,2.951v0.039c1.276,0.32,2.771,1.377,2.771,3.371
			c0,1.156-0.458,2.034-1.137,2.692c-0.938,0.857-2.453,1.257-4.646,1.257c-1.196,0-2.114-0.08-2.692-0.16V539.695z M265.957,545.2
			h1.575c1.835,0,2.912-0.958,2.912-2.254c0-1.575-1.197-2.193-2.952-2.193c-0.798,0-1.256,0.06-1.535,0.12V545.2z M265.957,551.642
			c0.339,0.06,0.837,0.08,1.456,0.08c1.795,0,3.45-0.658,3.45-2.612c0-1.835-1.576-2.594-3.471-2.594h-1.436V551.642z"/>
		<path fill="#666666" d="M280.318,552.958l-0.14-1.216h-0.06c-0.539,0.758-1.576,1.436-2.952,1.436
			c-1.954,0-2.951-1.377-2.951-2.772c0-2.333,2.074-3.61,5.804-3.59v-0.199c0-0.798-0.22-2.233-2.194-2.233
			c-0.897,0-1.835,0.279-2.513,0.718l-0.398-1.157c0.797-0.518,1.954-0.857,3.171-0.857c2.951,0,3.669,2.015,3.669,3.949v3.609
			c0,0.838,0.04,1.655,0.16,2.313H280.318z M280.059,548.032c-1.914-0.04-4.088,0.299-4.088,2.174c0,1.137,0.758,1.675,1.655,1.675
			c1.256,0,2.054-0.797,2.333-1.615c0.061-0.18,0.1-0.379,0.1-0.559V548.032z"/>
		<path fill="#666666" d="M284.588,546.316c0-1.137-0.021-2.113-0.08-3.011h1.536l0.06,1.895h0.08
			c0.438-1.296,1.495-2.114,2.672-2.114c0.199,0,0.339,0.02,0.499,0.061v1.654c-0.18-0.039-0.359-0.06-0.599-0.06
			c-1.236,0-2.114,0.938-2.354,2.254c-0.04,0.239-0.079,0.519-0.079,0.817v5.146h-1.735V546.316z"/>
		<path fill="#666666" d="M291.19,546.316c0-1.137-0.021-2.113-0.08-3.011h1.536l0.06,1.895h0.08
			c0.438-1.296,1.495-2.114,2.672-2.114c0.199,0,0.339,0.02,0.499,0.061v1.654c-0.18-0.039-0.359-0.06-0.599-0.06
			c-1.236,0-2.114,0.938-2.354,2.254c-0.04,0.239-0.08,0.519-0.08,0.817v5.146h-1.734V546.316z"/>
		<path fill="#666666" d="M302.958,552.958l-0.14-1.216h-0.06c-0.539,0.758-1.576,1.436-2.952,1.436
			c-1.954,0-2.951-1.377-2.951-2.772c0-2.333,2.074-3.61,5.804-3.59v-0.199c0-0.798-0.22-2.233-2.194-2.233
			c-0.897,0-1.835,0.279-2.513,0.718l-0.398-1.157c0.797-0.518,1.954-0.857,3.171-0.857c2.951,0,3.669,2.015,3.669,3.949v3.609
			c0,0.838,0.04,1.655,0.16,2.313H302.958z M302.698,548.032c-1.914-0.04-4.088,0.299-4.088,2.174c0,1.137,0.758,1.675,1.655,1.675
			c1.256,0,2.054-0.797,2.333-1.615c0.061-0.18,0.1-0.379,0.1-0.559V548.032z"/>
		<path fill="#666666" d="M306.17,555.371c1.416-1.975,2.514-4.566,2.514-8.156c0-3.57-1.077-6.123-2.514-8.098h1.356
			c1.276,1.636,2.612,4.188,2.612,8.117c0,3.908-1.336,6.441-2.612,8.137H306.17z"/>
	</g>
</g>
<g>
	<g>
		<path fill="#666666" d="M201.547,810.52c-0.639,0.318-1.915,0.638-3.55,0.638c-3.789,0-6.642-2.394-6.642-6.8
			c0-4.209,2.853-7.061,7.021-7.061c1.675,0,2.731,0.359,3.19,0.598l-0.419,1.416c-0.658-0.318-1.595-0.558-2.712-0.558
			c-3.151,0-5.245,2.015-5.245,5.544c0,3.291,1.895,5.404,5.165,5.404c1.058,0,2.134-0.219,2.832-0.559L201.547,810.52z"/>
		<path fill="#666666" d="M212.18,806.052c0,3.569-2.474,5.126-4.807,5.126c-2.612,0-4.627-1.915-4.627-4.967
			c0-3.23,2.114-5.125,4.786-5.125C210.305,801.086,212.18,803.101,212.18,806.052z M204.521,806.152
			c0,2.113,1.216,3.709,2.932,3.709c1.675,0,2.932-1.576,2.932-3.75c0-1.635-0.818-3.709-2.893-3.709
			C205.419,802.402,204.521,804.316,204.521,806.152z"/>
		<path fill="#666666" d="M214.396,796.799h1.755v14.159h-1.755V796.799z"/>
		<path fill="#666666" d="M227.838,806.052c0,3.569-2.474,5.126-4.807,5.126c-2.612,0-4.627-1.915-4.627-4.967
			c0-3.23,2.114-5.125,4.786-5.125C225.963,801.086,227.838,803.101,227.838,806.052z M220.18,806.152
			c0,2.113,1.216,3.709,2.932,3.709c1.675,0,2.932-1.576,2.932-3.75c0-1.635-0.818-3.709-2.893-3.709
			C221.077,802.402,220.18,804.316,220.18,806.152z"/>
		<path fill="#666666" d="M230.054,804.316c0-1.137-0.021-2.113-0.08-3.011h1.536l0.06,1.895h0.08
			c0.438-1.296,1.495-2.114,2.672-2.114c0.199,0,0.339,0.02,0.499,0.061v1.654c-0.18-0.039-0.359-0.06-0.599-0.06
			c-1.236,0-2.114,0.938-2.354,2.254c-0.04,0.239-0.08,0.519-0.08,0.817v5.146h-1.734V804.316z"/>
		<path fill="#666666" d="M244.613,797.117c-1.455,1.955-2.513,4.547-2.513,8.157c0,3.55,1.097,6.103,2.513,8.097h-1.376
			c-1.256-1.655-2.612-4.208-2.612-8.097c0.02-3.929,1.356-6.481,2.612-8.157H244.613z"/>
		<path fill="#666666" d="M246.47,804.457c0-1.236-0.04-2.234-0.08-3.151h1.575l0.08,1.655h0.04
			c0.718-1.177,1.854-1.875,3.431-1.875c2.333,0,4.088,1.975,4.088,4.906c0,3.471-2.114,5.186-4.388,5.186
			c-1.276,0-2.393-0.559-2.972-1.516h-0.04v5.245h-1.734V804.457z M248.204,807.029c0,0.26,0.04,0.498,0.08,0.718
			c0.319,1.217,1.376,2.054,2.633,2.054c1.854,0,2.932-1.516,2.932-3.729c0-1.936-1.018-3.59-2.872-3.59
			c-1.196,0-2.313,0.857-2.652,2.174c-0.06,0.219-0.12,0.479-0.12,0.718V807.029z"/>
		<path fill="#666666" d="M263.164,810.958l-0.14-1.216h-0.06c-0.539,0.758-1.576,1.436-2.952,1.436
			c-1.954,0-2.951-1.377-2.951-2.772c0-2.333,2.074-3.61,5.804-3.59v-0.199c0-0.798-0.22-2.233-2.194-2.233
			c-0.897,0-1.835,0.279-2.513,0.718l-0.398-1.157c0.797-0.518,1.954-0.857,3.171-0.857c2.951,0,3.669,2.015,3.669,3.949v3.609
			c0,0.838,0.04,1.655,0.16,2.313H263.164z M262.904,806.032c-1.914-0.04-4.088,0.299-4.088,2.174c0,1.137,0.758,1.675,1.655,1.675
			c1.256,0,2.054-0.797,2.333-1.615c0.061-0.18,0.1-0.379,0.1-0.559V806.032z"/>
		<path fill="#666666" d="M267.434,804.316c0-1.137-0.021-2.113-0.08-3.011h1.536l0.06,1.895h0.08
			c0.438-1.296,1.495-2.114,2.672-2.114c0.199,0,0.339,0.02,0.499,0.061v1.654c-0.18-0.039-0.359-0.06-0.599-0.06
			c-1.236,0-2.114,0.938-2.354,2.254c-0.04,0.239-0.079,0.519-0.079,0.817v5.146h-1.735V804.316z"/>
		<path fill="#666666" d="M279.201,810.958l-0.14-1.216h-0.06c-0.539,0.758-1.576,1.436-2.952,1.436
			c-1.954,0-2.951-1.377-2.951-2.772c0-2.333,2.074-3.61,5.804-3.59v-0.199c0-0.798-0.22-2.233-2.194-2.233
			c-0.897,0-1.835,0.279-2.513,0.718l-0.398-1.157c0.797-0.518,1.954-0.857,3.171-0.857c2.951,0,3.669,2.015,3.669,3.949v3.609
			c0,0.838,0.04,1.655,0.16,2.313H279.201z M278.941,806.032c-1.914-0.04-4.088,0.299-4.088,2.174c0,1.137,0.758,1.675,1.655,1.675
			c1.256,0,2.054-0.797,2.333-1.615c0.061-0.18,0.1-0.379,0.1-0.559V806.032z"/>
		<path fill="#666666" d="M289.813,798.533v2.772h2.513v1.336h-2.513v5.205c0,1.196,0.339,1.875,1.315,1.875
			c0.459,0,0.798-0.06,1.018-0.12l0.08,1.316c-0.34,0.14-0.878,0.239-1.556,0.239c-0.818,0-1.477-0.259-1.895-0.737
			c-0.499-0.52-0.679-1.377-0.679-2.514v-5.265h-1.495v-1.336h1.495v-2.313L289.813,798.533z"/>
		<path fill="#666666" d="M299.646,810.958l-0.14-1.216h-0.06c-0.539,0.758-1.576,1.436-2.952,1.436
			c-1.954,0-2.951-1.377-2.951-2.772c0-2.333,2.074-3.61,5.804-3.59v-0.199c0-0.798-0.22-2.233-2.194-2.233
			c-0.897,0-1.835,0.279-2.513,0.718l-0.398-1.157c0.797-0.518,1.954-0.857,3.171-0.857c2.951,0,3.669,2.015,3.669,3.949v3.609
			c0,0.838,0.04,1.655,0.16,2.313H299.646z M299.387,806.032c-1.914-0.04-4.088,0.299-4.088,2.174c0,1.137,0.758,1.675,1.655,1.675
			c1.256,0,2.054-0.797,2.333-1.615c0.061-0.18,0.1-0.379,0.1-0.559V806.032z"/>
		<path fill="#666666" d="M303.836,810.958c0.04-0.658,0.08-1.636,0.08-2.493v-11.666h1.735v6.062h0.039
			c0.618-1.077,1.735-1.775,3.291-1.775c2.394,0,4.088,1.994,4.068,4.926c0,3.451-2.174,5.166-4.328,5.166
			c-1.396,0-2.513-0.539-3.23-1.815h-0.06l-0.08,1.596H303.836z M305.651,807.089c0,0.22,0.039,0.438,0.079,0.638
			c0.339,1.217,1.356,2.055,2.633,2.055c1.835,0,2.932-1.496,2.932-3.709c0-1.936-0.997-3.59-2.872-3.59
			c-1.196,0-2.313,0.817-2.672,2.154c-0.04,0.199-0.1,0.438-0.1,0.717V807.089z"/>
		<path fill="#666666" d="M315.266,796.799h1.755v14.159h-1.755V796.799z"/>
		<path fill="#666666" d="M325.317,810.958l-0.14-1.216h-0.06c-0.539,0.758-1.576,1.436-2.952,1.436
			c-1.954,0-2.951-1.377-2.951-2.772c0-2.333,2.074-3.61,5.804-3.59v-0.199c0-0.798-0.22-2.233-2.194-2.233
			c-0.897,0-1.835,0.279-2.513,0.718l-0.398-1.157c0.797-0.518,1.954-0.857,3.171-0.857c2.951,0,3.669,2.015,3.669,3.949v3.609
			c0,0.838,0.04,1.655,0.16,2.313H325.317z M325.058,806.032c-1.914-0.04-4.088,0.299-4.088,2.174c0,1.137,0.758,1.675,1.655,1.675
			c1.256,0,2.054-0.797,2.333-1.615c0.061-0.18,0.1-0.379,0.1-0.559V806.032z"/>
		<path fill="#666666" d="M329.348,809.163c0.519,0.339,1.436,0.698,2.313,0.698c1.276,0,1.874-0.639,1.874-1.436
			c0-0.838-0.498-1.297-1.795-1.775c-1.734-0.618-2.553-1.576-2.553-2.732c0-1.556,1.257-2.832,3.331-2.832
			c0.977,0,1.835,0.279,2.373,0.599l-0.438,1.276c-0.379-0.239-1.077-0.559-1.975-0.559c-1.037,0-1.615,0.598-1.615,1.316
			c0,0.797,0.578,1.156,1.835,1.635c1.675,0.639,2.532,1.477,2.532,2.912c0,1.695-1.316,2.892-3.609,2.892
			c-1.058,0-2.034-0.259-2.713-0.657L329.348,809.163z"/>
		<path fill="#666666" d="M336.429,813.371c1.416-1.975,2.514-4.566,2.514-8.156c0-3.57-1.077-6.123-2.514-8.098h1.356
			c1.276,1.636,2.612,4.188,2.612,8.117c0,3.908-1.336,6.441-2.612,8.137H336.429z"/>
	</g>
</g>
<rect x="231" y="592" fill="#157B9B" width="105" height="103"/>
<rect x="488" y="592" fill="#0991A2" width="105" height="103"/>
<g>
	<path fill="#0991A2" d="M637.295,647.479l0.364-2.745h-1.148v-0.826h1.274l0.267-2.031h-1.205v-0.827h1.331l0.364-2.675h0.812
		l-0.35,2.675h1.457l0.364-2.675h0.826l-0.351,2.675h1.148v0.827h-1.274l-0.252,2.031h1.205v0.826h-1.331l-0.364,2.745h-0.841
		l0.364-2.745H638.5l-0.364,2.745H637.295z M640.082,643.908l0.267-2.031h-1.457l-0.266,2.031H640.082z"/>
	<path fill="#0991A2" d="M649.632,642.829c0,3.096-1.148,4.805-3.166,4.805c-1.778,0-2.983-1.667-3.012-4.679
		c0-3.054,1.317-4.734,3.166-4.734C648.539,638.221,649.632,639.93,649.632,642.829z M644.688,642.969
		c0,2.367,0.729,3.713,1.849,3.713c1.261,0,1.863-1.471,1.863-3.797c0-2.241-0.574-3.712-1.85-3.712
		C645.472,639.173,644.688,640.49,644.688,642.969z"/>
	<path fill="#0991A2" d="M651.477,646.611c0.267,0.027,0.574,0,0.994-0.043c0.715-0.098,1.387-0.392,1.905-0.882
		c0.603-0.546,1.037-1.345,1.205-2.423h-0.042c-0.505,0.615-1.233,0.98-2.144,0.98c-1.639,0-2.689-1.232-2.689-2.788
		c0-1.723,1.247-3.235,3.109-3.235c1.863,0,3.012,1.513,3.012,3.838c0,2.003-0.672,3.404-1.568,4.272
		c-0.7,0.687-1.667,1.106-2.647,1.219c-0.448,0.069-0.841,0.084-1.135,0.069V646.611z M651.925,641.372
		c0,1.135,0.687,1.933,1.751,1.933c0.826,0,1.471-0.406,1.793-0.952c0.07-0.112,0.112-0.252,0.112-0.448
		c0-1.555-0.574-2.745-1.863-2.745C652.667,639.159,651.925,640.084,651.925,641.372z"/>
	<path fill="#0991A2" d="M658.658,646.611c0.267,0.027,0.574,0,0.994-0.043c0.715-0.098,1.387-0.392,1.905-0.882
		c0.603-0.546,1.037-1.345,1.205-2.423h-0.042c-0.505,0.615-1.233,0.98-2.144,0.98c-1.639,0-2.689-1.232-2.689-2.788
		c0-1.723,1.247-3.235,3.109-3.235c1.863,0,3.012,1.513,3.012,3.838c0,2.003-0.672,3.404-1.568,4.272
		c-0.7,0.687-1.667,1.106-2.647,1.219c-0.448,0.069-0.841,0.084-1.135,0.069V646.611z M659.106,641.372
		c0,1.135,0.687,1.933,1.751,1.933c0.826,0,1.471-0.406,1.793-0.952c0.07-0.112,0.112-0.252,0.112-0.448
		c0-1.555-0.574-2.745-1.863-2.745C659.849,639.159,659.106,640.084,659.106,641.372z"/>
	<path fill="#0991A2" d="M667.801,639.523h-0.028l-1.582,0.854l-0.238-0.938l1.989-1.064h1.05v9.104h-1.19V639.523z"/>
	<path fill="#0991A2" d="M674.269,644.51l-0.98,2.97h-1.261l3.207-9.44h1.471l3.222,9.44h-1.302l-1.009-2.97H674.269z
		 M677.364,643.558l-0.925-2.718c-0.21-0.616-0.351-1.177-0.49-1.723h-0.028c-0.14,0.561-0.294,1.135-0.477,1.709l-0.924,2.731
		H677.364z"/>
	<path fill="#0991A2" d="M680.875,647.479v-0.757l0.967-0.938c2.325-2.214,3.376-3.391,3.39-4.764c0-0.924-0.448-1.778-1.807-1.778
		c-0.826,0-1.513,0.42-1.933,0.771l-0.393-0.869c0.63-0.531,1.526-0.924,2.577-0.924c1.961,0,2.788,1.345,2.788,2.647
		c0,1.681-1.219,3.04-3.138,4.888l-0.729,0.673v0.028h4.09v1.022H680.875z"/>
</g>
<rect x="723" y="592" fill="#00A090" width="105" height="103"/>
<g>
	<path fill="#00A090" d="M872.295,647.479l0.364-2.745h-1.148v-0.826h1.274l0.267-2.031h-1.205v-0.827h1.331l0.364-2.675h0.812
		l-0.35,2.675h1.457l0.364-2.675h0.826l-0.351,2.675h1.148v0.827h-1.274l-0.252,2.031h1.205v0.826h-1.331l-0.364,2.745h-0.841
		l0.364-2.745H873.5l-0.364,2.745H872.295z M875.082,643.908l0.267-2.031h-1.457l-0.266,2.031H875.082z"/>
	<path fill="#00A090" d="M884.632,642.829c0,3.096-1.148,4.805-3.166,4.805c-1.778,0-2.983-1.667-3.012-4.679
		c0-3.054,1.317-4.734,3.166-4.734C883.539,638.221,884.632,639.93,884.632,642.829z M879.688,642.969
		c0,2.367,0.729,3.713,1.849,3.713c1.261,0,1.863-1.471,1.863-3.797c0-2.241-0.574-3.712-1.85-3.712
		C880.472,639.173,879.688,640.49,879.688,642.969z"/>
	<path fill="#00A090" d="M891.813,642.829c0,3.096-1.148,4.805-3.166,4.805c-1.778,0-2.983-1.667-3.012-4.679
		c0-3.054,1.317-4.734,3.166-4.734C890.721,638.221,891.813,639.93,891.813,642.829z M886.869,642.969
		c0,2.367,0.729,3.713,1.849,3.713c1.261,0,1.863-1.471,1.863-3.797c0-2.241-0.574-3.712-1.85-3.712
		C887.653,639.173,886.869,640.49,886.869,642.969z"/>
	<path fill="#00A090" d="M894.905,644.51l-0.98,2.97h-1.261l3.207-9.44h1.471l3.222,9.44h-1.302l-1.009-2.97H894.905z
		 M898.001,643.558l-0.925-2.718c-0.21-0.616-0.351-1.177-0.49-1.723h-0.028c-0.14,0.561-0.294,1.135-0.477,1.709l-0.924,2.731
		H898.001z"/>
	<path fill="#00A090" d="M907.563,642.829c0,3.096-1.148,4.805-3.166,4.805c-1.778,0-2.983-1.667-3.012-4.679
		c0-3.054,1.317-4.734,3.166-4.734C906.471,638.221,907.563,639.93,907.563,642.829z M902.619,642.969
		c0,2.367,0.729,3.713,1.849,3.713c1.261,0,1.863-1.471,1.863-3.797c0-2.241-0.574-3.712-1.85-3.712
		C903.403,639.173,902.619,640.49,902.619,642.969z"/>
	<path fill="#00A090" d="M909.408,646.611c0.267,0.027,0.574,0,0.994-0.043c0.715-0.098,1.387-0.392,1.905-0.882
		c0.603-0.546,1.037-1.345,1.205-2.423h-0.042c-0.505,0.615-1.233,0.98-2.144,0.98c-1.639,0-2.689-1.232-2.689-2.788
		c0-1.723,1.247-3.235,3.109-3.235c1.863,0,3.012,1.513,3.012,3.838c0,2.003-0.672,3.404-1.568,4.272
		c-0.7,0.687-1.667,1.106-2.647,1.219c-0.448,0.069-0.841,0.084-1.135,0.069V646.611z M909.856,641.372
		c0,1.135,0.687,1.933,1.751,1.933c0.826,0,1.471-0.406,1.793-0.952c0.07-0.112,0.112-0.252,0.112-0.448
		c0-1.555-0.574-2.745-1.863-2.745C910.599,639.159,909.856,640.084,909.856,641.372z"/>
	<path fill="#00A090" d="M921.927,642.829c0,3.096-1.148,4.805-3.166,4.805c-1.778,0-2.983-1.667-3.012-4.679
		c0-3.054,1.317-4.734,3.166-4.734C920.834,638.221,921.927,639.93,921.927,642.829z M916.982,642.969
		c0,2.367,0.729,3.713,1.849,3.713c1.261,0,1.863-1.471,1.863-3.797c0-2.241-0.574-3.712-1.85-3.712
		C917.767,639.173,916.982,640.49,916.982,642.969z"/>
</g>
<rect x="965" y="592" fill="#00A266" width="105" height="103"/>
<g>
	<path fill="#00A266" d="M1114.295,647.479l0.364-2.745h-1.148v-0.826h1.274l0.267-2.031h-1.205v-0.827h1.331l0.364-2.675h0.812
		l-0.35,2.675h1.457l0.364-2.675h0.826l-0.351,2.675h1.148v0.827h-1.274l-0.252,2.031h1.205v0.826h-1.331l-0.364,2.745h-0.841
		l0.364-2.745h-1.456l-0.364,2.745H1114.295z M1117.082,643.908l0.267-2.031h-1.457l-0.266,2.031H1117.082z"/>
	<path fill="#00A266" d="M1126.632,642.829c0,3.096-1.148,4.805-3.166,4.805c-1.778,0-2.983-1.667-3.012-4.679
		c0-3.054,1.317-4.734,3.166-4.734C1125.539,638.221,1126.632,639.93,1126.632,642.829z M1121.688,642.969
		c0,2.367,0.729,3.713,1.849,3.713c1.261,0,1.863-1.471,1.863-3.797c0-2.241-0.574-3.712-1.85-3.712
		C1122.472,639.173,1121.688,640.49,1121.688,642.969z"/>
	<path fill="#00A266" d="M1133.813,642.829c0,3.096-1.148,4.805-3.166,4.805c-1.778,0-2.983-1.667-3.012-4.679
		c0-3.054,1.317-4.734,3.166-4.734C1132.721,638.221,1133.813,639.93,1133.813,642.829z M1128.869,642.969
		c0,2.367,0.729,3.713,1.849,3.713c1.261,0,1.863-1.471,1.863-3.797c0-2.241-0.574-3.712-1.85-3.712
		C1129.653,639.173,1128.869,640.49,1128.869,642.969z"/>
	<path fill="#00A266" d="M1136.905,644.51l-0.98,2.97h-1.261l3.207-9.44h1.471l3.222,9.44h-1.302l-1.009-2.97H1136.905z
		 M1140.001,643.558l-0.925-2.718c-0.21-0.616-0.351-1.177-0.49-1.723h-0.028c-0.14,0.561-0.294,1.135-0.477,1.709l-0.924,2.731
		H1140.001z"/>
	<path fill="#00A266" d="M1143.512,647.479v-0.757l0.967-0.938c2.325-2.214,3.376-3.391,3.39-4.764c0-0.924-0.448-1.778-1.807-1.778
		c-0.826,0-1.513,0.42-1.933,0.771l-0.393-0.869c0.63-0.531,1.526-0.924,2.577-0.924c1.961,0,2.788,1.345,2.788,2.647
		c0,1.681-1.219,3.04-3.138,4.888l-0.729,0.673v0.028h4.09v1.022H1143.512z"/>
	<path fill="#00A266" d="M1155.891,639.243c-0.252-0.015-0.574,0-0.925,0.056c-1.933,0.322-2.955,1.737-3.165,3.236h0.042
		c0.434-0.574,1.19-1.051,2.199-1.051c1.61,0,2.745,1.162,2.745,2.941c0,1.667-1.135,3.208-3.025,3.208
		c-1.947,0-3.222-1.513-3.222-3.88c0-1.793,0.644-3.208,1.54-4.104c0.757-0.743,1.766-1.204,2.914-1.345
		c0.364-0.057,0.672-0.07,0.896-0.07V639.243z M1155.54,644.496c0-1.303-0.742-2.088-1.877-2.088c-0.742,0-1.429,0.463-1.765,1.121
		c-0.084,0.141-0.14,0.322-0.14,0.547c0.027,1.498,0.714,2.605,2.003,2.605C1154.826,646.682,1155.54,645.799,1155.54,644.496z"/>
	<path fill="#00A266" d="M1163.072,639.243c-0.252-0.015-0.574,0-0.925,0.056c-1.933,0.322-2.955,1.737-3.165,3.236h0.042
		c0.434-0.574,1.19-1.051,2.199-1.051c1.61,0,2.745,1.162,2.745,2.941c0,1.667-1.135,3.208-3.025,3.208
		c-1.947,0-3.222-1.513-3.222-3.88c0-1.793,0.644-3.208,1.54-4.104c0.757-0.743,1.766-1.204,2.914-1.345
		c0.364-0.057,0.672-0.07,0.896-0.07V639.243z M1162.722,644.496c0-1.303-0.742-2.088-1.877-2.088c-0.742,0-1.429,0.463-1.765,1.121
		c-0.084,0.141-0.14,0.322-0.14,0.547c0.027,1.498,0.714,2.605,2.003,2.605C1162.008,646.682,1162.722,645.799,1162.722,644.496z"/>
</g>
<rect x="610" y="827" fill="#E7F2F6" width="105" height="103"/>
<g>
	<path d="M759.295,883.479l0.364-2.745h-1.148v-0.826h1.274l0.267-2.031h-1.205v-0.827h1.331l0.364-2.675h0.812l-0.35,2.675h1.457
		l0.364-2.675h0.826l-0.351,2.675h1.148v0.827h-1.274l-0.252,2.031h1.205v0.826h-1.331l-0.364,2.745h-0.841l0.364-2.745H760.5
		l-0.364,2.745H759.295z M762.082,879.908l0.267-2.031h-1.457l-0.266,2.031H762.082z"/>
	<path d="M770.903,879.053h-3.67v3.404h4.09v1.022h-5.309v-9.44h5.099v1.021h-3.88v2.984h3.67V879.053z"/>
	<path d="M778.38,874.375v0.812l-3.965,8.292h-1.274l3.95-8.054v-0.029h-4.454v-1.021H778.38z"/>
	<path d="M780.084,874.039h5.085v1.021h-3.866v3.139h3.572v1.008h-3.572v4.272h-1.219V874.039z"/>
	<path d="M786.468,883.479v-0.757l0.967-0.938c2.325-2.214,3.376-3.391,3.39-4.764c0-0.924-0.448-1.778-1.807-1.778
		c-0.826,0-1.513,0.42-1.933,0.771l-0.393-0.869c0.63-0.531,1.526-0.924,2.577-0.924c1.961,0,2.788,1.345,2.788,2.647
		c0,1.681-1.219,3.04-3.138,4.888l-0.729,0.673v0.028h4.09v1.022H786.468z"/>
	<path d="M794.084,874.039h5.085v1.021h-3.866v3.139h3.572v1.008h-3.572v4.272h-1.219V874.039z"/>
	<path d="M805.665,875.243c-0.252-0.015-0.574,0-0.925,0.056c-1.933,0.322-2.955,1.737-3.165,3.236h0.042
		c0.434-0.574,1.19-1.051,2.199-1.051c1.61,0,2.745,1.162,2.745,2.941c0,1.667-1.135,3.208-3.025,3.208
		c-1.947,0-3.222-1.513-3.222-3.88c0-1.793,0.645-3.208,1.541-4.104c0.756-0.743,1.765-1.204,2.913-1.345
		c0.364-0.057,0.673-0.07,0.896-0.07V875.243z M805.314,880.496c0-1.303-0.742-2.088-1.877-2.088c-0.742,0-1.429,0.463-1.765,1.121
		c-0.084,0.141-0.14,0.322-0.14,0.547c0.027,1.498,0.714,2.605,2.003,2.605C804.601,882.682,805.314,881.799,805.314,880.496z"/>
</g>
<g>
	<path fill="#157B9B" d="M371.284,648.479l0.364-2.745H370.5v-0.826h1.274l0.267-2.031h-1.205v-0.827h1.331l0.364-2.675h0.812
		l-0.35,2.675h1.457l0.364-2.675h0.826l-0.351,2.675h1.148v0.827h-1.274l-0.252,2.031h1.205v0.826h-1.331l-0.364,2.745h-0.841
		l0.364-2.745h-1.456l-0.364,2.745H371.284z M374.071,644.908l0.267-2.031h-1.457l-0.266,2.031H374.071z"/>
	<path fill="#157B9B" d="M380.245,640.523h-0.028l-1.582,0.854l-0.238-0.938l1.989-1.064h1.05v9.104h-1.19V640.523z"/>
	<path fill="#157B9B" d="M390.187,640.411h-3.474l-0.351,2.339c0.21-0.027,0.406-0.056,0.742-0.056c0.7,0,1.401,0.154,1.961,0.49
		c0.715,0.406,1.303,1.19,1.303,2.339c0,1.779-1.414,3.11-3.39,3.11c-0.994,0-1.835-0.28-2.27-0.561l0.309-0.938
		c0.378,0.225,1.12,0.504,1.947,0.504c1.162,0,2.157-0.756,2.157-1.975c-0.015-1.177-0.799-2.018-2.62-2.018
		c-0.518,0-0.924,0.057-1.261,0.099l0.589-4.37h4.356V640.411z"/>
	<path fill="#157B9B" d="M397.845,639.375v0.812l-3.965,8.292h-1.274l3.95-8.054v-0.029h-4.454v-1.021H397.845z"/>
	<path fill="#157B9B" d="M399.549,639.164c0.532-0.111,1.373-0.195,2.228-0.195c1.219,0,2.003,0.21,2.591,0.686
		c0.49,0.365,0.785,0.925,0.785,1.668c0,0.91-0.603,1.709-1.598,2.072v0.028c0.896,0.224,1.947,0.966,1.947,2.367
		c0,0.812-0.322,1.429-0.798,1.892c-0.659,0.602-1.724,0.882-3.264,0.882c-0.841,0-1.485-0.056-1.892-0.112V639.164z
		 M400.768,643.031h1.106c1.289,0,2.045-0.673,2.045-1.584c0-1.105-0.84-1.541-2.072-1.541c-0.561,0-0.883,0.043-1.079,0.084
		V643.031z M400.768,647.555c0.238,0.043,0.588,0.057,1.022,0.057c1.261,0,2.424-0.463,2.424-1.836c0-1.288-1.107-1.82-2.438-1.82
		h-1.009V647.555z"/>
	<path fill="#157B9B" d="M407.417,647.611c0.267,0.027,0.574,0,0.994-0.043c0.715-0.098,1.387-0.392,1.905-0.882
		c0.603-0.546,1.037-1.345,1.205-2.423h-0.042c-0.505,0.615-1.233,0.98-2.144,0.98c-1.639,0-2.689-1.232-2.689-2.788
		c0-1.723,1.247-3.235,3.109-3.235c1.863,0,3.012,1.513,3.012,3.838c0,2.003-0.672,3.404-1.568,4.272
		c-0.7,0.687-1.667,1.106-2.647,1.219c-0.448,0.069-0.841,0.084-1.135,0.069V647.611z M407.865,642.372
		c0,1.135,0.687,1.933,1.751,1.933c0.826,0,1.471-0.406,1.793-0.952c0.07-0.112,0.112-0.252,0.112-0.448
		c0-1.555-0.574-2.745-1.863-2.745C408.607,640.159,407.865,641.084,407.865,642.372z"/>
	<path fill="#157B9B" d="M414.318,639.164c0.532-0.111,1.373-0.195,2.228-0.195c1.219,0,2.003,0.21,2.591,0.686
		c0.49,0.365,0.785,0.925,0.785,1.668c0,0.91-0.603,1.709-1.598,2.072v0.028c0.896,0.224,1.947,0.966,1.947,2.367
		c0,0.812-0.322,1.429-0.798,1.892c-0.659,0.602-1.724,0.882-3.264,0.882c-0.841,0-1.485-0.056-1.892-0.112V639.164z
		 M415.537,643.031h1.106c1.289,0,2.045-0.673,2.045-1.584c0-1.105-0.84-1.541-2.072-1.541c-0.561,0-0.883,0.043-1.079,0.084
		V643.031z M415.537,647.555c0.238,0.043,0.588,0.057,1.022,0.057c1.261,0,2.424-0.463,2.424-1.836c0-1.288-1.107-1.82-2.438-1.82
		h-1.009V647.555z"/>
</g>
<rect x="304" y="322" fill="#1283AB" width="105" height="103"/>
<rect x="560.981" y="322.457" fill="#00A185" width="105" height="103"/>
<g>
	<path fill="#1283AB" d="M451.284,377.479l0.364-2.745H450.5v-0.826h1.274l0.267-2.031h-1.205v-0.827h1.331l0.364-2.675h0.812
		l-0.35,2.675h1.457l0.364-2.675h0.826l-0.351,2.675h1.148v0.827h-1.274l-0.252,2.031h1.205v0.826h-1.331l-0.364,2.745h-0.841
		l0.364-2.745h-1.456l-0.364,2.745H451.284z M454.071,373.908l0.267-2.031h-1.457l-0.266,2.031H454.071z"/>
	<path fill="#1283AB" d="M463.621,372.829c0,3.096-1.148,4.805-3.166,4.805c-1.778,0-2.983-1.667-3.012-4.679
		c0-3.054,1.317-4.734,3.166-4.734C462.528,368.221,463.621,369.93,463.621,372.829z M458.677,372.969
		c0,2.367,0.729,3.713,1.849,3.713c1.261,0,1.863-1.471,1.863-3.797c0-2.241-0.574-3.712-1.85-3.712
		C459.461,369.173,458.677,370.49,458.677,372.969z"/>
	<path fill="#1283AB" d="M470.803,372.829c0,3.096-1.148,4.805-3.166,4.805c-1.778,0-2.983-1.667-3.012-4.679
		c0-3.054,1.317-4.734,3.166-4.734C469.71,368.221,470.803,369.93,470.803,372.829z M465.858,372.969
		c0,2.367,0.729,3.713,1.849,3.713c1.261,0,1.863-1.471,1.863-3.797c0-2.241-0.574-3.712-1.85-3.712
		C466.643,369.173,465.858,370.49,465.858,372.969z"/>
	<path fill="#1283AB" d="M472.647,376.611c0.267,0.027,0.574,0,0.994-0.043c0.715-0.098,1.387-0.392,1.905-0.882
		c0.603-0.546,1.037-1.345,1.205-2.423h-0.042c-0.505,0.615-1.233,0.98-2.144,0.98c-1.639,0-2.689-1.232-2.689-2.788
		c0-1.723,1.247-3.235,3.109-3.235c1.863,0,3.012,1.513,3.012,3.838c0,2.003-0.672,3.404-1.568,4.272
		c-0.7,0.687-1.667,1.106-2.647,1.219c-0.448,0.069-0.841,0.084-1.135,0.069V376.611z M473.096,371.372
		c0,1.135,0.687,1.933,1.751,1.933c0.826,0,1.471-0.406,1.793-0.952c0.07-0.112,0.112-0.252,0.112-0.448
		c0-1.555-0.574-2.745-1.863-2.745C473.838,369.159,473.096,370.084,473.096,371.372z"/>
	<path fill="#1283AB" d="M479.829,376.611c0.267,0.027,0.574,0,0.994-0.043c0.715-0.098,1.387-0.392,1.905-0.882
		c0.603-0.546,1.037-1.345,1.205-2.423h-0.042c-0.505,0.615-1.233,0.98-2.144,0.98c-1.639,0-2.689-1.232-2.689-2.788
		c0-1.723,1.247-3.235,3.109-3.235c1.863,0,3.012,1.513,3.012,3.838c0,2.003-0.672,3.404-1.568,4.272
		c-0.7,0.687-1.667,1.106-2.647,1.219c-0.448,0.069-0.841,0.084-1.135,0.069V376.611z M480.277,371.372
		c0,1.135,0.687,1.933,1.751,1.933c0.826,0,1.471-0.406,1.793-0.952c0.07-0.112,0.112-0.252,0.112-0.448
		c0-1.555-0.574-2.745-1.863-2.745C481.02,369.159,480.277,370.084,480.277,371.372z"/>
	<path fill="#1283AB" d="M487.011,376.611c0.267,0.027,0.574,0,0.994-0.043c0.715-0.098,1.387-0.392,1.905-0.882
		c0.603-0.546,1.037-1.345,1.205-2.423h-0.042c-0.505,0.615-1.233,0.98-2.144,0.98c-1.639,0-2.689-1.232-2.689-2.788
		c0-1.723,1.247-3.235,3.109-3.235c1.863,0,3.012,1.513,3.012,3.838c0,2.003-0.672,3.404-1.568,4.272
		c-0.7,0.687-1.667,1.106-2.647,1.219c-0.448,0.069-0.841,0.084-1.135,0.069V376.611z M487.459,371.372
		c0,1.135,0.687,1.933,1.751,1.933c0.826,0,1.471-0.406,1.793-0.952c0.07-0.112,0.112-0.252,0.112-0.448
		c0-1.555-0.574-2.745-1.863-2.745C488.201,369.159,487.459,370.084,487.459,371.372z"/>
	<path fill="#1283AB" d="M494.192,376.611c0.267,0.027,0.574,0,0.994-0.043c0.715-0.098,1.387-0.392,1.905-0.882
		c0.603-0.546,1.037-1.345,1.205-2.423h-0.042c-0.505,0.615-1.233,0.98-2.144,0.98c-1.639,0-2.689-1.232-2.689-2.788
		c0-1.723,1.247-3.235,3.109-3.235c1.863,0,3.012,1.513,3.012,3.838c0,2.003-0.672,3.404-1.568,4.272
		c-0.7,0.687-1.667,1.106-2.647,1.219c-0.448,0.069-0.841,0.084-1.135,0.069V376.611z M494.641,371.372
		c0,1.135,0.687,1.933,1.751,1.933c0.826,0,1.471-0.406,1.793-0.952c0.07-0.112,0.112-0.252,0.112-0.448
		c0-1.555-0.574-2.745-1.863-2.745C495.383,369.159,494.641,370.084,494.641,371.372z"/>
</g>
<g>
	<g>
		<path fill="#00A185" d="M710.295,377.479l0.364-2.745h-1.148v-0.826h1.274l0.267-2.031h-1.205v-0.827h1.331l0.364-2.675h0.812
			l-0.35,2.675h1.457l0.364-2.675h0.826l-0.351,2.675h1.148v0.827h-1.274l-0.252,2.031h1.205v0.826h-1.331l-0.364,2.745h-0.841
			l0.364-2.745H711.5l-0.364,2.745H710.295z M713.082,373.908l0.267-2.031h-1.457l-0.266,2.031H713.082z"/>
		<path fill="#00A185" d="M722.632,372.829c0,3.096-1.148,4.805-3.166,4.805c-1.778,0-2.983-1.667-3.012-4.679
			c0-3.054,1.317-4.734,3.166-4.734C721.539,368.221,722.632,369.93,722.632,372.829z M717.688,372.969
			c0,2.367,0.729,3.713,1.849,3.713c1.261,0,1.863-1.471,1.863-3.797c0-2.241-0.574-3.712-1.85-3.712
			C718.472,369.173,717.688,370.49,717.688,372.969z"/>
		<path fill="#00A185" d="M729.813,372.829c0,3.096-1.148,4.805-3.166,4.805c-1.778,0-2.983-1.667-3.012-4.679
			c0-3.054,1.317-4.734,3.166-4.734C728.721,368.221,729.813,369.93,729.813,372.829z M724.869,372.969
			c0,2.367,0.729,3.713,1.849,3.713c1.261,0,1.863-1.471,1.863-3.797c0-2.241-0.574-3.712-1.85-3.712
			C725.653,369.173,724.869,370.49,724.869,372.969z"/>
		<path fill="#00A185" d="M732.905,374.51l-0.98,2.97h-1.261l3.207-9.44h1.471l3.222,9.44h-1.302l-1.009-2.97H732.905z
			 M736.001,373.558l-0.925-2.718c-0.21-0.616-0.351-1.177-0.49-1.723h-0.028c-0.14,0.561-0.294,1.135-0.477,1.709l-0.924,2.731
			H736.001z"/>
		<path fill="#00A185" d="M742.188,369.523h-0.028l-1.582,0.854l-0.238-0.938l1.989-1.064h1.05v9.104h-1.19V369.523z"/>
		<path fill="#00A185" d="M746.582,375.168c0-1.148,0.687-1.961,1.807-2.438l-0.014-0.041c-1.009-0.477-1.443-1.262-1.443-2.046
			c0-1.442,1.219-2.423,2.815-2.423c1.766,0,2.647,1.106,2.647,2.241c0,0.771-0.378,1.597-1.498,2.129v0.042
			c1.134,0.448,1.835,1.246,1.835,2.354c0,1.582-1.359,2.647-3.096,2.647C747.73,377.634,746.582,376.499,746.582,375.168z
			 M751.484,375.112c0-1.106-0.771-1.64-2.003-1.989c-1.064,0.309-1.639,1.009-1.639,1.877c-0.042,0.925,0.658,1.737,1.82,1.737
			C750.77,376.737,751.484,376.051,751.484,375.112z M748.095,370.56c0,0.911,0.687,1.401,1.736,1.681
			c0.785-0.266,1.388-0.826,1.388-1.652c0-0.729-0.435-1.484-1.541-1.484C748.655,369.104,748.095,369.775,748.095,370.56z"/>
		<path fill="#00A185" d="M759.311,369.411h-3.474l-0.351,2.339c0.21-0.027,0.406-0.056,0.742-0.056c0.7,0,1.401,0.154,1.961,0.49
			c0.715,0.406,1.303,1.19,1.303,2.339c0,1.779-1.414,3.11-3.39,3.11c-0.994,0-1.835-0.28-2.27-0.561l0.309-0.938
			c0.378,0.225,1.12,0.504,1.947,0.504c1.162,0,2.157-0.756,2.157-1.975c-0.015-1.177-0.799-2.018-2.62-2.018
			c-0.518,0-0.924,0.057-1.261,0.099l0.589-4.37h4.356V369.411z"/>
	</g>
</g>
<rect x="837.981" y="322.457" fill="#666666" width="105" height="103"/>
<g>
	<g>
		<path fill="#666666" d="M987.295,377.479l0.364-2.745h-1.148v-0.826h1.274l0.267-2.031h-1.205v-0.827h1.331l0.364-2.675h0.812
			l-0.35,2.675h1.457l0.364-2.675h0.826l-0.351,2.675h1.148v0.827h-1.274l-0.252,2.031h1.205v0.826h-1.331l-0.364,2.745h-0.841
			l0.364-2.745H988.5l-0.364,2.745H987.295z M990.082,373.908l0.267-2.031h-1.457l-0.266,2.031H990.082z"/>
		<path fill="#666666" d="M998.777,369.243c-0.252-0.015-0.574,0-0.925,0.056c-1.933,0.322-2.955,1.737-3.165,3.236h0.042
			c0.434-0.574,1.19-1.051,2.199-1.051c1.61,0,2.745,1.162,2.745,2.941c0,1.667-1.135,3.208-3.025,3.208
			c-1.947,0-3.222-1.513-3.222-3.88c0-1.793,0.644-3.208,1.54-4.104c0.757-0.743,1.766-1.204,2.914-1.345
			c0.364-0.057,0.672-0.07,0.896-0.07V369.243z M998.427,374.496c0-1.303-0.742-2.088-1.877-2.088c-0.742,0-1.429,0.463-1.765,1.121
			c-0.084,0.141-0.14,0.322-0.14,0.547c0.027,1.498,0.714,2.605,2.003,2.605C997.713,376.682,998.427,375.799,998.427,374.496z"/>
		<path fill="#666666" d="M1005.959,369.243c-0.252-0.015-0.574,0-0.925,0.056c-1.933,0.322-2.955,1.737-3.165,3.236h0.042
			c0.434-0.574,1.19-1.051,2.199-1.051c1.61,0,2.745,1.162,2.745,2.941c0,1.667-1.135,3.208-3.025,3.208
			c-1.947,0-3.222-1.513-3.222-3.88c0-1.793,0.644-3.208,1.54-4.104c0.757-0.743,1.766-1.204,2.914-1.345
			c0.364-0.057,0.672-0.07,0.896-0.07V369.243z M1005.608,374.496c0-1.303-0.742-2.088-1.877-2.088
			c-0.742,0-1.429,0.463-1.765,1.121c-0.084,0.141-0.14,0.322-0.14,0.547c0.027,1.498,0.714,2.605,2.003,2.605
			C1004.895,376.682,1005.608,375.799,1005.608,374.496z"/>
		<path fill="#666666" d="M1013.141,369.243c-0.252-0.015-0.574,0-0.925,0.056c-1.933,0.322-2.955,1.737-3.165,3.236h0.042
			c0.434-0.574,1.19-1.051,2.199-1.051c1.61,0,2.745,1.162,2.745,2.941c0,1.667-1.135,3.208-3.025,3.208
			c-1.947,0-3.222-1.513-3.222-3.88c0-1.793,0.644-3.208,1.54-4.104c0.757-0.743,1.766-1.204,2.914-1.345
			c0.364-0.057,0.672-0.07,0.896-0.07V369.243z M1012.79,374.496c0-1.303-0.742-2.088-1.877-2.088c-0.742,0-1.429,0.463-1.765,1.121
			c-0.084,0.141-0.14,0.322-0.14,0.547c0.027,1.498,0.714,2.605,2.003,2.605C1012.076,376.682,1012.79,375.799,1012.79,374.496z"/>
		<path fill="#666666" d="M1020.322,369.243c-0.252-0.015-0.574,0-0.925,0.056c-1.933,0.322-2.955,1.737-3.165,3.236h0.042
			c0.434-0.574,1.19-1.051,2.199-1.051c1.61,0,2.745,1.162,2.745,2.941c0,1.667-1.135,3.208-3.025,3.208
			c-1.947,0-3.222-1.513-3.222-3.88c0-1.793,0.644-3.208,1.54-4.104c0.757-0.743,1.766-1.204,2.914-1.345
			c0.364-0.057,0.672-0.07,0.896-0.07V369.243z M1019.972,374.496c0-1.303-0.742-2.088-1.877-2.088
			c-0.742,0-1.429,0.463-1.765,1.121c-0.084,0.141-0.14,0.322-0.14,0.547c0.027,1.498,0.714,2.605,2.003,2.605
			C1019.258,376.682,1019.972,375.799,1019.972,374.496z"/>
		<path fill="#666666" d="M1027.504,369.243c-0.252-0.015-0.574,0-0.925,0.056c-1.933,0.322-2.955,1.737-3.165,3.236h0.042
			c0.434-0.574,1.19-1.051,2.199-1.051c1.61,0,2.745,1.162,2.745,2.941c0,1.667-1.135,3.208-3.025,3.208
			c-1.947,0-3.222-1.513-3.222-3.88c0-1.793,0.644-3.208,1.54-4.104c0.757-0.743,1.766-1.204,2.914-1.345
			c0.364-0.057,0.672-0.07,0.896-0.07V369.243z M1027.153,374.496c0-1.303-0.742-2.088-1.877-2.088
			c-0.742,0-1.429,0.463-1.765,1.121c-0.084,0.141-0.14,0.322-0.14,0.547c0.027,1.498,0.714,2.605,2.003,2.605
			C1026.439,376.682,1027.153,375.799,1027.153,374.496z"/>
		<path fill="#666666" d="M1034.686,369.243c-0.252-0.015-0.574,0-0.925,0.056c-1.933,0.322-2.955,1.737-3.165,3.236h0.042
			c0.434-0.574,1.19-1.051,2.199-1.051c1.61,0,2.745,1.162,2.745,2.941c0,1.667-1.135,3.208-3.025,3.208
			c-1.947,0-3.222-1.513-3.222-3.88c0-1.793,0.644-3.208,1.54-4.104c0.757-0.743,1.766-1.204,2.914-1.345
			c0.364-0.057,0.672-0.07,0.896-0.07V369.243z M1034.335,374.496c0-1.303-0.742-2.088-1.877-2.088
			c-0.742,0-1.429,0.463-1.765,1.121c-0.084,0.141-0.14,0.322-0.14,0.547c0.027,1.498,0.714,2.605,2.003,2.605
			C1033.621,376.682,1034.335,375.799,1034.335,374.496z"/>
	</g>
</g>
<g>
</g>
<g>
</g>
<g>
</g>
<g>
</g>
<g>
</g>
<g>
</g>
<g>
</g>
<g>
</g>
<g>
</g>
<g>
</g>
<g>
</g>
<g>
</g>
<g>
</g>
<g>
</g>
<g>
</g>
<g>
</g>
</svg>
