<svg version="1.1" xmlns="http://www.w3.org/2000/svg" xmlns:xlink="http://www.w3.org/1999/xlink" x="0px" y="0px"
	 width="100.939px" height="66.251px" viewBox="0 0 100.939 66.251" enable-background="new 0 0 100.939 66.251"
	 xml:space="preserve">
<g id="Layer_1">
	<g>
		<defs>
			<path id="SVGID_1_" d="M50.615,6.708L50.615,6.708c-0.048-0.001-0.097-0.001-0.145-0.001C50.518,6.707,50.568,6.708,50.615,6.708
				 M50.615,6.707c14.176,0.046,26.763,6.833,34.729,17.322l5.421-3.939C81.58,7.926,67.022,0.047,50.615,0V6.707z"/>
		</defs>
		<clipPath id="SVGID_2_">
			<use xlink:href="#SVGID_1_"  overflow="visible"/>
		</clipPath>
		
			<radialGradient id="SVGID_3_" cx="-470.5976" cy="648.7145" r="1" gradientTransform="matrix(51.1535 0 0 -51.1535 24122.6914 33234.75)" gradientUnits="userSpaceOnUse">
			<stop  offset="0" style="stop-color:#FBE908"/>
			<stop  offset="0.0118" style="stop-color:#FBE908"/>
			<stop  offset="0.7176" style="stop-color:#FBE908"/>
			<stop  offset="0.856" style="stop-color:#FAE70B"/>
			<stop  offset="0.906" style="stop-color:#F6E111"/>
			<stop  offset="0.9416" style="stop-color:#F0D719"/>
			<stop  offset="0.9704" style="stop-color:#E8C920"/>
			<stop  offset="0.9949" style="stop-color:#DEB826"/>
			<stop  offset="1" style="stop-color:#DBB427"/>
		</radialGradient>
		<rect x="50.47" y="0" clip-path="url(#SVGID_2_)" fill="url(#SVGID_3_)" width="40.295" height="24.029"/>
	</g>
	<g display="none">
		<defs>
			<rect id="SVGID_4_" x="-471.578" y="-470.305" width="1280" height="1118"/>
		</defs>
		<clipPath id="SVGID_5_" display="inline">
			<use xlink:href="#SVGID_4_"  overflow="visible"/>
		</clipPath>
		<path display="inline" clip-path="url(#SVGID_5_)" fill="#F39938" d="M90.77,20.086l-0.004,0.004
			c0.15,0.199,0.301,0.395,0.448,0.596C91.069,20.485,90.92,20.285,90.77,20.086"/>
		<path display="inline" clip-path="url(#SVGID_5_)" fill="#F39938" d="M10.008,20.301c-0.063,0.083-0.126,0.169-0.189,0.256
			c0.064-0.086,0.13-0.17,0.194-0.254L10.008,20.301z"/>
	</g>
	<g>
		<defs>
			<path id="SVGID_6_" d="M2.19,65.212c0.005,0.015,0.009,0.026,0.013,0.038c-0.004-0.013-0.008-0.025-0.012-0.038H2.19z M0,50.468
				c0,5.129,0.768,10.081,2.191,14.744l6.381-2.072c-1.211-4.013-1.865-8.265-1.865-12.672c0-9.58,3.08-18.437,8.301-25.644
				c-0.005,0.006-0.01,0.013-0.015,0.02l-5.426-3.942C3.55,29.211,0,39.425,0,50.468"/>
		</defs>
		<clipPath id="SVGID_7_">
			<use xlink:href="#SVGID_6_"  overflow="visible"/>
		</clipPath>
		
			<radialGradient id="SVGID_8_" cx="-470.5977" cy="648.7147" r="1" gradientTransform="matrix(50.6496 0 0 -50.6496 23886.8125 32907.6211)" gradientUnits="userSpaceOnUse">
			<stop  offset="0" style="stop-color:#83BC41"/>
			<stop  offset="0.7176" style="stop-color:#83BC41"/>
			<stop  offset="0.8585" style="stop-color:#82B941"/>
			<stop  offset="0.9095" style="stop-color:#7DB240"/>
			<stop  offset="0.9459" style="stop-color:#76A73F"/>
			<stop  offset="0.9752" style="stop-color:#6C9A3E"/>
			<stop  offset="1" style="stop-color:#61893C"/>
		</radialGradient>
		<rect x="0" y="20.902" clip-path="url(#SVGID_7_)" fill="url(#SVGID_8_)" width="15.008" height="44.348"/>
	</g>
	<g display="none">
		<defs>
			<rect id="SVGID_9_" x="-471.578" y="-470.305" width="1280" height="1118"/>
		</defs>
		<clipPath id="SVGID_10_" display="inline">
			<use xlink:href="#SVGID_9_"  overflow="visible"/>
		</clipPath>
		<path display="inline" clip-path="url(#SVGID_10_)" fill="#83BC41" d="M98.488,66.039c0.073-0.23,0.148-0.459,0.22-0.691
			l-0.004-0.002C98.633,65.578,98.561,65.809,98.488,66.039"/>
	</g>
	<g>
		<defs>
			<path id="SVGID_11_" d="M85.79,24.627c-0.002-0.003-0.004-0.007-0.007-0.01C85.785,24.62,85.787,24.624,85.79,24.627
				 M85.791,24.628c0-0.001,0-0.001-0.001-0.001c5.308,7.244,8.446,16.177,8.446,25.841c0,4.456-0.669,8.756-1.908,12.806
				l6.376,2.072c1.45-4.704,2.235-9.698,2.235-14.878c0-11.138-3.612-21.433-9.724-29.781L85.791,24.628z"/>
		</defs>
		<clipPath id="SVGID_12_">
			<use xlink:href="#SVGID_11_"  overflow="visible"/>
		</clipPath>
		
			<radialGradient id="SVGID_13_" cx="-470.5974" cy="648.7144" r="1" gradientTransform="matrix(51.5059 0 0 -51.5059 24289.002 33462.8242)" gradientUnits="userSpaceOnUse">
			<stop  offset="0" style="stop-color:#E01E26"/>
			<stop  offset="0.0118" style="stop-color:#E01E26"/>
			<stop  offset="0.7176" style="stop-color:#E01E26"/>
			<stop  offset="0.8754" style="stop-color:#DE1E26"/>
			<stop  offset="0.9323" style="stop-color:#D61F26"/>
			<stop  offset="0.9727" style="stop-color:#C91F26"/>
			<stop  offset="1" style="stop-color:#BB2025"/>
		</radialGradient>
		<rect x="85.783" y="20.687" clip-path="url(#SVGID_12_)" fill="url(#SVGID_13_)" width="15.156" height="44.659"/>
	</g>
	<g>
		<defs>
			<rect id="SVGID_14_" x="-471.578" y="-470.305" width="1280" height="1118"/>
		</defs>
		<clipPath id="SVGID_15_">
			<use xlink:href="#SVGID_14_"  overflow="visible"/>
		</clipPath>
		<path clip-path="url(#SVGID_15_)" fill="#010101" d="M6.893,28.134l3.285,1.675c0.063-0.122,0.127-0.245,0.191-0.364l-3.287-1.674
			C7.018,27.891,6.954,28.011,6.893,28.134 M14.992,24.843c0.146-0.202,0.293-0.404,0.442-0.602L10.008,20.3
			C9.86,20.497,14.992,24.843,14.992,24.843 M15.831,15.87l2.608,2.608c0.096-0.096,0.194-0.191,0.292-0.288l-2.608-2.607
			C16.026,15.677,15.928,15.773,15.831,15.87 M35.076,3.98l1.14,3.508c0.13-0.043,0.261-0.086,0.392-0.127l-1.14-3.508
			C35.337,3.895,35.206,3.937,35.076,3.98 M21.604,10.923l2.168,2.983c0.109-0.081,0.219-0.161,0.332-0.241l-2.168-2.984
			C21.824,10.759,21.713,10.841,21.604,10.923 M7.59,35.917l-3.51-1.138c-0.043,0.128-0.086,0.259-0.128,0.388l3.509,1.139
			C7.503,36.177,7.546,36.046,7.59,35.917 M95.143,43.089l3.64-0.576c-0.021-0.137-0.043-0.271-0.066-0.406l-3.643,0.576
			C95.099,42.82,95.119,42.953,95.143,43.089 M95.74,50.199h3.687c0-0.139-0.002-0.277-0.005-0.413h-3.687
			C95.737,49.922,95.74,50.06,95.74,50.199 M2.191,65.212c0.073,0.238,0.149,0.477,0.224,0.713l6.38-2.072
			c-0.076-0.238-0.15-0.475-0.222-0.713L2.191,65.212z M5.856,42.755l-3.643-0.578c-0.024,0.134-0.047,0.27-0.068,0.406l3.644,0.576
			C5.81,43.024,5.831,42.889,5.856,42.755 M5.648,56.847l-3.644,0.577c0.02,0.136,0.036,0.273,0.059,0.407l3.642-0.578
			C5.685,57.12,5.667,56.984,5.648,56.847 M5.206,49.786H1.518c-0.002,0.136-0.005,0.274-0.005,0.413h3.688
			C5.201,50.06,5.203,49.922,5.206,49.786 M28.069,6.925l1.674,3.287c0.122-0.062,0.244-0.125,0.368-0.186L28.434,6.74
			C28.313,6.8,28.191,6.863,28.069,6.925 M42.46,2.163l0.577,3.645c0.134-0.024,0.27-0.045,0.406-0.067l-0.578-3.646
			C42.731,2.118,42.596,2.141,42.46,2.163 M93.436,36.174l3.507-1.14c-0.042-0.128-0.085-0.26-0.129-0.388l-3.51,1.138
			C93.35,35.913,93.394,36.046,93.436,36.174 M90.77,20.085l-5.426,3.944c0.152,0.198,0.3,0.396,0.447,0.598l5.424-3.94
			C91.069,20.486,90.92,20.284,90.77,20.085 M81.98,17.966c0.099,0.093,0.197,0.19,0.295,0.285l2.606-2.605
			c-0.097-0.098-0.195-0.192-0.293-0.287L81.98,17.966z M95.225,57.324l3.642,0.578c0.021-0.135,0.04-0.27,0.059-0.407l-3.643-0.578
			C95.264,57.054,95.246,57.19,95.225,57.324 M92.104,63.988l6.378,2.071c0.076-0.237,0.153-0.474,0.226-0.712l-6.38-2.073
			C92.256,63.513,92.181,63.75,92.104,63.988 M93.763,27.587l-3.287,1.676c0.065,0.12,0.13,0.24,0.192,0.362l3.285-1.674
			C93.892,27.829,93.826,27.709,93.763,27.587 M57.055,5.677c0.136,0.018,0.27,0.037,0.405,0.059l0.577-3.643
			c-0.133-0.021-0.271-0.041-0.406-0.061L57.055,5.677z M49.869,0.007v6.706c0.201-0.001,0.4-0.007,0.601-0.007
			c0.049,0,0.098,0.001,0.145,0.001c0,0-0.096-6.708-0.145-6.708C50.269-0.001,50.07,0.003,49.869,0.007 M76.536,13.453
			c0.113,0.08,0.224,0.158,0.334,0.239l2.168-2.984c-0.11-0.08-0.22-0.16-0.334-0.239L76.536,13.453z M63.92,7.232
			c0.132,0.039,0.262,0.082,0.393,0.125l1.14-3.51c-0.13-0.042-0.26-0.086-0.392-0.125L63.92,7.232z M70.469,9.845
			c0.123,0.061,0.246,0.121,0.368,0.183l1.675-3.287c-0.122-0.062-0.246-0.123-0.368-0.182L70.469,9.845z"/>
	</g>
</g>
<g id="Layer_2">
	<g>
		<defs>
			<rect id="SVGID_16_" x="-471.578" y="-470.305" width="1280" height="1118"/>
		</defs>
		<clipPath id="SVGID_17_">
			<use xlink:href="#SVGID_16_"  overflow="visible"/>
		</clipPath>
		<path clip-path="url(#SVGID_17_)" fill="#1D1D1B" d="M45.183,50.475c0-2.925,2.369-5.293,5.293-5.293
			c2.925,0,5.296,2.368,5.296,5.293c0,2.925-2.371,5.294-5.296,5.294C47.552,55.769,45.183,53.4,45.183,50.475"/>
		<polygon clip-path="url(#SVGID_17_)" fill="#1D1D1B" points="62.924,62.763 30.021,24.912 31.296,23.825 25.445,21.084 
			27.062,27.435 28.505,26.203 61.421,64.069 		"/>
	</g>
	<g>
	</g>
	<g>
	</g>
	<g>
	</g>
	<g>
	</g>
	<g>
	</g>
	<g>
	</g>
</g>
</svg>
