<svg version="1.1" id="Capa_1" xmlns="http://www.w3.org/2000/svg" xmlns:xlink="http://www.w3.org/1999/xlink" x="0px" y="0px"
	 width="300px" height="300px" viewBox="0 0 300 300" enable-background="new 0 0 300 300" xml:space="preserve">
<g>
	<g>
		<g>
			<path fill="#676767" d="M53.295,268.523v-22.789h-4.127v-3.802h11.754c3.248,0,5.75,0.168,7.506,0.503
				c1.754,0.335,3.453,1.093,5.102,2.271c1.645,1.182,2.961,2.802,3.945,4.863c0.98,2.062,1.475,4.409,1.475,7.045
				c0,3.002-0.477,5.609-1.422,7.824c-0.947,2.213-2.189,3.866-3.725,4.958c-1.539,1.093-3.367,1.854-5.484,2.284
				c-2.121,0.429-4.818,0.645-8.096,0.645H49.168v-3.803H53.295z M57.885,268.523h2.404c2.68,0,4.803-0.167,6.369-0.502
				s2.885-0.907,3.965-1.715c1.08-0.809,1.951-2.028,2.621-3.66c0.668-1.63,1.006-3.555,1.006-5.769c0-2.636-0.547-4.873-1.65-6.707
				c-1.1-1.837-2.506-3.033-4.217-3.596c-1.711-0.56-4.344-0.841-7.898-0.841h-2.6V268.523z"/>
			<path fill="#676767" d="M94.654,268.633v-13.766h-4.264v-3.691h7.582v4.763c0.467-1.238,1.115-2.266,1.945-3.081
				c0.832-0.815,1.707-1.354,2.633-1.617c0.924-0.261,2.188-0.393,3.791-0.393h1.092v4.194h-0.828c-2.113,0-3.691,0.212-4.73,0.633
				c-1.043,0.425-1.814,1.192-2.316,2.306c-0.504,1.115-0.754,3.114-0.754,5.998v4.654h4.611v3.693H90.391v-3.693H94.654z"/>
			<path fill="#676767" d="M138.021,262.799h-17.787c0.262,1.952,1.035,3.532,2.314,4.741c1.283,1.21,2.922,1.814,4.918,1.814
				c2.898,0,5.191-1.166,6.883-3.497l3.672,1.617c-1.199,1.851-2.748,3.224-4.658,4.119c-1.906,0.896-3.902,1.345-5.984,1.345
				c-3.232,0-6-1.009-8.293-3.027c-2.293-2.017-3.441-4.738-3.441-8.162c0-3.245,1.117-5.92,3.355-8.018
				c2.234-2.098,4.803-3.147,7.701-3.147c2.84,0,5.414,1.024,7.725,3.072C136.734,255.702,137.932,258.75,138.021,262.799z
				 M133.736,259.783c-0.291-1.486-1.064-2.829-2.314-4.03c-1.252-1.202-2.791-1.804-4.611-1.804c-1.66,0-3.08,0.544-4.262,1.628
				c-1.178,1.086-1.9,2.488-2.164,4.206H133.736z"/>
			<path fill="#676767" d="M171.051,268.633v3.693h-7.252v-2.58c-2.012,1.954-4.254,2.929-6.732,2.929
				c-1.922,0-3.594-0.626-5.014-1.879s-2.129-2.854-2.129-4.807c0-1.967,0.754-3.597,2.26-4.895c1.51-1.296,3.326-1.945,5.453-1.945
				c1.98,0,3.895,0.599,5.746,1.792v-2.098c0-1.076-0.104-1.908-0.307-2.49c-0.205-0.583-0.682-1.107-1.43-1.573
				c-0.752-0.466-1.732-0.698-2.941-0.698c-2.082,0-3.59,0.83-4.523,2.49l-3.975-1.049c1.762-3.291,4.809-4.939,9.133-4.939
				c1.586,0,2.961,0.216,4.119,0.646c1.156,0.429,2.02,0.982,2.588,1.659c0.568,0.678,0.951,1.41,1.148,2.197
				c0.197,0.785,0.295,2.038,0.295,3.757v9.789H171.051z M163.383,264.46c-1.791-1.398-3.605-2.098-5.441-2.098
				c-1.15,0-2.113,0.336-2.885,1.004c-0.771,0.672-1.156,1.539-1.156,2.602c0,0.99,0.34,1.821,1.014,2.49
				c0.678,0.671,1.6,1.004,2.766,1.004c2.01,0,3.912-0.844,5.703-2.532V264.46z"/>
			<path fill="#676767" d="M184.77,268.633v-13.766h-3.52v-3.691h7.67v2.665c2.5-1.996,4.951-2.993,7.35-2.993
				c2.414,0,4.078,1.101,4.996,3.3c2.752-2.199,5.314-3.3,7.689-3.3c1.371,0,2.496,0.303,3.377,0.906
				c0.881,0.604,1.475,1.368,1.779,2.294c0.307,0.926,0.461,2.293,0.461,4.098v10.487h3.691v3.693h-7.844v-13.438
				c0-1.224-0.055-2.087-0.164-2.59c-0.109-0.502-0.387-0.918-0.83-1.245c-0.445-0.329-0.98-0.492-1.605-0.492
				c-1.779,0-3.795,0.91-6.053,2.732v11.339h3.629v3.693h-7.783v-13.832c0-1.383-0.197-2.384-0.598-3.004s-1.078-0.929-2.035-0.929
				c-1.572,0-3.592,0.91-6.061,2.732v11.339h3.715v3.693h-11.646v-3.693H184.77z"/>
			<path fill="#676767" d="M227.436,272.326v-3.452l13.258-14.269h-8.691v4.064h-3.539v-7.494h17.172v3.691l-13.307,14.007h9.682
				v-4.327h3.625v7.779H227.436z"/>
		</g>
	</g>
	<g>
		<path fill="#3F3F3F" d="M32.816,287.602c0,0.353-0.275,0.644-0.629,0.644h-0.516l-2.09,7.16c-0.189,0.643-1.031,0.654-1.221-0.013
			l-1.574-5.411l-1.584,5.411c-0.189,0.655-1.035,0.667-1.221,0.013l-2.154-7.16h-0.615c-0.354,0-0.631-0.291-0.631-0.644
			s0.277-0.64,0.631-0.64c0.73,0,1.459,0,2.189,0c0.365,0,0.643,0.287,0.643,0.64s-0.277,0.644-0.643,0.644H23.15l1.436,4.771
			l1.584-5.449c0.191-0.655,1.033-0.645,1.223-0.016l1.586,5.425l1.371-4.73h-0.352c-0.365,0-0.641-0.291-0.641-0.644
			s0.275-0.64,0.641-0.64c0.729,0,1.461,0,2.189,0C32.541,286.962,32.816,287.249,32.816,287.602z"/>
		<path fill="#3F3F3F" d="M42.666,295.142c0,0.34-0.289,0.629-0.629,0.629h-2.43c-0.34,0-0.631-0.289-0.631-0.629
			c0-0.353,0.291-0.629,0.631-0.629h0.504v-2.543h-4.205v2.543h0.578c0.354,0,0.631,0.276,0.631,0.629
			c0,0.34-0.277,0.629-0.631,0.629h-2.416c-0.352,0-0.629-0.289-0.629-0.629c0-0.353,0.277-0.629,0.629-0.629h0.58v-2.543h-0.58
			c-0.352,0-0.629-0.277-0.629-0.629s0.277-0.63,0.629-0.63h0.58v-2.491h-0.58c-0.352,0-0.629-0.277-0.629-0.63
			c0-0.341,0.277-0.628,0.629-0.628h2.416c0.354,0,0.631,0.287,0.631,0.628c0,0.353-0.277,0.63-0.631,0.63h-0.578v2.491h4.205
			v-2.491h-0.58c-0.354,0-0.629-0.277-0.629-0.63c0-0.341,0.275-0.628,0.629-0.628h2.416c0.354,0,0.631,0.287,0.631,0.628
			c0,0.353-0.277,0.63-0.631,0.63h-0.578v2.491h0.592c0.354,0,0.629,0.278,0.629,0.63s-0.275,0.629-0.629,0.629h-0.592v2.543h0.668
			C42.377,294.513,42.666,294.789,42.666,295.142z"/>
		<path fill="#3F3F3F" d="M52.074,293.908v1.196c0,0.252-0.137,0.453-0.338,0.565c-0.102,0.063-0.229,0.101-0.354,0.101h-6.949
			c-0.354,0-0.629-0.276-0.629-0.629c0-0.341,0.275-0.629,0.629-0.629h0.58v-2.531h-0.58c-0.354,0-0.629-0.289-0.629-0.641
			c0-0.34,0.275-0.63,0.629-0.63h0.58v-2.491h-0.58c-0.354,0-0.629-0.277-0.629-0.63s0.275-0.628,0.629-0.628h6.697
			c0.34,0,0.629,0.275,0.629,0.628v1.309c0,0.353-0.289,0.631-0.629,0.631c-0.352,0-0.643-0.278-0.643-0.631v-0.679h-4.215v2.491
			h2.869c0.34,0,0.629,0.29,0.629,0.63c0,0.352-0.289,0.641-0.629,0.641h-2.869v2.531h4.543v-0.604c0-0.352,0.277-0.63,0.629-0.63
			S52.074,293.557,52.074,293.908z"/>
		<path fill="#3F3F3F" d="M62.141,295.142c0,0.353-0.279,0.629-0.631,0.629c-0.807,0-1.611,0-2.416,0
			c-0.354,0-0.631-0.276-0.631-0.629c0-0.341,0.277-0.629,0.631-0.629h0.111l-1.812-2.568h-1.924v2.555h0.578
			c0.34,0,0.629,0.29,0.629,0.643c0,0.34-0.289,0.629-0.629,0.629h-2.43c-0.34,0-0.627-0.289-0.627-0.629
			c0-0.353,0.287-0.643,0.627-0.643h0.58v-2.555h-0.58c-0.34,0-0.627-0.289-0.627-0.629c0-0.353,0.287-0.629,0.627-0.629h0.58
			v-2.505h-0.58c-0.34,0-0.627-0.277-0.627-0.631c0-0.352,0.287-0.629,0.627-0.629h5.137c3.197,0,3.359,4.784,0.188,5.01
			l1.812,2.581h0.756C61.861,294.513,62.141,294.801,62.141,295.142z M58.754,290.687c1.648,0,1.648-2.505,0-2.505h-3.285v2.505
			H58.754z"/>
		<path fill="#3F3F3F" d="M71.283,293.908v1.196c0,0.252-0.137,0.453-0.34,0.565c-0.1,0.063-0.227,0.101-0.352,0.101h-6.947
			c-0.354,0-0.631-0.276-0.631-0.629c0-0.341,0.277-0.629,0.631-0.629h0.578v-2.531h-0.578c-0.354,0-0.631-0.289-0.631-0.641
			c0-0.34,0.277-0.63,0.631-0.63h0.578v-2.491h-0.578c-0.354,0-0.631-0.277-0.631-0.63s0.277-0.628,0.631-0.628h6.695
			c0.34,0,0.629,0.275,0.629,0.628v1.309c0,0.353-0.289,0.631-0.629,0.631c-0.352,0-0.643-0.278-0.643-0.631v-0.679h-4.215v2.491
			h2.869c0.34,0,0.629,0.29,0.629,0.63c0,0.352-0.289,0.641-0.629,0.641h-2.869v2.531h4.543v-0.604c0-0.352,0.277-0.63,0.629-0.63
			S71.283,293.557,71.283,293.908z"/>
		<path fill="#1D70B7" d="M82.479,291.944h-3.297v2.555h0.578c0.354,0,0.631,0.29,0.631,0.643c0,0.34-0.277,0.629-0.631,0.629
			h-2.416c-0.354,0-0.629-0.289-0.629-0.629c0-0.353,0.275-0.643,0.629-0.643h0.578v-2.555h-0.578c-0.354,0-0.629-0.289-0.629-0.629
			c0-0.353,0.275-0.629,0.629-0.629h0.578v-2.505h-0.578c-0.354,0-0.629-0.277-0.629-0.631c0-0.352,0.275-0.629,0.629-0.629h5.135
			C85.777,286.922,85.777,291.944,82.479,291.944z M82.479,288.182h-3.297v2.505h3.285
			C84.127,290.687,84.115,288.182,82.479,288.182z"/>
		<path fill="#1D70B7" d="M94.896,295.142c0,0.353-0.275,0.629-0.629,0.629c-0.805,0-1.611,0-2.416,0
			c-0.354,0-0.629-0.276-0.629-0.629c0-0.341,0.275-0.629,0.629-0.629h0.113l-1.812-2.568h-1.924v2.555h0.578
			c0.34,0,0.627,0.29,0.627,0.643c0,0.34-0.287,0.629-0.627,0.629h-2.43c-0.34,0-0.631-0.289-0.631-0.629
			c0-0.353,0.291-0.643,0.631-0.643h0.578v-2.555h-0.578c-0.34,0-0.631-0.289-0.631-0.629c0-0.353,0.291-0.629,0.631-0.629h0.578
			v-2.505h-0.578c-0.34,0-0.631-0.277-0.631-0.631c0-0.352,0.291-0.629,0.631-0.629h5.135c3.195,0,3.359,4.784,0.189,5.01
			l1.811,2.581h0.756C94.621,294.513,94.896,294.801,94.896,295.142z M91.512,290.687c1.648,0,1.648-2.505,0-2.505h-3.283v2.505
			H91.512z"/>
		<path fill="#1D70B7" d="M99.66,286.582c6.281,0,6.281,9.554,0,9.554C93.381,296.136,93.381,286.582,99.66,286.582z M99.66,294.827
			c4.559,0,4.559-6.936,0-6.936C95.105,287.892,95.105,294.827,99.66,294.827z"/>
		<path fill="#1D70B7" d="M113.428,287.64v1.259c0,0.34-0.291,0.631-0.643,0.631c-0.342,0-0.631-0.291-0.631-0.631v-0.679h-4.467
			v2.454h2.855c0.354,0,0.631,0.275,0.631,0.629c0,0.353-0.277,0.629-0.631,0.629h-2.855v2.581h0.578
			c0.354,0,0.629,0.276,0.629,0.629c0,0.34-0.275,0.629-0.629,0.629h-2.418c-0.352,0-0.641-0.289-0.641-0.629
			c0-0.353,0.289-0.629,0.641-0.629h0.58v-2.581h-0.58c-0.352,0-0.629-0.276-0.629-0.629c0-0.354,0.277-0.629,0.629-0.629h0.58
			v-2.454h-0.58c-0.352,0-0.629-0.291-0.629-0.643c0-0.34,0.277-0.631,0.629-0.631h6.912
			C113.15,286.946,113.428,287.264,113.428,287.64z"/>
		<path fill="#1D70B7" d="M117.777,295.142c0,0.34-0.291,0.629-0.629,0.629h-2.432c-0.338,0-0.627-0.289-0.627-0.629
			c0-0.353,0.289-0.629,0.627-0.629h0.58v-6.307h-0.58c-0.338,0-0.627-0.277-0.627-0.629c0-0.34,0.289-0.631,0.627-0.631h2.432
			c0.338,0,0.629,0.291,0.629,0.631c0,0.352-0.291,0.629-0.629,0.629h-0.58v6.307h0.58
			C117.486,294.513,117.777,294.789,117.777,295.142z"/>
		<path fill="#1D70B7" d="M126.635,287.59v1.334c0,0.354-0.277,0.629-0.629,0.629c-0.34,0-0.629-0.275-0.629-0.629v-0.704h-2.268
			v6.293h0.58c0.354,0,0.629,0.288,0.629,0.629c0,0.353-0.275,0.629-0.629,0.629h-2.416c-0.352,0-0.631-0.276-0.631-0.629
			c0-0.341,0.279-0.629,0.631-0.629h0.578v-6.293h-2.266v0.704c0,0.354-0.291,0.629-0.629,0.629c-0.352,0-0.631-0.275-0.631-0.629
			v-1.334c0-0.353,0.279-0.628,0.631-0.628h7.049C126.357,286.962,126.635,287.237,126.635,287.59z"/>
		<path fill="#1D70B7" d="M159.166,295.142c0,0.34-0.289,0.629-0.629,0.629h-2.43c-0.34,0-0.629-0.289-0.629-0.629
			c0-0.353,0.289-0.629,0.629-0.629h0.506v-2.543h-4.205v2.543h0.58c0.352,0,0.629,0.276,0.629,0.629
			c0,0.34-0.277,0.629-0.629,0.629h-2.42c-0.352,0-0.627-0.289-0.627-0.629c0-0.353,0.275-0.629,0.627-0.629h0.58v-2.543h-0.58
			c-0.352,0-0.627-0.277-0.627-0.629s0.275-0.63,0.627-0.63h0.58v-2.491h-0.58c-0.352,0-0.627-0.277-0.627-0.63
			c0-0.341,0.275-0.628,0.627-0.628h2.42c0.352,0,0.629,0.287,0.629,0.628c0,0.353-0.277,0.63-0.629,0.63h-0.58v2.491h4.205v-2.491
			h-0.58c-0.352,0-0.629-0.277-0.629-0.63c0-0.341,0.277-0.628,0.629-0.628h2.416c0.352,0,0.629,0.287,0.629,0.628
			c0,0.353-0.277,0.63-0.629,0.63h-0.578v2.491h0.59c0.354,0,0.631,0.278,0.631,0.63s-0.277,0.629-0.631,0.629h-0.59v2.543h0.666
			C158.877,294.513,159.166,294.789,159.166,295.142z"/>
		<path fill="#1D70B7" d="M169.859,295.142c0,0.34-0.277,0.629-0.627,0.629h-2.27c-0.338,0-0.629-0.289-0.629-0.629
			c0-0.353,0.291-0.643,0.629-0.643h0.279l-0.666-1.473h-3.551l-0.666,1.473h0.275c0.34,0,0.631,0.29,0.631,0.643
			c0,0.34-0.291,0.629-0.631,0.629h-2.266c-0.352,0-0.629-0.289-0.629-0.629c0-0.353,0.277-0.643,0.629-0.643h0.604l0.668-1.473
			h-0.062c-0.354,0-0.627-0.276-0.627-0.628c0-0.341,0.273-0.631,0.627-0.631h0.629l1.6-3.586h-0.141
			c-0.352,0-0.627-0.277-0.627-0.631c0-0.339,0.275-0.629,0.627-0.629h2.268c0.354,0,0.629,0.29,0.629,0.629
			c0,0.354-0.275,0.631-0.629,0.631h-0.141l1.6,3.586h0.631c0.352,0,0.629,0.29,0.629,0.631c0,0.352-0.277,0.628-0.629,0.628h-0.064
			l0.668,1.473h0.605C169.582,294.499,169.859,294.789,169.859,295.142z M166.008,291.768l-1.207-2.729l-1.209,2.729H166.008z"/>
		<path fill="#1D70B7" d="M176.324,291.944h-3.299v2.555h0.58c0.352,0,0.629,0.29,0.629,0.643c0,0.34-0.277,0.629-0.629,0.629
			h-2.416c-0.354,0-0.631-0.289-0.631-0.629c0-0.353,0.277-0.643,0.631-0.643h0.578v-2.555h-0.578c-0.354,0-0.631-0.289-0.631-0.629
			c0-0.353,0.277-0.629,0.631-0.629h0.578v-2.505h-0.578c-0.354,0-0.631-0.277-0.631-0.631c0-0.352,0.277-0.629,0.631-0.629h5.135
			C179.621,286.922,179.621,291.944,176.324,291.944z M176.324,288.182h-3.299v2.505h3.285
			C177.973,290.687,177.961,288.182,176.324,288.182z"/>
		<path fill="#1D70B7" d="M185.355,291.944h-3.299v2.555h0.58c0.354,0,0.631,0.29,0.631,0.643c0,0.34-0.277,0.629-0.631,0.629
			h-2.416c-0.354,0-0.629-0.289-0.629-0.629c0-0.353,0.275-0.643,0.629-0.643h0.58v-2.555h-0.58c-0.354,0-0.629-0.289-0.629-0.629
			c0-0.353,0.275-0.629,0.629-0.629h0.58v-2.505h-0.58c-0.354,0-0.629-0.277-0.629-0.631c0-0.352,0.275-0.629,0.629-0.629h5.135
			C188.652,286.922,188.652,291.944,185.355,291.944z M185.355,288.182h-3.299v2.505h3.285
			C187.004,290.687,186.992,288.182,185.355,288.182z"/>
		<path fill="#1D70B7" d="M191.934,295.142c0,0.34-0.291,0.629-0.629,0.629h-2.43c-0.34,0-0.629-0.289-0.629-0.629
			c0-0.353,0.289-0.629,0.629-0.629h0.578v-6.307h-0.578c-0.34,0-0.629-0.277-0.629-0.629c0-0.34,0.289-0.631,0.629-0.631h2.43
			c0.338,0,0.629,0.291,0.629,0.631c0,0.352-0.291,0.629-0.629,0.629h-0.58v6.307h0.58
			C191.643,294.513,191.934,294.789,191.934,295.142z"/>
		<path fill="#1D70B7" d="M202.264,287.59c0,0.339-0.275,0.63-0.629,0.63h-0.527v6.859c0,0.629-0.742,0.893-1.133,0.402
			l-4.924-6.104v5.136h0.533c0.35,0,0.627,0.276,0.627,0.629s-0.277,0.629-0.627,0.629h-2.318c-0.352,0-0.643-0.276-0.643-0.629
			s0.291-0.629,0.643-0.629h0.527v-6.293h-0.527c-0.352,0-0.643-0.291-0.643-0.63c0-0.353,0.291-0.628,0.643-0.628h1.119
			c0.227,0,0.404,0.074,0.543,0.25l4.92,6.104v-5.097h-0.527c-0.354,0-0.629-0.291-0.629-0.63c0-0.353,0.275-0.628,0.629-0.628
			h2.314C201.988,286.962,202.264,287.237,202.264,287.59z"/>
		<path fill="#1D70B7" d="M211.309,293.908v1.196c0,0.252-0.139,0.453-0.34,0.565c-0.102,0.063-0.227,0.101-0.352,0.101h-6.947
			c-0.354,0-0.631-0.276-0.631-0.629c0-0.341,0.277-0.629,0.631-0.629h0.578v-2.531h-0.578c-0.354,0-0.631-0.289-0.631-0.641
			c0-0.34,0.277-0.63,0.631-0.63h0.578v-2.491h-0.578c-0.354,0-0.631-0.277-0.631-0.63s0.277-0.628,0.631-0.628h6.695
			c0.338,0,0.629,0.275,0.629,0.628v1.309c0,0.353-0.291,0.631-0.629,0.631c-0.352,0-0.643-0.278-0.643-0.631v-0.679h-4.217v2.491
			h2.871c0.34,0,0.629,0.29,0.629,0.63c0,0.352-0.289,0.641-0.629,0.641h-2.871v2.531h4.543v-0.604c0-0.352,0.279-0.63,0.631-0.63
			S211.309,293.557,211.309,293.908z"/>
		<path fill="#1D70B7" d="M218.857,295.771h-3.992c-1.498,0-2.592-0.994-2.592-2.366c0-0.353,0.289-0.63,0.641-0.63
			c0.34,0,0.631,0.277,0.631,0.63c0,0.768,0.668,1.108,1.32,1.108h3.992c1.646,0,1.621-2.518,0-2.518c-1.311,0-2.607,0-3.902,0
			c-3.299,0-3.311-5.049,0-5.049h3.158c0.492,0,0.932,0.103,1.299,0.291c0.098-0.24,0.326-0.402,0.59-0.402
			c0.338,0,0.631,0.289,0.631,0.642v1.736c0,0.34-0.293,0.631-0.631,0.631c-0.354,0-0.643-0.291-0.643-0.631
			c0-0.743-0.643-1.007-1.246-1.007h-3.158c-1.65,0-1.637,2.517,0,2.517c1.295,0,2.592,0,3.902,0
			C222.141,290.723,222.166,295.771,218.857,295.771z"/>
		<path fill="#1D70B7" d="M228.895,295.771h-3.99c-1.498,0-2.592-0.994-2.592-2.366c0-0.353,0.289-0.63,0.641-0.63
			c0.34,0,0.631,0.277,0.631,0.63c0,0.768,0.666,1.108,1.32,1.108h3.99c1.648,0,1.623-2.518,0-2.518c-1.309,0-2.605,0-3.902,0
			c-3.297,0-3.311-5.049,0-5.049h3.16c0.49,0,0.932,0.103,1.297,0.291c0.1-0.24,0.326-0.402,0.59-0.402
			c0.34,0,0.631,0.289,0.631,0.642v1.736c0,0.34-0.291,0.631-0.631,0.631c-0.352,0-0.641-0.291-0.641-0.631
			c0-0.743-0.643-1.007-1.246-1.007h-3.16c-1.646,0-1.637,2.517,0,2.517c1.297,0,2.594,0,3.902,0
			C232.18,290.723,232.205,295.771,228.895,295.771z"/>
		<path fill="#3F3F3F" d="M246.709,295.142c0,0.353-0.289,0.629-0.629,0.629h-2.215c-0.34,0-0.631-0.276-0.631-0.629
			s0.291-0.629,0.631-0.629h0.453v-4.983l-1.9,2.554c-0.252,0.327-0.756,0.339-1.008,0.025l-2.266-2.719v5.123h0.465
			c0.354,0,0.631,0.276,0.631,0.629s-0.277,0.629-0.631,0.629h-2.189c-0.352,0-0.629-0.276-0.629-0.629s0.277-0.629,0.629-0.629
			h0.467v-6.243h-0.467c-0.352,0-0.629-0.276-0.629-0.63c0-0.352,0.277-0.629,0.629-0.629h1.084c0.188,0,0.377,0.075,0.49,0.227
			l2.883,3.462l2.553-3.411c0.141-0.178,0.303-0.277,0.531-0.277h1.119c0.34,0,0.629,0.277,0.629,0.629
			c0,0.354-0.289,0.63-0.629,0.63h-0.504v6.243h0.504C246.42,294.513,246.709,294.789,246.709,295.142z"/>
		<path fill="#3F3F3F" d="M256.041,293.908v1.196c0,0.252-0.137,0.453-0.34,0.565c-0.1,0.063-0.225,0.101-0.352,0.101h-6.945
			c-0.354,0-0.631-0.276-0.631-0.629c0-0.341,0.277-0.629,0.631-0.629h0.578v-2.531h-0.578c-0.354,0-0.631-0.289-0.631-0.641
			c0-0.34,0.277-0.63,0.631-0.63h0.578v-2.491h-0.578c-0.354,0-0.631-0.277-0.631-0.63s0.277-0.628,0.631-0.628h6.693
			c0.34,0,0.631,0.275,0.631,0.628v1.309c0,0.353-0.291,0.631-0.631,0.631c-0.352,0-0.641-0.278-0.641-0.631v-0.679h-4.217v2.491
			h2.869c0.34,0,0.631,0.29,0.631,0.63c0,0.352-0.291,0.641-0.631,0.641h-2.869v2.531h4.543v-0.604c0-0.352,0.277-0.63,0.631-0.63
			C255.766,293.278,256.041,293.557,256.041,293.908z"/>
		<path fill="#3F3F3F" d="M265.227,293.908v1.196c0,0.252-0.141,0.453-0.342,0.565c-0.1,0.063-0.225,0.101-0.352,0.101h-6.947
			c-0.352,0-0.631-0.276-0.631-0.629c0-0.341,0.279-0.629,0.631-0.629h0.58v-2.531h-0.58c-0.352,0-0.631-0.289-0.631-0.641
			c0-0.34,0.279-0.63,0.631-0.63h0.58v-2.491h-0.58c-0.352,0-0.631-0.277-0.631-0.63s0.279-0.628,0.631-0.628h6.695
			c0.342,0,0.631,0.275,0.631,0.628v1.309c0,0.353-0.289,0.631-0.631,0.631c-0.352,0-0.643-0.278-0.643-0.631v-0.679h-4.215v2.491
			h2.869c0.34,0,0.629,0.29,0.629,0.63c0,0.352-0.289,0.641-0.629,0.641h-2.869v2.531h4.543v-0.604c0-0.352,0.277-0.63,0.629-0.63
			C264.949,293.278,265.227,293.557,265.227,293.908z"/>
		<path fill="#3F3F3F" d="M274.221,287.59v1.334c0,0.354-0.279,0.629-0.629,0.629c-0.342,0-0.629-0.275-0.629-0.629v-0.704h-2.268
			v6.293h0.578c0.354,0,0.631,0.288,0.631,0.629c0,0.353-0.277,0.629-0.631,0.629h-2.416c-0.352,0-0.627-0.276-0.627-0.629
			c0-0.341,0.275-0.629,0.627-0.629h0.58v-6.293h-2.266v0.704c0,0.354-0.291,0.629-0.629,0.629c-0.354,0-0.631-0.275-0.631-0.629
			v-1.334c0-0.353,0.277-0.628,0.631-0.628h7.049C273.941,286.962,274.221,287.237,274.221,287.59z"/>
		<path fill="#3F3F3F" d="M142.814,291.805c-0.359,0.696-0.783,1.254-1.271,1.673l1.789,2.057h-3.045l-0.66-0.763
			c-0.371,0.297-0.775,0.537-1.213,0.722c-0.439,0.186-0.896,0.277-1.371,0.277c-0.521,0-0.996-0.071-1.418-0.215
			c-0.426-0.142-0.791-0.347-1.094-0.614c-0.301-0.265-0.537-0.588-0.699-0.969c-0.168-0.381-0.248-0.806-0.248-1.279
			c0-0.385,0.053-0.72,0.158-1.007c0.105-0.285,0.252-0.538,0.443-0.754c0.189-0.217,0.412-0.407,0.668-0.569
			c0.256-0.163,0.533-0.313,0.83-0.451c-0.699-0.774-1.051-1.506-1.051-2.19c0-0.33,0.078-0.653,0.24-0.97
			c0.162-0.314,0.389-0.599,0.688-0.846c0.301-0.249,0.662-0.449,1.088-0.604c0.426-0.152,0.91-0.229,1.445-0.229
			c0.455,0,0.871,0.062,1.25,0.186c0.381,0.122,0.707,0.299,0.984,0.528s0.492,0.505,0.646,0.825c0.152,0.32,0.227,0.68,0.227,1.079
			c0,0.268-0.041,0.533-0.125,0.796c-0.084,0.264-0.209,0.515-0.373,0.751c-0.164,0.238-0.373,0.456-0.619,0.658
			c-0.246,0.203-0.533,0.375-0.863,0.519c0.049,0.059,0.119,0.146,0.209,0.259c0.092,0.113,0.189,0.232,0.293,0.358
			s0.203,0.246,0.297,0.363c0.092,0.115,0.166,0.203,0.221,0.262l1.215-1.301L142.814,291.805z M136.275,292.591
			c0,0.28,0.078,0.509,0.24,0.684c0.158,0.175,0.381,0.262,0.662,0.262c0.393,0,0.701-0.107,0.916-0.324l-1.242-1.584
			C136.467,291.846,136.275,292.165,136.275,292.591z M138.109,287.057c-0.521,0-0.783,0.231-0.783,0.694
			c0,0.193,0.062,0.374,0.191,0.544s0.311,0.349,0.549,0.536c0.131-0.061,0.248-0.121,0.344-0.185
			c0.094-0.064,0.174-0.138,0.232-0.222s0.105-0.179,0.133-0.289c0.029-0.108,0.045-0.237,0.045-0.385
			c0-0.211-0.064-0.38-0.189-0.506C138.504,287.119,138.33,287.057,138.109,287.057z"/>
	</g>
	<g>
		<g>
			<linearGradient id="SVGID_1_" gradientUnits="userSpaceOnUse" x1="266.3867" y1="131.8779" x2="283.5137" y2="131.8779">
				<stop  offset="0" style="stop-color:#00A099"/>
				<stop  offset="0.985" style="stop-color:#00A099"/>
			</linearGradient>
			<path fill-rule="evenodd" clip-rule="evenodd" fill="url(#SVGID_1_)" d="M280.008,135.891c0.48-2.789,0.951-5.515,1.434-8.319
				c-2.572,0.024-5.1,0.048-7.705,0.073c-0.037,0.215-0.072,0.426-0.109,0.634c-0.549,3.089-1.102,6.177-1.648,9.266
				c-0.326,1.835-1.934,2.835-3.748,2.316c-0.855-0.245-1.6-0.645-1.805-1.604c-0.148-0.706,0.139-1.294,0.666-1.741
				c1.002-0.849,2.146-0.977,3.371-0.583c0.098,0.031,0.195,0.071,0.369,0.135c0.711-4.123,1.414-8.204,2.125-12.308
				c3.537,0.034,7.008,0.07,10.557,0.105c-0.041,0.235-0.074,0.427-0.107,0.616c-0.746,4.326-1.506,8.648-2.227,12.979
				c-0.186,1.098-0.709,1.851-1.768,2.185c-1.156,0.366-2.264,0.291-3.223-0.53c-0.82-0.708-0.85-1.795-0.115-2.608
				c0.811-0.896,2.346-1.221,3.572-0.757C279.748,135.787,279.846,135.826,280.008,135.891z"/>
		</g>
		<linearGradient id="SVGID_2_" gradientUnits="userSpaceOnUse" x1="264.5342" y1="124.7803" x2="268.2422" y2="124.7803">
			<stop  offset="0" style="stop-color:#00A099"/>
			<stop  offset="0.985" style="stop-color:#00A099"/>
		</linearGradient>
		<path fill-rule="evenodd" clip-rule="evenodd" fill="url(#SVGID_2_)" d="M266.025,127.902c-0.381,0.018-0.729-0.081-1.037-0.288
			c-0.605-0.401-0.609-1.112,0.01-1.487c0.637-0.389,1.303-0.37,1.951-0.011c0.254,0.141,0.248,0.152,0.291-0.125
			c0.209-1.345,0.418-2.689,0.627-4.034c0.004-0.025,0.01-0.051,0.016-0.076c0.021-0.115,0.051-0.243,0.201-0.223
			c0.152,0.02,0.174,0.136,0.15,0.276c-0.08,0.496-0.148,0.995-0.227,1.49c-0.182,1.165-0.379,2.329-0.545,3.494
			c-0.055,0.39-0.266,0.629-0.586,0.799C266.611,127.858,266.322,127.917,266.025,127.902z"/>
		<g>
			<path fill-rule="evenodd" clip-rule="evenodd" fill="#00A266" d="M231.357,213.351c0.141-0.224,0.227-0.41,0.352-0.556
				c0.754-0.872,0.93-1.889,0.779-3.019c-0.102-0.755-0.139-1.516-0.207-2.274c-0.254-2.792,1.148-5.296,3.633-6.482
				c2.395-1.148,5.451-0.747,7.398,0.971c2.242,1.975,3.057,4.816,2.1,7.463c-0.666,1.833-1.959,3.093-3.789,3.821
				c-1.008,0.404-2.01,0.827-3.023,1.221c-0.549,0.211-0.953,0.547-1.215,1.073c-0.193,0.375-0.443,0.723-0.682,1.107
				C234.895,215.551,233.16,214.47,231.357,213.351z"/>
			<path fill-rule="evenodd" clip-rule="evenodd" fill="#00A266" d="M234.594,219.479c-0.375,0.604-1.021,0.844-1.709,0.709
				c-0.221-0.041-0.49-0.022-0.68,0.074c-0.482,0.244-0.953,0.268-1.41-0.019c-0.457-0.288-0.646-0.721-0.629-1.261
				c0.008-0.196-0.078-0.439-0.205-0.599c-0.463-0.579-0.541-1.277-0.145-1.878C231.395,217.491,232.975,218.473,234.594,219.479z"
				/>
			<path fill-rule="evenodd" clip-rule="evenodd" fill="#00A266" d="M232.713,217.062c-0.66-0.411-1.32-0.816-1.975-1.231
				c-0.445-0.279-0.605-0.726-0.359-1.05c0.283-0.373,0.666-0.399,1.07-0.149c1.367,0.846,2.734,1.696,4.098,2.551
				c0.398,0.25,0.551,0.601,0.336,1.021c-0.188,0.368-0.645,0.424-1.098,0.148C234.094,217.929,233.402,217.494,232.713,217.062z"/>
		</g>
		<g>
			<path fill-rule="evenodd" clip-rule="evenodd" fill="#1D70B7" d="M244.773,27.675c0.008,0.465,0.025,0.934,0.016,1.398
				c-0.008,0.196-0.078,0.389-0.117,0.583c-0.191-0.061-0.398-0.095-0.57-0.187c-0.373-0.194-0.736-0.4-1.084-0.635
				c-0.41-0.273-0.664-0.26-0.811,0.276c-0.137,0.501-0.334,0.988-0.51,1.479c-0.248,0.701-0.359,0.726-0.832,0.183
				c-0.508-0.586-1-1.183-1.516-1.76c-0.154-0.176-0.367-0.302-0.555-0.453c-0.105,0.213-0.248,0.414-0.305,0.638
				c-0.184,0.728-0.32,1.469-0.508,2.19c-0.064,0.242-0.227,0.456-0.342,0.679c-0.143-0.204-0.35-0.394-0.42-0.621
				c-0.795-2.501-1.852-4.877-3.186-7.134c-2.16-3.667-4.924-6.806-8.283-9.413c-0.338-0.261-0.5-0.5-0.516-0.967
				c-0.029-0.766-0.242-1.525-0.316-2.294c-0.029-0.301,0.08-0.628,0.17-0.927c0.053-0.172,0.193-0.321,0.297-0.479
				c0.775-1.177,0.775-1.173,2.162-0.785c3.184,0.888,5.926,2.607,8.525,4.568c4.572,3.452,8.309,7.632,10.791,12.843
				c0.395,0.828,0.705,1.695,1.029,2.551c0.061,0.171,0.006,0.379,0.008,0.571c-0.195-0.072-0.432-0.103-0.574-0.23
				c-0.637-0.575-1.24-1.185-1.867-1.773c-0.152-0.146-0.338-0.254-0.508-0.379C244.893,27.625,244.834,27.646,244.773,27.675z"/>
			<path fill-rule="evenodd" clip-rule="evenodd" fill="#1D70B7" d="M215.984,13.908c0.475-1.754-0.627-3.113-2.1-4.354
				c-0.793-0.667-0.713-1.117,0.279-1.365c1.992-0.492,3.262-1.649,3.939-3.586c0.324-0.933,0.828-0.989,1.346-0.137
				c1.088,1.789,2.623,2.61,4.686,2.668c0.922,0.026,1.053,0.406,0.561,1.177c-0.418,0.65-0.879,1.278-1.242,1.958
				c-0.172,0.328-0.256,0.755-0.223,1.125c0.066,0.786,0.236,1.569,0.369,2.354c0.117,0.717-0.174,1.004-0.867,0.827
				c-0.77-0.194-1.523-0.455-2.303-0.591c-0.404-0.071-0.873-0.011-1.256,0.135c-0.619,0.237-1.195,0.597-1.789,0.9
				C216.322,15.568,216.082,15.433,215.984,13.908z"/>
		</g>
		<linearGradient id="SVGID_3_" gradientUnits="userSpaceOnUse" x1="99.2471" y1="222.46" x2="238.3294" y2="-18.4378">
			<stop  offset="0" style="stop-color:#00A266"/>
			<stop  offset="0.4945" style="stop-color:#00A099"/>
			<stop  offset="0.7911" style="stop-color:#1381AC"/>
			<stop  offset="1" style="stop-color:#1D70B7"/>
		</linearGradient>
		<path fill="url(#SVGID_3_)" d="M178.031,23.947c-0.623-0.394-1.371-0.742-2.176-1.126c-0.395-0.211-0.836-0.352-1.277-0.525
			c-0.443-0.173-0.902-0.354-1.389-0.471c-0.955-0.289-1.98-0.498-3.035-0.6c-0.531-0.032-1.062-0.1-1.605-0.057
			c-0.266,0.004-0.539,0.012-0.811,0.021l-0.811,0.107c-1.082,0.131-2.146,0.456-3.172,0.858c-2.047,0.848-3.891,2.176-5.41,3.693
			c-0.77,0.75-1.459,1.545-2.074,2.336c-0.625,0.777-1.156,1.578-1.641,2.314c-0.6,0.945-1.078,1.807-1.469,2.557v25.612
			c1.777,0.981,3.979,1.767,5.752,1.036c1.877-0.769,2.637-2.928,2.643-2.946l0.037-0.104c0.377-1.055,9.459-25.766,27.111-21.271
			c9.311,2.364,14.029,7.75,16.352,11.848c1.793,3.164,2.664,6.448,2.879,9.153c3.287,0.146,8.512,0.986,12.066,4.545
			c2.514,2.518,3.787,5.886,3.787,10.011c0,5.594-1.637,10.078-2.951,13.681c-0.738,2.016-1.654,4.524-1.316,5.232
			c0.041,0.088,0.494,0.888,3.375,1.618c4.045,1.022,8.109-2.518,12.812-6.625c3.127-2.729,6.646-5.789,10.697-7.767
			c0.123-1.484,0.205-2.979,0.205-4.492c0-27.354-20.783-51.338-49.539-57.362c-0.922-0.063-1.83-0.076-2.693-0.074
			c-0.961-0.006-1.871,0.074-2.715,0.102c-0.846,0.075-1.615,0.144-2.303,0.204c-0.689,0.053-1.281,0.161-1.771,0.217
			c-0.984,0.132-1.547,0.207-1.547,0.207s0.545-0.162,1.496-0.444c0.479-0.133,1.053-0.334,1.729-0.495
			c0.674-0.168,1.436-0.357,2.264-0.567c0.846-0.159,1.752-0.382,2.73-0.532c0.262-0.041,0.539-0.079,0.811-0.121
			c-4.357-5.451-11.299-8.991-19.113-8.991c-10.697,0-19.775,6.622-22.797,15.719v4.691c0.064-0.062,0.119-0.125,0.184-0.188
			c0.83-0.797,1.744-1.591,2.756-2.321c1.992-1.486,4.381-2.718,6.906-3.328c1.266-0.285,2.547-0.459,3.803-0.416l0.938,0.026
			c0.305,0.04,0.611,0.077,0.914,0.116c0.607,0.052,1.189,0.215,1.766,0.344c1.141,0.294,2.209,0.691,3.174,1.153
			c0.492,0.203,0.947,0.467,1.383,0.718c0.438,0.252,0.869,0.469,1.248,0.747c0.773,0.524,1.48,0.994,2.061,1.491
			c0.594,0.473,1.109,0.88,1.504,1.262c0.799,0.739,1.256,1.161,1.256,1.161s-0.506-0.346-1.389-0.953
			C179.23,24.637,178.668,24.318,178.031,23.947z"/>
		<linearGradient id="SVGID_4_" gradientUnits="userSpaceOnUse" x1="156.7871" y1="254.2256" x2="295.8666" y2="13.3328">
			<stop  offset="0" style="stop-color:#00A266"/>
			<stop  offset="0.4945" style="stop-color:#00A099"/>
			<stop  offset="0.7911" style="stop-color:#1381AC"/>
			<stop  offset="1" style="stop-color:#1D70B7"/>
		</linearGradient>
		<path fill="url(#SVGID_4_)" d="M191.521,213.245c-4.338,0-8.111-1.363-11.492-4.479c-8.697-8.017-17.65-11.009-27.307-9.116v2.615
			c3.859,14.232,17.74,24.8,34.227,24.8c16.375,0,30.164-10.423,34.133-24.504c-1.596,0.775-3.535,1.729-5.938,2.93
			C205.654,210.235,197.967,213.245,191.521,213.245z"/>
		<linearGradient id="SVGID_5_" gradientUnits="userSpaceOnUse" x1="144.082" y1="246.8916" x2="283.1672" y2="5.9889">
			<stop  offset="0" style="stop-color:#00A266"/>
			<stop  offset="0.4945" style="stop-color:#00A099"/>
			<stop  offset="0.7911" style="stop-color:#1381AC"/>
			<stop  offset="1" style="stop-color:#1D70B7"/>
		</linearGradient>
		<path fill="url(#SVGID_5_)" d="M234.168,125.5c-4.697,1.052-8.551,4.32-11.453,9.714c-0.672,1.383-9.197,18.221-24.867,18.221
			c-0.748,0-1.488-0.074-2.225-0.19c-0.096,0.039-0.186,0.071-0.281,0.115c-1.514,0.646-3.236,1.491-4.945,2.65
			c-0.859,0.575-1.689,1.26-2.484,2.014c-0.791,0.76-1.547,1.592-2.238,2.491c-0.354,0.443-0.654,0.931-0.986,1.394
			c-0.291,0.492-0.596,0.976-0.871,1.476c-0.547,1.001-1.029,2.031-1.434,3.062c-0.186,0.524-0.391,1.033-0.562,1.542
			c-0.158,0.518-0.312,1.023-0.467,1.514c-0.246,1.002-0.518,1.953-0.672,2.854c-0.086,0.449-0.17,0.88-0.25,1.292
			c-0.059,0.413-0.117,0.806-0.17,1.175c-0.117,0.741-0.205,1.391-0.248,1.931c-0.115,1.079-0.18,1.696-0.18,1.696
			s-0.062-0.618-0.17-1.701c-0.062-0.545-0.088-1.205-0.107-1.969c-0.01-0.382-0.02-0.789-0.033-1.218
			c0.016-0.43,0.027-0.881,0.043-1.354c0.002-0.947,0.139-1.966,0.254-3.052c0.086-0.539,0.174-1.094,0.264-1.663
			c0.104-0.567,0.256-1.136,0.391-1.722c0.299-1.163,0.688-2.352,1.158-3.535c0.238-0.589,0.533-1.162,0.803-1.75
			c0.32-0.56,0.607-1.146,0.961-1.691c0.686-1.102,1.449-2.166,2.309-3.113c0.855-0.951,1.762-1.828,2.711-2.582
			c0.695-0.577,1.41-1.062,2.129-1.503c-4.311-2.062-8.512-5.603-12.867-9.281c-7.801-6.584-15.838-13.363-24.955-12.001v63.595
			v1.211c8.842-1.525,17.119,0.494,25.09,6.129c0.168,0.072,0.338,0.147,0.521,0.222c0.418,0.174,0.879,0.352,1.377,0.506
			c0.494,0.183,1.031,0.292,1.586,0.446c0.559,0.107,1.143,0.237,1.742,0.302c0.6,0.055,1.215,0.139,1.83,0.113
			c0.309,0,0.617,0.011,0.928-0.001c0.307-0.03,0.613-0.062,0.916-0.093c0.617-0.032,1.199-0.19,1.779-0.312
			c0.588-0.093,1.109-0.324,1.631-0.493c0.527-0.156,0.988-0.386,1.416-0.604c0.426-0.222,0.848-0.384,1.172-0.605
			c0.332-0.214,0.619-0.402,0.855-0.557c0.477-0.312,0.75-0.49,0.75-0.49s-0.24,0.222-0.656,0.61
			c-0.209,0.197-0.465,0.434-0.76,0.707c-0.289,0.28-0.68,0.513-1.076,0.814c-0.398,0.299-0.838,0.619-1.354,0.873
			c-0.508,0.267-1.025,0.608-1.621,0.816c-0.588,0.232-1.193,0.509-1.846,0.662c-0.324,0.089-0.652,0.179-0.98,0.271
			c-0.334,0.07-0.672,0.119-1.008,0.18c-0.68,0.141-1.365,0.17-2.045,0.222c-0.215,0.014-0.43,0.013-0.643,0.014
			c0.24,0.216,0.482,0.416,0.723,0.637c4.932,4.541,11.434,5.346,30.1-3.983c5.053-2.527,8.787-4.329,11.096-5.36
			c0.461-0.205,0.902-0.403,1.324-0.575c5.693-3.915,9.697-9.718,11.105-16.233c0.295-1.358,0.461-2.722,0.529-4.078
			c-0.348-0.113-0.717-0.227-1.109-0.337c-2.859-0.807-6.879-1.464-10.857-0.86c-0.996,0.132-1.973,0.37-2.936,0.638
			c-0.475,0.15-0.945,0.312-1.41,0.478c-0.449,0.196-0.91,0.366-1.344,0.578c-0.871,0.416-1.689,0.887-2.445,1.38
			c-0.371,0.263-0.732,0.516-1.082,0.762c-0.332,0.271-0.656,0.537-0.965,0.789c-0.602,0.529-1.145,1.041-1.602,1.518
			c-0.439,0.496-0.855,0.906-1.148,1.288c-0.6,0.757-0.943,1.188-0.943,1.188s0.262-0.493,0.717-1.361
			c0.223-0.438,0.561-0.927,0.916-1.516c0.369-0.576,0.824-1.205,1.346-1.876c0.273-0.326,0.557-0.665,0.852-1.016
			c0.318-0.333,0.646-0.676,0.986-1.027c0.699-0.681,1.484-1.36,2.346-2.001c0.43-0.326,0.891-0.611,1.35-0.927
			c0.473-0.285,0.957-0.565,1.455-0.84c1.004-0.512,2.055-0.999,3.143-1.371c2.168-0.782,4.443-1.241,6.59-1.446
			c2.15-0.223,4.17-0.188,5.9-0.064c0.496,0.035,0.963,0.083,1.408,0.135c0.006-0.126,0.012-0.195,0.012-0.195
			s0.012-0.021,0.012-0.027c12.227-3.566,20.59-14.357,20.016-26.7c-0.117-2.478-0.613-4.893-1.432-7.198
			c0.016-0.058,0.033-0.117,0.031-0.145c-0.031-0.499-0.773-2.017-1.639-3.637C252.32,129.369,242.84,123.557,234.168,125.5z"/>
		<linearGradient id="SVGID_6_" gradientUnits="userSpaceOnUse" x1="123.8467" y1="235.2119" x2="262.9332" y2="-5.6931">
			<stop  offset="0" style="stop-color:#00A266"/>
			<stop  offset="0.4945" style="stop-color:#00A099"/>
			<stop  offset="0.7911" style="stop-color:#1381AC"/>
			<stop  offset="1" style="stop-color:#1D70B7"/>
		</linearGradient>
		<path fill="url(#SVGID_6_)" d="M262.76,102.405c-2.031-9.176-9.238-16.292-17.789-18.046c-2.141,1.481-4.223,3.287-6.344,5.138
			c-4.572,3.993-9.277,8.099-14.697,8.099c-0.877,0-1.77-0.105-2.686-0.339c-2.314-0.586-5.547-1.709-6.947-4.66
			c-1.486-3.129-0.234-6.56,1.094-10.192c1.201-3.288,2.562-7.021,2.562-11.466c0-2.41-0.66-4.247-2.014-5.609
			c-3.025-3.038-8.961-3.188-10.992-2.981l-0.883,0.087c-0.314,0.23-0.641,0.467-0.959,0.747c-0.375,0.312-0.764,0.64-1.156,0.968
			c-0.406,0.317-0.762,0.711-1.15,1.069c-0.383,0.371-0.77,0.74-1.146,1.102c-0.363,0.384-0.701,0.778-1.045,1.153
			c-0.34,0.38-0.668,0.745-0.98,1.093c-0.328,0.339-0.57,0.712-0.826,1.034c-1.008,1.32-1.682,2.203-1.682,2.203
			s0.385-1.075,0.967-2.693c0.154-0.401,0.285-0.863,0.498-1.304c0.203-0.455,0.412-0.932,0.631-1.424
			c0.227-0.492,0.447-1.015,0.693-1.53c0.27-0.504,0.541-1.017,0.812-1.528c0.283-0.509,0.531-1.047,0.844-1.524
			c0.301-0.492,0.6-0.974,0.889-1.441c0.277-0.476,0.592-0.904,0.883-1.319c0.285-0.401,0.543-0.79,0.809-1.137
			c0.039-1.56-0.377-4.473-2.109-7.536c-1.781-3.145-5.479-7.293-12.984-9.198c-12.906-3.273-20.537,16.758-20.865,17.638
			c-0.258,0.764-1.795,4.812-5.824,6.463c-2.297,0.939-4.857,0.865-7.639-0.18v30.805v3.826c1.219-0.15,2.736-0.28,4.516-0.28
			c1.109-0.006,2.312,0.042,3.576,0.165c1.264,0.104,2.592,0.327,3.949,0.589c1.354,0.306,2.744,0.646,4.121,1.143
			c1.381,0.463,2.746,1.062,4.076,1.723c1.318,0.694,2.611,1.434,3.807,2.297l0.895,0.632c0.287,0.23,0.57,0.458,0.854,0.686
			c0.57,0.438,1.104,0.918,1.615,1.399c0.529,0.462,1.014,0.961,1.48,1.452c0.48,0.479,0.92,0.972,1.332,1.475
			c0.861,0.963,1.566,1.977,2.24,2.878c0.611,0.962,1.225,1.791,1.66,2.61c0.451,0.803,0.879,1.477,1.158,2.082
			c0.594,1.184,0.932,1.858,0.932,1.858s-0.408-0.622-1.123-1.72c-0.342-0.557-0.84-1.168-1.365-1.897
			c-0.516-0.742-1.209-1.475-1.9-2.325c-0.75-0.789-1.537-1.673-2.461-2.483c-0.445-0.43-0.918-0.844-1.424-1.237
			c-0.492-0.408-0.998-0.819-1.547-1.184c-0.533-0.39-1.08-0.77-1.66-1.109c-0.283-0.176-0.568-0.352-0.857-0.529l-0.898-0.477
			c-1.189-0.651-2.457-1.172-3.727-1.645c-1.281-0.438-2.574-0.818-3.869-1.068c-1.285-0.284-2.576-0.42-3.818-0.533
			c-1.244-0.071-2.445-0.114-3.586-0.055c-1.139,0.04-2.213,0.139-3.195,0.276c-1.967,0.263-3.574,0.655-4.662,0.975
			c-0.041,0.011-0.076,0.022-0.117,0.033v19.396c10.936-1.306,20.035,6.376,28.176,13.249c6.047,5.104,11.758,9.926,16.949,9.926
			c12.852,0,20.225-15.145,20.297-15.297l0.057-0.114c3.67-6.845,8.688-11.021,14.918-12.409c8.504-1.894,17.131,1.949,22.1,4.846
			c2.342-1.849,4.197-4.588,4.197-4.588l-0.09-0.007c0.211-0.299,0.43-0.59,0.625-0.903
			C263.102,114.541,264.096,108.452,262.76,102.405z"/>
	</g>
	<g>
		<g>
			<path fill-rule="evenodd" clip-rule="evenodd" fill="#90908F" d="M25.51,135.451c-0.066,0.076-0.127,0.143-0.189,0.213
				c-0.498,0.584-0.998,1.163-1.486,1.752c-0.131,0.157-0.244,0.205-0.445,0.137c-0.539-0.191-1.082-0.365-1.629-0.524
				c-0.209-0.06-0.264-0.171-0.279-0.367c-0.062-0.774-0.139-1.551-0.209-2.323c-0.033-0.348-0.463-0.707-0.814-0.682
				c-0.777,0.059-1.551,0.114-2.326,0.19c-0.211,0.021-0.314-0.045-0.402-0.229c-0.246-0.501-0.5-0.999-0.77-1.489
				c-0.109-0.198-0.072-0.331,0.066-0.491c0.494-0.585,0.98-1.176,1.469-1.769c0.238-0.291,0.191-0.839-0.094-1.081
				c-0.572-0.489-1.141-0.986-1.727-1.461c-0.195-0.16-0.229-0.305-0.143-0.536c0.182-0.514,0.348-1.037,0.5-1.562
				c0.059-0.203,0.16-0.27,0.363-0.285c0.775-0.059,1.549-0.135,2.322-0.206c0.357-0.033,0.717-0.45,0.688-0.806
				c-0.059-0.763-0.113-1.526-0.188-2.288c-0.02-0.209,0.039-0.314,0.227-0.405c0.521-0.253,1.039-0.52,1.551-0.797
				c0.17-0.091,0.281-0.081,0.43,0.043c0.59,0.507,1.191,0.999,1.789,1.494c0.287,0.239,0.805,0.189,1.047-0.096
				c0.498-0.582,0.998-1.162,1.482-1.756c0.15-0.181,0.285-0.218,0.508-0.138c0.525,0.187,1.059,0.356,1.592,0.513
				c0.193,0.053,0.256,0.149,0.273,0.336c0.062,0.787,0.137,1.572,0.209,2.358c0.039,0.388,0.414,0.706,0.801,0.676
				c0.766-0.062,1.529-0.117,2.291-0.191c0.205-0.021,0.314,0.032,0.408,0.224c0.244,0.513,0.506,1.02,0.779,1.52
				c0.105,0.191,0.1,0.316-0.051,0.487c-0.5,0.577-0.98,1.173-1.471,1.765c-0.252,0.305-0.213,0.787,0.088,1.041
				c0.582,0.497,1.162,0.996,1.754,1.482c0.176,0.146,0.236,0.275,0.15,0.504c-0.186,0.513-0.354,1.034-0.498,1.562
				c-0.066,0.232-0.186,0.301-0.412,0.317c-0.74,0.054-1.48,0.133-2.221,0.203c-0.5,0.048-0.783,0.393-0.744,0.903
				c0.059,0.741,0.105,1.483,0.182,2.22c0.021,0.226-0.043,0.338-0.24,0.434c-0.494,0.237-0.982,0.483-1.459,0.751
				c-0.209,0.117-0.348,0.082-0.521-0.068c-0.562-0.483-1.164-0.926-1.705-1.433C26.141,135.297,25.826,135.479,25.51,135.451z
				 M26.811,131.739c1.652-0.852,2.291-2.847,1.438-4.501c-0.85-1.65-2.857-2.287-4.506-1.43c-1.629,0.85-2.271,2.858-1.443,4.487
				C23.133,131.934,25.168,132.585,26.811,131.739z"/>
		</g>
		<g>
			<g>
				<path fill-rule="evenodd" clip-rule="evenodd" fill="#ADACAC" d="M61.605,33.377c-3.699-0.986-7.324-1.951-11.004-2.93
					c-0.049,0.362-0.115,0.779-0.164,1.196c-0.078,0.662-0.502,1.064-1.094,1.025c-0.602-0.039-0.965-0.479-0.906-1.176
					c0.209-2.572,1.232-4.825,2.781-6.849c1.617-2.11,3.682-3.688,6.029-4.909c0.121-0.062,0.242-0.121,0.361-0.188
					c0.029-0.018,0.053-0.053,0.043-0.046c-0.322-0.56-0.627-1.11-0.955-1.649c-1.377-2.26-2.262-4.662-2.123-7.356
					c0.1-1.949,0.738-3.708,1.926-5.264c0.105-0.136,0.217-0.277,0.348-0.384c0.566-0.453,1.09-0.448,1.494,0
					c0.375,0.417,0.33,0.929-0.121,1.45c-0.184,0.218-0.359,0.44-0.498,0.609c3.145,0.843,6.277,1.683,9.443,2.53
					c-0.037-0.252-0.088-0.587-0.137-0.92c-0.078-0.541,0.176-1.014,0.629-1.175c0.49-0.173,0.955-0.015,1.174,0.545
					c0.205,0.527,0.346,1.112,0.367,1.677c0.107,2.895-1.123,5.246-3.09,7.263c-1.414,1.45-3.115,2.474-4.936,3.32
					c-0.084,0.039-0.162,0.091-0.318,0.181c0.549,0.951,1.16,1.85,1.615,2.826c1.742,3.741,2.215,7.589,0.766,11.549
					c-0.105,0.291-0.232,0.578-0.391,0.841c-0.293,0.493-0.811,0.632-1.301,0.386c-0.479-0.241-0.678-0.768-0.473-1.278
					C61.244,34.221,61.43,33.796,61.605,33.377z M62.145,31.27c-0.104-1.24-0.199-2.465-0.328-3.686
					c-0.012-0.133-0.207-0.312-0.348-0.353c-2.557-0.708-5.115-1.401-7.678-2.088c-0.129-0.035-0.352-0.037-0.414,0.042
					c-0.816,0.998-1.611,2.013-2.066,3.239C54.881,29.363,58.414,30.291,62.145,31.27z M66.871,11.979
					c-3.391-0.984-6.748-1.962-10.119-2.942c-0.309,1.22-0.32,2.355-0.09,3.484c0.033,0.18,0.23,0.415,0.4,0.46
					c2.541,0.691,5.09,1.358,7.645,2.008c0.176,0.045,0.48-0.04,0.6-0.174C66.064,13.923,66.621,12.916,66.871,11.979z
					 M58.98,21.173c-1.217,0.704-2.422,1.4-3.604,2.082c1.912,0.513,3.766,1.01,5.686,1.524
					C60.375,23.586,59.684,22.39,58.98,21.173z M63.15,16.853c-1.947-0.511-3.748-0.981-5.619-1.471
					c0.652,1.012,1.307,2.034,1.979,3.043c0.055,0.081,0.289,0.137,0.383,0.091C60.963,17.985,62.021,17.433,63.15,16.853z"/>
			</g>
		</g>
		<g>
			<path fill="#727272" d="M66.705,215.11c-2.904-4.772-5.787-9.562-8.689-14.337c-0.221-0.363-0.332-0.644-0.111-1.079
				c0.289-0.574,0.002-1.286-0.543-1.584c-0.518-0.283-1.021-0.216-1.52,0.091c-2.205,1.344-4.42,2.676-6.629,4.016
				c-0.082,0.048-0.166,0.099-0.238,0.156c-0.492,0.382-0.666,0.917-0.484,1.478c0.178,0.542,0.65,0.85,1.252,0.922
				c0.219,0.026,0.492,0.189,0.605,0.371c1.238,2.003,2.447,4.022,3.666,6.037c1.756,2.899,3.488,5.81,5.27,8.69
				c1.012,1.644,2.539,2.331,4.443,2.082c1.746-0.229,3.18-1.571,3.676-3.558C67.623,217.4,67.383,216.229,66.705,215.11z
				 M65.059,218.535c-0.787,1.606-2.902,1.742-3.881,0.231c-0.729-1.122-1.398-2.285-2.092-3.433
				c-2.242-3.701-4.479-7.404-6.723-11.104c-0.111-0.177-0.275-0.321-0.414-0.485c1.389-0.84,2.613-1.585,3.891-2.357
				c0.111,0.217,0.236,0.469,0.395,0.782c-0.363,0.21-0.76,0.432-1.146,0.669c-0.512,0.316-0.654,0.688-0.426,1.084
				c0.238,0.417,0.643,0.474,1.189,0.142c0.373-0.227,0.73-0.479,1.068-0.7c0.564,0.954,1.08,1.82,1.658,2.796
				c-0.338,0.18-0.766,0.386-1.174,0.631c-0.463,0.275-0.588,0.686-0.371,1.055c0.221,0.377,0.633,0.454,1.098,0.18
				c0.41-0.242,0.801-0.509,1.219-0.771c0.111,0.164,0.18,0.253,0.24,0.348c1.762,2.916,3.525,5.834,5.291,8.749
				C65.309,217.05,65.428,217.782,65.059,218.535z"/>
			<path fill="#727272" d="M60.213,210.212c-0.039-0.065-0.102-0.121-0.162-0.19c-0.662,0.402-1.301,0.795-2.07,1.263
				c0.207,0.307,0.439,0.604,0.627,0.928c1.105,1.874,2.197,3.756,3.289,5.636c0.25,0.429,0.547,0.882,1.082,0.816
				c0.393-0.05,0.844-0.264,1.104-0.554c0.348-0.387,0.227-0.892-0.039-1.345C62.76,214.585,61.488,212.397,60.213,210.212z"/>
		</g>
		<g>
			<path fill="none" d="M88.35,36.276c0-1.783-1.381-3.234-3.076-3.234s-3.072,1.451-3.072,3.234c0,1.781,1.377,3.23,3.072,3.23
				S88.35,38.058,88.35,36.276z"/>
			<path fill="#777778" d="M99.047,29.515c-0.477-0.241-1.004-0.389-1.566-0.389c-2.002,0-3.625,1.707-3.625,3.811
				s1.623,3.809,3.625,3.809s3.623-1.705,3.623-3.809c0-0.17-0.027-0.331-0.047-0.496l7.617-6.056v45.626H97.25V52.842L89.789,41.19
				c1.227-1.244,1.992-2.986,1.992-4.914c0-3.772-2.918-6.841-6.508-6.841c-3.588,0-6.508,3.068-6.508,6.841
				c0,3.771,2.92,6.839,6.508,6.839c0.514,0,1.012-0.069,1.492-0.188l7.051,11.016v21.676h18.289V19.132L99.047,29.515z
				 M82.201,36.276c0-1.783,1.377-3.234,3.072-3.234s3.076,1.451,3.076,3.234c0,1.781-1.381,3.23-3.076,3.23
				S82.201,38.058,82.201,36.276z"/>
		</g>
		<g>
			<ellipse fill="none" cx="65.574" cy="72.465" rx="1.992" ry="2.095"/>
			<path fill="#B9B9B8" d="M80.984,49.774c0.33-0.575,0.535-1.243,0.535-1.964c0-2.105-1.625-3.812-3.625-3.812
				c-2.004,0-3.625,1.706-3.625,3.812c0,2.104,1.621,3.809,3.625,3.809c0.045,0,0.088-0.012,0.135-0.015l4.602,8.214v42.185
				l-15.34,16.125V77.87C69.443,77.112,71,74.978,71,72.464c0-3.145-2.434-5.702-5.426-5.702s-5.426,2.558-5.426,5.702
				c0,2.514,1.559,4.649,3.711,5.407v28.642h-8.965v-5.219h-3.434v14.045h3.434v-5.22h8.965v16.72l22.203-23.341V58.834
				L80.984,49.774z M65.574,70.37c1.1,0,1.992,0.938,1.992,2.094s-0.893,2.096-1.992,2.096s-1.992-0.94-1.992-2.096
				S64.475,70.37,65.574,70.37z"/>
		</g>
		<g>
			<path fill="none" d="M101.238,115.285c0,1.782,1.381,3.231,3.074,3.231c1.697,0,3.076-1.449,3.076-3.231
				s-1.379-3.231-3.076-3.231C102.619,112.054,101.238,113.503,101.238,115.285z"/>
			<path fill="#90908F" d="M120.078,12.737v48.159c-1.648,0.797-2.793,2.543-2.793,4.574c0,2.783,2.145,5.036,4.791,5.036
				c2.645,0,4.791-2.253,4.791-5.036c0-2.257-1.41-4.165-3.357-4.806V18.278l9.943,4.619v58.86H91.539v26.444l-36.018,36.719
				c-0.375-0.14-0.771-0.231-1.195-0.231c-2,0-3.623,1.71-3.623,3.813c0,2.103,1.623,3.811,3.623,3.811
				c2.002,0,3.623-1.708,3.623-3.811c0-0.318-0.047-0.62-0.115-0.913l37.139-37.859V85.365h7.625v23.328
				c-2.756,0.795-4.791,3.446-4.791,6.592c0,3.773,2.918,6.84,6.506,6.84c3.59,0,6.508-3.066,6.508-6.84
				c0-3.146-2.035-5.797-4.789-6.591V85.365h27.422v105.63l-12.045,21.31h-18.113L95.137,199.2c0.08-0.264,0.137-0.542,0.137-0.835
				c0-1.521-1.176-2.756-2.623-2.756s-2.619,1.234-2.619,2.756c0,1.36,0.938,2.484,2.172,2.708l9.234,14.839h21.924l13.523-23.925
				V20.548L120.078,12.737z M107.389,115.285c0,1.782-1.379,3.231-3.076,3.231c-1.693,0-3.074-1.449-3.074-3.231
				s1.381-3.231,3.074-3.231C106.01,112.054,107.389,113.503,107.389,115.285z"/>
		</g>
		<g>
			<path fill="none" d="M74.727,142.649c-1.697,0-3.074,1.449-3.074,3.231c0,1.781,1.377,3.231,3.074,3.231
				c1.695,0,3.074-1.45,3.074-3.231C77.801,144.099,76.422,142.649,74.727,142.649z"/>
			<path fill="#B9B9B8" d="M129.762,102.764c0-2.779-2.145-5.035-4.793-5.035c-2.645,0-4.789,2.256-4.789,5.035
				c0,1.598,0.707,3.018,1.811,3.939l-10.887,23.148H87.074l-9.088,10.119c-0.959-0.588-2.072-0.93-3.26-0.93
				c-3.588,0-6.508,3.068-6.508,6.84c0,3.772,2.92,6.84,6.508,6.84c3.586,0,6.506-3.067,6.506-6.84c0-1.214-0.305-2.352-0.834-3.34
				l8.156-9.08h21.385v9.426H91.117l-19.492,24.061c-0.172-0.027-0.344-0.058-0.523-0.058c-2.002,0-3.623,1.707-3.623,3.81
				c0,2.104,1.621,3.81,3.623,3.81s3.625-1.705,3.625-3.81c0-0.571-0.129-1.106-0.344-1.593l11.203-13.826v27.277H65.574v3.608
				h23.443v-35.124l3.684-4.547h20.674v-13.332l11.936-25.381C127.797,107.596,129.762,105.425,129.762,102.764z M74.727,149.112
				c-1.697,0-3.074-1.45-3.074-3.231c0-1.782,1.377-3.231,3.074-3.231c1.695,0,3.074,1.449,3.074,3.231
				C77.801,147.662,76.422,149.112,74.727,149.112z"/>
		</g>
		<g>
			<path fill="none" d="M123.088,134.436c-1.695,0-3.074,1.448-3.074,3.23c0,1.783,1.379,3.233,3.074,3.233
				c1.693,0,3.074-1.45,3.074-3.233C126.162,135.884,124.781,134.436,123.088,134.436z"/>
			<path fill="#777778" d="M129.596,137.666c0-3.771-2.92-6.839-6.508-6.839c-3.59,0-6.508,3.068-6.508,6.839
				c0,3.148,2.033,5.798,4.791,6.592v17.397h-18.492c-0.537-1.396-1.836-2.384-3.357-2.384c-2.002,0-3.623,1.705-3.623,3.809
				c0,2.106,1.621,3.81,3.623,3.81c1.229,0,2.311-0.645,2.965-1.626h18.885v22.589l-6.648,10.812h-7.441l-8.592-14.048
				c0.289-0.549,0.469-1.171,0.469-1.844c0-2.102-1.623-3.808-3.623-3.808c-2.002,0-3.625,1.706-3.625,3.808
				c0,2.107,1.623,3.812,3.625,3.812c0.088,0,0.172-0.021,0.258-0.027l9.615,15.714h11.184l8.211-13.352v-44.662
				C127.561,143.462,129.596,140.814,129.596,137.666z M123.088,140.899c-1.695,0-3.074-1.45-3.074-3.233
				c0-1.782,1.379-3.23,3.074-3.23c1.693,0,3.074,1.448,3.074,3.23C126.162,139.449,124.781,140.899,123.088,140.899z"/>
		</g>
		<g>
			<ellipse fill="none" cx="146.648" cy="86.866" rx="1.797" ry="1.891"/>
			<path fill="#777778" d="M148.289,83.269V24.329v-1.062c0-1.374-0.318-2.545-0.508-3.123C144.15,10.756,134.809,4.51,124.133,4.51
				c-8.314,0-16.006,3.827-20.732,10.274c-29.312,5.96-50.531,30.414-50.531,58.326c0,3.425,0.318,6.852,0.943,10.213
				c-3.811,1.081-7.309,3.167-10.252,6.088c-0.283-0.074-0.576-0.126-0.881-0.126c-2.004,0-3.627,1.706-3.627,3.81
				s1.623,3.811,3.627,3.811c2,0,3.621-1.707,3.621-3.811c0-0.433-0.082-0.841-0.209-1.229c2.846-2.752,6.383-4.67,10.074-5.412
				l1.752-0.353l-0.402-1.827c-0.807-3.655-1.213-7.411-1.213-11.164c0-26.303,20.236-49.363,48.133-54.86l0.881-0.111l0.436-0.636
				c4.037-5.877,10.908-9.384,18.381-9.384c9.029,0,17.223,5.343,20.381,13.125c0.166,0.566,0.342,1.523,0.342,3.085v59.028
				c-1.191,0.677-2.014,1.988-2.014,3.51c0,2.206,1.707,4.002,3.807,4.002c2.102-0.002,3.811-1.796,3.811-4.002
				C150.459,85.279,149.566,83.915,148.289,83.269z M146.648,88.757c-0.99,0-1.797-0.847-1.797-1.89s0.807-1.892,1.797-1.892
				c0.994,0,1.801,0.849,1.801,1.892S147.643,88.757,146.648,88.757z"/>
		</g>
		<g>
			<path fill="none" d="M39.961,107.801c0-1.521-1.18-2.759-2.627-2.759c-1.449,0-2.625,1.237-2.625,2.759
				c0,1.522,1.176,2.761,2.625,2.761C38.781,110.562,39.961,109.323,39.961,107.801z"/>
			<path fill="#777778" d="M150.459,102.764c0-2.206-1.709-4.002-3.811-4.002c-2.1,0-3.807,1.796-3.807,4.002
				c0,1.521,0.822,2.833,2.014,3.51v94.234c-3.777,13.474-16.889,22.864-31.975,22.864c-16.926,0-31.371-12.189-32.889-27.746
				l-0.154-1.575l-1.504-0.045c-0.266-0.007-0.512-0.077-0.744-0.211c-6.186-3.558-10.555-9.393-11.984-16.005
				c-0.637-2.942-0.688-5.932-0.15-8.882l0.312-1.718l-1.625-0.38c-12.258-2.889-20.438-13.104-19.889-24.846
				c0.244-5.232,2.242-10.167,5.779-14.264l1.533-1.782l-2.053-1.053c-2.859-1.465-5.299-3.72-7.061-6.521
				c-0.969-1.543-1.709-3.204-2.223-4.953c1.883-1.08,3.162-3.181,3.162-5.591c0-3.512-2.717-6.368-6.059-6.368
				c-3.34,0-6.059,2.856-6.059,6.368c0,3.348,2.473,6.094,5.598,6.344c0.611,2.189,1.508,4.268,2.715,6.19
				c1.699,2.699,3.928,4.975,6.521,6.67c-3.217,4.362-5.033,9.431-5.283,14.783c-0.6,12.801,8.154,24.392,21.006,28.132
				c-0.338,2.889-0.195,5.8,0.426,8.67c1.648,7.621,6.637,14.316,13.682,18.37c0.254,0.146,0.521,0.27,0.797,0.368
				c2.359,16.732,17.961,29.649,36.145,29.649c16.701,0,31.234-10.575,35.342-25.72l0.066-0.243v-94.652
				C149.566,105.716,150.459,104.353,150.459,102.764z M34.709,107.801c0-1.521,1.176-2.759,2.625-2.759
				c1.447,0,2.627,1.237,2.627,2.759c0,1.522-1.18,2.761-2.627,2.761C35.885,110.562,34.709,109.323,34.709,107.801z"/>
		</g>
	</g>
</g>
</svg>
