<?xml version="1.0" encoding="utf-8"?>
<!-- Generator: Adobe Illustrator 17.0.0, SVG Export Plug-In . SVG Version: 6.00 Build 0)  -->
<!DOCTYPE svg PUBLIC "-//W3C//DTD SVG 1.1//EN" "http://www.w3.org/Graphics/SVG/1.1/DTD/svg11.dtd">
<svg version="1.1" id="Layer_1" xmlns="http://www.w3.org/2000/svg" xmlns:xlink="http://www.w3.org/1999/xlink" x="0px" y="0px"
	 width="643.711px" height="239.211px" viewBox="0 0 643.711 239.211" enable-background="new 0 0 643.711 239.211"
	 xml:space="preserve">
<path fill="#076AA4" d="M119.87,33.698c0.302-0.006,0.604,0.012,0.906,0.062L119.605,0l-1.085,31.276
	c0.309,0.45,0.611,0.911,0.896,1.391C119.624,33.015,119.768,33.359,119.87,33.698"/>
<path fill="#076AA4" d="M128.733,25.029l1.293-24.574l-3.178,25.942C127.453,25.911,128.082,25.453,128.733,25.029"/>
<path fill="#076AA4" d="M137.578,21.636l2.79-19.82l-4.264,20.088C136.592,21.796,137.083,21.709,137.578,21.636"/>
<path fill="#076AA4" d="M146.318,22.388l4.231-18.315l-5.476,17.935C145.49,22.117,145.905,22.245,146.318,22.388"/>
<path fill="#076AA4" d="M153.964,27.308l6.533-20.1l-7.672,19.009C153.221,26.564,153.598,26.931,153.964,27.308"/>
<path fill="#076AA4" d="M158.547,35.813c0.085,0.488,0.156,0.977,0.219,1.466c0.22-0.338,0.461-0.657,0.708-0.971l10.66-25.11
	l-11.877,23.335C158.373,34.955,158.472,35.382,158.547,35.813"/>
<path fill="#076AA4" d="M170.447,32.826l8.94-16.812l-10.341,16.567C169.512,32.64,169.98,32.722,170.447,32.826"/>
<path fill="#076AA4" d="M178.575,36.414l9.61-14.799l-10.663,14.164C177.878,35.987,178.229,36.198,178.575,36.414"/>
<path fill="#076AA4" d="M185.727,41.702l10.733-13.74l-11.655,12.96C185.115,41.179,185.422,41.438,185.727,41.702"/>
<path fill="#076AA4" d="M191.118,47.175c0.267,0.319,0.526,0.644,0.784,0.97l12.25-13.138L191.118,47.175z"/>
<path fill="#076AA4" d="M196.1,54.507c0.217,0.403,0.429,0.809,0.632,1.218l14.47-13.031L196.1,54.507z"/>
<path fill="#076AA4" d="M217.554,50.966l-18.122,11.785c0.152,0.515,0.284,1.037,0.422,1.557L217.554,50.966z"/>
<path fill="#076AA4" d="M223.162,59.76L201.28,71.415c0.086,0.626,0.162,1.254,0.228,1.883L223.162,59.76z"/>
<path fill="#076AA4" d="M201.78,82.367l26.202-13.358l-26.151,11.123C201.824,80.878,201.814,81.624,201.78,82.367"/>
<path fill="#076AA4" d="M200.68,91.298l31.297-12.655L201.14,88.689C201.005,89.563,200.853,90.433,200.68,91.298"/>
<path fill="#076AA4" d="M203.631,95.885c1.285,0.207,2.573,0.613,3.822,1.172l27.664-8.467L203.631,95.885z"/>
<path fill="#076AA4" d="M214.296,102.035c0.42,0.457,0.814,0.925,1.176,1.401l21.909-4.665L214.296,102.035z"/>
<path fill="#076AA4" d="M218.282,110.202c0.054,0.47,0.079,0.944,0.085,1.42l20.382-2.51L218.282,110.202z"/>
<path fill="#076AA4" d="M216.505,118.758c-0.118,0.192-0.237,0.383-0.366,0.566c-0.179,0.254-0.5,0.622-0.896,1.054l23.967-0.847
	L216.505,118.758z"/>
<path fill="#076AA4" d="M209.949,126.44c-0.527,0.784-0.845,1.469-0.827,1.971l29.639,1.54L209.949,126.44z"/>
<path fill="#076AA4" d="M212.687,135.063c0.391,0.622,0.756,1.256,1.066,1.917l23.655,3.313L212.687,135.063z"/>
<path fill="#076AA4" d="M214.977,144.33c-0.021,0.492-0.057,0.983-0.115,1.473l20.297,4.675L214.977,144.33z"/>
<path fill="#076AA4" d="M212.594,152.598c-0.252,0.427-0.522,0.848-0.811,1.263l20.246,6.566L212.594,152.598z"/>
<path fill="#076AA4" d="M206.618,159.177c-0.542,0.397-1.097,0.77-1.665,1.103l23.092,9.786L206.618,159.177z"/>
<path fill="#076AA4" d="M197.065,163.008c-0.933,0.246-1.854,0.512-2.731,0.842c0.004,0.044,0.008,0.09,0.013,0.134l28.89,15.338
	L197.065,163.008z"/>
<path fill="#076AA4" d="M194.702,173.248l22.937,14.875l-22.87-17.194C194.767,171.704,194.749,172.477,194.702,173.248"/>
<path fill="#076AA4" d="M192.697,181.891l18.602,14.511l-17.944-16.117C193.161,180.831,192.942,181.367,192.697,181.891"/>
<path fill="#076AA4" d="M188.451,187.427c-0.387,0.316-0.83,0.56-1.3,0.742l17.108,15.929l-15.687-16.781
	C188.528,187.354,188.493,187.393,188.451,187.427"/>
<path fill="#076AA4" d="M179.265,191.956l17.311,19.196l-16.189-20.667C179.94,190.936,179.558,191.426,179.265,191.956"/>
<path fill="#076AA4" d="M176.489,201.851l11.819,15.659l-11.198-17.195C176.923,200.833,176.713,201.345,176.489,201.851"/>
<path fill="#076AA4" d="M171.078,209.643l8.438,13.48l-7.622-14.29C171.628,209.114,171.355,209.383,171.078,209.643"/>
<path fill="#076AA4" d="M163.258,214.215l7.014,13.735l-6.006-14.096C163.933,213.982,163.597,214.102,163.258,214.215"/>
<path fill="#076AA4" d="M154.089,215.779l6.551,16.172l-5.303-16.245C154.922,215.735,154.507,215.761,154.089,215.779"/>
<path fill="#076AA4" d="M144.651,215.389l6.046,19.709l-4.532-19.508C145.658,215.536,145.154,215.468,144.651,215.389"/>
<path fill="#076AA4" d="M134.683,210.049l5.834,27.319l-3.541-24.933C136.111,211.775,135.341,210.983,134.683,210.049"/>
<path fill="#076AA4" d="M127.489,203.446c-0.659-0.471-1.277-0.968-1.866-1.504l4.555,36.8l-1.861-34.536
	C128.041,203.952,127.763,203.702,127.489,203.446"/>
<path fill="#076AA4" d="M119.983,196.524c-0.648,0.052-1.244-0.08-1.771-0.335l1.547,43.022l1.423-42.613
	C120.798,196.525,120.401,196.491,119.983,196.524"/>
<path fill="#076AA4" d="M111.04,205.616l-1.702,33.154l4.389-36.217C112.9,203.628,112.004,204.653,111.04,205.616"/>
<path fill="#076AA4" d="M102.571,211.775l-3.575,25.646l5.653-26.803C103.971,211.029,103.276,211.41,102.571,211.775"/>
<path fill="#076AA4" d="M93.44,215.019l-4.63,20.159l6.239-20.53C94.516,214.785,93.979,214.909,93.44,215.019"/>
<path fill="#076AA4" d="M84.198,215.559l-5.339,16.497l6.594-16.401C85.034,215.635,84.616,215.597,84.198,215.559"/>
<path fill="#076AA4" d="M75.464,213.31l-6.247,14.769l7.276-14.34C76.148,213.602,75.804,213.461,75.464,213.31"/>
<path fill="#076AA4" d="M67.89,208.315l-7.932,14.962l8.832-14.189C68.485,208.835,68.185,208.577,67.89,208.315"/>
<path fill="#076AA4" d="M61.973,200.979l-10.819,16.707l11.575-15.416C62.464,201.847,62.212,201.418,61.973,200.979"/>
<path fill="#076AA4" d="M57.775,192.219L42.87,211.35l15.762-17.57C58.365,193.249,58.078,192.729,57.775,192.219"/>
<path fill="#076AA4" d="M52.753,186.896c-0.251-0.232-0.494-0.467-0.729-0.706l-16.856,18.125l18.107-16.948
	C53.102,187.212,52.927,187.056,52.753,186.896"/>
<path fill="#076AA4" d="M47.765,178.889L28.11,196.637l20.261-15.891C48.129,180.141,47.925,179.523,47.765,178.889"/>
<path fill="#076AA4" d="M48.269,168.327l-26.522,20.045l26.048-16.986C48.001,170.441,48.227,169.328,48.269,168.327"/>
<path fill="#076AA4" d="M41.318,164.023c-0.083-0.023-0.158-0.053-0.238-0.079l-24.952,15.643l27.912-14.91
	C43.123,164.46,42.199,164.269,41.318,164.023"/>
<path fill="#076AA4" d="M33.732,158.869l-22.437,11.474l23.961-10.227C34.732,159.719,34.224,159.305,33.732,158.869"/>
<path fill="#076AA4" d="M28.267,152.201l-20.98,8.514l21.833-7.142C28.822,153.123,28.537,152.667,28.267,152.201"/>
<path fill="#076AA4" d="M25.305,144.265l-21.173,6.509l21.499-5.009C25.504,145.269,25.4,144.768,25.305,144.265"/>
<path fill="#076AA4" d="M28.986,134.783l-27.13,5.812l26.386-3.764C28.461,136.145,28.705,135.462,28.986,134.783"/>
<path fill="#076AA4" d="M30.052,126.576l-29.577,3.681l30.989-1.689C31.282,127.943,30.791,127.347,30.052,126.576"/>
<path fill="#076AA4" d="M23.93,118.963L0,119.839l24.92,0.816C24.554,120.106,24.226,119.541,23.93,118.963"/>
<path fill="#076AA4" d="M21.639,110.493l-21.205-1.075l21.351,2.574C21.718,111.493,21.668,110.994,21.639,110.493"/>
<path fill="#076AA4" d="M23.675,102.113l-21.9-3.039l21.085,4.433C23.095,103.024,23.363,102.557,23.675,102.113"/>
<path fill="#076AA4" d="M32.611,95.436L4.012,88.888l26.034,7.894C30.883,96.258,31.74,95.794,32.611,95.436"/>
<path fill="#076AA4" d="M37.368,88.698L7.127,78.933l30.702,12.323C37.654,90.407,37.502,89.554,37.368,88.698"/>
<path fill="#076AA4" d="M36.732,80.114L11.099,69.29l25.657,12.997C36.732,81.564,36.726,80.839,36.732,80.114"/>
<path fill="#076AA4" d="M37.532,71.48L15.895,60.028l21.344,13.266C37.326,72.689,37.423,72.084,37.532,71.48"/>
<path fill="#076AA4" d="M40.599,63.583l-19.12-12.364l17.968,13.472C39.771,64.21,40.164,63.847,40.599,63.583"/>
<path fill="#076AA4" d="M44.237,55.712L27.81,42.93l15.771,14.13C43.798,56.609,44.007,56.154,44.237,55.712"/>
<path fill="#076AA4" d="M49.121,48.489L34.839,35.225l13.423,14.322C48.546,49.192,48.824,48.833,49.121,48.489"/>
<path fill="#076AA4" d="M55.589,42.623L42.514,28.161L54.52,43.448C54.869,43.172,55.226,42.897,55.589,42.623"/>
<path fill="#076AA4" d="M62.935,37.861L50.774,21.793L61.711,38.54C62.116,38.308,62.524,38.082,62.935,37.861"/>
<path fill="#076AA4" d="M71.152,34.637L59.557,16.169l10.096,18.869C70.152,34.89,70.652,34.755,71.152,34.637"/>
<path fill="#076AA4" d="M80.757,34.677l-11.96-23.347l9.785,22.884C79.312,34.32,80.038,34.471,80.757,34.677"/>
<path fill="#076AA4" d="M86.546,27.298L78.423,7.317l7.039,21.471C85.809,28.275,86.168,27.775,86.546,27.298"/>
<path fill="#076AA4" d="M93.937,22.243L88.362,4.156l4.325,18.503C93.086,22.505,93.502,22.367,93.937,22.243"/>
<path fill="#076AA4" d="M102.794,21.668L98.538,1.873l2.82,19.667C101.841,21.566,102.319,21.613,102.794,21.668"/>
<path fill="#076AA4" d="M111.926,24.855l-3.051-24.371l1.291,23.375C110.767,24.162,111.354,24.494,111.926,24.855"/>
<path fill-rule="evenodd" clip-rule="evenodd" fill="#C1C0C0" d="M101.876,47.01c-0.08,0.09-0.155,0.173-0.228,0.257
	c-0.603,0.707-1.21,1.408-1.801,2.122c-0.158,0.19-0.297,0.249-0.541,0.164c-0.651-0.228-1.308-0.442-1.971-0.633
	c-0.253-0.073-0.32-0.208-0.339-0.446c-0.075-0.939-0.165-1.876-0.254-2.813c-0.04-0.42-0.561-0.857-0.985-0.825
	c-0.94,0.071-1.878,0.137-2.816,0.23c-0.255,0.025-0.382-0.054-0.49-0.276c-0.297-0.609-0.602-1.212-0.929-1.804
	c-0.134-0.241-0.087-0.399,0.079-0.595c0.6-0.707,1.188-1.425,1.779-2.143c0.288-0.351,0.232-1.013-0.112-1.307
	c-0.694-0.593-1.382-1.194-2.09-1.77c-0.238-0.193-0.279-0.367-0.176-0.649c0.223-0.623,0.424-1.255,0.606-1.891
	c0.071-0.245,0.195-0.327,0.441-0.346c0.938-0.07,1.876-0.162,2.813-0.25c0.433-0.039,0.866-0.543,0.832-0.974
	c-0.071-0.924-0.139-1.849-0.227-2.773c-0.025-0.25,0.047-0.379,0.272-0.489c0.635-0.306,1.261-0.629,1.88-0.965
	c0.205-0.111,0.34-0.1,0.519,0.053c0.716,0.612,1.444,1.21,2.169,1.81c0.346,0.286,0.973,0.228,1.267-0.118
	c0.602-0.705,1.207-1.407,1.796-2.124c0.181-0.221,0.343-0.267,0.613-0.17c0.637,0.228,1.282,0.432,1.931,0.621
	c0.231,0.066,0.308,0.182,0.326,0.408c0.077,0.953,0.167,1.905,0.255,2.856c0.046,0.47,0.503,0.855,0.973,0.817
	c0.924-0.073,1.849-0.142,2.772-0.231c0.247-0.023,0.381,0.04,0.491,0.27c0.299,0.621,0.615,1.237,0.948,1.842
	c0.126,0.231,0.118,0.384-0.061,0.589c-0.607,0.701-1.19,1.422-1.783,2.137c-0.305,0.369-0.258,0.954,0.105,1.262
	c0.707,0.6,1.409,1.206,2.126,1.795c0.211,0.176,0.284,0.331,0.183,0.609c-0.227,0.622-0.429,1.254-0.607,1.891
	c-0.078,0.284-0.221,0.365-0.497,0.385c-0.898,0.067-1.792,0.164-2.688,0.248c-0.605,0.057-0.95,0.474-0.901,1.092
	c0.069,0.898,0.129,1.795,0.219,2.69c0.028,0.272-0.053,0.408-0.293,0.523c-0.594,0.288-1.186,0.587-1.764,0.909
	c-0.256,0.143-0.42,0.101-0.631-0.081c-0.682-0.587-1.411-1.122-2.066-1.736C102.639,46.822,102.26,47.043,101.876,47.01
	 M103.452,42.514c2.002-1.031,2.773-3.447,1.739-5.452c-1.028-1.997-3.46-2.767-5.455-1.728c-1.971,1.028-2.752,3.459-1.746,5.432
	C98.999,42.749,101.464,43.537,103.452,42.514"/>
<path fill-rule="evenodd" clip-rule="evenodd" fill="#C1C0C0" d="M62.886,107.522c-0.069,0.078-0.133,0.149-0.196,0.222
	c-0.518,0.607-1.04,1.21-1.548,1.823c-0.134,0.163-0.255,0.214-0.464,0.141c-0.56-0.196-1.125-0.38-1.694-0.543
	c-0.218-0.063-0.275-0.178-0.292-0.384c-0.064-0.807-0.141-1.612-0.218-2.417c-0.034-0.362-0.482-0.738-0.847-0.71
	c-0.807,0.062-1.614,0.118-2.419,0.197c-0.22,0.022-0.328-0.046-0.421-0.236c-0.255-0.523-0.518-1.042-0.798-1.55
	c-0.115-0.207-0.075-0.344,0.067-0.511c0.516-0.608,1.022-1.226,1.529-1.842c0.248-0.302,0.199-0.871-0.096-1.124
	c-0.597-0.509-1.188-1.026-1.797-1.52c-0.204-0.166-0.238-0.316-0.15-0.558c0.191-0.535,0.363-1.079,0.521-1.624
	c0.06-0.212,0.167-0.282,0.378-0.298c0.807-0.061,1.611-0.14,2.417-0.215c0.372-0.034,0.745-0.467,0.716-0.837
	c-0.062-0.794-0.12-1.59-0.196-2.383c-0.021-0.215,0.041-0.326,0.234-0.42c0.545-0.263,1.083-0.541,1.616-0.83
	c0.175-0.095,0.292-0.085,0.446,0.046c0.616,0.526,1.24,1.039,1.864,1.555c0.298,0.246,0.836,0.196,1.088-0.1
	c0.517-0.607,1.039-1.21,1.544-1.826c0.155-0.19,0.295-0.23,0.527-0.147c0.547,0.196,1.102,0.372,1.659,0.534
	c0.199,0.057,0.265,0.157,0.28,0.35c0.067,0.82,0.144,1.637,0.219,2.455c0.039,0.404,0.433,0.735,0.836,0.702
	c0.794-0.063,1.59-0.122,2.383-0.198c0.213-0.021,0.327,0.033,0.422,0.232c0.257,0.534,0.527,1.062,0.813,1.583
	c0.109,0.198,0.102,0.329-0.051,0.506c-0.522,0.602-1.024,1.222-1.533,1.836c-0.261,0.317-0.221,0.82,0.091,1.084
	c0.608,0.517,1.211,1.037,1.826,1.543c0.183,0.151,0.245,0.285,0.159,0.524c-0.196,0.534-0.37,1.077-0.522,1.625
	c-0.067,0.244-0.19,0.314-0.427,0.33c-0.773,0.058-1.541,0.141-2.31,0.213c-0.521,0.05-0.818,0.408-0.775,0.94
	c0.06,0.771,0.111,1.542,0.188,2.312c0.024,0.231-0.045,0.349-0.251,0.449c-0.512,0.248-1.02,0.503-1.517,0.78
	c-0.219,0.123-0.36,0.086-0.542-0.069c-0.586-0.504-1.213-0.964-1.775-1.492C63.543,107.362,63.216,107.551,62.886,107.522
	 M64.239,103.659c1.722-0.885,2.384-2.962,1.495-4.685c-0.884-1.716-2.974-2.378-4.687-1.485c-1.695,0.883-2.366,2.973-1.501,4.668
	C60.413,103.861,62.532,104.538,64.239,103.659"/>
<path fill-rule="evenodd" clip-rule="evenodd" fill="#C1C0C0" d="M96.478,119.758c-6.826-1.822-13.514-3.6-20.303-5.409
	c-0.094,0.671-0.216,1.439-0.307,2.21c-0.143,1.22-0.925,1.964-2.016,1.891c-1.11-0.073-1.781-0.881-1.674-2.171
	c0.386-4.744,2.275-8.903,5.134-12.634c2.984-3.894,6.79-6.808,11.125-9.059c0.222-0.116,0.447-0.226,0.665-0.348
	c0.057-0.032,0.096-0.098,0.082-0.082c-0.596-1.034-1.159-2.052-1.763-3.045c-2.544-4.17-4.171-8.606-3.918-13.576
	c0.181-3.597,1.362-6.844,3.556-9.712c0.193-0.254,0.396-0.512,0.642-0.711c1.04-0.836,2.011-0.826,2.753-0.002
	c0.693,0.772,0.611,1.717-0.222,2.683c-0.341,0.397-0.665,0.81-0.917,1.119c5.804,1.556,11.583,3.107,17.424,4.673
	c-0.07-0.469-0.164-1.085-0.251-1.699c-0.142-0.998,0.327-1.87,1.162-2.167c0.899-0.321,1.762-0.029,2.162,1.004
	c0.378,0.975,0.635,2.052,0.675,3.095c0.203,5.343-2.069,9.677-5.699,13.403c-2.605,2.673-5.75,4.564-9.108,6.125
	c-0.157,0.07-0.298,0.168-0.585,0.334c1.012,1.754,2.142,3.414,2.98,5.213c3.214,6.906,4.085,14.004,1.412,21.314
	c-0.193,0.535-0.428,1.065-0.719,1.551c-0.545,0.909-1.5,1.166-2.404,0.71c-0.881-0.444-1.247-1.413-0.869-2.36
	C95.811,121.313,96.153,120.531,96.478,119.758 M97.476,115.869c-0.196-2.29-0.37-4.551-0.607-6.803
	c-0.025-0.243-0.382-0.575-0.645-0.65c-4.716-1.306-9.44-2.584-14.165-3.851c-0.241-0.064-0.652-0.067-0.769,0.076
	c-1.503,1.84-2.969,3.713-3.809,5.978C84.072,112.35,90.59,114.062,97.476,115.869 M106.193,80.272
	c-6.256-1.82-12.453-3.623-18.67-5.432c-0.569,2.25-0.589,4.345-0.17,6.434c0.066,0.326,0.431,0.764,0.74,0.847
	c4.691,1.273,9.394,2.506,14.105,3.702c0.33,0.083,0.892-0.07,1.105-0.32C104.706,83.86,105.734,82.003,106.193,80.272
	 M91.634,97.239c-2.247,1.297-4.47,2.581-6.65,3.841c3.529,0.946,6.947,1.862,10.493,2.812
	C94.204,101.69,92.93,99.482,91.634,97.239 M99.33,89.264c-3.594-0.94-6.92-1.811-10.371-2.714c1.206,1.868,2.41,3.755,3.653,5.613
	c0.103,0.154,0.533,0.256,0.706,0.171C95.292,91.356,97.245,90.337,99.33,89.264"/>
<path fill="#C1C0C0" d="M87.082,180.88c-5.705-4.354-11.421-8.691-17.13-13.04c-0.305-0.231-0.686-0.467-0.828-0.791
	c-0.863-1.959-1.669-3.944-2.474-5.877c0.099-0.125,0.129-0.197,0.179-0.22c0.767-0.352,1.149-0.918,0.723-1.714
	c-0.427-0.798-1.14-0.719-1.865-0.392c-0.425,0.189-0.856,0.358-1.347,0.563c-0.217-1.487-0.407-2.797-0.609-4.192
	c-2.76,1.15-5.439,2.268-8.217,3.427c0.854,1.146,1.661,2.23,2.528,3.391c-0.442,0.184-0.825,0.351-1.213,0.505
	c-0.758,0.299-1.385,0.722-1.064,1.661c0.322,0.942,1.066,0.897,1.946,0.578c0.787,1.885,1.566,3.673,2.27,5.488
	c0.186,0.483,0.258,1.07,0.191,1.586c-0.903,7.085-1.867,14.164-2.736,21.256c-0.117,0.959,0.058,2.015,0.343,2.951
	c0.611,2.005,2.37,3.092,4.256,2.748c0.566-0.103,1.117-0.339,1.656-0.563c7.508-3.124,15.012-6.256,22.514-9.389
	c0.36-0.15,0.717-0.311,1.063-0.49c1.522-0.793,2.244-2.298,1.933-3.987C88.936,182.943,88.235,181.76,87.082,180.88 M60.684,187.66
	c-0.005-0.307-0.039-0.547-0.008-0.778c0.662-5.054,1.349-10.104,1.985-15.162c0.021-0.166,0.052-0.314,0.098-0.445l3.425-1.428
	l1.074-0.45l0.666-0.278l11.143,8.734c0.248,0.187,0.496,0.373,0.74,0.56c0.306,0.233,0.6,0.481,1.04,0.836
	C74.034,182.091,67.416,184.851,60.684,187.66"/>
<path fill="#C1C0C0" d="M71.076,177.601c-0.913,0.382-1.388,1.531-1.008,2.443c0.391,0.938,1.471,1.37,2.432,0.972
	c0.975-0.406,1.394-1.425,0.985-2.4C73.08,177.654,72.02,177.206,71.076,177.601"/>
<path fill="#C1C0C0" d="M65.842,178.766c-0.914,0.377-1.358,1.422-0.991,2.338c0.379,0.944,1.495,1.4,2.419,0.987
	c0.892-0.401,1.311-1.468,0.927-2.367C67.816,178.827,66.75,178.393,65.842,178.766"/>
<path fill="#C1C0C0" d="M70.021,175.548c-0.258-0.634-1.033-0.961-1.696-0.712c-0.712,0.267-1.075,1.051-0.796,1.732
	c0.26,0.638,1.029,0.965,1.692,0.717C69.922,177.023,70.294,176.218,70.021,175.548"/>
<path fill="#C1C0C0" d="M48.557,69.76c-0.294-4.04,1.45-7.006,5.738-8.145c1.793-0.475,4.034-0.626,5.651,0.225
	c1.912,1.022,0.549,4.166-1.625,3.102c-0.748-0.302-2.035-0.434-3.177-0.131c-2.99,0.794-3.48,3.345-3.012,5.947
	c1.051-1.281,2.317-2.173,3.693-2.538c3.378-0.897,6.945,0.381,7.924,4.071c0.966,3.638-1.087,6.909-4.958,7.937
	C51.463,82.174,49.321,75.259,48.557,69.76 M53.667,74.967c0.359,1.352,1.902,2.556,4.241,1.935
	c1.975-0.525,2.832-2.115,2.411-3.701c-0.31-1.169-1.631-2.265-3.839-1.678C54.141,72.144,53.309,73.616,53.667,74.967"/>
<path fill="#C1C0C0" d="M52.619,153.82c0.759-9.79,1.563-19.575,2.325-29.365c0.058-0.743,0.187-1.257,0.949-1.653
	c1.002-0.519,1.324-1.83,0.852-2.818c-0.445-0.934-1.234-1.35-2.259-1.429c-4.528-0.346-9.052-0.717-13.577-1.078
	c-0.168-0.014-0.336-0.028-0.502-0.021c-1.093,0.039-1.89,0.625-2.203,1.61c-0.304,0.958,0.05,1.88,0.84,2.603
	c0.282,0.259,0.505,0.772,0.479,1.15c-0.29,4.127-0.636,8.249-0.966,12.372c-0.475,5.933-0.987,11.863-1.408,17.8
	c-0.242,3.382,1.232,5.934,4.202,7.531c2.726,1.467,6.147,1.022,8.892-1.301C51.576,158.029,52.439,156.115,52.619,153.82
	 M46.759,157.012c-2.772,1.487-5.926-0.49-5.772-3.649c0.112-2.35,0.352-4.695,0.54-7.043c0.603-7.58,1.211-15.158,1.808-22.737
	c0.028-0.366-0.059-0.739-0.092-1.115c2.842,0.224,5.353,0.422,7.968,0.629c-0.066,0.423-0.142,0.91-0.236,1.519
	c-0.737-0.072-1.529-0.163-2.325-0.221c-1.054-0.077-1.636,0.311-1.72,1.108c-0.088,0.838,0.432,1.334,1.551,1.424
	c0.765,0.062,1.533,0.067,2.242,0.096c-0.173,1.941-0.329,3.705-0.503,5.691c-0.668-0.092-1.491-0.239-2.322-0.306
	c-0.942-0.079-1.543,0.374-1.611,1.124c-0.071,0.765,0.434,1.297,1.379,1.383c0.831,0.076,1.665,0.098,2.53,0.148
	c-0.008,0.351,0,0.549-0.017,0.744c-0.476,5.969-0.957,11.939-1.429,17.909C48.636,155.151,48.055,156.318,46.759,157.012"/>
<path fill="#C1C0C0" d="M47.945,140.543c0.014-0.134-0.017-0.274-0.03-0.434c-1.362-0.106-2.673-0.203-4.254-0.325
	c-0.016,0.647,0.009,1.312-0.055,1.966c-0.35,3.805-0.723,7.609-1.094,11.412c-0.085,0.871-0.126,1.82,0.703,2.274
	c0.611,0.333,1.475,0.489,2.143,0.344c0.891-0.194,1.235-1.041,1.321-1.958C47.092,149.395,47.524,144.969,47.945,140.543"/>
<path fill-rule="evenodd" clip-rule="evenodd" fill="#C1C0C0" d="M69.987,56.597c-0.469,0.482-0.695,0.939-0.633,1.595
	c0.181,1.901-1.764,3.322-3.524,2.621c-1.057-0.421-1.715-1.471-1.635-2.608c0.081-1.137,0.861-2.109,1.989-2.325
	c0.65-0.126,1.009-0.497,1.314-1.071c-0.137-0.109-0.271-0.226-0.413-0.329c-1.935-1.406-3.871-2.811-5.807-4.217
	c-0.691-0.502-0.749-0.837-0.257-1.519c1.079-1.495,2.162-2.988,3.248-4.478c0.459-0.63,0.822-0.672,1.461-0.235
	c0.55,0.375,0.981,0.777,1.173,1.482c0.24,0.88,1.259,1.327,2.143,1.086c0.918-0.249,1.487-1.122,1.338-2.056
	c-0.144-0.911-0.952-1.624-1.864-1.532c-0.919,0.093-1.411-0.552-1.963-1.055c-0.14-0.128-0.101-0.657,0.046-0.867
	c1.175-1.671,2.387-3.314,3.608-4.95c0.341-0.459,0.743-0.469,1.277-0.084c1.101,0.791,2.193,1.594,3.29,2.392
	c0.837,0.609,1.675,1.22,2.515,1.828c0.339,0.246,0.735,0.51,0.574,0.985c-0.172,0.512-0.44,1.006-1.05,1.158
	c-1.125,0.279-1.75,1.26-1.464,2.288c0.248,0.888,1.124,1.461,2.028,1.326c0.918-0.137,1.651-0.972,1.543-1.899
	c-0.076-0.648,0.265-1.051,0.634-1.439c0.321-0.341,0.724-0.235,1.078,0.023c0.727,0.529,1.453,1.06,2.179,1.589
	c1.242,0.908,2.485,1.814,3.727,2.726c0.677,0.498,0.726,0.836,0.225,1.526c-1.1,1.517-2.202,3.034-3.305,4.548
	c-0.465,0.635-0.809,0.682-1.453,0.223c-0.531-0.378-1.009-0.737-1.19-1.465c-0.22-0.883-1.232-1.328-2.137-1.1
	c-0.867,0.218-1.449,1.056-1.359,1.962c0.088,0.895,0.838,1.693,1.73,1.615c0.853-0.076,1.369,0.4,1.936,0.839
	c0.368,0.285,0.423,0.705,0.137,1.101c-1.178,1.63-2.366,3.254-3.572,4.864c-0.336,0.45-0.745,0.445-1.279,0.054
	c-1.575-1.149-3.146-2.305-4.72-3.458C71.041,57.364,70.524,56.99,69.987,56.597"/>
<path fill-rule="evenodd" clip-rule="evenodd" fill="#C1C0C0" d="M101.692,194.55c0.344-0.339,0.514-0.663,0.479-1.134
	c-0.097-1.366,1.32-2.353,2.57-1.822c0.753,0.318,1.207,1.082,1.13,1.896c-0.075,0.814-0.651,1.499-1.463,1.636
	c-0.468,0.079-0.733,0.34-0.961,0.745c0.097,0.082,0.19,0.166,0.291,0.244c1.366,1.039,2.732,2.077,4.098,3.118
	c0.488,0.371,0.523,0.612,0.16,1.093c-0.799,1.055-1.6,2.108-2.403,3.158c-0.339,0.445-0.6,0.47-1.052,0.146
	c-0.388-0.278-0.69-0.574-0.818-1.082c-0.157-0.636-0.881-0.973-1.518-0.814c-0.663,0.164-1.085,0.779-0.994,1.453
	c0.087,0.655,0.657,1.18,1.312,1.128c0.662-0.052,1.004,0.42,1.391,0.788c0.099,0.095,0.061,0.473-0.047,0.622
	c-0.869,1.179-1.766,2.337-2.668,3.492c-0.252,0.323-0.541,0.323-0.917,0.039c-0.778-0.586-1.548-1.18-2.321-1.769
	c-0.592-0.451-1.182-0.903-1.774-1.353c-0.24-0.182-0.519-0.377-0.396-0.715c0.132-0.364,0.331-0.715,0.771-0.813
	c0.812-0.181,1.276-0.875,1.087-1.617c-0.163-0.641-0.781-1.065-1.432-0.984c-0.661,0.083-1.2,0.67-1.137,1.337
	c0.043,0.466-0.208,0.75-0.479,1.021c-0.236,0.239-0.523,0.158-0.773-0.033c-0.513-0.392-1.026-0.784-1.537-1.176
	c-0.877-0.671-1.753-1.34-2.63-2.015c-0.477-0.367-0.506-0.611-0.136-1.098c0.813-1.07,1.629-2.139,2.444-3.206
	c0.344-0.449,0.591-0.477,1.045-0.138c0.376,0.28,0.713,0.545,0.831,1.071c0.144,0.636,0.863,0.972,1.514,0.823
	c0.626-0.143,1.057-0.733,1.008-1.385c-0.049-0.644-0.574-1.228-1.214-1.186c-0.613,0.04-0.976-0.309-1.377-0.634
	c-0.258-0.209-0.291-0.512-0.079-0.792c0.872-1.149,1.75-2.294,2.64-3.429c0.248-0.316,0.542-0.306,0.918-0.017
	c1.112,0.849,2.22,1.703,3.331,2.556C100.948,193.983,101.312,194.258,101.692,194.55"/>
<path fill-rule="evenodd" clip-rule="evenodd" fill="#C1C0C0" d="M79.559,140.433c0.077,0.478,0.241,0.804,0.646,1.052
	c1.168,0.715,1.147,2.443-0.013,3.15c-0.696,0.426-1.583,0.351-2.201-0.186c-0.619-0.536-0.841-1.402-0.481-2.143
	c0.209-0.426,0.15-0.792-0.047-1.215c-0.124,0.031-0.247,0.058-0.368,0.095c-1.64,0.504-3.28,1.011-4.923,1.515
	c-0.585,0.18-0.802,0.068-0.982-0.507c-0.396-1.263-0.786-2.528-1.175-3.793c-0.164-0.536-0.032-0.761,0.494-0.939
	c0.452-0.154,0.869-0.228,1.357-0.035c0.609,0.241,1.304-0.15,1.546-0.761c0.252-0.634-0.003-1.337-0.605-1.655
	c-0.585-0.309-1.343-0.153-1.682,0.41c-0.342,0.569-0.924,0.572-1.451,0.672c-0.135,0.026-0.421-0.225-0.479-0.401
	c-0.453-1.392-0.875-2.796-1.29-4.202c-0.117-0.394,0.051-0.628,0.501-0.768c0.929-0.292,1.861-0.572,2.792-0.857
	c0.71-0.219,1.422-0.435,2.132-0.655c0.288-0.089,0.61-0.202,0.813,0.094c0.22,0.321,0.39,0.686,0.213,1.102
	c-0.324,0.765-0.029,1.547,0.684,1.826c0.617,0.24,1.323-0.015,1.634-0.592c0.318-0.585,0.153-1.366-0.427-1.704
	c-0.404-0.236-0.489-0.606-0.552-0.983c-0.057-0.331,0.176-0.518,0.477-0.61c0.617-0.188,1.234-0.377,1.852-0.564
	c1.056-0.322,2.11-0.644,3.17-0.965c0.576-0.174,0.792-0.055,0.973,0.53c0.397,1.284,0.794,2.57,1.189,3.855
	c0.165,0.541,0.044,0.758-0.496,0.93c-0.447,0.141-0.858,0.262-1.356,0.051c-0.601-0.255-1.293,0.135-1.55,0.752
	c-0.249,0.592-0.018,1.285,0.542,1.626c0.551,0.335,1.333,0.248,1.671-0.296c0.325-0.523,0.819-0.614,1.317-0.75
	c0.32-0.089,0.586,0.061,0.69,0.396c0.43,1.378,0.851,2.76,1.256,4.144c0.114,0.386-0.065,0.618-0.519,0.756
	c-1.339,0.41-2.679,0.813-4.019,1.219C80.454,140.16,80.019,140.295,79.559,140.433"/>
<path fill-rule="evenodd" clip-rule="evenodd" fill="#C1C0C0" d="M109.262,147.839c-1.269,1.076-1.182,1.199,0.065,2.069
	c0.758,0.527,1.318,1.357,1.891,2.11c0.085,0.112-0.182,0.674-0.413,0.806c-0.655,0.38-1.366,0.666-2.073,0.948
	c-0.837,0.336-1.28,0.891-1.189,1.828c0.34,3.559,0.67,7.119,1.018,10.677c0.028,0.289,0.093,0.639,0.274,0.836
	c1.733,1.876,2.31,4.537,4.284,6.252c0.927,0.806,1.06,1.785,0.372,2.846c-0.5,0.773-0.401,1.466,0.238,2.153
	c0.848,0.911,0.604,2.037-0.553,2.559c-0.404,0.184-0.893,0.252-1.345,0.254c-4.378,0.017-8.753,0.024-13.13-0.006
	c-0.54-0.004-1.143-0.124-1.603-0.39c-0.994-0.571-1.114-1.563-0.329-2.401c0.638-0.682,0.764-1.372,0.262-2.15
	c-0.679-1.056-0.511-1.962,0.333-2.868c0.764-0.824,1.476-1.708,2.125-2.626c0.346-0.492,0.498-1.12,0.762-1.674
	c0.177-0.372,0.315-0.837,0.616-1.061c0.702-0.517,1.049-1.159,1.128-1.999c0.32-3.427,0.641-6.855,0.979-10.281
	c0.098-1.011-0.325-1.631-1.269-1.975c-0.65-0.238-1.273-0.552-1.906-0.839c-0.689-0.311-0.817-0.734-0.233-1.28
	c0.731-0.684,1.446-1.388,2.203-2.044c0.596-0.516,0.532-0.864-0.458-1.677c1.015-0.883,0.539-1.859,0.154-2.854
	c-0.418-1.08-0.783-2.178-1.176-3.266c-0.256-0.707-0.017-1.158,0.692-1.367c0.719-0.211,1.44-0.414,2.199-0.632
	c-3.243-2.361-3.878-5.352-1.816-7.86c1.783-2.171,5.545-2.179,7.347-0.247c2.275,2.445,1.789,5.433-1.479,8.079
	c0.73,0.208,1.414,0.391,2.09,0.596c1.004,0.308,1.173,0.622,0.835,1.595c-0.423,1.219-0.843,2.439-1.311,3.639
	C108.521,146.42,108.347,147.191,109.262,147.839"/>
<path fill-rule="evenodd" clip-rule="evenodd" fill="#6591CC" d="M161.674,83.022c0.655-0.78,1.271-1.518,1.995-2.38
	c-0.607-0.785-1.193-1.749-1.972-2.519c-3.26-3.228-6.887-6.028-10.544-8.786c-1.518-1.143-3.092-2.214-4.648-3.31
	c-0.238-0.166-0.511-0.285-0.769-0.426c-0.04,0.036-0.078,0.074-0.117,0.11c0.148,0.25,0.272,0.519,0.449,0.746
	c1.658,2.122,3.251,4.299,5.007,6.336c2.392,2.771,4.911,5.432,7.373,8.143C159.353,81.931,160.519,82.512,161.674,83.022"/>
<path fill-rule="evenodd" clip-rule="evenodd" fill="#6591CC" d="M173.104,89.332c-1.938-0.95-2.93-2.559-3.77-4.354
	c-0.401-0.857-1.086-1.584-1.669-2.348c-0.147-0.19-0.386-0.332-0.607-0.441c-1.4-0.683-2.266-0.696-3.311,0.487
	c-0.83,0.939-1.212,1.851-0.672,3.152c0.883,2.13,2.17,3.707,4.526,4.169C169.469,90.364,171.25,89.965,173.104,89.332"/>
<path fill-rule="evenodd" clip-rule="evenodd" fill="#6591CC" d="M203.093,121.048c-0.871,0.042-1.67-0.187-2.385-0.665
	c-1.388-0.924-1.397-2.556,0.025-3.421c1.466-0.892,2.995-0.85,4.49-0.021c0.582,0.322,0.567,0.348,0.666-0.289
	c0.481-3.093,0.962-6.186,1.444-9.278c0.009-0.059,0.023-0.118,0.034-0.176c0.053-0.264,0.121-0.556,0.462-0.51
	c0.352,0.047,0.4,0.309,0.347,0.634c-0.185,1.142-0.341,2.287-0.519,3.429c-0.418,2.679-0.871,5.354-1.253,8.037
	c-0.128,0.897-0.614,1.443-1.351,1.835C204.442,120.949,203.78,121.082,203.093,121.048"/>
<path fill-rule="evenodd" clip-rule="evenodd" fill="#6591CC" d="M155.004,103.39c-0.723,0.034-1.386-0.157-1.979-0.554
	c-1.151-0.769-1.156-2.123,0.025-2.839c1.219-0.738,2.487-0.702,3.725-0.013c0.484,0.268,0.47,0.29,0.552-0.239
	c0.404-2.565,0.806-5.131,1.21-7.696c0.007-0.05,0.019-0.098,0.029-0.146c0.042-0.22,0.099-0.461,0.383-0.423
	c0.291,0.039,0.33,0.257,0.286,0.526c-0.154,0.948-0.285,1.898-0.433,2.845c-0.351,2.223-0.729,4.441-1.049,6.667
	c-0.106,0.745-0.51,1.197-1.122,1.521C156.123,103.309,155.574,103.419,155.004,103.39"/>
<path fill-rule="evenodd" clip-rule="evenodd" fill="#2377B1" d="M161.738,125.53c-1.476,1.4-2.991,2.759-4.422,4.203
	c-6.346,6.394-12.663,12.818-19.009,19.21c-0.417,0.418-0.986,0.694-1.505,0.998c-0.954,0.557-1.996,0.993-2.863,1.661
	c-0.647,0.498-1.255,0.57-1.965,0.458c-3.793-0.598-6.237-2.641-6.616-6.526c-0.906-9.309,0.907-17.928,8.032-24.617
	c8.498-7.983,21.975-5.761,28.106,4.162c0.031,0.05,0.041,0.116,0.059,0.172C161.618,125.344,161.677,125.437,161.738,125.53
	 M146.831,129.753c2.603,0.009,4.709-2.083,4.714-4.679c0.005-2.59-2.098-4.68-4.709-4.684c-2.611-0.004-4.71,2.079-4.716,4.676
	C142.115,127.654,144.217,129.747,146.831,129.753 M139.331,130.059c0.012-1.936-1.489-3.482-3.407-3.505
	c-1.962-0.025-3.542,1.529-3.54,3.478c0.003,1.9,1.559,3.463,3.466,3.477C137.748,133.523,139.316,131.968,139.331,130.059
	 M137.32,141.743c-0.012-1.919-1.555-3.444-3.475-3.435c-1.914,0.01-3.434,1.549-3.434,3.478c-0.001,1.979,1.533,3.488,3.524,3.466
	C135.857,145.23,137.331,143.702,137.32,141.743"/>
<path fill-rule="evenodd" clip-rule="evenodd" fill="#2377B1" d="M153.277,147.748c-1.982-1.786-3.945-3.557-6.101-5.499
	c0.303-0.197,0.57-0.317,0.768-0.506c6.71-6.47,13.417-12.941,20.107-19.429c0.568-0.55,1.129-0.736,1.82-0.365
	c0.804,0.432,1.509,0.986,1.674,1.957c0.029,0.169-0.14,0.398-0.265,0.562c-5.912,7.71-11.829,15.417-17.747,23.122
	C153.498,147.636,153.428,147.654,153.277,147.748"/>
<path fill-rule="evenodd" clip-rule="evenodd" fill="#2377B1" d="M132.469,158.632c0.062-1.827,0.806-3.31,2.083-4.523
	c0.487-0.465,1.029-0.889,1.599-1.243c2.508-1.563,2.91-1.511,5.056,0.456c1.067,0.979,2.132,1.961,3.231,2.905
	c0.424,0.366,0.503,0.63,0.182,1.144c-1.014,1.63-2.399,2.606-4.34,2.741c-0.553,0.038-1.104,0.106-1.658,0.131
	c-1.566,0.072-2.202,0.571-2.624,2.08c-0.042,0.15-0.076,0.3-0.131,0.444c-0.293,0.805-1,0.991-1.544,0.35
	C133.215,161.821,132.536,160.33,132.469,158.632 M134.837,156.092c-0.809,1.214-1.073,2.39-0.671,3.679
	c0.21,0.671,0.768,0.916,1.156,0.433c1.05-1.307,2.467-1.45,3.976-1.515c0.83-0.035,1.651-0.247,2.475-0.38
	c-0.011-0.108-0.019-0.217-0.03-0.326c-0.668-0.044-1.341-0.17-1.999-0.114C137.851,158.024,136.108,157.817,134.837,156.092"/>
<path fill-rule="evenodd" clip-rule="evenodd" fill="#2377B1" d="M152.305,148.957c-2.055,2.287-4.043,4.501-6.084,6.77
	c-2.03-1.826-3.998-3.595-6.041-5.433c1.995-2.23,3.964-4.428,6.038-6.746C148.243,145.347,150.244,147.124,152.305,148.957
	 M147.349,146.934c-0.319-0.296-0.561-0.656-0.895-0.786c-0.226-0.09-0.672,0.055-0.859,0.249c-0.868,0.911-1.681,1.876-2.516,2.82
	c-0.396,0.448-0.384,0.857,0.066,1.277c0.492,0.457,0.903,0.405,1.33-0.087c0.785-0.907,1.593-1.792,2.376-2.697
	C147.026,147.507,147.144,147.258,147.349,146.934"/>
<path fill-rule="evenodd" clip-rule="evenodd" fill="#6591CC" d="M142.201,46.982c-0.325,0-0.649,0-0.975,0
	c-0.636-0.002-1.107,0.292-1.408,0.84c-0.289,0.524-0.22,1.041,0.107,1.53c0.053,0.079,0.103,0.163,0.166,0.235
	c0.427,0.491,0.486,1.043,0.211,1.609c-0.285,0.587-0.768,0.907-1.438,0.912c-4.539,0.032-8.484-3.394-9.098-7.902
	c-0.671-4.935,2.382-9.337,7.255-10.382c3.775-0.81,8.128,0.782,10.132,4.306c0.984,1.734,1.321,3.586,0.671,5.511
	c-0.674,1.989-2.586,3.311-4.685,3.339C142.824,46.985,142.512,46.981,142.201,46.982L142.201,46.982z M144.555,42.862
	c0.815-0.001,1.541-0.736,1.531-1.553c-0.009-0.801-0.732-1.516-1.532-1.516c-0.821,0.001-1.545,0.735-1.531,1.553
	C143.038,42.153,143.753,42.863,144.555,42.862 M134.79,41.325c-0.001-0.81-0.702-1.519-1.514-1.532
	c-0.81-0.012-1.546,0.72-1.546,1.537c0.002,0.804,0.713,1.522,1.516,1.532C134.062,42.873,134.792,42.147,134.79,41.325
	 M137.865,37.216c-0.002-0.819-0.692-1.512-1.513-1.519c-0.833-0.007-1.534,0.695-1.531,1.532c0.004,0.818,0.698,1.517,1.511,1.522
	C137.16,38.756,137.866,38.049,137.865,37.216 M142.995,37.223c0-0.823-0.683-1.515-1.503-1.525c-0.834-0.011-1.54,0.689-1.54,1.525
	c0,0.833,0.709,1.535,1.54,1.528C142.303,38.743,142.995,38.039,142.995,37.223"/>
<path fill-rule="evenodd" clip-rule="evenodd" fill="#6591CC" d="M171.477,201.863c0,6.86-5.024,12.601-11.955,14.129
	c-5.899,1.303-10.951-3.219-11.707-6.983c-0.335-1.672-0.471-3.386-0.65-5.086c-0.139-1.309-0.758-2.327-1.822-3.028
	c-1.236-0.813-2.534-1.529-3.809-2.281c-2.084-1.23-3.522-2.946-4.009-5.364c-0.337-1.67,0.081-3.226,0.914-4.646
	c0.403-0.689,0.28-1.047-0.251-1.566c-2.386-2.325-4.717-4.707-7.094-7.04c-0.268-0.263-0.715-0.349-1.083-0.507
	c-0.679-0.29-1.508-0.415-2.011-0.887c-2.138-2.011-4.193-4.11-6.249-6.203c-1.208-1.232-1.174-2.687,0.039-3.934
	c0.621-0.637,1.33-1.203,1.87-1.902c0.986-1.275,3.198-1.187,4.275-0.018c1.876,2.034,3.892,3.943,5.86,5.894
	c0.66,0.657,1.059,1.398,1.053,2.361c-0.001,0.282,0.172,0.629,0.377,0.836c2.456,2.488,4.942,4.947,7.398,7.435
	c0.369,0.373,0.633,0.389,1.093,0.144c4.047-2.167,7.975-1.006,10.259,3.005c0.602,1.058,1.186,2.128,1.801,3.18
	c1.05,1.792,2.671,2.522,4.701,2.58c1.082,0.03,2.173,0.151,3.237,0.36C168.201,193.219,171.477,197.266,171.477,201.863
	 M148.693,196.967c-0.006,2.037,1.575,3.662,3.593,3.692c2.003,0.031,3.737-1.698,3.719-3.704c-0.02-2.011-1.652-3.611-3.68-3.607
	C150.271,193.35,148.697,194.919,148.693,196.967"/>
<path fill-rule="evenodd" clip-rule="evenodd" fill="#6591CC" d="M187.212,161.597c-4.42-0.861-7.832-2.88-10.073-6.57
	c-2.176-3.579-1.909-7.26-0.209-10.956c1.821-3.959,4.791-6.927,8.229-9.463c0.846-0.623,1.125-1.232,1.029-2.276
	c-0.393-4.374-0.661-8.757-1.032-13.131c-0.079-0.932,0.206-1.001,0.959-0.735c4.147,1.464,6.899,5.891,6.494,10.311
	c-0.282,3.076-1.474,5.643-3.856,7.623c-0.332,0.274-0.433,0.532-0.387,0.953c0.144,1.318,0.266,2.642,0.347,3.966
	c0.038,0.667,0.236,0.818,0.929,0.693c3.852-0.697,7.54,0.97,9.366,4.163c1.979,3.46,1.308,8.44-1.613,11.82
	c-1.587,1.832-3.529,3.122-5.93,3.586c-0.758,0.145-0.994,0.43-0.906,1.187c0.212,1.822,0.093,3.62-0.749,5.294
	c-1.323,2.635-4.267,3.455-6.88,1.937c-2.549-1.486-3.4-4.452-1.933-6.754c0.789-1.24,2.226-1.709,3.457-1.127
	c1.068,0.505,1.439,1.314,1.11,2.424c-0.275,0.929-1.118,1.513-2.155,1.252c-0.87-0.216-0.742,0.241-0.689,0.723
	c0.104,0.955,0.832,1.611,2.031,1.865c1.261,0.265,2.375-0.164,3.009-1.207c0.727-1.193,0.712-2.532,0.71-3.866
	C188.471,162.292,188.48,161.278,187.212,161.597 M186.583,138.114c-0.305,0.19-0.484,0.287-0.644,0.408
	c-2.852,2.153-4.722,4.981-5.661,8.408c-1.374,5.012,1.131,9.803,6.01,11.602c1.784,0.659,1.811,0.608,1.746-1.221
	c-0.033-0.906-0.286-1.451-1.179-1.842c-1.108-0.485-1.931-1.392-2.541-2.449c-1.831-3.185-1.047-7.102,1.891-9.456
	c0.368-0.295,0.789-0.512,0.729-1.118C186.797,141.063,186.706,139.675,186.583,138.114 M189.398,148.39
	c3.225-1.621,5.779,0.976,5.545,3.362c-0.217,2.227-1.8,4.064-4.005,4.461c-0.765,0.138-0.975,0.402-0.813,1.098
	c0.045,0.198,0.048,0.404,0.062,0.608c0.098,1.238,0.145,1.274,1.315,1.002c3.709-0.862,6.558-5.096,5.97-8.869
	c-0.493-3.164-3.236-5.41-6.236-5.106c-1.991,0.204-2.158,0.402-1.966,2.362C189.305,147.643,189.35,147.98,189.398,148.39
	 M187.949,132.589c0.748-0.423,1.218-0.915,1.482-1.555c1.222-2.97,1.122-5.905-0.292-8.787c-0.351-0.717-0.914-1.265-1.558-1.724
	c-0.189-0.137-0.407-0.353-0.622-0.164c-0.112,0.1-0.108,0.375-0.091,0.565C187.217,124.781,187.579,128.637,187.949,132.589
	 M193.027,152.034c-0.002-0.181,0.02-0.455-0.008-0.722c-0.094-0.884-0.422-1.587-1.423-1.728c-1.005-0.143-1.497,0.446-1.826,1.277
	c-0.293,0.744-0.04,1.484,0.012,2.218c0.108,1.514,0.779,1.801,2.073,0.918C192.516,153.549,192.816,152.87,193.027,152.034
	 M187.743,153.647c-0.088-1.205-0.162-2.249-0.243-3.292c-0.081-1.045-0.165-2.091-0.261-3.275
	C185.526,149.388,185.716,151.985,187.743,153.647"/>
<path fill-rule="evenodd" clip-rule="evenodd" fill="#6591CC" d="M181.189,110.117V98.432c-3.506,0.638-6.947,1.267-10.494,1.913
	c0,0.303,0.001,0.596,0,0.889c-0.024,4.342-0.048,8.686-0.07,13.028c-0.011,2.579-1.968,4.32-4.564,4.039
	c-1.225-0.132-2.333-0.503-2.839-1.765c-0.369-0.926-0.115-1.794,0.498-2.53c1.166-1.392,2.698-1.835,4.458-1.588
	c0.145,0.019,0.286,0.051,0.538,0.097V95.228c4.833-0.784,9.575-1.554,14.424-2.34v0.866c0,6.076-0.021,12.152,0.016,18.226
	c0.008,1.54-0.532,2.689-1.896,3.394c-1.491,0.772-3.022,0.931-4.519,0.035c-1.288-0.772-1.583-2.248-0.772-3.53
	c0.895-1.412,2.912-2.216,4.695-1.874C180.808,110.034,180.952,110.066,181.189,110.117"/>
<path fill-rule="evenodd" clip-rule="evenodd" fill="#6591CC" d="M132.815,91.917c-0.121-0.428-0.254-0.74-0.295-1.064
	c-0.243-1.925-1.293-3.305-2.833-4.405c-1.03-0.738-2-1.56-2.999-2.34c-3.684-2.874-5.209-7.46-3.955-11.879
	c1.211-4.266,5.028-7.579,9.245-8.025c4.851-0.512,9.202,1.724,11.388,5.924c1.512,2.915,1.637,5.945,0.538,9.034
	c-0.608,1.707-1.18,3.426-1.806,5.125c-0.339,0.92-0.371,1.799-0.017,2.725c0.252,0.666,0.401,1.371,0.61,2.104
	C139.35,90.063,136.139,90.974,132.815,91.917"/>
<path fill-rule="evenodd" clip-rule="evenodd" fill="#6591CC" d="M143.816,94.92c0.33,1.149-0.084,2.219-0.997,2.917
	c-0.289,0.222-0.563,0.579-0.65,0.923c-0.224,0.871-0.709,1.481-1.559,1.719c-0.847,0.237-1.583-0.024-2.223-0.662
	c-0.233-0.232-0.622-0.404-0.953-0.429c-1.21-0.091-2.147-0.79-2.448-1.964C137.905,96.597,140.826,95.768,143.816,94.92"/>
<path fill-rule="evenodd" clip-rule="evenodd" fill="#6591CC" d="M138.82,94.481c-1.219,0.346-2.436,0.698-3.657,1.034
	c-0.826,0.227-1.544-0.082-1.67-0.758c-0.144-0.776,0.24-1.278,0.982-1.491c2.523-0.723,5.048-1.439,7.574-2.149
	c0.74-0.207,1.332,0.006,1.614,0.753c0.247,0.652-0.186,1.279-1.014,1.522C141.376,93.763,140.097,94.119,138.82,94.481"/>
<path fill-rule="evenodd" clip-rule="evenodd" fill="#6591CC" d="M157.586,44.355c0.742-1.827,1.487-3.766,2.318-5.667
	c0.398-0.908,1.016-1.033,1.885-0.557c6.573,3.601,13.607,5.295,21.099,5.087c0.934-0.027,1.452,0.328,1.434,1.176
	c-0.153,8.025-2.74,14.932-9.416,19.839c-2.118,1.557-4.573,2.311-7.249,2.085c-3.103-0.261-5.487-1.807-7.304-4.253
	c-2.595-3.497-3.45-7.534-3.356-11.787C157.04,48.349,157.37,46.427,157.586,44.355 M163.711,54.836
	c-1.176,1.216-1.048,3.888,0.274,5.701c1.496,2.051,4.382,2.773,6.665,1.666c2.052-0.994,3.398-3.284,2.927-4.981
	C168.498,58.084,167.6,57.868,163.711,54.836 M164.82,50.575c0.027-0.038,0.056-0.075,0.086-0.112
	c0.45,0.057,0.928,0.23,1.345,0.136c0.317-0.072,0.766-0.457,0.801-0.746c0.241-2.02-1.952-3.553-3.807-2.714
	c-0.947,0.43-1.233,1.441-0.475,2.147C163.348,49.827,164.128,50.152,164.82,50.575 M174.448,52.725
	c0.004,0.062,0.007,0.124,0.013,0.187c0.834-0.062,1.702,0.001,2.494-0.216c0.956-0.262,1.174-1.265,0.583-2.066
	c-0.869-1.178-2.587-1.47-3.7-0.511c-0.476,0.41-0.723,1.084-1.075,1.638c0.507,0.309,1.012,0.62,1.519,0.926
	C174.329,52.711,174.392,52.711,174.448,52.725"/>
<path fill-rule="evenodd" clip-rule="evenodd" fill="#6591CC" d="M176.838,64.936c1.618,1.271,3.023,1.237,4.213-0.244
	c0.766-0.953,0.593-1.498-0.592-1.832c-0.404-0.114-0.814-0.199-1.218-0.296c1.301-1.927,2.552-3.781,3.879-5.747
	c0.247,0.06,0.66,0.148,1.065,0.258c4.231,1.149,8.506,1.961,12.926,1.668c0.78-0.051,1.262,0.383,1.254,1.167
	c-0.01,1.11-0.02,2.231-0.185,3.325c-0.83,5.508-2.691,10.574-6.813,14.514c-1.22,1.167-2.652,2.208-4.16,2.961
	c-5.143,2.568-10.55,0.81-13.613-4.285c-1.545-2.572-2.274-5.398-2.495-8.366c-0.016-0.226,0.181-0.597,0.378-0.691
	C173.195,66.555,174.935,65.791,176.838,64.936 M186.47,77.616c1.07-1.332,1.103-4.214-0.594-6.106
	c-1.641-1.834-4.36-2.349-6.567-1.207c-1.886,0.974-3.129,3.165-2.734,4.901C180.326,74.033,183.63,74.816,186.47,77.616
	 M189.437,64.866c-0.024,0.038-0.044,0.075-0.067,0.112c-0.419-0.08-0.835-0.193-1.258-0.236c-0.588-0.06-0.959,0.239-0.935,0.832
	c0.081,1.862,1.399,3.393,3.647,2.727c1.198-0.354,1.471-1.568,0.514-2.381C190.798,65.459,190.078,65.21,189.437,64.866"/>
<g>
	<g>
		<defs>
			<rect id="SVGID_1_" x="16.488" y="19.609" width="105.729" height="200.234"/>
		</defs>
		<clipPath id="SVGID_2_">
			<use xlink:href="#SVGID_1_"  overflow="visible"/>
		</clipPath>
		<g clip-path="url(#SVGID_2_)">
			<defs>
				<path id="SVGID_3_" d="M99.624,19.609c-7.974,0-14.992,3.701-19.014,9.271c-0.052,0.006-0.102,0.003-0.153,0.013
					c-27.65,5.147-47.718,26.945-47.718,51.829c0,3.625,0.418,7.165,1.211,10.585c-8.127,1.555-14.986,7.98-16.914,16.27
					c-1.266,5.446-0.322,10.927,2.656,15.437c1.886,2.854,4.447,5.082,7.449,6.545c-3.601,3.971-5.732,8.89-5.986,14.078
					c-0.567,11.578,8.046,21.649,20.415,24.419c-0.55,2.883-0.511,5.858,0.158,8.801c1.291,5.675,4.873,10.756,9.985,14.273
					l4.3,4.838c3.003,13.589,16.561,23.875,32.789,23.875c18.425,0,33.415-13.259,33.415-29.557V39.73
					C122.217,28.635,112.083,19.609,99.624,19.609"/>
			</defs>
			<clipPath id="SVGID_4_">
				<use xlink:href="#SVGID_3_"  overflow="visible"/>
			</clipPath>
			
				<linearGradient id="SVGID_5_" gradientUnits="userSpaceOnUse" x1="-354.1174" y1="549.6111" x2="-353.1174" y2="549.6111" gradientTransform="matrix(93.5574 -162.0461 -162.0461 -93.5574 122220.7578 -5772.6436)">
				<stop  offset="0" style="stop-color:#9C9B9B"/>
				<stop  offset="0.1911" style="stop-color:#878685"/>
				<stop  offset="0.5815" style="stop-color:#5A5959"/>
				<stop  offset="0.599" style="stop-color:#585857"/>
				<stop  offset="1" style="stop-color:#3D3D3C"/>
			</linearGradient>
			<polygon clip-path="url(#SVGID_4_)" fill="url(#SVGID_5_)" points="-70.934,169.785 42.381,-26.484 208.921,69.668 
				95.605,265.936 			"/>
		</g>
	</g>
</g>
<g>
	<g>
		<defs>
			<rect id="SVGID_6_" x="116.993" y="19.609" width="105.731" height="200.234"/>
		</defs>
		<clipPath id="SVGID_7_">
			<use xlink:href="#SVGID_6_"  overflow="visible"/>
		</clipPath>
		<g clip-path="url(#SVGID_7_)">
			<defs>
				<path id="SVGID_8_" d="M216.432,136.421c-0.057-0.138-0.109-0.276-0.168-0.411c-0.135-0.314-0.282-0.623-0.431-0.93
					c-0.031-0.061-0.057-0.122-0.087-0.184c-0.182-0.365-0.375-0.724-0.577-1.081c-0.068-0.117-0.139-0.231-0.209-0.347
					c-0.143-0.239-0.286-0.479-0.435-0.715c-0.089-0.136-0.181-0.269-0.271-0.404c-0.141-0.212-0.286-0.424-0.435-0.632
					c-0.101-0.138-0.2-0.274-0.304-0.41c-0.152-0.202-0.305-0.402-0.464-0.6c-0.107-0.134-0.214-0.267-0.326-0.399
					c-0.165-0.196-0.336-0.393-0.509-0.586c-0.047-0.054-0.092-0.111-0.142-0.165c3.001-1.464,5.559-3.691,7.445-6.543
					c2.979-4.51,3.923-9.991,2.657-15.437c-1.928-8.29-8.787-14.715-16.914-16.27c0.793-3.42,1.211-6.96,1.211-10.585
					c0-24.884-20.069-46.682-47.717-51.829c-0.052-0.01-0.103-0.007-0.154-0.013c-4.023-5.57-11.04-9.271-19.014-9.271
					c-12.458,0-22.595,9.026-22.595,20.121v150.556c0,16.298,14.99,29.557,33.417,29.557c16.227,0,29.785-10.286,32.79-23.875
					l4.301-4.838c5.11-3.517,8.692-8.598,9.983-14.273c0.669-2.943,0.708-5.918,0.156-8.801c0.208-0.046,0.413-0.094,0.617-0.145
					c0.188-0.047,0.374-0.094,0.559-0.143c0.214-0.057,0.425-0.116,0.637-0.177c0.182-0.054,0.366-0.107,0.548-0.164
					c0.209-0.065,0.414-0.133,0.619-0.203c0.179-0.06,0.36-0.12,0.537-0.184c0.204-0.073,0.406-0.15,0.608-0.227
					c0.173-0.067,0.348-0.133,0.519-0.202c0.2-0.081,0.396-0.166,0.595-0.251c0.169-0.074,0.339-0.145,0.506-0.221
					c0.196-0.089,0.387-0.183,0.579-0.276c0.164-0.079,0.329-0.156,0.489-0.238c0.194-0.097,0.385-0.201,0.574-0.303
					c0.155-0.083,0.312-0.164,0.464-0.25c0.195-0.109,0.386-0.224,0.577-0.338c0.142-0.084,0.286-0.166,0.427-0.253
					c0.208-0.128,0.41-0.263,0.613-0.395c0.119-0.079,0.241-0.153,0.357-0.233c0.289-0.195,0.57-0.397,0.848-0.602
					c0.097-0.071,0.192-0.144,0.286-0.216c0.235-0.179,0.47-0.357,0.698-0.543c0.117-0.096,0.23-0.196,0.347-0.296
					c0.173-0.144,0.347-0.289,0.515-0.438c0.125-0.111,0.247-0.227,0.369-0.34c0.153-0.141,0.307-0.281,0.456-0.426
					c0.125-0.12,0.242-0.244,0.362-0.365c0.143-0.144,0.286-0.287,0.424-0.433c0.119-0.128,0.235-0.258,0.351-0.386
					c0.134-0.147,0.266-0.293,0.395-0.442c0.115-0.133,0.224-0.269,0.336-0.405c0.124-0.149,0.248-0.3,0.367-0.452
					c0.11-0.139,0.214-0.28,0.321-0.421c0.115-0.154,0.231-0.307,0.341-0.462c0.102-0.144,0.204-0.292,0.303-0.438
					c0.106-0.157,0.21-0.314,0.314-0.472c0.096-0.149,0.188-0.3,0.281-0.451c0.1-0.161,0.197-0.323,0.293-0.487
					c0.089-0.153,0.173-0.305,0.258-0.459c0.092-0.167,0.181-0.334,0.268-0.501c0.08-0.157,0.159-0.312,0.237-0.471
					c0.084-0.17,0.165-0.34,0.243-0.512c0.073-0.16,0.144-0.32,0.214-0.481c0.074-0.174,0.147-0.349,0.216-0.524
					c0.066-0.163,0.13-0.325,0.192-0.489c0.065-0.178,0.128-0.358,0.19-0.537c0.057-0.166,0.115-0.33,0.167-0.497
					c0.058-0.183,0.112-0.368,0.164-0.552c0.049-0.165,0.097-0.33,0.142-0.497c0.049-0.188,0.093-0.38,0.138-0.569
					c0.039-0.167,0.08-0.333,0.115-0.499c0.041-0.195,0.076-0.392,0.111-0.589c0.03-0.165,0.062-0.329,0.089-0.495
					c0.032-0.204,0.057-0.409,0.084-0.615c0.02-0.161,0.044-0.321,0.062-0.484c0.023-0.216,0.037-0.434,0.053-0.652
					c0.012-0.153,0.027-0.305,0.034-0.459c0.013-0.243,0.018-0.489,0.023-0.733c0.004-0.131,0.01-0.26,0.01-0.392
					c0.002-0.376-0.006-0.755-0.026-1.134c-0.019-0.41-0.052-0.818-0.095-1.225c-0.016-0.137-0.038-0.274-0.055-0.411
					c-0.033-0.268-0.068-0.537-0.112-0.803c-0.028-0.161-0.059-0.32-0.088-0.481c-0.045-0.241-0.093-0.482-0.147-0.722
					c-0.036-0.166-0.076-0.331-0.118-0.496c-0.058-0.233-0.119-0.467-0.185-0.698c-0.047-0.164-0.094-0.328-0.144-0.491
					c-0.072-0.232-0.149-0.463-0.229-0.692c-0.053-0.157-0.106-0.315-0.164-0.471C216.629,136.904,216.53,136.662,216.432,136.421"
					/>
			</defs>
			<clipPath id="SVGID_9_">
				<use xlink:href="#SVGID_8_"  overflow="visible"/>
			</clipPath>
			
				<linearGradient id="SVGID_10_" gradientUnits="userSpaceOnUse" x1="-354.1662" y1="549.4093" x2="-353.1662" y2="549.4093" gradientTransform="matrix(89.1079 -154.3394 -154.3394 -89.1079 116473.9531 -5497.4067)">
				<stop  offset="0" style="stop-color:#2DAB66"/>
				<stop  offset="0.0933" style="stop-color:#27A971"/>
				<stop  offset="0.5198" style="stop-color:#00A19A"/>
				<stop  offset="0.7219" style="stop-color:#108BAB"/>
				<stop  offset="0.9062" style="stop-color:#1D78B3"/>
				<stop  offset="1" style="stop-color:#1F71B7"/>
			</linearGradient>
			<polygon clip-path="url(#SVGID_9_)" fill="url(#SVGID_10_)" points="30.289,169.785 143.605,-26.485 310.146,69.668 
				196.829,265.937 			"/>
		</g>
	</g>
</g>
<path fill="#FFFFFF" d="M221.508,122.969c3.046-4.608,4.01-10.211,2.717-15.777c-1.971-8.47-8.98-15.036-17.285-16.625
	c0.81-3.496,1.237-7.113,1.237-10.816c0-25.43-20.508-47.704-48.762-52.966c-0.053-0.009-0.104-0.005-0.156-0.012
	c-4.111-5.692-11.282-9.474-19.431-9.474c-12.731,0-23.089,9.222-23.089,20.561v153.854c0,16.654,15.319,30.204,34.148,30.204
	c17.78,0,32.422-12.085,33.999-27.454c0.506-0.015,1.016-0.142,1.491-0.403c6.504-3.558,11.102-9.415,12.614-16.07
	c0.684-3.009,0.724-6.049,0.161-8.995c12.641-2.831,21.444-13.121,20.864-24.955c-0.26-5.299-2.434-10.33-6.114-14.387
	C216.968,128.158,219.583,125.883,221.508,122.969 M123.375,97.117V37.86c0-7.679,7.382-13.924,16.453-13.924
	c9.072,0,16.453,6.245,16.453,13.924c0,5.136-3.335,9.841-8.704,12.279c-1.668,0.759-2.407,2.726-1.649,4.395
	c0.759,1.668,2.728,2.407,4.393,1.647c7.77-3.528,12.597-10.549,12.597-18.321c0-1.217-0.126-2.408-0.355-3.566
	c22.833,6.008,38.978,24.532,38.978,45.457c0,26.194-24.654,47.505-54.958,47.505c-1.833,0-3.318,1.486-3.318,3.318
	c0,1.832,1.485,3.318,3.318,3.318c27.118,0,50.183-15.492,58.385-36.931c6.102,0.827,11.355,5.555,12.792,11.733
	c0.877,3.774,0.241,7.544-1.789,10.616c-1.937,2.932-4.946,4.89-8.471,5.512c-0.935,0.165-1.7,0.709-2.186,1.442
	c-0.115,0.119-0.231,0.239-0.331,0.379c-1.06,1.495-0.707,3.566,0.788,4.626c4.591,3.257,7.367,8.03,7.616,13.098
	c0.43,8.781-6.557,16.426-16.465,18.313c-0.508-0.96-1.082-1.899-1.734-2.806c-1.071-1.489-3.143-1.828-4.631-0.758
	c-1.488,1.069-1.828,3.143-0.758,4.632c2.755,3.833,3.722,8.368,2.722,12.771c-0.994,4.365-3.758,8.156-7.849,10.829
	c-1.502-9.042-7.617-17.075-16.575-21.712c0.214-1.056,0.254-2.146,0.095-3.244c-0.409-2.839-2.108-5.421-4.663-7.084
	c-1.534-1-3.59-0.564-4.591,0.971c-1,1.536-0.564,3.591,0.972,4.591c0.966,0.629,1.574,1.505,1.713,2.468
	c0.126,0.87-0.144,1.722-0.779,2.464c-1.595,1.867-4.796,2.236-6.989,0.81c-1.534-0.999-3.591-0.565-4.59,0.971
	c-1,1.536-0.566,3.592,0.97,4.592c2.023,1.316,4.351,1.953,6.657,1.953c2.828,0,5.612-0.971,7.766-2.807
	c8.41,4.19,13.739,11.995,13.739,20.393c0,12.995-12.341,23.568-27.51,23.568c-15.17,0-27.512-10.573-27.512-23.568v-87.381"/>
<path fill="#FFFFFF" d="M100.287,17.298c-8.15,0-15.32,3.782-19.431,9.474c-0.052,0.007-0.103,0.003-0.156,0.013
	C52.445,32.046,31.937,54.32,31.937,79.75c0,3.703,0.427,7.32,1.238,10.816c-8.306,1.589-15.315,8.155-17.285,16.625
	c-1.293,5.566-0.329,11.169,2.716,15.777c1.926,2.914,4.541,5.189,7.607,6.685c-3.681,4.057-5.855,9.088-6.114,14.389
	c-0.58,11.832,8.223,22.123,20.863,24.953c-0.562,2.946-0.523,5.986,0.161,8.995c1.512,6.655,6.111,12.512,12.614,16.071
	c0.476,0.26,0.985,0.387,1.492,0.402c1.576,15.369,16.218,27.454,33.998,27.454c18.83,0,34.149-13.55,34.149-30.204V37.859
	C123.376,26.52,113.018,17.298,100.287,17.298 M116.739,104.332v87.381c0,12.995-12.341,23.568-27.512,23.568
	c-15.169,0-27.509-10.573-27.509-23.568c0-8.398,5.328-16.203,13.739-20.393c2.153,1.836,4.937,2.807,7.766,2.807
	c2.305-0.002,4.634-0.637,6.656-1.953c1.536-1,1.971-3.056,0.971-4.592c-1.001-1.536-3.057-1.97-4.59-0.971
	c-2.195,1.426-5.393,1.055-6.99-0.808c-0.635-0.743-0.904-1.596-0.779-2.466c0.139-0.963,0.747-1.839,1.714-2.467
	c1.536-1,1.971-3.056,0.971-4.592c-1-1.538-3.058-1.972-4.591-0.971c-2.554,1.663-4.254,4.245-4.663,7.084
	c-0.158,1.098-0.119,2.188,0.095,3.244c-8.958,4.637-15.072,12.671-16.574,21.712c-4.092-2.673-6.856-6.464-7.849-10.828
	c-1.001-4.404-0.034-8.938,2.721-12.772c1.07-1.489,0.731-3.563-0.757-4.632c-1.488-1.068-3.562-0.731-4.632,0.758
	c-0.652,0.907-1.226,1.846-1.734,2.806c-9.907-1.887-16.894-9.532-16.465-18.313c0.249-5.068,3.025-9.841,7.616-13.098
	c1.495-1.06,1.848-3.13,0.788-4.626c-0.1-0.14-0.215-0.26-0.331-0.38c-0.485-0.732-1.252-1.276-2.185-1.441
	c-3.526-0.622-6.535-2.579-8.472-5.512c-2.03-3.072-2.666-6.842-1.789-10.614c1.437-6.179,6.69-10.907,12.792-11.735
	c8.202,21.439,31.267,36.931,58.386,36.931c1.832,0,3.318-1.486,3.318-3.318c0-1.832-1.486-3.318-3.318-3.318
	c-30.304,0-54.958-21.311-54.958-47.505c0-20.924,16.144-39.449,38.977-45.457c-0.228,1.158-0.354,2.349-0.354,3.566
	c0,7.772,4.826,14.793,12.596,18.322c1.669,0.759,3.635,0.021,4.393-1.648s0.02-3.636-1.648-4.394
	c-5.369-2.439-8.705-7.144-8.705-12.28c0-7.678,7.381-13.924,16.454-13.924c9.071,0,16.452,6.246,16.452,13.924v59.257"/>
<path fill="#404040" d="M276.95,156.688h9.781c2.028,0,3.832,0.199,5.411,0.597c1.577,0.397,2.908,0.982,3.986,1.752
	c1.077,0.77,1.899,1.71,2.464,2.822c0.565,1.109,0.847,2.377,0.847,3.801c0,1.387-0.321,2.625-0.963,3.717
	c-0.641,1.09-1.52,2.018-2.637,2.781c-1.117,0.765-2.423,1.348-3.919,1.753c-1.495,0.405-3.096,0.606-4.804,0.606h-1.655v9.282
	h-8.511V156.688z M287.154,169.05c1.361,0,2.427-0.282,3.196-0.848c0.772-0.564,1.157-1.412,1.157-2.542
	c0-0.551-0.113-1.033-0.337-1.443c-0.225-0.411-0.534-0.754-0.925-1.031c-0.392-0.275-0.852-0.483-1.376-0.626
	c-0.528-0.14-1.099-0.211-1.715-0.211h-1.693v6.623c0.178,0.027,0.41,0.045,0.692,0.058S286.769,169.05,287.154,169.05"/>
<path fill="#404040" d="M301.942,164.332h8.318v4.024c0.629-1.593,1.467-2.757,2.513-3.495c1.045-0.739,2.249-1.108,3.61-1.108
	l1.155,6.451c-2.502,0-4.341,0.266-5.516,0.799c-1.176,0.533-1.762,1.383-1.762,2.55v10.245h-8.318V164.332z"/>
<path fill="#404040" d="M318.579,173.901c0.064-1.655,0.407-3.112,1.03-4.371c0.623-1.258,1.447-2.317,2.475-3.176
	c1.025-0.861,2.217-1.51,3.57-1.946c1.355-0.436,2.795-0.654,4.323-0.654c1.668,0,3.197,0.249,4.583,0.75
	c1.386,0.502,2.581,1.197,3.581,2.089c1.001,0.893,1.778,1.961,2.329,3.206c0.552,1.246,0.83,2.613,0.83,4.102
	c0,1.207-0.159,2.297-0.473,3.274c-0.316,0.976-0.741,1.838-1.279,2.59c-0.54,0.749-1.175,1.402-1.907,1.953
	c-0.731,0.552-1.521,1.004-2.368,1.358c-0.847,0.354-1.723,0.613-2.628,0.78c-0.906,0.167-1.807,0.251-2.706,0.251
	c-1.695,0-3.239-0.248-4.632-0.742c-1.391-0.494-2.589-1.191-3.59-2.089c-1.001-0.899-1.774-1.974-2.319-3.227
	C318.851,176.799,318.579,175.415,318.579,173.901 M326.281,173.901c0,0.719,0.105,1.347,0.316,1.888
	c0.213,0.538,0.493,0.987,0.838,1.348c0.347,0.358,0.744,0.627,1.195,0.807c0.449,0.18,0.904,0.269,1.367,0.269
	c0.463,0,0.915-0.089,1.357-0.269c0.444-0.18,0.842-0.449,1.194-0.807c0.353-0.361,0.635-0.81,0.846-1.348
	c0.213-0.541,0.32-1.169,0.32-1.888c0-0.719-0.107-1.348-0.32-1.887c-0.211-0.54-0.493-0.986-0.846-1.337
	c-0.352-0.354-0.75-0.62-1.194-0.8c-0.442-0.181-0.894-0.269-1.357-0.269c-0.463,0-0.918,0.088-1.367,0.269
	c-0.451,0.18-0.848,0.446-1.195,0.8c-0.345,0.351-0.625,0.797-0.838,1.337C326.386,172.553,326.281,173.182,326.281,173.901"/>
<path fill="#404040" d="M355.045,159.459c-0.77,0-1.369,0.19-1.801,0.569c-0.428,0.378-0.643,0.935-0.643,1.666
	c0,0.692,0.224,1.475,0.673,2.348h5.507v4.892h-4.968v14.864h-8.319v-14.864h-2.464v-4.892h2.464c0-1.836,0.133-3.413,0.396-4.736
	c0.261-1.321,0.683-2.413,1.261-3.274c0.579-0.859,1.322-1.492,2.233-1.896c0.912-0.405,2.015-0.606,3.312-0.606
	c2.029,0,4.172,0.5,6.432,1.501l-0.27,5.353C357.356,159.769,356.085,159.459,355.045,159.459"/>
<path fill="#404040" d="M360.92,157.496c0-0.577,0.125-1.11,0.374-1.598c0.251-0.489,0.582-0.908,0.991-1.261
	c0.412-0.354,0.888-0.627,1.426-0.818c0.538-0.193,1.098-0.289,1.675-0.289c0.667,0,1.273,0.118,1.82,0.356
	c0.545,0.237,1.011,0.546,1.395,0.924c0.385,0.378,0.684,0.803,0.896,1.27c0.211,0.47,0.317,0.942,0.317,1.416
	c0,0.591-0.123,1.13-0.365,1.617c-0.245,0.489-0.571,0.909-0.983,1.262c-0.41,0.353-0.882,0.629-1.413,0.827
	c-0.535,0.2-1.089,0.299-1.667,0.299c-0.629,0-1.216-0.102-1.761-0.309c-0.547-0.205-1.018-0.49-1.415-0.855
	c-0.399-0.368-0.713-0.79-0.944-1.272C361.035,158.584,360.92,158.06,360.92,157.496 M373.241,182.759
	c-1.553,0.898-3.271,1.348-5.16,1.348c-1.116,0-2.111-0.186-2.985-0.56c-0.872-0.371-1.607-0.9-2.203-1.588
	c-0.597-0.687-1.05-1.517-1.358-2.493c-0.309-0.975-0.462-2.061-0.462-3.254v-12.169h8.356v11.784c0,0.629,0.166,1.1,0.5,1.415
	c0.334,0.314,0.758,0.471,1.272,0.471c0.513,0,1.053-0.153,1.617-0.461L373.241,182.759z"/>
<path fill="#404040" d="M389.281,182.759c-1.783,0.898-3.761,1.348-5.93,1.348c-1.116,0-2.112-0.183-2.984-0.55
	c-0.872-0.365-1.607-0.892-2.205-1.579c-0.597-0.685-1.049-1.515-1.357-2.483c-0.308-0.97-0.462-2.064-0.462-3.283l0.038-7.278
	h-2.502v-4.891h3.118l3.659-7.471h4.005v7.471h4.544v4.891h-4.544v6.699c0,0.694,0.224,1.214,0.674,1.561
	c0.449,0.345,1.059,0.519,1.829,0.519c0.602,0,1.206-0.153,1.81-0.461L389.281,182.759z"/>
<path fill="#0273AF" d="M422.765,174.094c-0.938,1.811-2.042,3.261-3.311,4.351l4.659,5.353h-7.934l-1.714-1.983
	c-0.963,0.771-2.015,1.396-3.156,1.877c-1.144,0.481-2.331,0.722-3.563,0.722c-1.361,0-2.593-0.186-3.697-0.558
	c-1.105-0.372-2.051-0.905-2.841-1.599c-0.79-0.692-1.399-1.533-1.829-2.522c-0.428-0.987-0.645-2.097-0.645-3.33
	c0-1.003,0.139-1.875,0.415-2.619c0.275-0.744,0.66-1.399,1.155-1.964c0.494-0.566,1.074-1.059,1.741-1.482
	c0.668-0.424,1.388-0.816,2.158-1.174c-1.824-2.016-2.734-3.916-2.734-5.701c0-0.86,0.208-1.701,0.626-2.522
	c0.416-0.821,1.013-1.555,1.79-2.205c0.778-0.648,1.72-1.171,2.83-1.569c1.111-0.398,2.366-0.597,3.765-0.597
	c1.181,0,2.266,0.161,3.253,0.482c0.99,0.32,1.842,0.779,2.562,1.377c0.718,0.596,1.277,1.311,1.675,2.146
	c0.398,0.835,0.597,1.772,0.597,2.811c0,0.693-0.11,1.384-0.328,2.07c-0.218,0.687-0.541,1.339-0.973,1.955
	c-0.43,0.616-0.964,1.188-1.606,1.713c-0.644,0.526-1.393,0.976-2.253,1.348c0.129,0.153,0.311,0.38,0.548,0.674
	c0.238,0.295,0.492,0.606,0.761,0.935c0.27,0.326,0.526,0.641,0.77,0.943c0.244,0.3,0.436,0.528,0.578,0.684l3.158-3.39
	L422.765,174.094z M405.744,176.134c0,0.732,0.208,1.327,0.626,1.783c0.417,0.456,0.991,0.683,1.722,0.683
	c1.027,0,1.823-0.282,2.388-0.847l-3.234-4.121C406.245,174.196,405.744,175.031,405.744,176.134 M410.519,161.733
	c-1.361,0-2.042,0.603-2.042,1.811c0,0.499,0.167,0.97,0.501,1.413c0.334,0.444,0.81,0.908,1.426,1.398
	c0.346-0.156,0.643-0.316,0.894-0.483c0.25-0.167,0.453-0.358,0.607-0.578c0.153-0.218,0.269-0.467,0.346-0.75
	c0.077-0.283,0.117-0.616,0.117-1c0-0.552-0.164-0.994-0.494-1.321C411.548,161.897,411.095,161.733,410.519,161.733"/>
<polygon fill="#404040" points="434.066,156.688 442.923,156.688 442.923,167.471 451.319,167.471 451.319,156.688 460.213,156.688 
	460.213,183.798 451.319,183.798 451.319,173.169 442.923,173.169 442.923,183.798 434.066,183.798 "/>
<path fill="#404040" d="M479.72,180.139c-0.616,1.284-1.45,2.266-2.504,2.947c-1.052,0.68-2.373,1.021-3.966,1.021
	c-1.283,0-2.509-0.261-3.676-0.781c-1.169-0.52-2.196-1.238-3.083-2.156c-0.885-0.919-1.59-2.006-2.117-3.264
	c-0.527-1.259-0.79-2.625-0.79-4.101c0-1.464,0.266-2.812,0.8-4.044c0.531-1.232,1.245-2.294,2.137-3.186
	c0.892-0.892,1.92-1.585,3.081-2.08c1.161-0.494,2.378-0.742,3.648-0.742c0.655,0,1.3,0.087,1.936,0.261
	c0.635,0.173,1.237,0.448,1.808,0.827c0.573,0.38,1.093,0.857,1.562,1.435c0.467,0.578,0.855,1.27,1.164,2.08v-4.603h8.279v20.045
	h-8.279V180.139z M479.72,173.785c-0.026-0.512-0.148-1.001-0.366-1.464c-0.219-0.461-0.504-0.862-0.856-1.202
	c-0.354-0.34-0.761-0.609-1.224-0.81c-0.461-0.198-0.944-0.298-1.444-0.298c-0.564,0-1.089,0.107-1.569,0.318
	c-0.48,0.211-0.898,0.494-1.252,0.848c-0.351,0.354-0.633,0.766-0.837,1.242c-0.205,0.474-0.307,0.981-0.307,1.521
	c0,0.565,0.109,1.087,0.327,1.569c0.217,0.481,0.509,0.895,0.875,1.241c0.367,0.347,0.786,0.619,1.262,0.819
	c0.474,0.198,0.975,0.299,1.501,0.299c0.54,0,1.04-0.104,1.501-0.309c0.463-0.205,0.868-0.481,1.214-0.828
	c0.348-0.346,0.623-0.747,0.828-1.203c0.205-0.456,0.321-0.934,0.347-1.434V173.785z"/>
<path fill="#404040" d="M506.773,184.107c-1.452,0-2.716-0.306-3.795-0.916c-1.078-0.609-1.97-1.626-2.676-3.052v8.78l-8.317,1.58
	v-26.167h8.317v3.407c0.681-1.424,1.557-2.445,2.628-3.062c1.072-0.615,2.339-0.924,3.803-0.924c1.22,0,2.379,0.191,3.476,0.569
	c1.098,0.379,2.133,1.042,3.109,1.993c2.053,2.014,3.081,4.556,3.081,7.625c0,3.03-1.021,5.563-3.061,7.605
	c-0.95,0.95-1.974,1.614-3.072,1.994C509.169,183.917,508.004,184.107,506.773,184.107 M500.302,173.94
	c0,0.565,0.106,1.084,0.317,1.56c0.212,0.473,0.497,0.888,0.858,1.241c0.358,0.353,0.773,0.628,1.242,0.828
	c0.468,0.199,0.96,0.299,1.474,0.299c0.564,0,1.089-0.108,1.579-0.319c0.487-0.212,0.906-0.497,1.259-0.857
	c0.354-0.358,0.63-0.776,0.828-1.25c0.2-0.476,0.299-0.977,0.299-1.502c0-0.618-0.116-1.169-0.347-1.657
	c-0.231-0.487-0.534-0.898-0.914-1.232c-0.379-0.333-0.805-0.59-1.281-0.77c-0.474-0.179-0.95-0.27-1.423-0.27
	c-0.617,0-1.161,0.119-1.627,0.356c-0.47,0.239-0.865,0.539-1.185,0.906c-0.322,0.365-0.571,0.773-0.752,1.222
	c-0.18,0.449-0.289,0.88-0.327,1.29V173.94z"/>
<path fill="#404040" d="M534.172,184.107c-1.451,0-2.715-0.306-3.794-0.916c-1.078-0.609-1.971-1.626-2.676-3.052v8.78l-8.318,1.58
	v-26.167h8.318v3.407c0.681-1.424,1.556-2.445,2.628-3.062c1.072-0.615,2.339-0.924,3.803-0.924c1.22,0,2.378,0.191,3.476,0.569
	c1.097,0.379,2.132,1.042,3.109,1.993c2.053,2.014,3.08,4.556,3.08,7.625c0,3.03-1.021,5.563-3.061,7.605
	c-0.949,0.95-1.973,1.614-3.072,1.994C536.568,183.917,535.403,184.107,534.172,184.107 M527.702,173.94
	c0,0.565,0.105,1.084,0.317,1.56c0.211,0.473,0.497,0.888,0.858,1.241c0.358,0.353,0.772,0.628,1.242,0.828
	c0.467,0.199,0.959,0.299,1.473,0.299c0.565,0,1.09-0.108,1.579-0.319c0.487-0.212,0.907-0.497,1.26-0.857
	c0.354-0.358,0.629-0.776,0.828-1.25c0.2-0.476,0.298-0.977,0.298-1.502c0-0.618-0.115-1.169-0.346-1.657
	c-0.232-0.487-0.535-0.898-0.915-1.232c-0.378-0.333-0.805-0.59-1.281-0.77c-0.473-0.179-0.949-0.27-1.423-0.27
	c-0.617,0-1.16,0.119-1.627,0.356c-0.469,0.239-0.864,0.539-1.184,0.906c-0.322,0.365-0.572,0.773-0.752,1.222
	c-0.18,0.449-0.289,0.88-0.327,1.29V173.94z"/>
<path fill="#404040" d="M546.571,157.496c0-0.577,0.126-1.11,0.376-1.598c0.251-0.489,0.581-0.908,0.99-1.261
	c0.411-0.354,0.887-0.627,1.426-0.818c0.538-0.193,1.098-0.289,1.675-0.289c0.667,0,1.273,0.118,1.82,0.356
	c0.545,0.237,1.011,0.546,1.395,0.924c0.385,0.378,0.684,0.803,0.896,1.27c0.211,0.47,0.317,0.942,0.317,1.416
	c0,0.591-0.123,1.13-0.365,1.617c-0.245,0.489-0.571,0.909-0.982,1.262s-0.883,0.629-1.414,0.827
	c-0.535,0.2-1.089,0.299-1.667,0.299c-0.629,0-1.216-0.102-1.761-0.309c-0.547-0.205-1.018-0.49-1.415-0.855
	c-0.399-0.368-0.713-0.79-0.944-1.272C546.687,158.584,546.571,158.06,546.571,157.496 M558.893,182.759
	c-1.553,0.898-3.272,1.348-5.16,1.348c-1.116,0-2.111-0.186-2.985-0.56c-0.872-0.371-1.607-0.9-2.203-1.588
	c-0.598-0.687-1.05-1.517-1.358-2.493c-0.309-0.975-0.462-2.061-0.462-3.254v-12.169h8.355v11.784c0,0.629,0.167,1.1,0.501,1.415
	c0.334,0.314,0.758,0.471,1.272,0.471c0.513,0,1.053-0.153,1.617-0.461L558.893,182.759z"/>
<path fill="#404040" d="M561.186,164.332h7.933v4.024c0.77-1.553,1.76-2.71,2.975-3.466c1.212-0.758,2.635-1.137,4.265-1.137
	c1.309,0,2.464,0.245,3.466,0.733c1,0.487,1.844,1.177,2.531,2.069c0.687,0.892,1.206,1.964,1.559,3.216
	c0.354,1.251,0.531,2.641,0.531,4.169v9.858h-8.281V173.13c0-0.513-0.047-0.987-0.143-1.424s-0.251-0.812-0.463-1.127
	c-0.211-0.314-0.478-0.559-0.799-0.732c-0.32-0.173-0.712-0.259-1.175-0.259c-0.564,0-1.085,0.139-1.559,0.414
	c-0.476,0.276-0.889,0.613-1.241,1.011c-0.355,0.399-0.64,0.812-0.859,1.241c-0.218,0.431-0.358,0.8-0.423,1.108v10.436h-8.317
	V164.332z"/>
<path fill="#404040" d="M599.752,178.58c1.797,0,3.734-0.462,5.814-1.386l0.963,5.295c-2.387,1.078-5.071,1.618-8.048,1.618
	c-1.656,0-3.167-0.254-4.535-0.761c-1.368-0.508-2.542-1.213-3.523-2.118c-0.982-0.905-1.746-1.981-2.291-3.226
	c-0.547-1.245-0.819-2.6-0.819-4.062c0-1.541,0.286-2.937,0.857-4.188c0.571-1.253,1.351-2.323,2.339-3.216
	c0.989-0.892,2.143-1.579,3.467-2.061c1.321-0.48,2.733-0.721,4.235-0.721c1.515,0,2.843,0.253,3.985,0.759
	c1.143,0.508,2.096,1.202,2.86,2.08c0.764,0.881,1.334,1.906,1.715,3.081c0.378,1.176,0.567,2.43,0.567,3.765
	c0,0.179-0.006,0.353-0.019,0.52c-0.014,0.167-0.034,0.327-0.058,0.482l-11.823,1.539c0.308,0.925,0.822,1.59,1.541,1.993
	C597.697,178.377,598.622,178.58,599.752,178.58 M601.215,171.013c-0.449-1.643-1.451-2.466-3.004-2.466
	c-0.487,0-0.924,0.098-1.309,0.289c-0.386,0.194-0.709,0.46-0.972,0.8c-0.265,0.34-0.466,0.745-0.607,1.214
	c-0.141,0.468-0.218,0.972-0.23,1.511L601.215,171.013z"/>
<path fill="#404040" d="M618.738,168.663c-1.566,0-2.35,0.271-2.35,0.81c0,0.205,0.059,0.387,0.174,0.548
	c0.114,0.162,0.27,0.302,0.461,0.424c0.194,0.123,0.404,0.221,0.636,0.298c0.231,0.078,0.463,0.128,0.694,0.155
	c1.012,0.153,1.954,0.389,2.82,0.702c0.867,0.316,1.618,0.735,2.252,1.262c0.636,0.525,1.136,1.172,1.503,1.934
	c0.366,0.765,0.548,1.673,0.548,2.726c0,1.038-0.182,1.967-0.548,2.781c-0.367,0.817-0.877,1.505-1.531,2.069
	c-0.655,0.565-1.426,0.997-2.31,1.291c-0.886,0.295-1.849,0.444-2.89,0.444c-1.681,0-3.217-0.078-4.609-0.232
	c-1.394-0.154-2.667-0.488-3.823-1.002l0.886-4.543c0.423,0.115,0.792,0.219,1.107,0.308c0.313,0.089,0.574,0.154,0.779,0.192
	c0.193,0.04,0.436,0.087,0.731,0.145c0.296,0.058,0.614,0.113,0.953,0.164c0.341,0.051,0.685,0.095,1.032,0.135
	c0.346,0.038,0.66,0.057,0.943,0.057c1.31,0,1.964-0.308,1.964-0.924c-0.038-0.244-0.139-0.459-0.299-0.646
	c-0.161-0.185-0.362-0.346-0.606-0.481c-0.246-0.135-0.524-0.247-0.838-0.337c-0.314-0.089-0.644-0.167-0.991-0.231
	c-1-0.192-1.884-0.449-2.648-0.769c-0.765-0.321-1.402-0.736-1.916-1.243c-0.514-0.507-0.901-1.129-1.164-1.868
	c-0.265-0.738-0.396-1.614-0.396-2.628c0.052-1.154,0.294-2.14,0.733-2.955c0.435-0.815,1.025-1.483,1.77-2.003
	c0.746-0.519,1.621-0.899,2.628-1.137c1.008-0.236,2.11-0.355,3.304-0.355c1.243,0,2.418,0.068,3.523,0.201
	c1.103,0.136,2.137,0.435,3.1,0.896l-0.847,4.699C621.587,168.959,619.995,168.663,618.738,168.663"/>
<path fill="#404040" d="M636.973,168.663c-1.566,0-2.35,0.271-2.35,0.81c0,0.205,0.059,0.387,0.174,0.548
	c0.114,0.162,0.27,0.302,0.461,0.424c0.194,0.123,0.404,0.221,0.636,0.298c0.231,0.078,0.463,0.128,0.694,0.155
	c1.012,0.153,1.953,0.389,2.82,0.702c0.867,0.316,1.618,0.735,2.252,1.262c0.636,0.525,1.136,1.172,1.503,1.934
	c0.366,0.765,0.548,1.673,0.548,2.726c0,1.038-0.182,1.967-0.548,2.781c-0.367,0.817-0.877,1.505-1.531,2.069
	c-0.655,0.565-1.426,0.997-2.31,1.291c-0.886,0.295-1.849,0.444-2.889,0.444c-1.683,0-3.218-0.078-4.61-0.232
	c-1.395-0.154-2.668-0.488-3.823-1.002l0.886-4.543c0.423,0.115,0.792,0.219,1.107,0.308c0.313,0.089,0.574,0.154,0.779,0.192
	c0.193,0.04,0.435,0.087,0.731,0.145c0.296,0.058,0.614,0.113,0.953,0.164c0.341,0.051,0.684,0.095,1.032,0.135
	c0.346,0.038,0.66,0.057,0.942,0.057c1.311,0,1.965-0.308,1.965-0.924c-0.038-0.244-0.14-0.459-0.299-0.646
	c-0.161-0.185-0.362-0.346-0.606-0.481c-0.245-0.135-0.525-0.247-0.838-0.337c-0.314-0.089-0.645-0.167-0.992-0.231
	c-1-0.192-1.884-0.449-2.647-0.769c-0.765-0.321-1.402-0.736-1.916-1.243c-0.514-0.507-0.902-1.129-1.164-1.868
	c-0.265-0.738-0.396-1.614-0.396-2.628c0.052-1.154,0.294-2.14,0.733-2.955c0.435-0.815,1.025-1.483,1.77-2.003
	c0.745-0.519,1.621-0.899,2.628-1.137c1.008-0.236,2.11-0.355,3.304-0.355c1.243,0,2.418,0.068,3.522,0.201
	c1.104,0.136,2.138,0.435,3.101,0.896l-0.848,4.699C639.822,168.959,638.23,168.663,636.973,168.663"/>
<path fill="#404040" d="M317.777,74.072c4.019,0,7.765,0.717,11.241,2.152s6.507,3.396,9.09,5.883
	c2.583,2.488,4.607,5.391,6.075,8.707c1.467,3.319,2.2,6.889,2.2,10.717c0,3.826-0.733,7.399-2.2,10.714
	c-1.468,3.318-3.492,6.219-6.075,8.706c-2.583,2.488-5.614,4.45-9.09,5.886c-3.476,1.435-7.222,2.152-11.241,2.152h-17.029V74.072
	H317.777z M318.733,111.576c1.34-0.127,2.615-0.479,3.827-1.052c1.211-0.575,2.265-1.306,3.158-2.201
	c0.893-0.893,1.611-1.929,2.153-3.109c0.542-1.18,0.812-2.44,0.812-3.779c0-1.34-0.27-2.599-0.812-3.78
	c-0.542-1.179-1.26-2.215-2.153-3.11c-0.893-0.892-1.947-1.64-3.158-2.248c-1.212-0.604-2.487-1.004-3.827-1.196V111.576z"/>
<path fill="#404040" d="M401.109,128.988h-19.328c-2.806-4.019-4.974-6.998-6.504-8.945c-1.531-1.945-2.648-3.253-3.35-3.924
	c-0.701-0.668-1.116-0.892-1.243-0.668c-0.129,0.224-0.193,0.462-0.193,0.717v12.82h-17.985V74.071h22.005
	c2.614,0,5.166,0.573,7.653,1.722c2.488,1.149,4.624,2.647,6.411,4.497c2.04,1.977,3.587,4.225,4.64,6.744
	c1.052,2.521,1.579,5.087,1.579,7.702c0,2.679-0.527,5.327-1.579,7.942c-1.053,2.616-2.6,4.974-4.64,7.079L401.109,128.988z
	 M377.381,94.544c0-1.148-0.416-2.135-1.243-2.965c-0.829-0.828-1.852-1.243-3.063-1.243h-2.773v8.418h2.773
	c1.211,0,2.234-0.414,3.063-1.243C376.965,96.684,377.381,95.694,377.381,94.544"/>
<polygon fill="#404040" points="445.597,112.34 445.597,128.988 405.223,128.988 405.223,74.167 445.597,74.167 445.597,90.813 
	423.209,90.813 423.209,94.544 441.961,94.544 441.961,108.705 423.209,108.705 423.209,112.34 "/>
<path fill="#404040" d="M488.745,74.071l17.699,54.917h-18.177l-1.722-6.314h-15.213l-1.721,6.314h-18.179l17.7-54.917H488.745z
	 M481.953,107.174l-2.967-11.767l-3.06,11.767H481.953z"/>
<path fill="#404040" d="M566.241,74.071v54.917h-17.985v-25.545c-1.469,1.914-3.015,3.891-4.642,5.933
	c-1.625,2.041-3.142,3.985-4.544,5.835l-9.09-11.864v25.641h-17.985V74.071h17.508l9.567,12.246l9.662-12.246H566.241z"/>
<polygon fill="#404040" points="619.913,74.071 601.064,111.863 614.937,111.863 614.937,128.988 572.555,128.988 591.307,91.293 
	577.529,91.293 577.529,74.071 "/>
</svg>
