<?xml version="1.0" encoding="utf-8"?>
<!-- Generator: Adobe Illustrator 17.0.0, SVG Export Plug-In . SVG Version: 6.00 Build 0)  -->
<!DOCTYPE svg PUBLIC "-//W3C//DTD SVG 1.1//EN" "http://www.w3.org/Graphics/SVG/1.1/DTD/svg11.dtd">
<svg version="1.1" id="Layer_1" xmlns="http://www.w3.org/2000/svg" xmlns:xlink="http://www.w3.org/1999/xlink" x="0px" y="0px"
	 width="874.944px" height="714.24px" viewBox="0 142.912 874.944 714.24" enable-background="new 0 142.912 874.944 714.24"
	 xml:space="preserve">
<path fill="#FFFFFF" d="M357.12,803.584c0,1.488,0.186,5.208,0.558,11.16c0.372,5.952,0.465,10.881,0.279,14.787
	c-0.186,3.906-0.744,8.277-1.674,13.113s-2.79,8.463-5.58,10.881s-6.603,3.627-11.439,3.627h-178.56
	c-44.268,0-82.119-15.717-113.553-47.151C15.717,778.567,0,740.716,0,696.448V303.616c0-44.268,15.717-82.119,47.151-113.553
	s69.285-47.151,113.553-47.151h178.56c4.836,0,9.021,1.767,12.555,5.301s5.301,7.719,5.301,12.555c0,1.488,0.186,5.208,0.558,11.16
	s0.465,10.881,0.279,14.787c-0.186,3.906-0.744,8.277-1.674,13.113c-0.93,4.836-2.79,8.463-5.58,10.881s-6.603,3.627-11.439,3.627
	h-178.56c-24.552,0-45.57,8.742-63.054,26.226s-26.226,38.502-26.226,63.054v392.832c0,24.552,8.742,45.57,26.226,63.054
	s38.502,26.226,63.054,26.226H334.8c0,0,2.139,0.186,6.417,0.558s6.417,0.93,6.417,1.674c0,0.744,1.488,1.767,4.464,3.069
	c2.976,1.302,4.278,2.976,3.906,5.022C355.632,798.097,356.004,800.608,357.12,803.584L357.12,803.584z M874.944,500.032
	c0,9.672-3.534,18.042-10.602,25.11L560.79,828.694c-7.068,7.068-15.438,10.602-25.11,10.602s-18.042-3.534-25.11-10.602
	c-7.068-7.068-10.602-15.438-10.602-25.11V642.88H249.984c-9.672,0-18.042-3.534-25.11-10.602s-10.602-15.438-10.602-25.11V392.896
	c0-9.672,3.534-18.042,10.602-25.11s15.438-10.602,25.11-10.602h249.984V196.48c0-9.672,3.534-18.042,10.602-25.11
	c7.068-7.068,15.438-10.602,25.11-10.602s18.042,3.534,25.11,10.602l303.552,303.552C871.41,481.99,874.944,490.36,874.944,500.032
	L874.944,500.032z"/>
</svg>
