<svg version="1.1" id="Capa_1" xmlns="http://www.w3.org/2000/svg" xmlns:xlink="http://www.w3.org/1999/xlink" x="0px" y="0px"
	 width="300px" height="300px" viewBox="0 0 300 300" enable-background="new 0 0 300 300" xml:space="preserve">
<g id="Forma_1_635_">
	<g>
		<path fill="#FFFFFF" d="M226.414,265.06c34.879-23.176,58.432-61.849,61.182-106.167H165.143L226.414,265.06z M158.826,12.91
			v128.744h128.77C283.297,72.462,228.045,17.177,158.826,12.91z M176.053,32.636c45.744,10.038,81.779,46.085,91.783,91.816
			h-91.783V32.636z M141.602,150.291V12.91C69.51,17.39,12.404,77.101,12.404,150.291c0,76.097,61.701,137.799,137.822,137.799
			c22.025,0,42.768-5.284,61.25-14.484L142.756,154.58C141.986,153.244,141.602,151.761,141.602,150.291z"/>
	</g>
</g>
</svg>
