<svg version="1.1" id="Capa_1" xmlns="http://www.w3.org/2000/svg" xmlns:xlink="http://www.w3.org/1999/xlink" x="0px" y="0px"
	 width="300px" height="300px" viewBox="0 0 300 300" enable-background="new 0 0 300 300" xml:space="preserve">
<g id="Forma_1">
	<g>
		<path fill="#FFFFFF" d="M153.611,137.744c0.854,0.852,2.012,1.333,3.221,1.333h136.696c1.291,0,2.522-0.55,3.387-1.508
			c0.864-0.96,1.28-2.244,1.143-3.526c-3.906-36.601-21.018-70.188-48.184-94.576c-27.188-24.406-62.509-37.85-99.457-37.85
			c-33.77,0-66.834,11.64-93.101,32.78c-1.008,0.811-1.622,2.009-1.691,3.3s0.414,2.549,1.328,3.463L153.611,137.744z
			 M266.454,104.01c1.488,3.741,2.793,7.553,3.903,11.398h-11.731L266.454,104.01z M252.251,77.875
			c1.717,2.421,3.36,4.923,4.914,7.479l-20.639,30.051h-9.23L252.251,77.875z M234.699,58.019c1.806,1.653,3.613,3.414,5.389,5.25
			l-34.669,52.138h-14.822l40.349-60.681C232.244,55.819,233.501,56.921,234.699,58.019z M216.202,43.998l-47.483,71.41h-3.963
			l-6.784-6.781l47.069-70.783C208.868,39.708,212.604,41.769,216.202,43.998z M187.731,30.973l-42.903,64.523l-9.641-9.633
			l39.204-58.262C178.89,28.477,183.359,29.606,187.731,30.973z M137.271,25.971c4.361-0.454,8.777-0.684,13.146-0.684
			c1.167,0,2.349,0.016,3.54,0.05l-31.899,47.408l-10.333-10.327L137.271,25.971z M107.378,32.895
			c1.218-0.449,2.453-0.877,3.698-1.292L98.643,49.345l-8.56-8.553C95.626,37.73,101.428,35.077,107.378,32.895z M134.039,149.083
			L41.492,56.607c-0.916-0.912-2.176-1.396-3.466-1.325c-1.29,0.069-2.491,0.683-3.303,1.69C13.567,83.218,1.916,116.256,1.916,150
			c0,46.214,20.973,88.966,57.543,117.295c0.805,0.622,1.789,0.953,2.791,0.953c0.271,0,0.545-0.021,0.816-0.074
			c1.272-0.23,2.387-0.99,3.064-2.092l68.568-111.396C135.802,152.892,135.529,150.574,134.039,149.083z M58.116,233.924
			c-7.558-8.294-13.935-17.492-18.98-27.384c-8.979-17.602-13.532-36.622-13.532-56.539c0-14.796,2.561-29.267,7.615-43.005
			c2.186-5.948,4.838-11.743,7.903-17.282l65.484,65.431L58.116,233.924z M296.916,162.432c-0.865-0.959-2.097-1.508-3.388-1.508
			H159.072c-1.581,0-3.05,0.819-3.879,2.169L84.745,277.548c-0.678,1.099-0.855,2.438-0.488,3.676
			c0.366,1.237,1.243,2.262,2.408,2.818c19.989,9.515,41.438,14.341,63.752,14.341c36.949,0,72.27-13.442,99.458-37.849
			c27.166-24.388,44.277-57.976,48.183-94.576C298.195,164.676,297.78,163.392,296.916,162.432z"/>
	</g>
</g>
</svg>
