<svg version="1.1" id="Capa_1" xmlns="http://www.w3.org/2000/svg" xmlns:xlink="http://www.w3.org/1999/xlink" x="0px" y="0px"
	 width="300px" height="300px" viewBox="0 0 300 300" enable-background="new 0 0 300 300" xml:space="preserve">
<g id="Forma_1_631_">
	<g>
		<path fill="#FFFFFF" d="M236.192,13.728H31.462v244.774h204.73V13.728z M223.901,246.165H43.774V26.064h180.127V246.165z
			 M205.194,53.475H65.255v12.97h139.939V53.475z M205.194,94.23H65.255v12.933h139.939V94.23z M244.601,41.468v12.347h11.589
			v220.101H76.074v-8.556H63.761v20.913h204.777V41.468H244.601z M70.472,190.121c2.438,0,4.741-0.588,6.796-1.608l17.219,14.116
			c-0.099,0.707-0.168,1.424-0.168,2.159c0,8.513,6.881,15.393,15.392,15.393c8.488,0,15.369-6.88,15.369-15.393
			c0-2.471-0.595-4.796-1.625-6.863c8.317-12.498,18.938-28.458,25.408-38.186c1.024,0.217,2.085,0.334,3.174,0.334
			c3.729,0,7.143-1.336,9.8-3.553c5.724,3.343,13.094,7.653,19.454,11.375c-0.009,0.222-0.033,0.44-0.033,0.665
			c0,8.522,6.883,15.416,15.37,15.416c8.511,0,15.369-6.894,15.369-15.416c0-8.497-6.858-15.413-15.369-15.413
			c-3.783,0-7.243,1.381-9.921,3.657l-19.364-11.324c0.015-0.271,0.041-0.537,0.041-0.811c0-8.487-6.858-15.356-15.347-15.356
			s-15.347,6.869-15.347,15.356c0,2.881,0.804,5.569,2.179,7.878c-7.973,11.989-18.339,27.582-24.899,37.46
			c-1.354-0.39-2.779-0.61-4.259-0.61c-3.215,0-6.196,0.984-8.663,2.665c-4.76-3.905-10.598-8.693-15.83-12.985
			c0.407-1.379,0.636-2.836,0.636-4.347c0-8.535-6.927-15.393-15.381-15.37c-8.522,0-15.402,6.835-15.402,15.37
			C55.069,183.23,61.949,190.121,70.472,190.121z"/>
	</g>
</g>
</svg>
