<?xml version="1.0" encoding="utf-8"?>
<!-- Generator: Adobe Illustrator 17.0.0, SVG Export Plug-In . SVG Version: 6.00 Build 0)  -->
<!DOCTYPE svg PUBLIC "-//W3C//DTD SVG 1.1//EN" "http://www.w3.org/Graphics/SVG/1.1/DTD/svg11.dtd">
<svg version="1.1" id="Layer_1" xmlns="http://www.w3.org/2000/svg" xmlns:xlink="http://www.w3.org/1999/xlink" x="0px" y="0px"
	 width="256px" height="256px" viewBox="0 0 256 256" enable-background="new 0 0 256 256" xml:space="preserve">
<g transform="translate(0.000000,256.000000) scale(0.100000,-0.100000)">
	<path fill="#FFFFFF" d="M1236,2458c-8-13-54-108-102-213c-48-104-89-191-90-193s-17-6-36-8c-18-3-71-12-119-20c-47-7-98-16-115-18
		c-132-16-148-20-171-41c-20-16-24-27-20-46c4-13,57-76,118-139s131-135,154-160l43-45l-13-80c-7-44-16-96-19-115
		c-25-148-39-268-33-283c3-9,18-19,33-23c32-8,37-6,311,149l103,58l189-105c105-59,200-106,214-106c57,0,57,33,7,330l-30,175l54,55
		c161,166,252,263,259,276c22,40-21,79-98,88c-27,3-66,9-85,12c-211,34-273,44-275,46s-31,66-66,143c-115,255-130,280-166,283
		C1259,2480,1248,2476,1236,2458z M1351,2014c10-13,13-75,14-282c0-294-2-304-63-308c-59-4-65,14-66,214l-2,177l-59,1
		c-79,2-74,1-84,27c-12,31,3,54,41,62c63,12,88,28,123,76C1292,2033,1325,2045,1351,2014z"/>
	<path fill="#FFFFFF" d="M567,1269c-20-3-42-10-49-16c-174-135-307-248-316-268c-9-19-12-141-12-430V151l34-35c18-20,42-36,52-37
		c11,0,468-1,1017-1c984-1,998-1,1025,19c15,11,33,31,39,44c17,32,18,809,2,842c-13,26-26,38-184,165c-66,53-134,104-151,112
		c-27,13-88,17-185,11c-15-1-16-7-7-43c13-58,13-137,0-169c-21-53-77-95-137-102c-43-6-100,18-264,111c-92,53-151,80-162,77
		c-10-3-55-28-101-54c-143-82-252-136-273-136c-106,5-181,76-178,170c1,34,15,130,20,138c2,4-6,7-19,8c-13,0-44,1-69,2
		C623,1274,587,1272,567,1269z M2006,752c25-16,30-54,29-199c0-126-3-156-17-169c-14-15-87-16-738-16c-651-1-723,1-738,16
		c-13,13-16,42-17,168c-2,145,4,184,29,200C568,762,1992,762,2006,752z"/>
</g>
</svg>
