<?xml version="1.0" encoding="utf-8"?>
<!-- Generator: Adobe Illustrator 16.0.0, SVG Export Plug-In . SVG Version: 6.00 Build 0)  -->
<!DOCTYPE svg PUBLIC "-//W3C//DTD SVG 1.1//EN" "http://www.w3.org/Graphics/SVG/1.1/DTD/svg11.dtd">
<svg version="1.1" id="Capa_1" xmlns="http://www.w3.org/2000/svg" xmlns:xlink="http://www.w3.org/1999/xlink" x="0px" y="0px"
	 width="300px" height="300px" viewBox="0 0 300 300" enable-background="new 0 0 300 300" xml:space="preserve">
<g id="Forma_1">
	<g>
		<path fill="#FFFFFF" d="M231.645,12.976h-46.937L182.8,4.399c-0.655-2.988-3.31-5.116-6.37-5.116h-52.871
			c-3.061,0-5.703,2.128-6.369,5.116l-1.898,8.576H68.345c-17.173,0-31.136,13.976-31.136,31.158v225.425
			c0,17.182,13.963,31.158,31.136,31.158h163.3c17.174,0,31.146-13.977,31.146-31.158V44.134
			C262.79,26.952,248.817,12.976,231.645,12.976z M242.438,269.557c0,5.953-4.84,10.795-10.793,10.795H68.344
			c-5.943,0-10.782-4.842-10.782-10.795V44.134c0-5.951,4.839-10.793,10.782-10.793h42.425l-1.083,4.872
			c-0.438,1.934,0.04,3.962,1.272,5.504c1.242,1.546,3.12,2.447,5.098,2.447h67.886c1.979,0,3.856-0.9,5.088-2.447
			c1.243-1.546,1.72-3.569,1.283-5.504l-1.083-4.872h42.415c5.953,0,10.793,4.842,10.793,10.793V269.557z M108.692,119.932h27.677
			l-6.578-4.494c-9.283-6.338-11.668-19.013-5.328-28.299c6.332-9.277,19.003-11.678,28.284-5.33l1.084,0.741v-7.771
			c0-5.036-4.084-9.123-9.113-9.123h-36.025c-5.028,0-9.113,4.087-9.113,9.123v36.03
			C99.579,115.847,103.664,119.932,108.692,119.932z M193.434,69.917l-31.9,30.219l-14.53-9.918
			c-4.621-3.178-10.962-1.975-14.142,2.664c-3.17,4.643-1.978,10.978,2.674,14.15l21.298,14.551
			c1.739,1.194,3.736,1.775,5.733,1.775c2.535,0,5.048-0.944,6.997-2.789l37.863-35.866c4.084-3.863,4.253-10.312,0.397-14.394
			C203.947,66.229,197.518,66.054,193.434,69.917z M108.692,189.881h27.687l-6.588-4.498c-9.283-6.342-11.668-19.014-5.328-28.301
			c6.332-9.282,19.003-11.684,28.284-5.33l1.084,0.742v-7.771c0-5.036-4.084-9.124-9.113-9.124h-36.025
			c-5.028,0-9.113,4.087-9.113,9.124v36.035C99.579,185.795,103.664,189.881,108.692,189.881z M193.434,139.865l-31.9,30.213
			l-14.53-9.918c-4.621-3.184-10.962-1.984-14.142,2.664c-3.17,4.645-1.978,10.979,2.674,14.15l21.298,14.553
			c1.739,1.193,3.736,1.773,5.733,1.773c2.535,0,5.048-0.945,6.997-2.789l37.863-35.861c4.084-3.862,4.253-10.305,0.397-14.393
			C203.947,136.175,197.518,136.006,193.434,139.865z M144.718,205.547h-36.025c-5.028,0-9.113,4.086-9.113,9.123v36.029
			c0,5.037,4.085,9.123,9.113,9.123h36.025c5.029,0,9.113-4.086,9.113-9.123V214.67
			C153.831,209.633,149.747,205.547,144.718,205.547z"/>
	</g>
</g>
</svg>
